<svg width="50" height="50" viewBox="0 0 50 50" fill="none" xmlns="http://www.w3.org/2000/svg">
<mask id="mask0_596_8357" style="mask-type:luminance" maskUnits="userSpaceOnUse" x="0" y="0" width="50" height="50">
<path d="M0.789062 0.25H49.7891V49.75H0.789062V0.25Z" fill="white"/>
</mask>
<g mask="url(#mask0_596_8357)">
<path d="M46.789 0.304688H3.78892C2.13892 0.304688 0.789062 2.17156 0.789062 4.45354V49.7191H49.7891V4.45354C49.7891 2.17156 48.4392 0.304688 46.7896 0.304688H46.789ZM5.01827 5.72817C4.54679 5.72817 4.16383 5.19853 4.16383 4.54646C4.16383 3.89439 4.54679 3.36475 5.01827 3.36475C5.48975 3.36475 5.87271 3.89439 5.87271 4.54646C5.87271 5.19853 5.49013 5.72817 5.01827 5.72817ZM7.58084 5.72817C7.10936 5.72817 6.72641 5.19853 6.72641 4.54646C6.72641 3.89439 7.1086 3.36475 7.58084 3.36475C8.05309 3.36475 8.43528 3.89439 8.43528 4.54646C8.43528 5.19853 8.05271 5.72817 7.58084 5.72817ZM9.28891 4.54752C9.28891 3.89545 9.67186 3.36582 10.1433 3.36582C10.6148 3.36582 10.9978 3.89545 10.9978 4.54752C10.9978 5.19959 10.6156 5.72923 10.1433 5.72923C9.6711 5.72923 9.28891 5.20012 9.28891 4.54752ZM29.047 40.318H9.97555V38.5421H29.047V40.318ZM29.047 34.9907H9.97555V33.2148H29.047V34.9907ZM29.047 29.6638H9.97555V27.8878H29.047V29.6638ZM29.047 24.3374H9.97555V22.5615H29.047V24.3374ZM29.047 19.0101H9.97555V17.2342H29.047V19.0101ZM40.6014 43.553H32.8978V13.9095H40.6014V43.553ZM42.1633 6.62168H18.6636C17.8384 6.62168 17.1637 5.68799 17.1637 4.54725C17.1637 3.40601 17.8388 2.47283 18.6636 2.47283H42.1633C42.9885 2.47283 43.6632 3.40652 43.6632 4.54725C43.6628 5.68797 42.9877 6.62168 42.1629 6.62168H42.1633Z" fill="#183F30"/>
</g>
</svg>
