<svg width="1729" height="1028" viewBox="0 0 1729 1028" fill="none" xmlns="http://www.w3.org/2000/svg">
<g opacity="0.4">
<path d="M1215.85 717.442C1225.81 716.207 1235.46 714.639 1244.69 712.753C1264.04 708.798 1281.68 703.414 1297.14 696.749C1313.76 689.587 1328.02 680.867 1339.52 670.832C1362.63 650.663 1372.65 628.698 1382.33 607.455C1384.23 603.284 1386.2 598.971 1388.22 594.772C1402.01 566.152 1420.85 540.244 1445.81 515.57C1495.6 466.348 1568.68 420.55 1657.16 383.126C1759.49 339.847 1871.78 310.689 1973.35 301.024C2033.05 295.344 2113.74 301.686 2152.45 324.796C2175.43 338.512 2179.47 356.391 2164.15 376.499L2164.51 376.531C2172.54 365.986 2175.35 356.065 2172.84 347.044C2170.54 338.769 2163.79 331.238 2152.77 324.661C2135.25 314.2 2107.59 306.431 2072.78 302.193C2040.62 298.279 2005.31 297.797 1973.35 300.839C1920.19 305.898 1864.31 316.216 1807.24 331.507C1755.51 345.37 1704.94 362.692 1656.94 382.994C1568.41 420.439 1495.28 466.263 1445.46 515.513C1420.49 540.204 1401.64 566.126 1387.84 594.762C1385.82 598.962 1383.85 603.276 1381.95 607.447C1372.28 628.674 1362.27 650.623 1339.19 670.763C1316.86 690.243 1285.04 704.312 1244.6 712.578C1188.6 724.025 1118.67 723.264 1057.56 710.539C969.488 692.202 905.499 657.556 843.615 624.052C832.767 618.179 821.553 612.106 810.472 606.274C781.704 591.127 742.884 571.69 697.677 555.691C651.468 539.338 605.311 528.836 556.566 523.583C526.73 520.368 495.453 519.586 463.604 521.261C434.187 522.807 403.32 526.503 371.858 532.241C317.89 542.086 260.459 558.121 196.278 581.26C69.9072 626.824 -55.5019 678.662 -176.463 735.335C-291.434 789.2 -403.425 847.909 -509.323 909.827L-509.044 909.927C-289.524 781.576 -52.1573 671.045 196.469 581.401C336.936 530.756 451.31 512.441 556.413 523.765C663.34 535.285 741.561 570.295 810.165 606.413C821.242 612.244 832.456 618.317 843.304 624.189C905.205 657.706 969.215 692.363 1057.35 710.712C1085.83 716.642 1117.44 720.102 1148.78 720.716C1165.34 721.041 1181.69 720.568 1197.39 719.311C1203.65 718.816 1209.81 718.19 1215.85 717.442Z" fill="#F47C2A"/>
<path d="M1203.08 705.99C1228.49 702.834 1251.73 697.648 1272.18 690.569C1294.98 682.676 1314.21 672.445 1329.33 660.162C1330.67 659.074 1332 657.957 1333.27 656.839C1356.11 636.77 1366.71 614.996 1376.96 593.939C1379.04 589.683 1381.18 585.282 1383.37 580.996C1396.45 555.477 1413.2 532.338 1434.57 510.258C1437.2 507.54 1439.94 504.804 1442.71 502.125C1493.34 453.151 1567.1 407.711 1656.01 370.716C1759.15 327.827 1871.84 299.219 1973.31 290.162C2032.62 284.89 2112.98 291.519 2151.83 314.391C2175.09 328.087 2179.86 345.915 2165.62 365.946L2165.99 365.974C2173.45 355.475 2175.78 345.592 2172.92 336.604C2170.3 328.349 2163.31 320.83 2152.15 314.257C2134.46 303.841 2106.88 296.056 2072.38 291.745C2040.5 287.759 2005.32 287.132 1973.32 289.978C1920.19 294.72 1864.2 304.741 1806.91 319.761C1755.02 333.366 1704.18 350.467 1655.8 370.585C1566.83 407.601 1493.04 453.068 1442.37 502.07C1439.6 504.75 1436.86 507.489 1434.23 510.209C1412.84 532.303 1396.09 555.455 1383 580.987C1380.81 585.273 1378.66 589.675 1376.59 593.933C1366.34 614.977 1355.75 636.734 1332.94 656.776C1331.67 657.89 1330.35 659.007 1329.01 660.092C1297.76 685.481 1252.13 699.898 1202.96 706.005C1202.69 706.038 1202.42 706.071 1202.15 706.105C1202.46 706.065 1202.77 706.028 1203.08 705.99ZM1192.57 707.166C1146.72 711.746 1098.47 709.388 1056.4 702.191C965.633 686.559 897.534 653.462 831.673 621.455C828.961 620.136 826.25 618.82 823.539 617.503C817.585 614.615 810.528 611.196 803.331 607.76C771.047 592.352 732.093 574.596 687.964 559.741C641.011 543.934 594.821 533.613 546.758 528.187C517.226 524.861 486.334 523.77 454.941 524.946C425.855 526.036 395.368 529.109 364.339 534.079C310.733 542.666 253.771 557.056 190.196 578.071C128.21 598.542 77.4533 616.868 30.4626 635.745C-36.1044 662.505 -99.0352 691.628 -151.818 716.587C-274.512 774.732 -394.042 838.299 -507.091 905.523L-506.812 905.622C-393.777 838.407 -274.258 774.845 -151.578 716.707C-98.8037 691.752 -35.8838 662.634 30.6684 635.881C77.6478 617.009 128.39 598.688 190.365 578.223C328.858 532.44 442.058 516.598 546.602 528.371C655.111 540.618 735.861 575.847 803.033 607.907C810.234 611.343 817.287 614.76 823.241 617.65C825.952 618.965 828.663 620.283 831.375 621.602C897.256 653.619 965.381 686.728 1056.21 702.372C1078.73 706.223 1102.46 708.557 1126.74 709.307C1149.35 710.001 1171.44 709.281 1192.57 707.166Z" fill="#F47C2A"/>
<path d="M1189.35 694.939C1192.41 694.558 1195.45 694.15 1198.45 693.712C1223.77 690.028 1246.9 684.38 1267.21 676.922C1289.42 668.765 1308.24 658.435 1323.13 646.219C1324.45 645.131 1325.76 644.013 1327.03 642.895C1349.6 622.938 1360.77 601.361 1371.58 580.497C1373.83 576.149 1376.17 571.651 1378.55 567.271C1392.43 541.728 1409.7 518.686 1431.36 496.826C1434.04 494.123 1436.82 491.4 1439.64 488.732C1491.12 440.009 1565.55 394.929 1654.89 358.367C1758.85 315.871 1871.93 287.814 1973.3 279.369C2030.38 274.65 2110.4 280.358 2151.2 304.038C2174.77 317.718 2180.28 335.503 2167.13 355.469L2167.5 355.491C2174.39 345.031 2176.25 335.184 2173.03 326.224C2170.08 317.982 2162.84 310.473 2151.52 303.903C2133.66 293.541 2106.15 285.748 2071.97 281.365C2040.37 277.312 2005.33 276.539 1973.31 279.186C1920.2 283.612 1864.11 293.333 1806.61 308.079C1754.56 321.429 1703.44 338.303 1654.68 358.236C1565.29 394.821 1490.81 439.926 1439.3 488.677C1436.49 491.346 1433.7 494.07 1431.02 496.776C1409.35 518.649 1392.07 541.705 1378.19 567.262C1375.8 571.643 1373.47 576.141 1371.22 580.489C1360.41 601.342 1349.24 622.903 1326.7 642.837C1325.44 643.954 1324.13 645.07 1322.81 646.154C1262.3 695.792 1144.83 705.889 1055.25 693.877C961.148 681.051 888.296 649.336 817.841 618.667L817.118 618.352C810.294 615.378 803.238 612.305 796.218 609.277C722.153 577.334 641.124 545.117 536.98 532.815C507.745 529.375 477.233 527.975 446.302 528.651C417.531 529.281 387.432 531.731 356.843 535.933C303.511 543.259 247.018 556.002 184.132 574.893C118.037 594.705 68.5499 611.513 23.6704 629.396C-40.2682 654.911 -101.534 684.721 -155.586 711.023C-275.903 769.813 -393.414 833.798 -504.853 901.196L-504.57 901.293C-393.141 833.901 -275.642 769.923 -155.339 711.139C-101.294 684.842 -40.04 655.036 23.8799 629.53C68.7407 611.653 118.213 594.849 184.285 575.044C320.598 534.097 432.618 520.735 536.824 532.993C640.9 545.288 721.895 577.49 795.932 609.423C802.951 612.451 810.008 615.525 816.832 618.497L817.555 618.812C852.665 634.096 888.969 649.899 927.682 663.234C971.189 678.218 1012.86 688.3 1055.09 694.054C1099.25 699.975 1146.55 700.265 1189.35 694.939Z" fill="#F47C2A"/>
<path d="M-502.199 896.778C-392.323 829.27 -276.797 764.939 -158.833 705.574C-153.833 703.073 -148.827 700.562 -143.802 698.044C-92.6929 672.417 -39.8455 645.918 17.4133 623.277C72.9683 601.353 130.051 585.077 178.565 572.048C312.463 535.965 423.316 525.137 527.43 537.969C634.318 551.218 720.171 584.591 789.154 611.408C793.294 613.018 797.427 614.632 801.568 616.247C804.624 617.44 807.683 618.632 810.742 619.822C850.022 635.112 885.712 648.711 924.698 660.323C969.236 673.587 1011.6 682.091 1054.23 686.321C1094.17 690.286 1136.23 689.786 1174.77 685.001C1181.8 684.129 1188.7 683.117 1195.46 681.96C1220.13 677.74 1242.69 671.69 1262.52 663.977C1284.15 655.561 1302.55 645.136 1317.23 632.99C1318.54 631.902 1319.84 630.784 1321.1 629.666C1343.39 609.84 1355.15 588.48 1366.52 567.824C1368.97 563.375 1371.51 558.773 1374.09 554.29C1388.8 528.726 1406.62 505.789 1428.56 484.169C1431.29 481.479 1434.12 478.772 1436.99 476.121C1489.35 427.678 1564.49 382.999 1654.28 346.914C1759.09 304.866 1872.58 277.42 1973.85 269.631C2043.1 264.37 2115.96 274.719 2151.06 294.796C2174.97 308.474 2181.22 326.225 2169.14 346.129L2169.51 346.147C2175.83 335.726 2177.23 325.909 2173.65 316.97C2170.35 308.739 2162.86 301.233 2151.37 294.66C2133.36 284.351 2105.94 276.541 2072.09 272.077C2040.78 267.949 2005.9 267.014 1973.87 269.448C1920.78 273.53 1864.59 282.924 1806.86 297.368C1754.63 310.434 1703.23 327.059 1654.07 346.779C1564.22 382.886 1489.04 427.59 1436.65 476.062C1433.78 478.716 1430.94 481.425 1428.21 484.115C1406.26 505.747 1388.43 528.696 1373.72 554.273C1371.13 558.757 1368.6 563.358 1366.15 567.808C1354.78 588.452 1343.03 609.798 1320.76 629.601C1319.51 630.717 1318.21 631.833 1316.9 632.919C1253.77 685.163 1136.02 694.238 1054.37 686.136C956.956 676.468 879.424 646.292 811.015 619.667C807.956 618.475 804.901 617.282 801.842 616.092C797.704 614.476 793.567 612.863 789.427 611.253C750.051 595.946 711.206 581.143 668.953 568.304C620.363 553.539 574.12 543.557 527.587 537.788C498.638 534.22 468.517 532.494 438.057 532.661C409.589 532.816 379.873 534.629 349.734 538.049C296.58 544.081 240.542 555.152 178.427 571.889C129.898 584.924 72.7886 601.207 17.2042 623.144C-40.0812 645.794 -92.9395 672.299 -144.059 697.931C-149.081 700.449 -154.091 702.96 -159.091 705.461C-277.066 764.831 -392.603 829.169 -502.49 896.684L-502.199 896.778Z" fill="#F47C2A"/>
<path d="M-499.656 892.077C-389.213 823.234 -275.612 758.617 -161.999 700.023C-155.201 696.517 -148.25 692.91 -141.527 689.423C-93.377 664.448 -43.5895 638.623 11.3408 617.14C66.1997 595.739 123.982 580.926 173.274 569.259C304.461 538.063 414.152 529.827 518.475 543.341C617.993 556.321 698.284 584.394 775.932 611.542L784.459 614.522C791.193 616.877 798.156 619.31 805.019 621.693C882.714 648.625 960.193 673.291 1053.69 679.264C1076.38 680.713 1099.49 680.806 1122.4 679.543C1147 678.185 1170.69 675.287 1192.81 670.927C1216.84 666.192 1238.83 659.76 1258.17 651.808C1279.21 643.155 1297.22 632.648 1311.69 620.583C1312.99 619.492 1314.28 618.375 1315.53 617.261C1337.56 597.592 1349.9 576.47 1361.83 556.043C1364.5 551.485 1367.25 546.77 1370.06 542.177C1385.63 516.598 1404 493.781 1426.24 472.42C1429.01 469.751 1431.9 467.059 1434.82 464.422C1488.1 416.295 1563.98 372.063 1654.27 336.508C1759.96 294.973 1873.88 268.2 1975.07 261.125C2043.74 256.401 2116.29 266.979 2151.49 286.852C2175.75 300.544 2182.75 318.273 2171.74 338.123L2172.11 338.138C2177.88 327.751 2178.8 317.96 2174.87 309.037C2171.24 300.811 2163.48 293.301 2151.81 286.717C2133.64 276.459 2106.32 268.628 2072.82 264.071C2041.82 259.852 2007.11 258.742 1975.09 260.943C1922.02 264.654 1865.72 273.688 1807.75 287.796C1755.34 300.55 1703.63 316.893 1654.07 336.373C1563.73 371.948 1487.81 416.207 1434.5 464.362C1431.58 467.001 1428.68 469.695 1425.9 472.364C1403.66 493.736 1385.27 516.565 1369.69 542.157C1366.89 546.751 1364.13 551.467 1361.47 556.025C1349.54 576.441 1337.21 597.553 1315.2 617.199C1313.96 618.308 1312.67 619.424 1311.37 620.515C1249.76 671.888 1137.93 684.453 1053.82 679.079C960.397 673.112 882.95 648.454 805.288 621.535C798.426 619.152 791.462 616.719 784.729 614.364L776.202 611.384C738.086 598.059 698.676 584.278 656.245 572.17C608.188 558.457 563.178 548.968 518.647 543.158C489.978 539.444 460.242 537.379 430.269 537.02C402.089 536.682 372.756 537.842 343.085 540.467C289.993 545.163 234.417 554.528 173.167 569.093C123.852 580.766 66.0387 595.585 11.143 617.003C-43.8177 638.495 -93.6196 664.328 -141.781 689.31C-148.504 692.797 -155.455 696.402 -162.253 699.91C-275.876 758.508 -389.489 823.13 -499.939 891.98L-499.656 892.077Z" fill="#F47C2A"/>
<path d="M-497.115 887.357C-387.68 818.131 -275.997 753.224 -165.171 694.442C-156.841 690.025 -148.309 685.447 -140.059 681.021C-94.5831 656.624 -47.5578 631.397 5.26686 610.969C59.9156 589.895 118.178 576.631 167.969 566.437C296.046 540.049 404.567 534.405 509.49 548.672C601.067 561.221 678.051 585.473 752.503 608.927C760.337 611.395 768.439 613.946 776.331 616.413C785.599 619.31 792.676 621.506 799.278 623.532C834.634 634.375 876.654 646.699 920.269 655.889C966.487 665.625 1009.95 670.958 1053.16 672.192C1075.87 672.841 1098.79 672.197 1121.28 670.277C1145.43 668.217 1168.61 664.717 1190.19 659.874C1213.56 654.628 1234.98 647.813 1253.84 639.618C1274.29 630.733 1291.89 620.145 1306.16 608.152C1307.45 607.066 1308.74 605.949 1309.98 604.834C1331.73 585.336 1344.63 564.463 1357.11 544.277C1360 539.595 1363 534.755 1366.03 530.037C1382.48 504.437 1401.42 481.741 1423.93 460.647C1426.76 457.994 1429.7 455.321 1432.68 452.699C1486.87 404.887 1563.49 361.103 1654.26 326.078C1760.82 285.056 1875.18 258.961 1976.28 252.597C2033.81 249.05 2110.41 255.795 2151.87 278.856C2176.51 292.567 2184.28 310.286 2174.33 330.098L2174.71 330.107C2179.91 319.747 2180.36 309.975 2176.05 301.062C2172.07 292.834 2164.04 285.317 2152.18 278.719C2133.84 268.519 2106.64 260.674 2073.5 256.028C2042.8 251.725 2008.28 250.442 1976.3 252.413C1923.24 255.752 1866.83 264.427 1808.62 278.198C1756.04 290.639 1704.04 306.701 1654.06 325.942C1563.24 360.986 1486.57 404.795 1432.35 452.635C1429.37 455.257 1426.43 457.934 1423.6 460.588C1401.08 481.693 1382.13 504.402 1365.67 530.014C1362.63 534.734 1359.64 539.574 1356.74 544.256C1344.27 564.432 1331.37 585.293 1309.65 604.77C1308.41 605.883 1307.12 606.998 1305.84 608.082C1254.58 651.159 1160.16 675.056 1053.25 672.003C956.441 669.239 874.826 646.46 799.527 623.366C792.925 621.34 785.851 619.143 776.584 616.246C768.692 613.78 760.589 611.229 752.756 608.76C716.103 597.214 678.206 585.275 638.055 574.667C592.653 562.669 550.651 554.106 509.654 548.489C481.244 544.626 451.901 542.22 422.434 541.34C394.523 540.505 365.575 541.013 336.394 542.847C283.262 546.188 228.139 553.848 167.88 566.263C118.063 576.464 59.758 589.735 5.06437 610.827C-47.7937 631.268 -94.8299 656.502 -140.32 680.906C-148.57 685.332 -157.103 689.91 -165.432 694.328C-276.266 753.116 -387.96 818.028 -497.406 887.259L-497.115 887.357Z" fill="#F47C2A"/>
<path d="M-494.598 882.656C-386.177 813.042 -276.417 747.841 -168.369 688.867C-159.176 683.851 -149.749 678.612 -140.628 673.546C-97.1839 649.413 -52.2659 624.461 -0.838744 604.797C53.8935 583.934 112.505 572.271 162.623 563.613C285.393 542.236 395.898 539.09 500.446 553.995C583.704 565.962 656.408 586.677 726.718 606.712C740.921 610.758 755.603 614.944 769.865 618.9C778.59 621.323 786.316 623.442 793.494 625.377C826.873 634.361 871.196 645.696 918.03 653.668C965.088 661.677 1009.11 665.429 1052.61 665.136C1100.05 664.817 1146.72 659.179 1187.56 648.833C1210.28 643.08 1231.12 635.883 1249.51 627.441C1269.36 618.326 1286.56 607.658 1300.64 595.735C1301.91 594.65 1303.19 593.533 1304.42 592.42C1325.87 573.109 1339.32 552.503 1352.31 532.577C1355.46 527.757 1358.71 522.773 1362.01 517.914C1379.34 492.288 1398.84 469.709 1421.61 448.89C1424.49 446.255 1427.49 443.598 1430.51 440.993C1485.62 393.497 1562.98 350.16 1654.23 315.669C1761.66 275.162 1876.45 249.743 1977.45 244.09C2045.92 240.355 2116.12 251.109 2152.14 270.849C2177.21 284.585 2185.77 302.307 2176.9 322.099L2177.28 322.102C2181.92 311.76 2181.88 301.998 2177.19 293.09C2172.85 284.856 2164.53 277.326 2152.45 270.71C2133.96 260.577 2106.87 252.723 2074.11 247.999C2043.72 243.617 2009.41 242.161 1977.49 243.903C1924.45 246.871 1867.92 255.188 1809.48 268.621C1756.72 280.749 1704.41 296.531 1654.03 315.528C1562.73 350.04 1485.33 393.401 1430.18 440.927C1427.16 443.532 1424.17 446.19 1421.28 448.828C1398.5 469.659 1378.99 492.248 1361.64 517.887C1358.34 522.746 1355.09 527.731 1351.95 532.552C1338.96 552.468 1325.52 573.064 1304.1 592.355C1302.86 593.469 1301.59 594.581 1300.31 595.666C1249.94 638.346 1157.36 664.245 1052.68 664.95C957.239 665.59 871.82 646.228 793.732 625.21C786.557 623.275 778.827 621.158 770.107 618.735C755.849 614.778 741.162 610.595 726.964 606.548C656.637 586.51 583.921 565.789 500.623 553.818C472.448 549.8 443.491 547.057 414.558 545.66C386.885 544.326 358.323 544.182 329.666 545.232C276.371 547.185 221.712 553.142 162.565 563.44C112.414 572.104 53.752 583.775 -1.03602 604.661C-52.5007 624.339 -97.437 649.301 -140.896 673.443C-150.016 678.509 -159.444 683.746 -168.637 688.762C-276.692 747.741 -386.463 812.947 -494.891 882.565L-494.598 882.656Z" fill="#F47C2A"/>
<path d="M-492.054 877.93C-384.659 807.922 -276.823 742.425 -171.543 683.257C-161.87 677.819 -151.931 672.099 -142.325 666.567C-100.547 642.518 -57.3508 617.649 -6.91678 598.582C48.0921 577.856 106.963 567.826 157.3 560.747C275.909 543.896 385.198 543.412 491.404 559.271C565.898 570.487 633.247 587.937 698.381 604.811C720.776 610.614 741.931 616.095 763.406 621.347C772.142 623.485 780.093 625.394 787.719 627.18C836.924 638.687 877.625 646.387 915.81 651.411C963.715 657.716 1008.29 659.888 1052.08 658.052C1069.07 657.339 1085.92 655.971 1102.37 653.983C1131.55 650.458 1159.51 644.984 1184.98 637.759C1231.08 624.683 1268.14 606.353 1295.15 583.279C1296.42 582.186 1297.69 581.073 1298.91 579.966C1320.04 560.86 1333.99 540.545 1347.48 520.896C1350.9 515.918 1354.43 510.773 1358.01 505.751C1376.25 480.091 1396.31 457.633 1419.33 437.096C1422.26 434.477 1425.31 431.838 1428.38 429.25C1484.4 382.071 1562.5 339.181 1654.22 305.221C1762.53 265.233 1877.74 240.489 1978.65 235.546C2047.46 232.279 2115.65 242.964 2152.37 262.772C2177.89 276.539 2187.27 294.278 2179.49 314.069L2179.87 314.069C2183.93 303.734 2183.41 293.975 2178.32 285.064C2173.6 276.815 2164.98 269.269 2152.67 262.634C2134.03 252.575 2107.06 244.723 2074.69 239.926C2044.62 235.469 2010.53 233.849 1978.69 235.361C1925.67 237.957 1869.03 245.914 1810.36 259.009C1757.42 270.827 1704.82 286.327 1654.03 305.08C1562.25 339.061 1484.11 381.974 1428.05 429.181C1424.98 431.771 1421.93 434.411 1418.99 437.032C1395.97 457.58 1375.9 480.05 1357.65 505.72C1354.07 510.742 1350.53 515.889 1347.12 520.867C1333.63 540.506 1319.69 560.813 1298.58 579.902C1297.35 581.007 1296.09 582.12 1294.82 583.211C1244.39 626.301 1155.93 653.511 1052.13 657.864C953.318 662.007 863.133 644.591 787.94 627.007C780.318 625.221 772.367 623.313 763.631 621.175C742.16 615.923 721.005 610.444 698.61 604.641C633.467 587.762 566.102 570.311 491.58 559.09C463.6 554.912 435.034 551.83 406.672 549.927C379.203 548.085 351.028 547.289 322.933 547.563C269.352 548.087 215.158 552.341 157.261 560.567C106.882 567.651 47.9577 577.691 -7.11459 598.442C-57.5901 617.522 -100.805 642.402 -142.596 666.461C-152.207 671.993 -162.142 677.713 -171.811 683.148C-277.099 742.321 -384.942 807.824 -492.344 877.837L-492.054 877.93Z" fill="#F47C2A"/>
<path d="M-489.525 873.23C-381.666 801.829 -278.698 737.857 -174.736 677.658C-164.814 671.914 -155.071 666.095 -144.752 659.934C-104.418 635.849 -62.711 610.946 -13.0143 592.376C42.7268 571.615 104.423 563.04 151.945 557.89C265.608 545.399 373.676 547.577 482.317 564.55C547.51 574.82 608.322 589.25 667.134 603.206C698.043 610.541 727.236 617.467 756.916 623.804C765.726 625.687 773.906 627.385 781.914 628.995C831.557 638.951 873.39 645.361 913.574 649.169C962.348 653.791 1007.48 654.386 1051.55 650.99C1074.2 649.244 1096.55 646.379 1117.98 642.475C1140.67 638.341 1162.34 633.033 1182.4 626.701C1226.85 612.665 1262.94 593.872 1289.66 570.841C1290.92 569.749 1292.18 568.635 1293.39 567.531C1314.17 548.658 1328.6 528.656 1342.55 509.313C1346.27 504.152 1350.12 498.815 1354.02 493.608C1373.18 467.908 1393.79 445.572 1417.03 425.322C1420.02 422.72 1423.12 420.097 1426.24 417.527C1483.17 370.665 1562 328.225 1654.2 294.796C1739.31 264.026 1828.38 242.612 1911.26 232.665C1934.69 229.853 1957.61 227.959 1979.83 227.026C2047.86 224.272 2115.63 235.129 2152.5 254.685C2178.52 268.49 2188.74 286.259 2182.07 306.068L2182.45 306.062C2185.93 295.725 2184.91 285.961 2179.41 277.041C2174.31 268.772 2165.36 261.203 2152.81 254.545C2134 244.568 2107.17 236.726 2075.21 231.863C2045.04 227.273 2012.07 225.536 1979.88 226.841C1926.88 229.066 1870.13 236.664 1811.23 249.421C1758.11 260.923 1705.21 276.141 1654.01 294.652C1561.76 328.1 1482.88 370.565 1425.92 417.455C1422.79 420.025 1419.69 422.65 1416.7 425.254C1393.45 445.514 1372.82 467.861 1353.65 493.573C1349.76 498.78 1345.91 504.118 1342.18 509.28C1328.24 528.615 1313.82 548.609 1293.06 567.467C1291.84 568.57 1290.58 569.683 1289.33 570.773C1239.35 613.84 1152.7 643.008 1051.56 650.804C949.228 658.691 853.809 643.196 782.111 628.818C774.103 627.207 765.927 625.509 757.117 623.628C727.442 617.294 698.252 610.366 667.347 603.032C608.527 589.075 547.707 574.641 482.49 564.368C426.556 555.63 372.15 550.899 316.157 549.903C262.157 548.943 208.433 551.496 151.922 557.706C119.677 561.201 93.4863 564.995 69.498 569.645C38.5264 575.65 11.4709 583.038 -13.2202 592.234C-62.9615 610.821 -104.686 635.737 -145.042 659.833C-155.358 665.994 -165.105 671.812 -175.019 677.555C-278.984 737.756 -381.96 801.732 -489.826 873.138L-489.525 873.23Z" fill="#F47C2A"/>
<path d="M-486.991 868.488C-380.19 796.673 -279.093 732.404 -177.927 672.005C-167.92 666.029 -158.077 659.929 -147.656 653.471C-108.612 629.273 -68.2411 604.25 -19.1155 586.107C37.1294 565.402 98.9801 558.592 146.578 554.971C254.27 546.618 361.11 551.457 473.202 569.761C528.44 578.853 581.401 590.48 632.62 601.726C673.109 610.614 711.349 619.012 750.402 626.198C759.228 627.825 767.874 629.356 776.092 630.748C825.615 639.125 869.852 644.398 911.329 646.87C960.994 649.829 1006.69 648.852 1051.03 643.879C1073.59 641.348 1095.75 637.741 1116.9 633.155C1139.06 628.347 1160.24 622.438 1179.83 615.587C1222.59 600.635 1257.7 581.376 1284.19 558.344C1285.43 557.257 1286.68 556.144 1287.89 555.035C1308.29 536.428 1323.15 516.776 1337.52 497.771C1341.58 492.394 1345.79 486.832 1350.03 481.406C1370.13 455.659 1391.3 433.445 1414.75 413.491C1417.79 410.906 1420.94 408.3 1424.11 405.747C1481.95 359.203 1561.52 317.212 1654.19 284.314C1764.22 245.367 1880.29 221.976 1981.01 218.453C2048.21 216.199 2115.54 227.212 2152.54 246.506C2179.1 260.356 2190.2 278.169 2184.65 298.02L2185.03 298.009C2187.92 287.661 2186.39 277.881 2180.46 268.944C2174.95 260.647 2165.67 253.05 2152.85 246.366C2133.9 236.48 2107.21 228.655 2075.67 223.735C2045.84 219.082 2013.13 217.191 1981.06 218.266C1928.08 220.121 1871.23 227.357 1812.09 239.775C1758.8 250.968 1705.61 265.904 1654 284.17C1561.27 317.085 1481.67 359.101 1423.79 405.673C1420.62 408.227 1417.47 410.835 1414.43 413.422C1390.96 433.386 1369.78 455.61 1349.68 481.368C1345.43 486.795 1341.22 492.356 1337.15 497.736C1322.79 516.732 1307.94 536.376 1287.56 554.97C1286.35 556.077 1285.1 557.19 1283.86 558.275C1233.37 602.181 1150.67 632.521 1051.01 643.694C970.147 652.763 882.849 648.591 776.28 630.566C768.067 629.174 759.425 627.644 750.599 626.017C711.558 618.831 673.318 610.438 632.836 601.548C581.61 590.302 528.64 578.672 473.386 569.577C416.871 560.348 363.223 554.658 309.374 552.177C254.82 549.665 201.573 550.516 146.59 554.781C98.941 558.404 37.0173 565.225 -19.3137 585.963C-68.4915 604.126 -108.884 629.161 -147.947 653.37C-158.364 659.828 -168.207 665.926 -178.211 671.899C-279.384 732.302 -380.484 796.575 -487.289 868.394L-486.991 868.488Z" fill="#F47C2A"/>
<path d="M-484.476 863.781C-378.745 791.548 -279.526 726.976 -181.145 666.375C-171.158 660.223 -161.327 653.895 -150.922 647.196C-113.068 622.825 -73.9231 597.625 -25.2435 579.856C31.5761 559.183 93.5434 554.147 141.181 552.068C242.907 547.486 345.495 554.768 464.041 574.984C508.508 582.624 552.151 591.612 594.356 600.304C645.618 610.861 694.036 620.833 743.856 628.613C752.832 630.017 761.707 631.334 770.234 632.524C820.443 639.525 865.852 643.474 909.059 644.596C933.259 645.225 957.038 644.941 979.735 643.754C1003.95 642.487 1027.75 640.147 1050.49 636.802C1096.62 630.014 1139.26 619.146 1177.24 604.502C1218.26 588.687 1252.4 568.962 1278.7 545.872C1279.94 544.78 1281.17 543.667 1282.38 542.566C1302.35 524.267 1317.58 505.01 1332.31 486.389C1336.77 480.752 1341.38 474.923 1346.04 469.231C1367.09 443.429 1388.82 421.336 1412.46 401.688C1415.55 399.118 1418.75 396.529 1421.97 393.995C1480.72 347.767 1561.01 306.226 1654.16 273.864C1765.05 235.439 1881.54 212.728 1982.17 209.911C2089.94 207.043 2198.97 236.85 2187.2 290.006L2187.58 289.99C2190.53 276.692 2186.33 264.432 2175.12 253.546C2164.87 243.604 2149.01 234.984 2127.97 227.927C2108.41 221.366 2085.31 216.436 2059.3 213.275C2034.57 210.269 2007.91 209.039 1982.22 209.723C1929.26 211.206 1872.3 218.083 1812.94 230.164C1759.46 241.045 1705.98 255.699 1653.97 273.721C1560.77 306.104 1480.44 347.669 1421.65 393.923C1418.43 396.459 1415.23 399.048 1412.13 401.621C1388.48 421.277 1366.74 443.382 1345.68 469.195C1341.02 474.886 1336.41 480.715 1331.95 486.354C1317.23 504.97 1302 524.219 1282.04 542.507C1280.84 543.608 1279.61 544.72 1278.37 545.81C1227.82 590.185 1146.87 622.435 1050.44 636.626C968.806 648.637 877.206 647.239 770.404 632.347C761.881 631.156 753.01 629.841 744.034 628.437C694.226 620.659 645.816 610.687 594.562 600.131C552.353 591.438 508.706 582.449 464.231 574.808C345.636 554.583 243.001 547.299 141.221 551.882C109.211 553.279 82.857 555.633 58.2766 559.293C26.8544 563.972 -0.524476 570.651 -25.4331 579.714C-74.1693 597.502 -113.336 622.718 -151.212 647.102C-161.616 653.799 -171.444 660.127 -181.427 666.277C-279.815 726.882 -379.038 791.457 -484.773 863.693L-484.476 863.781Z" fill="#F47C2A"/>
<path d="M-481.943 859.046C-377.291 786.385 -279.943 721.507 -184.343 660.703C-174.45 654.411 -164.711 647.895 -154.4 640.993C-117.66 616.407 -79.6686 590.982 -31.3494 573.556C26.7494 552.665 91.868 549.604 135.796 549.118C255.001 547.647 363.988 563.981 454.874 580.158C487.545 586.011 520.204 592.439 551.792 598.655C615.157 611.125 675.006 622.903 737.307 630.985C746.469 632.175 755.574 633.277 764.375 634.261C815.372 639.937 861.958 642.564 906.792 642.287C957.617 641.973 1005.78 637.737 1049.96 629.693C1095.34 621.429 1137.31 609.211 1174.68 593.378C1213.89 576.772 1247.05 556.58 1273.25 533.36C1274.47 532.27 1275.7 531.158 1276.9 530.055C1296.38 512.125 1311.9 493.328 1326.92 475.148C1331.84 469.19 1336.93 463.031 1342.07 457.015C1364.4 430.791 1386.04 409.449 1410.18 389.847C1413.32 387.293 1416.58 384.723 1419.85 382.204C1479.51 336.296 1560.53 295.205 1654.15 263.373C1765.89 225.474 1882.81 203.439 1983.34 201.329C2091.58 199.195 2198.39 228.769 2189.77 281.96L2190.16 281.938C2192.3 268.742 2187.56 256.556 2176.09 245.719C2165.58 235.79 2149.64 227.156 2128.71 220.059C2109.2 213.44 2086.2 208.422 2060.37 205.141C2035.77 202.016 2009.16 200.634 1983.4 201.142C1930.45 202.253 1873.39 208.771 1813.8 220.512C1760.15 231.081 1706.37 245.453 1653.96 263.228C1560.29 295.078 1479.23 336.192 1419.54 382.127C1416.27 384.648 1413.01 387.22 1409.86 389.774C1385.71 409.386 1364.06 430.739 1341.72 456.974C1336.58 462.99 1331.49 469.151 1326.57 475.109C1311.56 493.283 1296.03 512.074 1276.57 529.995C1275.37 531.098 1274.15 532.208 1272.92 533.297C1221.99 578.434 1142.78 612.607 1049.89 629.52C966.582 644.69 873.241 646.179 764.529 634.078C755.732 633.096 746.627 631.996 737.472 630.805C675.188 622.724 615.347 610.949 551.994 598.479C520.406 592.264 487.742 585.834 455.067 579.98C393.952 569.104 343.312 561.713 295.713 556.72C239.678 550.843 187.392 548.295 135.863 548.931C104.446 549.278 77.2321 550.961 52.6628 554.078C21.0289 558.091 -6.5144 564.415 -31.5392 573.414C-79.922 590.862 -117.935 616.302 -154.697 640.903C-165.008 647.803 -174.744 654.32 -184.632 660.607C-280.24 721.413 -377.588 786.295 -482.247 858.959L-481.943 859.046Z" fill="#F47C2A"/>
<path d="M-479.408 854.307C-375.846 781.213 -280.377 716.024 -187.544 655.013C-177.809 648.615 -168.216 641.938 -158.061 634.868C-122.381 610.03 -85.4879 584.346 -37.4636 567.234C21.3149 546.347 86.485 545.196 130.395 546.148C238.821 548.372 337.333 565.198 445.681 585.304C465.224 588.952 485.006 592.763 504.139 596.45C577.722 610.627 653.806 625.286 730.744 633.336C740.09 634.316 749.433 635.204 758.508 635.974C809.672 640.307 858.798 641.648 904.524 639.959C956.324 638.046 1005.08 632.196 1049.45 622.572C1094.02 612.905 1135.3 599.334 1172.15 582.236C1209.44 564.932 1241.63 544.271 1267.82 520.827C1269.03 519.739 1270.25 518.627 1271.45 517.526C1290.34 500.047 1306.06 481.794 1321.26 464.142C1326.74 457.782 1332.41 451.206 1338.12 444.784C1361.46 418.486 1383.65 397.262 1407.93 377.99C1411.12 375.46 1414.42 372.905 1417.75 370.399C1478.3 324.806 1560.04 284.167 1654.14 252.868C1766.74 215.496 1884.06 194.141 1984.51 192.735C2089.39 191.384 2197.87 219.371 2192.35 273.903L2192.73 273.876C2194.06 260.777 2188.79 248.666 2177.07 237.877C2166.29 227.959 2150.27 219.313 2129.45 212.175C2091.05 199.008 2038.24 191.854 1984.58 192.547C1931.65 193.288 1874.48 199.445 1814.66 210.846C1760.84 221.104 1706.77 235.192 1653.96 252.72C1559.81 284.036 1478.03 324.701 1417.44 370.317C1414.11 372.825 1410.8 375.38 1407.61 377.912C1383.31 397.195 1361.12 418.427 1337.77 444.735C1332.06 451.159 1326.39 457.736 1320.91 464.096C1305.71 481.743 1289.99 499.993 1271.11 517.462C1269.92 518.563 1268.7 519.673 1267.49 520.762C1215.08 567.667 1139.65 602.813 1049.35 622.402C965.741 640.54 867.937 645.044 758.65 635.789C749.579 635.018 740.244 634.132 730.902 633.153C653.991 625.105 577.916 610.449 504.349 596.274C485.216 592.587 465.433 588.776 445.886 585.128C398.458 576.327 343.299 566.32 288.867 558.942C231.927 551.226 180.125 546.981 130.494 545.963C99.2455 545.286 71.9469 546.228 47.0464 548.843C15.6424 552.141 -12.8463 558.281 -37.6413 567.092C-59.1552 574.758 -80.5083 584.943 -102.921 598.232C-122.713 609.966 -140.833 622.582 -158.357 634.781C-168.509 641.85 -178.101 648.527 -187.833 654.923C-280.67 715.936 -376.142 781.127 -479.708 854.223L-479.408 854.307Z" fill="#F47C2A"/>
<path d="M-476.898 849.583C-374.434 776.048 -280.842 710.544 -190.773 649.327C-181.234 642.845 -171.833 636.03 -161.881 628.816C-127.225 603.699 -91.3913 577.726 -43.606 560.909C1.05206 545.226 56.1921 539.425 124.963 543.175C221.105 548.327 308.551 565.442 401.135 583.563C412.664 585.82 424.582 588.152 436.44 590.446C441.084 591.348 445.732 592.252 450.375 593.156C538.579 610.318 629.783 628.065 724.137 635.687C733.676 636.458 743.249 637.133 752.594 637.689C804.711 640.785 855.049 640.768 902.206 637.636C955.012 634.129 1004.37 626.668 1048.9 615.461C1092.6 604.461 1133.19 589.536 1169.56 571.099C1204.81 553.228 1236.03 532.098 1262.35 508.293C1263.55 507.205 1264.76 506.094 1265.95 504.993C1284.13 488.093 1299.89 470.512 1315.13 453.509C1321.3 446.624 1327.69 439.503 1334.13 432.546C1358.51 406.166 1381.23 385.061 1405.63 366.129C1408.87 363.614 1412.22 361.078 1415.6 358.589C1477.07 313.318 1559.53 273.127 1654.09 242.363C1767.54 205.521 1885.29 184.843 1985.64 184.143C2088.67 183.515 2197.02 211.939 2194.88 265.854L2195.27 265.824C2195.78 252.819 2189.98 240.781 2178 230.044C2166.95 220.136 2150.86 211.473 2130.15 204.298C2091.91 191.045 2039.26 183.632 1985.71 183.957C1932.81 184.327 1875.54 190.122 1815.49 201.184C1761.49 211.129 1707.13 224.934 1653.92 242.215C1559.3 272.998 1476.79 313.211 1415.3 358.506C1411.92 360.995 1408.56 363.535 1405.32 366.05C1380.91 384.992 1358.17 406.104 1333.79 432.494C1327.34 439.451 1320.96 446.574 1314.79 453.46C1299.55 470.458 1283.79 488.036 1265.62 504.929C1264.43 506.03 1263.23 507.139 1262.03 508.227C1208.5 556.63 1134.76 593.652 1048.77 615.294C963.894 636.658 864.284 644.128 752.712 637.5C743.375 636.943 733.805 636.27 724.271 635.499C629.949 627.881 538.76 610.138 450.577 592.977C445.929 592.072 441.285 591.169 436.642 590.267C424.783 587.974 412.866 585.641 401.337 583.386C308.733 565.261 221.263 548.142 125.077 542.988C94.0083 541.293 66.6304 541.496 41.3832 543.602C9.78242 546.24 -18.8741 552.015 -43.7918 560.764C-65.1935 568.296 -86.274 578.467 -108.239 591.858C-127.615 603.673 -145.194 616.413 -162.193 628.734C-172.145 635.945 -181.542 642.758 -191.077 649.238C-281.15 710.457 -374.746 775.964 -477.209 849.5L-476.898 849.583Z" fill="#F47C2A"/>
<path d="M-474.368 844.864C-380.928 776.658 -286.594 708.953 -193.987 643.632C-184.553 637.013 -175.261 629.999 -165.422 622.574C-133.425 598.423 -97.1556 571.05 -49.7308 554.568C-4.52007 538.878 50.848 534.174 119.542 540.186C201.214 547.281 274.625 563.08 352.348 579.806C376.687 585.044 401.858 590.462 427.202 595.565C471.443 604.504 519.263 613.847 569.149 621.629C622.575 629.963 671.116 635.324 717.548 638.021C727.303 638.588 737.108 639.05 746.699 639.39C799.758 641.269 851.297 639.884 899.884 635.274C953.671 630.169 1003.63 621.11 1048.39 608.342C1131.01 584.592 1201.18 546.708 1256.94 495.742C1258.13 494.655 1259.33 493.544 1260.51 492.445C1277.77 476.32 1293.33 459.612 1308.38 443.454C1315.47 435.848 1322.79 427.983 1330.19 420.298C1355.63 393.823 1378.89 372.839 1403.38 354.26C1406.67 351.76 1410.08 349.241 1413.5 346.772C1475.85 301.819 1559.04 262.082 1654.07 231.85C1768.36 195.538 1886.52 175.541 1986.79 175.544C2090.52 175.613 2196.18 203.891 2197.44 257.804L2197.83 257.767C2197.52 244.853 2191.17 232.887 2178.96 222.2C2167.63 212.3 2151.46 203.622 2130.87 196.41C2111.47 189.614 2088.81 184.328 2063.52 180.696C2038.97 177.171 2013.18 175.374 1986.87 175.356C1933.98 175.356 1876.61 180.789 1816.33 191.511C1762.16 201.146 1707.51 214.667 1653.9 231.699C1558.82 261.948 1475.58 301.709 1413.2 346.684C1409.77 349.156 1406.36 351.677 1403.06 354.178C1378.56 372.767 1355.29 393.759 1329.84 420.243C1322.45 427.93 1315.12 435.795 1308.04 443.402C1292.98 459.559 1277.42 476.264 1260.17 492.383C1259 493.484 1257.79 494.593 1256.61 495.68C1200.89 546.606 1130.78 584.459 1048.24 608.185C963.192 632.448 858.955 643.175 746.798 639.203C737.215 638.862 727.41 638.402 717.663 637.836C613.852 631.807 517.351 613.562 427.408 595.39C402.064 590.286 376.897 584.87 352.558 579.632C274.819 562.902 201.392 547.099 119.68 540.002C50.8799 533.98 -4.59652 538.696 -49.9126 554.422C-71.1531 561.804 -91.9088 571.934 -113.368 585.387C-132.289 597.25 -149.291 610.085 -165.737 622.495C-175.575 629.92 -184.864 636.931 -194.294 643.546C-286.905 708.87 -381.239 776.575 -474.679 844.783L-474.368 844.864Z" fill="#F47C2A"/>
<path d="M-471.846 840.129C-379.916 771.856 -287.516 703.818 -197.211 637.905C-188.096 631.27 -179.11 624.195 -169.596 616.705C-138.478 592.204 -103.206 564.432 -55.8685 548.186C-10.0861 532.486 45.5125 528.88 114.103 537.157C185.964 545.806 252.96 561.952 317.748 577.569C350.235 585.399 383.829 593.495 417.929 600.644C471.753 611.944 516.88 620.099 559.949 626.312C613.056 633.971 662.443 638.554 710.924 640.321C720.876 640.684 730.921 640.932 740.774 641.056C792.116 641.701 842.17 639.279 889.687 633.858C892.327 633.556 894.95 633.246 897.573 632.926C952.458 626.237 1003.02 615.561 1047.86 601.197C1069.5 594.239 1090.54 586.141 1110.39 577.127C1129.05 568.655 1147.24 559.107 1164.46 548.751C1195.44 530.12 1223.92 508.662 1251.52 483.154C1252.7 482.056 1253.88 480.958 1255.06 479.857C1271.05 464.84 1286.02 449.342 1300.5 434.353C1308.86 425.701 1317.5 416.754 1326.24 408.008C1353.14 381.065 1376.22 360.814 1401.11 342.35C1404.46 339.866 1407.92 337.365 1411.39 334.913C1474.64 290.285 1558.54 251.001 1654.03 221.303C1769.17 185.522 1887.75 166.207 1987.92 166.912C2089.77 167.664 2195.32 196.35 2199.98 249.723L2200.36 249.681C2198.19 224.82 2174.4 203.661 2131.56 188.49C2112.2 181.633 2089.65 176.258 2064.55 172.511C2040.12 168.866 2014.36 166.919 1988 166.724C1935.14 166.352 1877.66 171.425 1817.16 181.805C1762.81 191.13 1707.88 204.367 1653.87 221.15C1558.32 250.867 1474.36 290.176 1411.08 334.829C1407.61 337.283 1404.14 339.787 1400.79 342.271C1375.9 360.746 1352.8 381.003 1325.89 407.956C1317.16 416.704 1308.51 425.652 1300.15 434.303C1285.67 449.29 1270.7 464.786 1254.72 479.798C1253.54 480.9 1252.37 481.998 1251.18 483.093C1192.53 537.297 1125.97 575.881 1047.69 601.048C939.255 635.788 820.981 641.879 740.854 640.871C731.008 640.746 720.972 640.5 711.023 640.136C599.519 636.071 495.927 616.803 418.136 600.472C384.04 593.327 350.45 585.23 317.967 577.401C253.163 561.782 186.155 545.63 114.258 536.979C83.5663 533.275 56.033 531.991 30.0887 533.058C-1.90549 534.373 -30.8877 539.415 -56.0497 548.044C-77.2483 555.319 -97.7973 565.47 -118.872 579.075C-137.439 591.063 -153.95 604.061 -169.917 616.633C-179.428 624.122 -188.41 631.195 -197.522 637.826C-287.827 703.738 -380.226 771.776 -472.16 840.049L-471.846 840.129Z" fill="#F47C2A"/>
<path d="M-469.313 835.39L-200.429 632.164C-191.649 625.527 -182.989 618.406 -173.822 610.87C-143.571 585.997 -109.283 557.807 -62.0037 541.786C-16.282 526.294 41.1363 523.713 108.66 534.114C173.574 544.112 233.621 560.387 291.692 576.126C329.544 586.385 368.685 596.992 408.643 605.704C528.743 631.887 632.395 643.645 734.839 642.708C777.338 642.318 819.014 639.823 859.181 635.272C871.356 633.893 883.384 632.325 895.261 630.569C951.275 622.291 1002.44 610.001 1047.34 594.043C1088.95 579.252 1126.43 560.78 1161.92 537.57C1190.26 519.037 1217.01 497.74 1246.11 470.546C1261.46 456.194 1276.23 441.417 1290.51 427.127C1322.83 394.789 1356.24 361.35 1398.85 330.425C1464.2 282.993 1552.43 241.605 1654.01 210.736C1769.98 175.49 1888.97 156.853 1989.06 158.262C2085.95 159.625 2194.09 186.294 2202.53 241.629L2202.91 241.582C2199.14 216.848 2174.71 195.745 2132.26 180.552C2093.88 166.815 2043.05 158.833 1989.14 158.075C1936.29 157.333 1878.71 162.045 1818 172.083C1763.48 181.095 1708.25 194.05 1653.84 210.584C1603.58 225.859 1556.26 243.831 1513.17 264.003C1469.73 284.345 1431.16 306.663 1398.54 330.339C1355.92 361.276 1322.49 394.723 1290.17 427.069C1275.89 441.358 1261.12 456.132 1245.77 470.482C1203.32 510.16 1142.38 560.044 1047.15 593.897C937.926 632.719 817.064 641.765 734.903 642.518C632.51 643.456 528.905 631.702 408.853 605.528C368.911 596.82 329.774 586.213 291.926 575.957C233.843 560.215 173.781 543.937 108.834 533.933C41.1951 523.514 -16.3471 526.106 -62.1854 541.638C-83.3532 548.812 -103.706 558.991 -124.407 572.761C-142.627 584.882 -158.653 598.057 -174.147 610.797C-183.314 618.333 -191.971 625.45 -200.747 632.085L-469.631 835.31L-469.313 835.39Z" fill="#F47C2A"/>
<path d="M-465.618 829.711C-397.918 773.599 -339.559 727.662 -281.964 685.148C-254.008 664.498 -225.379 644.042 -196.871 624.346C-188.249 618.388 -179.75 612.13 -170.752 605.504C-148.14 588.852 -124.757 571.633 -97.1333 557.641C-82.3039 550.118 -67.8546 544.278 -52.9614 539.79C-7.25401 525.931 48.2546 524.969 112.018 536.934C145.018 543.11 175.342 550.993 200.653 557.89C227.45 565.191 254.031 573.593 279.739 581.718C316.687 593.397 354.894 605.473 395.533 614.921C420.263 620.695 445.206 625.518 469.671 629.258C518.616 636.741 570.751 641.512 624.627 643.439C657.907 644.574 691.195 644.471 723.561 643.133C751.454 641.972 779.289 639.915 806.296 637.02C846.717 632.689 885.842 626.379 922.583 618.262C961.649 609.631 998.303 598.89 1031.52 586.335C1061.15 575.14 1088.84 562.18 1116.17 546.711C1167.1 517.905 1206.74 486.872 1235.58 463.054C1249.74 451.307 1263.51 439.406 1276.83 427.897C1315.19 394.754 1351.42 363.449 1397.94 333.882C1435.9 309.894 1479.86 287.87 1528.63 268.416C1566.1 253.466 1607.2 240.005 1650.78 228.405C1661.16 225.644 1671.75 222.962 1682.26 220.439C1727.49 209.586 1778.72 199.945 1834.53 191.786C1890.79 183.524 1939.81 179.134 1984.37 178.371C2009.56 177.921 2034.15 178.977 2057.46 181.508C2139.77 190.447 2194.97 215.252 2205.11 247.864L2205.59 247.787C2202.89 239.093 2197.08 230.901 2188.33 223.436C2180.02 216.344 2169 209.86 2155.59 204.161C2130.24 193.398 2096.38 185.485 2057.65 181.28C2034.3 178.743 2009.67 177.686 1984.44 178.138C1939.83 178.902 1890.78 183.295 1834.47 191.564C1778.63 199.727 1727.37 209.374 1682.11 220.235C1671.6 222.761 1661 225.444 1650.61 228.207C1606.99 239.815 1565.86 253.287 1528.36 268.25C1479.56 287.717 1435.56 309.76 1397.59 333.763C1351.04 363.348 1314.8 394.661 1276.43 427.814C1263.11 439.322 1249.34 451.221 1235.18 462.965C1206.35 486.773 1166.74 517.791 1115.83 546.579C1088.53 562.031 1060.87 574.979 1031.28 586.161C966.262 610.73 890.564 627.766 806.284 636.793C779.3 639.685 751.485 641.739 723.614 642.9C691.272 644.235 658.007 644.339 624.755 643.205C570.911 641.279 518.807 636.511 469.893 629.033C445.445 625.296 420.518 620.475 395.808 614.705C355.193 605.263 316.994 593.189 280.058 581.513C254.346 573.387 227.761 564.982 200.952 557.679C175.629 550.778 145.289 542.894 112.265 536.712C83.8747 531.385 56.6779 528.601 31.4234 528.435C0.402844 528.232 -28.0566 531.988 -53.1572 539.599C-68.0957 544.102 -82.5861 549.957 -97.4524 557.497C-125.117 571.51 -148.514 588.741 -171.144 605.404C-180.138 612.028 -188.637 618.286 -197.252 624.239C-225.768 643.937 -254.401 664.396 -282.36 685.05C-339.958 727.568 -398.321 773.509 -466.028 829.625L-465.618 829.711Z" fill="#F47C2A"/>
<path d="M-461.788 824.244C-399.898 767.643 -341.176 719.428 -282.267 676.843C-253.541 656.047 -223.65 635.777 -193.423 616.596C-185.402 611.507 -177.513 606.272 -169.159 600.732C-144.139 584.14 -118.268 566.983 -88.528 553.657C-73.5149 546.907 -58.9673 541.704 -44.0433 537.748C13.1008 522.595 74.1575 530.478 115.321 539.759C144.483 546.304 171.396 554.451 198.683 562.921C222.568 570.336 245.218 578.686 269.197 587.525C304.787 600.646 341.59 614.214 382.565 624.367C406.887 630.44 432.063 635.181 457.394 638.458C504.578 644.564 555.765 647.516 613.879 647.486C646.402 647.468 679.55 646.228 712.403 643.798C740.121 641.731 767.679 638.822 794.315 635.145C833.944 629.681 872.415 622.298 908.667 613.2C946.739 603.644 982.752 592.094 1015.7 578.871C1044.57 567.287 1072.16 553.926 1100.06 538.026C1150.72 509.181 1193.4 478.862 1224.91 455.671C1236.57 447.086 1248.03 438.482 1259.12 430.159C1303.26 397.015 1344.96 365.707 1396.89 337.264C1435.7 316.007 1479.85 296.639 1528.12 279.699C1564.63 266.881 1603.67 255.842 1647.45 245.95C1657.55 243.669 1667.85 241.467 1678.04 239.405C1722.83 230.368 1770.93 223.117 1829.16 214.574C1871.13 208.367 1926.15 200.911 1979.61 198.333C2004.92 197.077 2029.57 197.271 2052.88 198.904C2134.95 204.66 2192.77 225.234 2207.57 253.942L2208.14 253.827C2204.21 246.214 2197.34 239.119 2187.72 232.736C2178.55 226.655 2166.83 221.184 2152.89 216.47C2126.38 207.517 2091.87 201.346 2053.07 198.626C2029.72 196.989 2005.02 196.796 1979.67 198.053C1926.16 200.632 1871.09 208.095 1829.1 214.306C1770.85 222.85 1722.73 230.104 1677.92 239.146C1667.71 241.211 1657.41 243.414 1647.29 245.696C1603.47 255.599 1564.4 266.648 1527.84 279.48C1479.53 296.437 1435.34 315.821 1396.48 337.099C1344.52 365.563 1302.81 396.88 1258.65 430.037C1247.57 438.358 1236.11 446.962 1224.44 455.545C1192.94 478.728 1150.28 509.036 1099.64 537.867C1071.78 553.75 1044.22 567.096 1015.38 578.666C950.596 604.666 876.195 623.577 794.261 634.873C767.647 638.546 740.116 641.454 712.425 643.517C679.603 645.945 646.483 647.185 613.991 647.201C555.924 647.233 504.781 644.282 457.636 638.183C432.337 634.909 407.194 630.175 382.9 624.108C341.961 613.963 305.174 600.401 269.597 587.287C245.61 578.443 222.955 570.092 199.055 562.674C171.755 554.198 144.83 546.049 115.64 539.496C88.9557 533.479 62.9509 529.988 38.3464 529.117C8.51252 528.061 -19.2766 530.883 -44.2473 537.504C-59.2244 541.476 -73.8242 546.696 -88.8817 553.466C-118.673 566.817 -144.566 583.989 -169.607 600.595C-177.958 606.133 -185.851 611.366 -193.865 616.452C-224.103 635.64 -254.001 655.917 -282.738 676.719C-341.657 719.315 -400.393 767.539 -462.294 824.152L-461.788 824.244Z" fill="#F47C2A"/>
<path d="M-457.891 818.916C-400.995 761.054 -343.699 711.883 -282.723 668.592C-253.245 647.627 -222.114 627.517 -190.189 608.819C-183.368 604.822 -176.356 600.61 -169.576 596.538C-141.577 579.713 -112.625 562.317 -80.1611 549.557C-64.9257 543.54 -50.2684 538.967 -35.3548 535.578C21.8889 522.567 79.9057 532.178 118.494 542.531C144.645 549.507 168.854 558.108 192.268 566.427L196.652 567.984C217.91 575.529 238.069 584.208 259.415 593.397C293.404 608.03 328.548 623.159 369.713 634.03C393.674 640.423 419.092 645.086 445.262 647.888C490.89 652.775 541.094 654.005 603.244 651.761C635.381 650.601 668.376 648.224 701.314 644.693C728.844 641.721 756.113 637.958 782.37 633.503C861.864 620.033 935.011 599.218 999.783 571.638C1027.78 559.714 1055.26 545.947 1083.78 529.544C1132.05 501.831 1174.58 474.252 1214 448.38C1219.29 444.911 1224.52 441.469 1229.7 438.053C1283.53 402.624 1334.37 369.159 1395.6 340.577C1435.57 321.916 1479.93 305.195 1527.44 290.875C1562.32 280.363 1600.45 271.377 1644.01 263.405C1653.83 261.611 1663.82 259.89 1673.73 258.289C1698.65 254.275 1725.19 250.747 1753.28 247.013C1775.84 244.013 1799.17 240.911 1823.74 237.289C1871.19 230.216 1924.96 222.202 1974.77 218.211C2000.46 216.153 2025.16 215.482 2048.19 216.22C2129.9 218.839 2190.34 235.177 2209.86 259.925L2210.5 259.757C2205.35 253.232 2197.43 247.238 2186.94 241.943C2176.92 236.879 2164.5 232.42 2150.03 228.692C2122.37 221.561 2087.21 217.136 2048.37 215.892C2025.29 215.152 2000.54 215.823 1974.8 217.886C1924.94 221.881 1871.14 229.901 1823.68 236.976C1799.12 240.595 1775.79 243.698 1753.23 246.697C1725.13 250.433 1698.59 253.962 1673.65 257.98C1663.73 259.584 1653.72 261.307 1643.9 263.102C1600.29 271.082 1562.11 280.08 1527.18 290.607C1479.61 304.943 1435.2 321.684 1395.19 340.365C1333.91 368.973 1283.04 402.453 1229.19 437.898C1224 441.314 1218.77 444.755 1213.49 448.225C1174.08 474.093 1131.56 501.665 1083.31 529.368C1054.81 545.753 1027.37 559.507 999.4 571.415C934.713 598.961 861.66 619.747 782.27 633.2C756.044 637.649 728.801 641.409 701.302 644.377C668.399 647.903 635.435 650.278 603.333 651.438C541.245 653.679 491.1 652.451 445.532 647.571C419.417 644.774 394.048 640.12 370.127 633.738C329.015 622.881 293.893 607.76 259.924 593.135C238.57 583.942 218.398 575.259 197.124 567.709L192.74 566.152C169.314 557.829 145.092 549.222 118.913 542.239C80.2021 531.852 21.9819 522.217 -35.528 535.288C-50.5098 538.693 -65.2235 543.283 -80.5144 549.323C-113.05 562.111 -142.034 579.526 -170.062 596.369C-176.838 600.441 -183.85 604.653 -190.668 608.648C-222.607 627.355 -253.756 647.475 -283.248 668.452C-344.249 711.76 -401.566 760.949 -458.479 818.829L-457.891 818.916Z" fill="#F47C2A"/>
<path d="M-454.148 813.303C-403.08 754.998 -345.682 703.414 -283.548 659.986C-253.347 638.831 -220.991 618.859 -187.382 600.623C-182.528 597.989 -177.562 595.265 -172.756 592.63C-141.014 575.226 -108.19 557.227 -72.2209 544.975C-56.7845 539.683 -42.0179 535.743 -27.0679 532.926C30.2741 522.126 85.3118 533.498 121.388 544.939C143.782 551.992 164.297 560.419 184.135 568.569C187.567 569.98 190.997 571.387 194.431 572.787C213.292 580.475 231.192 589.485 250.142 599.022C282.36 615.236 315.674 632.001 356.849 643.67C381.03 650.521 405.985 654.988 433.149 657.326C489.964 662.216 545.623 659.431 592.572 656.064C624.328 653.784 657.151 650.276 690.138 645.63C717.451 641.757 744.42 637.141 770.291 631.914C847.003 616.427 918.767 593.736 983.589 564.471C1010.56 552.296 1037.9 538.112 1067.17 521.109C1096.75 503.965 1124.25 487.596 1150.85 471.764C1168.92 461.003 1186 450.84 1202.69 441.048C1265.8 404.031 1323.75 371.158 1393.98 343.737C1435.12 327.676 1479.72 313.601 1526.53 301.905C1560.08 293.522 1596.27 286.805 1640.42 280.764C1649.95 279.467 1659.67 278.231 1669.3 277.093C1683.93 275.378 1699.1 273.838 1715.16 272.211C1745.97 269.085 1780.91 265.542 1818.28 259.971C1832.51 257.849 1847.02 255.594 1861.05 253.412C1897.14 247.8 1934.45 241.997 1969.83 238.063C1995.81 235.176 2020.56 233.646 2043.37 233.518C2124.6 233.065 2187.61 245.166 2211.91 265.887L2212.6 265.654C2206.24 260.227 2197.27 255.342 2185.95 251.131C2175.08 247.088 2161.97 243.645 2147.01 240.898C2118.17 235.606 2082.39 232.924 2043.53 233.141C2020.66 233.269 1995.86 234.801 1969.82 237.696C1934.4 241.633 1897.07 247.44 1860.96 253.054C1846.94 255.236 1832.43 257.491 1818.2 259.613C1780.87 265.179 1745.96 268.72 1715.16 271.844C1699.09 273.473 1683.92 275.013 1669.27 276.73C1659.63 277.869 1649.91 279.106 1640.37 280.405C1596.16 286.452 1559.91 293.182 1526.3 301.578C1479.43 313.289 1434.78 327.381 1393.59 343.464C1361.86 355.849 1330.01 370.434 1296.21 388.05C1265.96 403.82 1236.73 420.561 1202.15 440.846C1185.45 450.64 1168.38 460.803 1150.3 471.564C1123.7 487.394 1096.2 503.764 1066.63 520.905C1037.39 537.891 1010.08 552.059 983.14 564.221C918.407 593.447 846.744 616.106 770.139 631.571C744.298 636.792 717.364 641.402 690.082 645.271C657.133 649.912 624.345 653.417 592.628 655.691C545.736 659.056 490.152 661.838 433.436 656.956C406.348 654.624 381.458 650.17 357.342 643.335C316.236 631.687 282.948 614.935 250.755 598.734C231.792 589.191 213.884 580.177 195.002 572.481C191.568 571.081 188.142 569.674 184.711 568.264C164.86 560.109 144.332 551.676 121.909 544.613C98.4385 537.17 74.7466 532.192 51.4936 529.817C23.9507 527.004 -2.52374 527.934 -27.1923 532.582C-42.2152 535.411 -57.054 539.37 -72.5537 544.684C-108.621 556.969 -141.484 574.99 -173.265 592.416C-178.072 595.051 -183.038 597.775 -187.888 600.406C-221.523 618.657 -253.903 638.647 -284.13 659.818C-317.121 682.878 -349.005 708.394 -378.888 735.656C-405.301 759.751 -430.85 785.848 -454.827 813.22L-454.148 813.303Z" fill="#F47C2A"/>
<path d="M-451.307 805.882C-405.311 746.371 -349.453 693.809 -285.282 649.653C-254.348 628.316 -220.762 608.49 -185.455 590.723C-183.775 589.878 -182.096 589.032 -180.412 588.184C-143.702 569.693 -105.742 550.571 -65.0766 538.74C-49.322 534.156 -34.4244 530.86 -19.538 528.663C37.8888 520.188 90.0154 533.38 123.629 545.939C143.401 553.271 161.268 561.827 178.546 570.102C182.817 572.149 187.236 574.264 191.591 576.317C208.182 584.138 223.921 593.457 240.581 603.325C270.888 621.275 302.224 639.834 343.459 652.333C367.315 659.564 392.521 663.987 420.516 665.858C475.671 669.541 530.396 665.008 581.315 659.561C612.713 656.201 645.354 651.58 678.33 645.828C705.408 641.072 732.057 635.626 757.544 629.641C831.227 612.356 901.586 587.84 966.657 556.776C992.717 544.337 1019.14 530.17 1049.81 512.193C1108.12 478.097 1151.56 453.757 1190.68 433.274C1268.48 392.534 1328.65 366.597 1391.88 346.549C1434.22 333.126 1479.1 321.743 1525.3 312.713C1557.35 306.448 1591.7 301.922 1636.65 298.043C1645.87 297.254 1655.31 296.517 1664.71 295.855C1673.59 295.238 1682.62 294.688 1692.19 294.103C1727.51 291.948 1767.55 289.505 1812.76 282.759C1836.6 279.204 1860.86 275.071 1884.32 271.076C1910.99 266.535 1938.57 261.839 1964.82 258.125C1991.15 254.4 2015.93 252.027 2038.45 251.075C2119.03 247.666 2184.53 255.554 2213.69 272.174L2214.39 271.861C2206.82 267.543 2196.83 263.768 2184.69 260.642C2172.98 257.622 2159.21 255.192 2143.77 253.416C2113.77 249.966 2077.39 249.008 2038.56 250.652C2015.97 251.608 1991.14 253.985 1964.75 257.718C1938.47 261.436 1910.88 266.134 1884.2 270.678C1860.75 274.672 1836.49 278.803 1812.68 282.356C1767.55 289.089 1727.55 291.53 1692.27 293.684C1682.7 294.267 1673.66 294.82 1664.77 295.435C1655.36 296.099 1645.91 296.837 1636.69 297.625C1591.67 301.512 1557.26 306.045 1525.14 312.324C1478.88 321.367 1433.93 332.766 1391.54 346.208C1328.22 366.283 1267.98 392.247 1190.11 433.022C1150.98 453.513 1107.52 477.861 1049.2 511.965C1018.56 529.928 992.159 544.08 966.128 556.506C901.145 587.527 830.89 612.008 757.317 629.267C731.865 635.244 705.246 640.682 678.206 645.432C645.268 651.178 612.67 655.793 581.311 659.149C530.468 664.587 475.837 669.115 420.809 665.441C392.917 663.578 367.8 659.168 344.027 651.963C302.882 639.491 271.577 620.951 241.304 603.021C224.631 593.147 208.883 583.82 192.266 575.988C187.912 573.936 183.493 571.821 179.222 569.775C161.931 561.493 144.051 552.931 124.246 545.586C102.31 537.39 79.7486 531.619 57.1888 528.432C30.7627 524.699 4.91701 524.645 -19.6154 528.263C-34.5864 530.472 -49.5597 533.785 -65.3898 538.391C-106.19 550.263 -144.205 569.41 -180.966 587.929C-182.65 588.777 -184.333 589.625 -186.009 590.468C-221.356 608.255 -254.981 628.105 -285.951 649.465C-350.175 693.66 -406.078 746.263 -452.107 805.816L-451.307 805.882Z" fill="#F47C2A"/>
<path d="M561.792 661.335C563.949 661.039 566.075 660.746 568.167 660.453C599.249 656.125 631.72 650.504 664.67 643.743C691.521 638.198 717.88 632.014 743.015 625.365C778.93 615.873 814.671 604.409 849.255 591.292C882.652 578.624 916 564.024 948.374 547.893C980.097 532.089 1009.41 515.306 1031.41 502.45C1082.89 472.431 1132.27 446.468 1178.19 425.281C1252.55 390.967 1319.86 367.033 1390.01 349.961C1432.33 339.662 1478.11 331.011 1522.54 324.915C1523.22 324.821 1523.91 324.727 1524.6 324.634C1562.77 319.459 1599.52 317.829 1633.55 316.84C1642.41 316.589 1651.58 316.384 1660.81 316.234C1665.87 316.158 1670.94 316.099 1676.3 316.037C1714.13 315.604 1757.01 315.112 1808.04 307.668C1839.12 303.134 1870.67 297.254 1901.18 291.566C1920.88 287.893 1941.24 284.097 1960.73 280.819C1987.51 276.313 2012.31 273.176 2034.45 271.499C2114.19 265.452 2182.08 269.285 2216.07 281.754L2216.74 281.355C2199.31 274.961 2173.94 270.835 2141.34 269.088C2110.21 267.422 2073.27 268.094 2034.5 271.034C2012.3 272.718 1987.44 275.86 1960.59 280.378C1941.09 283.659 1920.71 287.458 1901.01 291.132C1870.52 296.817 1838.99 302.694 1807.95 307.221C1757.05 314.648 1714.25 315.137 1676.48 315.57C1671.11 315.631 1666.04 315.69 1660.98 315.766C1651.74 315.918 1642.56 316.122 1633.7 316.374C1599.61 317.366 1562.8 318.999 1524.53 324.185C1479.39 330.303 1432.78 339.074 1389.74 349.55C1353.53 358.363 1318.73 368.797 1283.34 381.448C1249.26 393.634 1214.67 407.871 1177.61 424.975C1131.66 446.178 1082.24 472.161 1030.73 502.199C1008.75 515.047 979.458 531.817 947.768 547.604C882.074 580.336 813.082 606.363 742.71 624.965C717.608 631.606 691.284 637.781 664.471 643.319C631.562 650.07 599.137 655.685 568.097 660.006C519.526 666.766 462.991 673.735 406.341 670.838C377.668 669.371 352.371 664.944 329.001 657.306C287.961 643.892 258.953 623.427 230.895 603.635C216.462 593.454 202.832 583.838 188.398 575.875C183.775 573.324 179.098 570.684 174.577 568.13C159.297 559.502 143.501 550.583 125.687 542.778C105.316 533.783 83.9259 527.154 62.1162 523.076C36.8276 518.349 11.6245 517.22 -12.7976 519.723C-27.8716 521.268 -43.0072 523.88 -59.0725 527.709C-102.024 537.945 -143.329 556.229 -185.38 575.653C-222.044 592.589 -258.03 612.695 -289.446 633.799C-324.347 657.188 -356.481 683.418 -384.948 711.758C-410.31 737.007 -432.926 764.072 -452.171 792.204L-451.262 792.265C-409.934 731.851 -355.246 678.61 -288.708 634.022C-257.339 612.948 -221.41 592.872 -184.801 575.964C-142.823 556.574 -101.599 538.325 -58.807 528.126C-42.8288 524.318 -27.7775 521.722 -12.7966 520.186C32.0774 515.589 81.0032 523.746 124.965 543.159C142.745 550.949 158.528 559.861 173.794 568.48C178.316 571.036 182.997 573.677 187.621 576.228C202.028 584.176 215.649 593.784 230.065 603.956C243.832 613.667 258.067 623.709 274.061 633.046C292.194 643.631 309.951 651.7 328.355 657.717C351.827 665.389 377.237 669.836 406.045 671.31C431.452 672.61 458.458 672.068 488.605 669.656C514.134 667.606 539.595 664.381 561.792 661.335Z" fill="#F47C2A"/>
<path d="M499.259 669.24C518.873 666.571 537.629 663.457 554.399 660.606C585.234 655.364 617.55 648.795 650.445 641.081C677.072 634.798 703.161 627.925 727.986 620.648C795.969 600.745 862.005 574.028 929.868 538.973C959.463 523.687 987.138 507.807 1012.94 492.854C1063.89 463.398 1115.35 438.133 1165.9 417.758C1240.24 387.793 1310.99 367.612 1388.57 354.25C1432.77 346.637 1479.74 340.899 1524.39 337.655C1561.77 334.939 1597.52 335.793 1630.95 336.897C1639.32 337.18 1648.22 337.522 1657.41 337.911C1659.7 338.011 1662.02 338.115 1664.37 338.219C1702.94 339.943 1746.58 341.894 1801.07 334.48C1801.99 334.355 1802.9 334.228 1803.83 334.097C1840.67 328.905 1877.93 321.306 1913.96 313.956C1928.25 311.041 1943.03 308.029 1957.22 305.285C1984.96 299.929 2009.12 296.175 2031.08 293.811C2110.95 285.216 2179.47 285.092 2219.04 293.476L2219.62 292.992C2200.06 288.848 2172.36 286.708 2139.53 286.802C2107.23 286.895 2069.73 289.144 2031.07 293.305C2009.04 295.675 1984.83 299.437 1957.03 304.806C1942.82 307.551 1928.04 310.566 1913.75 313.479C1877.74 320.821 1840.52 328.413 1803.75 333.596C1748.17 341.432 1703.81 339.447 1664.69 337.697C1662.34 337.593 1660.02 337.489 1657.72 337.387C1648.53 336.997 1639.62 336.656 1631.25 336.374C1597.76 335.266 1561.94 334.414 1524.47 337.137C1479.74 340.386 1432.7 346.133 1388.43 353.758C1349.98 360.379 1313.62 368.61 1277.26 378.917C1239.82 389.533 1203.21 402.113 1165.34 417.381C1114.73 437.783 1063.21 463.079 1012.2 492.565C986.41 507.512 958.753 523.383 929.183 538.654C861.411 573.661 795.475 600.339 727.601 620.211C702.813 627.475 676.758 634.34 650.169 640.614C617.32 648.318 585.05 654.879 554.26 660.111C502.449 668.917 447.186 677.339 391.231 675.235C361.788 674.127 336.33 669.653 313.408 661.558C272.57 647.138 244.931 623.651 220.543 602.929C208.274 592.502 196.683 582.654 184.326 574.596C179.867 571.689 175.365 568.669 171.011 565.75C157.392 556.614 143.31 547.167 127.067 538.766C108.262 528.962 88.076 521.455 67.0723 516.454C42.9472 510.71 18.3896 508.477 -5.91124 509.819C-21.101 510.656 -36.409 512.543 -52.7028 515.581C-98.2284 524.073 -143.127 541.536 -184.866 559.143C-223.407 575.4 -260.89 595.133 -293.271 616.208C-329.298 639.598 -361.748 666.023 -389.715 694.744C-414.722 720.427 -436.074 747.836 -453.174 776.211L-452.161 776.256C-415.814 715.942 -360.594 660.685 -292.474 616.458C-260.158 595.423 -222.744 575.728 -184.28 559.503C-142.641 541.937 -97.8583 524.518 -52.5236 516.061C-36.3252 513.04 -21.1135 511.166 -6.02115 510.333C38.8506 507.856 85.8138 518.092 126.22 539.158C142.433 547.542 156.498 556.979 170.103 566.106C174.457 569.027 178.96 572.047 183.423 574.957C195.754 582.997 207.332 592.835 219.591 603.251C244.019 624.005 271.703 647.53 312.674 661.998C335.725 670.137 361.324 674.635 390.933 675.751C416.628 676.717 444.011 675.575 474.653 672.254C482.939 671.367 491.17 670.341 499.259 669.24Z" fill="#F47C2A"/>
<path d="M459.776 674.897C460.057 674.859 460.334 674.822 460.615 674.784C488.336 671.017 515.319 665.756 540.584 660.688C571.242 654.54 603.406 647.032 636.192 638.375C662.594 631.366 688.42 623.807 712.947 615.912C777.977 594.996 841.037 567.727 911.406 530.091C936.749 516.539 961.549 502.282 985.538 488.496C988.537 486.77 991.54 485.046 994.544 483.322C1045.86 453.926 1099.41 429.375 1153.69 410.352C1228.02 384.304 1304.39 367.412 1387.16 358.709C1432.55 353.938 1479.93 351.225 1524.17 350.863C1559.08 350.578 1590.65 353.412 1628.3 357.145C1635.93 357.91 1644.08 358.746 1653.95 359.78L1654.5 359.839C1673.54 361.863 1695.12 364.156 1719.05 364.886C1746.53 365.726 1772.86 364.364 1799.54 360.746C1841.13 355.095 1883.03 345.738 1923.55 336.687C1933.48 334.47 1943.75 332.177 1953.67 330.017C1982.13 323.828 2006.33 319.378 2027.67 316.414C2106.23 305.501 2177.09 301.547 2222.07 305.563L2222.49 305.008C2200.46 303.039 2171.13 302.984 2137.68 304.846C2104.17 306.711 2066.09 310.525 2027.57 315.875C2006.18 318.847 1981.91 323.307 1953.4 329.51C1943.47 331.67 1933.2 333.963 1923.26 336.181C1882.79 345.22 1840.94 354.566 1799.45 360.204C1799.27 360.229 1799.08 360.254 1798.89 360.279C1739.54 368.273 1692.65 363.292 1654.96 359.286L1654.4 359.228C1644.53 358.193 1636.38 357.356 1628.74 356.592C1591.03 352.853 1559.41 350.013 1524.39 350.3C1480.07 350.661 1432.62 353.379 1387.15 358.159C1346.64 362.418 1308.74 368.435 1271.25 376.558C1230.86 385.311 1192.23 396.222 1153.15 409.918C1098.77 428.978 1045.13 453.569 993.728 483.013C990.724 484.737 987.721 486.463 984.722 488.188C960.745 501.969 935.951 516.222 910.631 529.763C840.353 567.352 777.385 594.583 712.463 615.464C687.97 623.349 662.182 630.895 635.818 637.896C603.078 646.541 570.958 654.037 540.35 660.175C485.526 671.173 431.7 680.928 376.026 679.537C345.812 678.782 320.199 674.256 297.73 665.699C257.138 650.241 232.381 624.581 210.535 601.94C200.309 591.341 190.65 581.328 180.233 573.223C176.224 570.105 172.186 566.865 168.281 563.731C156.07 553.932 143.446 543.802 128.458 534.665C111.192 524.054 92.2179 515.668 72.0707 509.74C49.1024 502.985 25.2063 499.647 1.04433 499.823C-13.9382 499.932 -29.0771 501.041 -45.1987 503.212C-45.5489 503.259 -45.8991 503.306 -46.2529 503.356C-96.3539 510.229 -146.325 527.881 -184.266 542.493C-224.682 558.059 -263.675 577.404 -297.03 598.438C-334.197 621.819 -366.974 648.426 -394.452 677.521C-419.107 703.63 -439.207 731.378 -454.183 759.995L-453.064 760.023C-430.778 717.442 -385.462 654.895 -296.171 598.722C-262.896 577.737 -223.993 558.437 -183.674 542.907C-145.845 528.337 -96.0263 510.736 -46.1673 503.898C-29.7487 501.64 -14.3872 500.498 0.818916 500.388C45.5867 500.064 90.5747 512.381 127.498 535.069C142.451 544.185 155.063 554.304 167.259 564.092C171.164 567.228 175.207 570.469 179.216 573.589C189.606 581.673 199.256 591.673 209.469 602.261C231.352 624.943 256.156 650.652 296.906 666.17C319.525 674.784 345.311 679.34 375.729 680.1C401.509 680.742 429.014 679.04 459.776 674.897Z" fill="#F47C2A"/>
<path d="M428.207 679.843C434.18 679.048 440.271 678.145 446.495 677.133C473.737 672.702 499.977 666.793 526.696 660.62C557.67 653.464 588.808 645.262 621.89 635.544C648.06 627.819 673.625 619.584 697.877 611.065C759.404 589.475 819.571 561.739 892.96 521.137C911.187 511.054 929.352 500.605 946.921 490.499C956.485 484.998 966.37 479.31 976.174 473.735C1028.21 444.208 1083.84 420.388 1141.5 402.935C1217.69 379.874 1297.57 366.876 1385.71 363.199C1432.27 361.257 1480.04 361.572 1523.85 364.11C1559.04 366.149 1590.21 371.441 1623.21 377.045L1625.5 377.432C1630.65 378.312 1635.87 379.207 1641.14 380.111C1644.18 380.634 1647.24 381.159 1650.33 381.688C1669.58 385.017 1690.35 388.4 1713.82 390.006C1741.08 391.869 1767.65 391.035 1795.06 387.454C1840.68 381.488 1886.47 370.318 1930.75 359.512C1937.07 357.969 1943.61 356.375 1949.96 354.842C1979.72 347.656 2003.28 342.665 2024.11 339.129C2101 326.081 2174.23 318.318 2225.03 317.83L2225.26 317.22C2174.33 317.709 2100.95 325.485 2023.93 338.556C2003.04 342.101 1979.42 347.106 1949.6 354.306C1943.25 355.84 1936.71 357.435 1930.38 358.978C1886.65 369.652 1841.44 380.684 1796.43 386.673C1795.95 386.738 1795.46 386.802 1794.97 386.866C1736.74 394.476 1693.62 388.484 1650.95 381.108C1647.86 380.58 1644.8 380.054 1641.76 379.532C1636.48 378.625 1631.27 377.732 1626.11 376.85L1623.83 376.463C1590.77 370.851 1559.55 365.549 1524.24 363.503C1480.35 360.959 1432.5 360.644 1385.86 362.59C1297.5 366.276 1217.41 379.309 1141.01 402.433C1083.2 419.931 1027.45 443.804 975.293 473.397C965.489 478.973 955.599 484.661 946.036 490.163C928.475 500.266 910.313 510.713 892.097 520.789C818.795 561.345 758.713 589.042 697.294 610.596C673.075 619.101 647.548 627.325 621.416 635.038C588.383 644.742 557.29 652.933 526.362 660.077C479.413 670.923 420.984 684.424 360.708 683.63C329.719 683.223 303.956 678.639 281.949 669.615C241.633 653.088 219.97 625.178 200.853 600.557C192.55 589.86 184.706 579.757 176.093 571.652C172.737 568.494 169.357 565.216 166.089 562.044C155.127 551.408 143.789 540.412 129.83 530.376C114.071 518.956 96.321 509.691 77.073 502.84C55.2619 495.076 32.0316 490.636 8.02762 489.642C-7.37766 489.004 -23.0075 489.427 -39.7574 490.936C-62.189 492.956 -85.7688 497.126 -111.844 503.678C-133.907 509.224 -157.379 516.399 -183.605 525.615C-225.898 540.479 -266.4 559.427 -300.732 580.411C-339.048 603.772 -372.16 630.557 -399.155 660.02C-423.463 686.551 -442.317 714.636 -455.191 743.496L-453.966 743.503C-426.782 682.572 -372.038 624.763 -299.815 580.728C-265.576 559.8 -225.188 540.906 -183.018 526.086C-126.514 506.229 -81.0054 495.25 -39.7831 491.537C-23.1456 490.037 -7.62502 489.617 7.67351 490.25C64.7812 492.613 105.037 513.597 128.748 530.783C142.672 540.794 153.996 551.778 164.945 562.401C168.216 565.574 171.597 568.854 174.953 572.014C183.54 580.095 191.373 590.186 199.667 600.87C218.823 625.545 240.534 653.512 281.033 670.115C303.216 679.209 329.185 683.83 360.421 684.241C381.593 684.519 403.917 683.076 428.207 679.843Z" fill="#F47C2A"/>
<path d="M400.675 684.392C441.39 679.044 479.831 668.994 512.717 660.398C543.657 652.311 574.667 643.21 607.52 632.577C633.453 624.146 658.767 615.238 682.758 606.097C754.676 578.715 817.419 544.73 874.505 512.084C886.16 505.418 897.921 498.581 909.29 491.97C925.077 482.79 941.403 473.297 957.802 464.062C1010.73 434.318 1068.43 411.239 1129.3 395.465C1208.03 375.062 1291.39 365.971 1384.16 367.675C1431.92 368.551 1480.06 371.898 1523.37 377.351C1556.78 381.556 1585.55 388.627 1616.01 396.112C1618.17 396.642 1620.33 397.174 1622.5 397.706L1623.68 397.996C1631.09 399.819 1638.74 401.702 1646.5 403.583C1665.09 408.12 1685.5 412.658 1708.71 415.125C1735.65 417.988 1762.35 417.673 1790.34 414.161C1839.48 407.999 1888.59 394.95 1936.08 382.332C1939.41 381.447 1942.72 380.566 1946.02 379.693C1977.34 371.394 2000.27 365.902 2020.36 361.883C2095.02 346.949 2170.65 335.401 2227.88 330.2L2227.9 329.555C2170.59 334.762 2094.84 346.326 2020.08 361.281C1999.94 365.311 1976.96 370.815 1945.58 379.129C1942.28 380.003 1938.97 380.883 1935.64 381.77C1888.24 394.364 1839.22 407.383 1790.27 413.526C1729.48 421.152 1684.59 412.082 1647.29 402.982C1639.54 401.101 1631.88 399.218 1624.48 397.397L1623.3 397.107C1621.12 396.574 1618.96 396.042 1616.8 395.513C1586.29 388.014 1557.47 380.932 1523.95 376.712C1480.56 371.249 1432.33 367.898 1384.48 367.019C1340.5 366.212 1299.53 367.793 1259.23 371.851C1214.27 376.379 1170.41 384.133 1128.87 394.899C1067.81 410.722 1009.94 433.868 956.863 463.694C940.453 472.934 924.123 482.429 908.333 491.612C896.963 498.223 885.21 505.057 873.558 511.72C816.53 544.332 753.864 578.278 682.076 605.61C658.119 614.738 632.842 623.634 606.947 632.052C574.142 642.669 543.182 651.757 512.288 659.832C464.852 672.232 405.816 687.664 345.28 687.538C313.513 687.472 287.601 682.825 266.059 673.333C226.047 655.7 207.687 625.473 191.488 598.802C184.979 588.086 178.832 577.965 171.887 569.903C169.318 566.921 166.725 563.831 164.218 560.843C154.407 549.155 144.261 537.067 131.158 525.92C116.887 513.687 100.367 503.543 82.0564 495.774C61.3984 487.007 38.8413 481.465 15.0114 479.301C-0.46465 477.897 -16.2464 477.587 -33.247 478.353C-56.148 479.387 -81.2413 482.75 -107.831 488.348C-131.114 493.251 -156.371 500.045 -182.897 508.544C-227.062 522.694 -269.074 541.236 -304.395 562.165C-343.861 585.499 -377.317 612.454 -403.834 642.285C-427.79 669.235 -445.407 697.661 -456.191 726.772L-454.864 726.756C-432.015 665.072 -378.234 606.743 -303.426 562.516C-268.218 541.655 -226.346 523.174 -182.331 509.071C-125.277 490.791 -76.5601 480.956 -33.4003 479.008C-16.5247 478.247 -0.852711 478.555 14.5117 479.948C71.2097 485.096 108.581 508.01 129.949 526.328C143.02 537.446 153.153 549.517 162.95 561.19C165.457 564.178 168.054 567.269 170.623 570.255C177.545 578.29 183.686 588.398 190.186 599.1C197.979 611.931 206.811 626.473 218.495 639.659C231.884 654.767 247.11 665.954 265.044 673.858C275.415 678.429 287.083 681.945 299.727 684.311C313.327 686.854 328.557 688.162 344.998 688.196C363.809 688.236 382.472 686.784 400.675 684.392Z" fill="#F47C2A"/>
<path d="M375.721 688.653C389.186 686.909 403.208 684.469 417.937 681.313C446.947 675.099 474.427 667.083 498.675 660.012C529.236 651.098 561.01 640.818 593.108 629.459C618.79 620.337 643.859 610.758 667.611 600.986C735.789 572.959 793.292 539.986 856.059 502.907C861.636 499.612 867.299 496.255 872.774 493.006C894.335 480.219 916.628 466.997 939.447 454.277C993.372 424.268 1053.14 401.942 1117.09 387.919C1197.76 370.23 1287.07 364.912 1382.53 372.117C1431.51 375.815 1480 382.192 1522.76 390.564C1554.95 396.868 1581.96 405.717 1610.56 415.086C1613.47 416.039 1616.39 416.993 1619.32 417.951C1626.62 420.339 1634.48 422.898 1642.47 425.445C1659.24 430.811 1679.58 436.763 1703.37 440.211C1730.01 444.072 1756.84 444.282 1785.39 440.85C1837.66 434.572 1889.67 419.59 1939.96 405.101L1941.87 404.55C1966.5 397.458 1992.57 390.138 2016.41 384.657C2089.06 367.951 2165.13 353.033 2230.59 342.654L2230.41 341.99C2164.87 352.381 2088.74 367.31 2016.02 384.032C1992.12 389.529 1966 396.861 1941.34 403.964L1939.42 404.515C1889.24 418.971 1837.34 433.919 1785.32 440.168C1725.25 447.385 1681.63 437.063 1643.43 424.831C1635.44 422.286 1627.58 419.726 1620.28 417.34C1617.35 416.383 1614.43 415.427 1611.52 414.477C1582.88 405.092 1555.82 396.227 1523.52 389.902C1480.68 381.513 1432.1 375.123 1383.03 371.419C1338.24 368.04 1294.54 367.374 1253.15 369.442C1205.85 371.805 1159.95 377.808 1116.73 387.285C1052.53 401.361 992.545 423.767 938.438 453.878C915.602 466.61 893.298 479.837 871.725 492.631C866.251 495.878 860.588 499.235 855.01 502.53C792.305 539.573 734.864 572.511 666.808 600.489C643.089 610.246 618.058 619.811 592.413 628.921C560.36 640.262 528.639 650.527 498.122 659.427C450.287 673.381 390.753 690.743 329.725 691.25C297.174 691.521 271.113 686.808 250.05 676.841C210.365 658.064 194.878 624.021 182.432 596.666C177.586 586.011 173.01 575.947 167.597 567.974C165.892 565.46 164.161 562.868 162.489 560.359C153.803 547.327 144.817 533.85 132.415 521.299C113.239 501.751 78.5132 476.776 21.9721 468.804C6.35987 466.603 -9.5769 465.557 -26.7445 465.609C-71.6735 465.662 -123.969 474.3 -182.173 491.277C-228.203 504.705 -271.726 522.832 -308.034 543.699C-348.652 566.998 -382.454 594.121 -408.497 624.322C-420.444 638.174 -430.689 652.643 -438.956 667.329C-446.851 681.356 -452.983 695.655 -457.184 709.829L-455.751 709.786C-437.248 647.333 -384.423 588.485 -307.008 544.083C-270.834 523.293 -227.478 505.236 -181.625 491.859C-123.693 474.959 -71.6774 466.363 -27.0307 466.309C-9.98865 466.257 5.82563 467.295 21.3219 469.48C77.4745 477.396 112.003 502.245 131.083 521.697C143.456 534.215 152.425 547.674 161.103 560.689C162.776 563.198 164.503 565.793 166.212 568.308C171.605 576.254 176.179 586.303 181.016 596.943C187.279 610.708 194.375 626.31 204.767 640.556C216.707 656.927 231.156 668.976 248.939 677.39C259.084 682.19 270.676 685.845 283.388 688.252C297.083 690.847 312.585 692.092 329.458 691.95C344.267 691.83 359.599 690.741 375.721 688.653Z" fill="#F47C2A"/>
<path d="M352.559 692.68C368.702 690.621 385.593 687.47 403.51 683.186C432.541 676.248 460.169 667.354 484.545 659.506C515.233 649.627 546.886 638.434 578.625 626.235C604.059 616.429 628.883 606.182 652.408 595.776C717.145 567.156 771.492 533.979 829.03 498.857C831.878 497.119 834.725 495.379 837.58 493.638C864.339 477.319 892.007 460.444 921.062 444.404C976.04 414.103 1037.87 392.54 1104.84 380.314C1188.95 364.955 1281.79 363.688 1380.78 376.543C1430.29 382.973 1480.43 392.643 1521.96 403.771C1553.33 412.173 1579.01 422.851 1606.21 434.157C1609.43 435.495 1612.66 436.838 1615.91 438.181C1622.41 440.871 1630.14 444.057 1638.22 447.294C1653.18 453.309 1673.47 460.79 1697.78 465.264C1724.11 470.111 1751.07 470.857 1780.18 467.538C1804.1 464.771 1830.23 459.683 1860.05 451.979C1885.65 445.366 1910.27 437.852 1937.49 429.424C1962.33 421.677 1988.56 413.602 2012.24 407.457C2082.39 389.256 2156.72 371.673 2233.15 355.193L2232.77 354.52C2156.3 371.007 2081.93 388.603 2011.74 406.812C1987.99 412.974 1961.73 421.062 1936.86 428.817C1891.23 442.944 1834.45 460.531 1780.12 466.811C1718.01 473.89 1675.75 461.318 1639.34 446.678C1631.26 443.444 1623.54 440.259 1617.05 437.571C1613.79 436.227 1610.56 434.884 1607.35 433.547C1580.1 422.223 1554.37 411.527 1522.91 403.098C1481.29 391.948 1431.05 382.259 1381.44 375.818C1282.16 362.923 1189 364.204 1104.56 379.62C1072.19 385.531 1040.71 393.685 1011 403.853C979.133 414.762 948.512 428.265 919.993 443.981C890.905 460.037 863.219 476.922 836.446 493.253C833.591 494.995 830.739 496.733 827.892 498.471C770.408 533.563 716.108 566.709 651.497 595.274C628.005 605.665 603.218 615.898 577.821 625.687C546.126 637.868 514.522 649.046 483.879 658.91C435.72 674.412 375.783 693.706 314.065 694.821C280.634 695.425 254.42 690.642 233.937 680.197C194.503 660.288 182.967 623.662 173.694 594.235C170.376 583.71 167.244 573.769 163.229 565.919C162.4 564.299 161.57 562.671 160.739 561.033C153.225 546.242 145.454 530.946 133.609 516.563C116.68 495.86 84.7746 468.93 28.9041 458.201C13.3184 455.208 -2.76061 453.426 -20.2561 452.754C-44.5774 451.783 -71.3292 453.281 -99.765 457.201C-125.727 460.781 -153.203 466.39 -181.427 473.872C-229.311 486.562 -274.34 504.266 -311.639 525.068C-353.413 548.324 -387.561 575.618 -413.131 606.188C-424.866 620.215 -434.685 634.863 -442.314 649.726C-449.622 663.961 -454.954 678.432 -458.152 692.736L-456.617 692.665C-442.679 630.336 -389.444 569.403 -310.567 525.49C-273.424 504.777 -228.589 487.147 -180.909 474.509C-122.119 458.924 -66.7135 451.659 -20.676 453.496C-3.31464 454.163 12.6411 455.931 28.1061 458.901C83.5901 469.556 115.316 496.35 132.16 516.949C143.972 531.295 151.733 546.568 159.236 561.34C160.068 562.978 160.898 564.608 161.726 566.228C165.73 574.048 168.856 583.977 172.168 594.486C181.468 623.998 193.039 660.73 232.725 680.767C242.6 685.801 254.106 689.601 266.918 692.058C280.704 694.701 296.481 695.882 313.811 695.57C326.323 695.339 339.183 694.386 352.559 692.68Z" fill="#F47C2A"/>
<path d="M330.686 696.489C349.085 694.18 368.393 690.342 389.029 684.91C418.224 677.226 445.936 667.469 470.381 658.862C501.275 647.985 532.817 635.878 564.129 622.88C589.305 612.405 613.889 601.49 637.206 590.44C694.62 563.236 742.719 532.7 793.644 500.37C801.968 495.085 810.578 489.621 819.124 484.238C849.167 465.323 874.88 449.609 902.701 434.404C958.773 403.795 1022.66 383.005 1092.58 372.609C1180.45 359.546 1276.8 362.342 1378.96 380.92C1429.71 390.15 1480.17 402.94 1521.05 416.936C1551.85 427.48 1576.5 440.072 1602.6 453.402C1605.83 455.053 1609.08 456.71 1612.34 458.367C1618.16 461.324 1625.86 465.216 1633.78 469.093C1667.14 485.456 1709.98 501.235 1774.76 494.188C1776.78 493.966 1778.81 493.726 1780.83 493.473C1831.3 487.139 1881.58 471.327 1932.9 454.276L1936.11 453.206C1961.53 444.715 1985.53 436.694 2007.89 430.244C2092.13 405.937 2173.82 384.091 2235.58 367.775L2235.03 367.094C2173.26 383.415 2091.54 405.266 2007.27 429.583C1984.86 436.05 1960.82 444.08 1935.37 452.582L1932.17 453.651C1878.97 471.326 1826.89 487.673 1774.72 493.416C1710.66 500.384 1668.17 484.723 1635.06 468.483C1627.14 464.61 1619.45 460.72 1613.63 457.764C1610.37 456.106 1607.13 454.45 1603.89 452.799C1577.75 439.449 1553.06 426.837 1522.17 416.259C1481.2 402.233 1430.64 389.417 1379.79 380.168C1332.59 371.585 1285.82 366.316 1240.78 364.504C1189.1 362.426 1139.18 364.9 1092.4 371.853C1022.12 382.301 957.909 403.194 901.575 433.946C873.713 449.175 847.975 464.905 817.903 483.835C809.353 489.219 800.743 494.685 792.415 499.971C741.541 532.268 693.489 562.775 636.185 589.924C612.902 600.961 588.355 611.859 563.216 622.318C531.948 635.299 500.455 647.388 469.606 658.248C421.181 675.298 360.912 696.517 298.343 698.221C264.142 699.152 237.783 694.294 217.763 683.369C178.707 662.223 171.299 622.955 165.346 591.402C163.404 581.108 161.568 571.382 158.818 563.706L158.755 563.531C152.591 546.342 146.216 528.57 134.779 511.68C124.858 496.941 112.073 484.175 96.7844 473.733C79.5434 461.961 59.0408 453.122 35.8428 447.462C20.3232 443.675 4.10262 441.154 -13.7433 439.758C-61.9672 435.929 -119.676 441.646 -180.631 456.293C-205.163 462.188 -229.165 469.467 -251.98 477.925C-274.926 486.433 -296.195 495.965 -315.197 506.252C-358.128 529.462 -392.621 556.921 -417.716 587.866C-440.273 615.681 -454.573 645.976 -459.07 675.474L-457.434 675.373C-447.812 612.24 -395.56 550.764 -314.074 506.71C-275.971 486.084 -229.661 468.891 -180.158 456.997C-119.548 442.433 -62.2034 436.746 -14.3161 440.549C3.39153 441.935 19.4802 444.435 34.8818 448.191C78.1921 458.76 112.19 480.846 133.203 512.059C144.611 528.905 150.975 546.653 157.132 563.817L157.195 563.993C159.937 571.64 161.771 581.351 163.712 591.631C169.685 623.28 177.116 662.666 216.447 683.961C226.098 689.23 237.528 693.171 250.408 695.676C264.298 698.377 280.344 699.501 298.109 699.019C308.689 698.729 319.521 697.89 330.686 696.489Z" fill="#F47C2A"/>
<path d="M1775.9 520.239C1798.48 517.456 1822.79 512.368 1850 504.747C1877.02 497.175 1903.54 488.052 1928.17 479.323C1932.63 477.736 1937.06 476.156 1941.45 474.587C1963.33 466.774 1983.99 459.395 2003.4 453.238C2080.79 428.694 2154.66 406.103 2226.1 384.258L2237.94 380.637L2237.23 379.954L2225.4 383.574C2153.95 405.423 2080.07 428.016 2002.66 452.565C1983.2 458.737 1962.51 466.125 1940.61 473.949C1936.22 475.517 1931.79 477.098 1927.34 478.682C1876.77 496.602 1822.91 514.567 1769.14 520.186C1703.03 527.03 1660.4 507.88 1630.64 490.433C1623.02 485.973 1615.66 481.499 1610.09 478.1C1607.02 476.227 1603.97 474.354 1600.93 472.485C1575.69 456.995 1551.85 442.364 1521.34 429.559C1481.06 412.66 1430.19 396.704 1378.11 384.633C1329.78 373.434 1281.5 365.831 1234.59 362.037C1180.78 357.684 1128.87 358.383 1080.3 364.113C1007.19 372.608 940.873 392.722 883.219 423.889C851.26 441.182 822.923 459.12 799.413 474.388C786.621 482.696 773.851 491.17 761.499 499.366C717.78 528.379 672.57 558.378 620.896 584.533C597.815 596.218 573.495 607.781 548.62 618.898C517.833 632.634 486.445 645.629 455.321 657.521C406.672 676.11 346.129 699.243 282.582 701.515C247.605 702.766 221.1 697.827 201.55 686.417C162.891 663.979 159.854 621.992 157.418 588.255C156.695 578.279 156.016 568.854 154.394 561.399C150.744 544.592 146.003 525.121 135.949 506.717C127.465 491.117 115.942 477.479 101.698 466.182C85.5858 453.402 65.7767 443.465 42.823 436.645C27.6143 432.125 10.7905 428.772 -7.1746 426.674C-32.8145 423.662 -61.1957 423.279 -91.537 425.539C-119.95 427.655 -149.628 432.042 -179.743 438.577C-205.142 444.089 -229.975 451.067 -253.553 459.318C-277.278 467.621 -299.184 477.022 -318.654 487.258C-341.103 499.048 -361.443 512.211 -379.107 526.381C-395.845 539.806 -410.345 554.265 -422.209 569.356C-444.404 597.588 -457.439 628.257 -459.903 658.043L-458.165 657.911C-452.871 593.948 -401.595 531.929 -317.485 487.757C-278.965 467.508 -229.897 450.312 -179.308 439.333C-116.757 425.759 -57.4803 421.665 -7.8832 427.493C9.93887 429.573 26.626 432.901 41.7164 437.384C84.9669 450.235 116.107 473.68 134.264 507.073C144.296 525.427 149.025 544.865 152.668 561.645C154.282 569.073 154.963 578.483 155.68 588.447C156.885 605.09 158.249 623.956 164.177 641.625C171.057 662.128 182.816 676.977 200.124 687.023C209.55 692.525 220.899 696.612 233.852 699.169C247.841 701.933 264.165 703.003 282.365 702.352C291.547 702.024 300.665 701.265 309.683 700.153C363.684 693.496 414.337 674.141 456.22 658.138C487.388 646.227 518.825 633.213 549.652 619.458C574.564 608.325 598.917 596.745 622.032 585.043C673.813 558.835 719.069 528.805 762.832 499.764C775.18 491.571 787.946 483.099 800.731 474.795C824.208 459.546 852.506 441.633 884.406 424.373C941.749 393.372 1007.68 373.376 1080.38 364.924C1194.52 351.461 1304.75 368.627 1377.12 385.4C1429.1 397.447 1479.86 413.368 1520.05 430.233C1550.48 443 1574.28 457.608 1599.48 473.074C1602.52 474.943 1605.58 476.816 1608.65 478.69C1614.22 482.09 1621.59 486.567 1629.21 491.032C1641.7 498.357 1661.18 508.858 1686.04 515.466C1698.11 518.675 1710.78 520.803 1723.72 521.794C1738.14 522.897 1753.43 522.631 1769.17 521.001C1771.4 520.771 1773.64 520.517 1775.9 520.239Z" fill="#F47C2A"/>
<path d="M1772.48 551.97C1795.1 549.293 1819.38 544.171 1846.44 536.38C1874.46 528.315 1901.92 518.388 1925.09 509.74C1932.2 507.079 1939.3 504.395 1946.17 501.799C1965.36 494.542 1983.49 487.686 2000.66 481.808C2062.31 460.7 2123.59 439.964 2182.85 419.908C2202.45 413.275 2222.72 406.416 2242.37 399.759L2241.51 399.068C2221.87 405.725 2201.6 412.583 2182 419.217C2122.74 439.272 2061.45 460.012 1999.8 481.122C1982.58 487.016 1964.43 493.878 1945.21 501.145C1938.35 503.741 1931.25 506.423 1924.14 509.083C1876.1 527.015 1820.23 546.59 1765.07 551.898C1697.34 558.38 1656.18 536.635 1627.87 516.969C1620.62 511.931 1613.57 506.844 1608.25 502.976C1605.52 500.99 1602.8 499.005 1600.08 497.025C1575.69 479.212 1552.65 462.388 1522.43 447.188C1483.12 427.421 1432.03 408.193 1378.58 393.047C1304.15 372.081 1190.29 349.237 1070.55 359.469C994.39 365.91 925.921 385.052 867.055 416.364C840.607 430.438 814.671 446.13 782.954 467.251C766.925 477.923 751.067 488.896 735.731 499.505C695.829 527.108 654.576 555.65 607.249 581C584.323 593.283 560.195 605.444 535.537 617.147C505.679 631.308 474.342 645.126 442.402 658.218C393.332 678.241 332.261 703.165 268.016 705.759C232.798 707.237 205.403 702 186.585 690.195C148.414 666.314 150.221 619.64 151.544 585.56C151.916 575.996 152.267 566.962 151.667 559.78C150.342 543.816 147.706 522.871 139.015 502.431C123.995 467.007 94.7116 441.392 51.9761 426.302C36.9941 420.977 20.0493 416.815 1.62202 413.93C-24.5934 409.817 -53.7741 408.417 -85.1126 409.771C-114.637 411.048 -145.419 414.726 -176.61 420.704C-202.925 425.79 -228.601 432.403 -252.93 440.357C-277.496 448.391 -300.063 457.592 -320.008 467.708C-343.067 479.397 -363.83 492.533 -381.715 506.751C-398.667 520.226 -413.18 534.779 -424.858 550.01C-446.777 578.603 -458.647 609.619 -459.187 639.704L-457.351 639.544C-456.194 574.733 -405.691 512.298 -318.798 468.251C-279.402 448.27 -228.77 431.673 -176.232 421.519C-111.447 409.105 -50.2462 406.774 0.763675 414.778C19.0432 417.638 35.8468 421.768 50.71 427.05C93.163 442.04 122.265 467.512 137.208 502.762C145.877 523.146 148.504 544.05 149.829 559.983C150.421 567.141 150.073 576.163 149.704 585.714C149.021 603.33 148.249 623.298 152.427 642.208C157.296 664.227 167.965 680.127 185.048 690.814C194.241 696.581 205.492 700.848 218.496 703.495C232.592 706.365 249.186 707.424 267.815 706.642C296.715 705.474 327.279 699.834 361.255 689.397C390.79 680.324 418.752 668.914 443.42 658.849C475.408 645.739 506.785 631.902 536.688 617.721C561.383 606.001 585.544 593.822 608.504 581.522C655.929 556.121 697.23 527.548 737.171 499.916C752.5 489.31 768.355 478.343 784.369 467.68C816.032 446.597 841.921 430.934 868.306 416.893C926.823 385.761 994.856 366.737 1070.53 360.337C1189.76 350.151 1303.24 372.928 1377.45 393.83C1430.8 408.945 1481.78 428.132 1521 447.859C1551.13 463.015 1574.14 479.816 1598.5 497.602C1601.21 499.584 1603.93 501.569 1606.67 503.555C1611.99 507.426 1619.04 512.518 1626.3 517.56C1654.86 537.402 1696.44 559.336 1765.09 552.764C1767.54 552.528 1770 552.263 1772.48 551.97Z" fill="#F47C2A"/>
<path d="M1768.78 583.717C1830.62 576.7 1893.41 551.582 1949.08 529.313C1966.19 522.471 1982.35 516.007 1997.76 510.343L2246.66 418.867L2245.68 418.169L1996.77 509.645C1981.32 515.322 1965.14 521.794 1948.01 528.646C1890.19 551.775 1824.65 577.991 1760.85 583.602C1691.58 589.698 1651.84 565.358 1624.96 543.476C1616.16 536.318 1607.63 528.99 1599.37 521.902C1576.78 502.519 1553.42 482.475 1523.39 464.761C1499.55 450.696 1470.31 436.426 1438.83 423.496C1404.29 409.31 1367.64 396.859 1329.89 386.489C1288.28 375.057 1246.31 366.455 1205.18 360.923C1159.68 354.805 1115.29 352.476 1073.24 354.001C988.998 357.057 914.214 375.409 850.969 408.548C798.41 436.086 754.708 467.723 712.445 498.32C675.657 524.952 637.618 552.488 593.794 577.31C543.175 605.98 487.965 633.401 429.694 658.811C380.599 680.221 319.496 706.868 253.647 709.908C198.033 712.476 164.096 698.836 149.903 668.204C137.83 642.148 142.504 609.085 146.256 582.52C147.537 573.466 148.744 564.915 149.025 558.06C150.575 520.268 143.191 490.054 126.455 465.693C116.012 450.493 101.715 437.511 83.9625 427.105C64.134 415.481 39.4005 406.722 10.4527 401.071C-14.5916 396.182 -42.455 393.729 -72.3705 393.78C-100.847 393.828 -130.564 396.134 -160.695 400.631C-219.954 409.476 -276.961 426.288 -321.21 447.967C-344.865 459.556 -366.036 472.671 -384.134 486.946C-401.286 500.476 -415.802 515.135 -427.275 530.519C-448.886 559.498 -459.561 590.898 -458.142 621.32L-456.208 621.132C-459.225 556.346 -408.289 491.83 -319.951 448.554C-226.143 402.596 -87.6022 382.991 9.46772 401.941C105.625 420.714 150.645 471.829 147.098 558.211C146.819 565.044 145.611 573.584 144.332 582.626C140.571 609.249 135.886 642.383 148.016 668.557C154.624 682.812 165.799 693.604 181.23 700.633C189.91 704.584 200.149 707.457 211.668 709.168C223.927 710.988 237.993 711.549 253.482 710.834C259.812 710.542 266.226 710.028 272.722 709.291C296.397 706.605 321.287 700.944 348.251 692.139C378.628 682.218 407.583 669.592 430.849 659.446C489.198 634 544.485 606.542 595.178 577.832C639.1 552.956 677.179 525.388 714.007 498.728C756.216 468.171 799.864 436.572 852.29 409.104C915.111 376.19 989.382 357.961 1073.04 354.927C1242.27 348.788 1424.31 407.901 1521.82 465.422C1551.77 483.087 1575.09 503.103 1597.65 522.46C1605.92 529.551 1614.46 536.885 1623.26 544.049C1641.11 558.577 1658.21 568.489 1677.09 575.239C1688.87 579.451 1701.46 582.397 1714.51 583.994C1729.02 585.769 1744.62 585.946 1760.87 584.517C1763.49 584.283 1766.14 584.016 1768.78 583.717Z" fill="#F47C2A"/>
</g>
</svg>
