<svg width="61" height="54" viewBox="0 0 61 54" fill="none" xmlns="http://www.w3.org/2000/svg">
<path d="M34.6695 26.1094L32.9194 26.6902C32.3918 26.8654 31.977 27.2167 31.7514 27.6805C31.4963 28.1648 31.4642 28.6927 31.6484 29.194C32.0234 30.2178 33.2051 30.7603 34.2822 30.4027L36.0314 29.8219L35.3508 27.9655L34.6695 26.1094Z" fill="#183F30"/>
<path d="M42.4344 31.3535L44.727 37.6052C45.0454 38.4732 44.9888 39.4073 44.5683 40.2361C44.1479 41.0639 43.4136 41.687 42.5003 41.9897C42.1079 42.1202 41.7064 42.1818 41.3094 42.1818C40.0399 42.1818 38.8254 41.5447 38.1658 40.4471L33.2792 32.3201C31.7474 32.2012 30.3549 31.2569 29.8172 29.7906C29.459 28.8143 29.5263 27.7774 30.0054 26.8715C30.4391 25.9782 31.252 25.2834 32.2791 24.9428L34.0869 24.343C33.9787 23.4949 34.3767 22.6491 35.1605 22.1755C35.2615 22.1144 35.3732 22.0722 35.4901 22.0499C38.5332 21.47 41.2482 19.8697 43.9974 17.0574C43.7096 16.235 43.7642 15.3543 44.1607 14.5706C44.5663 13.77 45.274 13.1688 46.1548 12.8756C47.0472 12.5826 47.9998 12.6355 48.8371 13.0295C48.9351 13.0746 49.0203 13.1362 49.1122 13.1891V10.5946C49.1122 10.0337 48.1218 9.40625 46.7957 9.40625H17.5231C16.197 9.40625 15.2055 10.0337 15.2055 10.5946V16.2072C15.2055 16.2635 15.1821 16.312 15.1719 16.3654H21.5979C23.8348 16.3654 25.6544 18.0958 25.6544 20.223V33.0621C25.6544 35.1894 23.8348 36.9197 21.5979 36.9197H15.206V43.3946C15.206 43.9555 16.1974 44.5829 17.5235 44.5829H46.7961C48.1222 44.5829 49.1126 43.9555 49.1126 43.3946V31.4129C49.1126 31.3789 49.1294 31.3498 49.133 31.3168C46.7716 30.8229 44.5545 30.8335 42.435 31.3532L42.4344 31.3535Z" fill="#183F30"/>
<path d="M23.7223 33.0666V20.2275C23.7223 19.1158 22.7707 18.2109 21.6018 18.2109H2.9096C1.74062 18.2109 0.789062 19.1159 0.789062 20.2275V33.0666C0.789062 34.1783 1.74068 35.0832 2.9096 35.0832C4.16481 35.0832 5.18531 36.0536 5.18531 37.2473V39.6642L8.92596 35.9659C9.49387 35.405 10.2889 35.0833 11.1072 35.0833H21.6004C22.7699 35.0837 23.722 34.1783 23.722 33.0667L23.7223 33.0666ZM17.1564 27.6714L10.1665 31.281C9.90065 31.4174 9.61287 31.4858 9.32509 31.4858C9.01486 31.4858 8.70515 31.4067 8.42553 31.2485C7.88671 30.9438 7.56475 30.4056 7.56475 29.8088V22.5818C7.56475 21.985 7.88723 21.4469 8.42656 21.1421C8.9664 20.8364 9.61748 20.8258 10.1686 21.1116L17.1574 24.7279C17.7253 25.021 18.0769 25.5853 18.0769 26.1992C18.0769 26.8139 17.7233 27.3773 17.1564 27.6714Z" fill="#183F30"/>
<path d="M46.8011 7.57071C47.6634 7.57071 48.4542 7.74928 49.1175 8.05157V2.70288C49.1175 1.48885 48.0782 0.5 46.8011 0.5H17.5285C16.2508 0.5 15.2109 1.4884 15.2109 2.70288V8.05195C15.8748 7.74917 16.6657 7.5706 17.5285 7.5706L46.8011 7.57071ZM30.5646 3.05962H33.7628C34.2976 3.05962 34.7307 3.47109 34.7307 3.9801C34.7307 4.48862 34.2981 4.90058 33.7628 4.90058H30.5646C30.0299 4.90058 29.5967 4.48911 29.5967 3.9801C29.5967 3.47158 30.0299 3.05962 30.5646 3.05962Z" fill="#183F30"/>
<path d="M17.5285 46.4345C16.6656 46.4345 15.8748 46.2559 15.2109 45.9531V51.3022C15.2109 52.5172 16.2503 53.5061 17.5285 53.5061H46.8011C48.0777 53.5061 49.1175 52.5177 49.1175 51.3022V45.9535C48.4542 46.2558 47.6638 46.4344 46.8011 46.4344L17.5285 46.4345ZM32.1648 51.0242C31.63 51.0242 31.1346 50.553 31.1346 50.0445C31.1346 49.536 31.63 49.0649 32.1648 49.0649C32.6995 49.0649 33.196 49.536 33.196 50.0445C33.196 50.553 32.7 51.0242 32.1648 51.0242Z" fill="#183F30"/>
<path d="M41.8677 40.2581C42.2928 40.1173 42.6341 39.8277 42.8301 39.4419C43.0255 39.0562 43.052 38.6224 42.9035 38.2177L40.5997 31.935C40.1767 32.1024 39.7563 32.2892 39.3399 32.4993C39.2302 32.5551 39.1114 32.5901 38.9874 32.6017C38.9032 32.6109 38.819 32.6143 38.7348 32.6143C37.9072 32.6143 37.155 32.2014 36.728 31.5391L35.3203 32.0063L39.8514 39.5409C40.2524 40.2115 41.1004 40.5118 41.8679 40.258L41.8677 40.2581Z" fill="#183F30"/>
<path d="M48.4921 29.315L45.8699 22.1638L44.7183 19.0234C41.9803 21.6359 39.2102 23.1731 36.1114 23.8112C36.014 23.9218 35.9803 24.0771 36.0318 24.2192L37.1814 27.3548L38.181 30.0802L38.3315 30.4902C38.3825 30.6295 38.508 30.7319 38.6545 30.7615C41.7532 29.2485 44.9868 28.7726 48.4921 29.315Z" fill="#183F30"/>
<path d="M48.7826 15.5245C48.6453 15.1533 48.3657 14.8549 47.9953 14.6841C47.7789 14.5827 47.5473 14.5312 47.3141 14.5312C47.1421 14.5312 46.9692 14.5589 46.8008 14.6147C46.4084 14.7452 46.0941 15.0131 45.9135 15.3697C45.7328 15.7254 45.7083 16.1267 45.8456 16.4979L51.0633 30.7283C51.347 31.4983 52.24 31.9074 53.0431 31.6376C53.8538 31.3688 54.283 30.524 54.0003 29.7539L48.7826 15.5245Z" fill="#183F30"/>
<path d="M57.9442 20.4577C58.0687 20.4577 58.1958 20.4354 58.3167 20.3868L60.0087 19.7153C60.5021 19.5193 60.7353 18.9812 60.5296 18.5119C60.3235 18.0418 59.752 17.821 59.2642 18.0165L57.5723 18.6881C57.0789 18.8841 56.8457 19.4222 57.0513 19.8914C57.2059 20.2447 57.5662 20.4577 57.9442 20.4577Z" fill="#183F30"/>
<path d="M59.8223 23.3828H59.81L57.9323 23.4061C57.3976 23.4124 56.97 23.8302 56.9766 24.3382C56.9833 24.8424 57.4149 25.247 57.9446 25.247H57.9568L59.8345 25.2238C60.3693 25.2174 60.7969 24.7997 60.7902 24.2916C60.7836 23.7875 60.3519 23.3828 59.8223 23.3828Z" fill="#183F30"/>
<path d="M57.413 13.9132C57.1135 13.4925 56.5144 13.3809 56.069 13.6652L54.5122 14.6638C54.0698 14.9477 53.9525 15.5203 54.2515 15.9419C54.4387 16.2054 54.7439 16.3471 55.0546 16.3471C55.2408 16.3471 55.4286 16.2956 55.595 16.1899L57.1517 15.1913C57.5946 14.9069 57.7115 14.3344 57.413 13.9132Z" fill="#183F30"/>
</svg>
