<svg width="1729" height="1064" viewBox="0 0 1729 1064" fill="none" xmlns="http://www.w3.org/2000/svg">
<path opacity="0.3" d="M762.019 15.1634C762.352 14.3193 763.547 14.3193 763.88 15.1634L767.626 24.6625C767.728 24.9202 767.932 25.1242 768.189 25.2259L777.689 28.9723C778.533 29.3052 778.533 30.4999 777.689 30.8328L768.189 34.5792C767.932 34.6808 767.728 34.8848 767.626 35.1425L763.88 44.6416C763.547 45.4858 762.352 45.4858 762.019 44.6416L758.273 35.1425C758.171 34.8848 757.967 34.6808 757.709 34.5792L748.21 30.8328C747.366 30.4999 747.366 29.3052 748.21 28.9723L757.709 25.2259C757.967 25.1242 758.171 24.9202 758.273 24.6625L762.019 15.1634Z" fill="#063B33"/>
<g opacity="0.3">
<ellipse cx="5.82603" cy="2.74676" rx="2.84947" ry="2.74676" fill="#5BC17F"/>
<ellipse cx="22.9276" cy="2.74676" rx="2.84947" ry="2.74676" fill="#5BC17F"/>
<ellipse cx="40.0213" cy="2.74676" rx="2.84947" ry="2.74676" fill="#5BC17F"/>
<ellipse cx="57.1229" cy="2.74676" rx="2.84947" ry="2.74676" fill="#5BC17F"/>
<ellipse cx="74.2088" cy="2.74676" rx="2.84947" ry="2.74676" fill="#5BC17F"/>
<ellipse cx="91.3104" cy="2.74676" rx="2.84947" ry="2.74676" fill="#5BC17F"/>
<ellipse cx="108.42" cy="2.74676" rx="2.84947" ry="2.74676" fill="#5BC17F"/>
<ellipse cx="125.514" cy="2.74676" rx="2.84947" ry="2.74676" fill="#5BC17F"/>
<ellipse cx="142.607" cy="2.74676" rx="2.84947" ry="2.74676" fill="#5BC17F"/>
<ellipse cx="159.701" cy="2.74676" rx="2.84947" ry="2.74676" fill="#5BC17F"/>
<ellipse cx="5.82603" cy="19.2233" rx="2.84947" ry="2.74676" fill="#5BC17F"/>
<ellipse cx="22.9276" cy="19.2233" rx="2.84947" ry="2.74676" fill="#5BC17F"/>
<ellipse cx="40.0213" cy="19.2233" rx="2.84947" ry="2.74676" fill="#5BC17F"/>
<ellipse cx="57.1229" cy="19.2233" rx="2.84947" ry="2.74676" fill="#5BC17F"/>
<ellipse cx="74.2088" cy="19.2233" rx="2.84947" ry="2.74676" fill="#5BC17F"/>
<ellipse cx="91.3104" cy="19.2233" rx="2.84947" ry="2.74676" fill="#5BC17F"/>
<ellipse cx="108.42" cy="19.2233" rx="2.84947" ry="2.74676" fill="#5BC17F"/>
<ellipse cx="125.514" cy="19.2233" rx="2.84947" ry="2.74676" fill="#5BC17F"/>
<ellipse cx="142.607" cy="19.2233" rx="2.84947" ry="2.74676" fill="#5BC17F"/>
<ellipse cx="159.701" cy="19.2233" rx="2.84947" ry="2.74676" fill="#5BC17F"/>
<ellipse cx="5.82603" cy="35.7155" rx="2.84947" ry="2.74676" fill="#5BC17F"/>
<ellipse cx="22.9276" cy="35.7155" rx="2.84947" ry="2.74676" fill="#5BC17F"/>
<ellipse cx="40.0213" cy="35.7155" rx="2.84947" ry="2.74676" fill="#5BC17F"/>
<ellipse cx="57.1229" cy="35.7155" rx="2.84947" ry="2.74676" fill="#5BC17F"/>
<ellipse cx="74.2088" cy="35.7155" rx="2.84947" ry="2.74676" fill="#5BC17F"/>
<ellipse cx="91.3104" cy="35.7155" rx="2.84947" ry="2.74676" fill="#5BC17F"/>
<ellipse cx="108.42" cy="35.7155" rx="2.84947" ry="2.74676" fill="#5BC17F"/>
<ellipse cx="125.514" cy="35.7155" rx="2.84947" ry="2.74676" fill="#5BC17F"/>
<ellipse cx="142.607" cy="35.7155" rx="2.84947" ry="2.74676" fill="#5BC17F"/>
<ellipse cx="159.701" cy="35.7155" rx="2.84947" ry="2.74676" fill="#5BC17F"/>
<ellipse cx="5.82603" cy="52.1843" rx="2.84947" ry="2.74676" fill="#5BC17F"/>
<ellipse cx="22.9276" cy="52.1843" rx="2.84947" ry="2.74676" fill="#5BC17F"/>
<ellipse cx="40.0213" cy="52.1843" rx="2.84947" ry="2.74676" fill="#5BC17F"/>
<ellipse cx="57.1229" cy="52.1843" rx="2.84947" ry="2.74676" fill="#5BC17F"/>
<ellipse cx="74.2088" cy="52.1843" rx="2.84947" ry="2.74676" fill="#5BC17F"/>
<ellipse cx="91.3104" cy="52.1843" rx="2.84947" ry="2.74676" fill="#5BC17F"/>
<ellipse cx="108.42" cy="52.1843" rx="2.84947" ry="2.74676" fill="#5BC17F"/>
<ellipse cx="125.514" cy="52.1843" rx="2.84947" ry="2.74676" fill="#5BC17F"/>
<ellipse cx="142.607" cy="52.1843" rx="2.84947" ry="2.74676" fill="#5BC17F"/>
<ellipse cx="159.701" cy="52.1843" rx="2.84947" ry="2.74676" fill="#5BC17F"/>
<ellipse cx="5.82603" cy="68.6686" rx="2.84947" ry="2.74676" fill="#5BC17F"/>
<ellipse cx="22.9276" cy="68.6686" rx="2.84947" ry="2.74676" fill="#5BC17F"/>
<ellipse cx="40.0213" cy="68.6686" rx="2.84947" ry="2.74676" fill="#5BC17F"/>
<ellipse cx="57.1229" cy="68.6686" rx="2.84947" ry="2.74676" fill="#5BC17F"/>
<ellipse cx="74.2088" cy="68.6686" rx="2.84947" ry="2.74676" fill="#5BC17F"/>
<ellipse cx="91.3104" cy="68.6686" rx="2.84947" ry="2.74676" fill="#5BC17F"/>
<ellipse cx="108.42" cy="68.6686" rx="2.84947" ry="2.74676" fill="#5BC17F"/>
<ellipse cx="125.514" cy="68.6686" rx="2.84947" ry="2.74676" fill="#5BC17F"/>
<ellipse cx="142.607" cy="68.6686" rx="2.84947" ry="2.74676" fill="#5BC17F"/>
<ellipse cx="159.701" cy="68.6686" rx="2.84947" ry="2.74676" fill="#5BC17F"/>
<ellipse cx="5.82603" cy="85.1452" rx="2.84947" ry="2.74676" fill="#5BC17F"/>
<ellipse cx="22.9276" cy="85.1452" rx="2.84947" ry="2.74676" fill="#5BC17F"/>
<ellipse cx="40.0213" cy="85.1452" rx="2.84947" ry="2.74676" fill="#5BC17F"/>
<ellipse cx="57.1229" cy="85.1452" rx="2.84947" ry="2.74676" fill="#5BC17F"/>
<ellipse cx="74.2088" cy="85.1452" rx="2.84947" ry="2.74676" fill="#5BC17F"/>
<ellipse cx="91.3104" cy="85.1452" rx="2.84947" ry="2.74676" fill="#5BC17F"/>
<ellipse cx="108.42" cy="85.1452" rx="2.84947" ry="2.74676" fill="#5BC17F"/>
<ellipse cx="125.514" cy="85.1452" rx="2.84947" ry="2.74676" fill="#5BC17F"/>
<ellipse cx="142.607" cy="85.1452" rx="2.84947" ry="2.74676" fill="#5BC17F"/>
<ellipse cx="159.701" cy="85.1452" rx="2.84947" ry="2.74676" fill="#5BC17F"/>
<ellipse cx="5.82603" cy="101.637" rx="2.84947" ry="2.74676" fill="#5BC17F"/>
<ellipse cx="22.9276" cy="101.637" rx="2.84947" ry="2.74676" fill="#5BC17F"/>
<ellipse cx="40.0213" cy="101.637" rx="2.84947" ry="2.74676" fill="#5BC17F"/>
<ellipse cx="57.1229" cy="101.637" rx="2.84947" ry="2.74676" fill="#5BC17F"/>
<ellipse cx="74.2088" cy="101.637" rx="2.84947" ry="2.74676" fill="#5BC17F"/>
<ellipse cx="91.3104" cy="101.637" rx="2.84947" ry="2.74676" fill="#5BC17F"/>
<ellipse cx="108.42" cy="101.637" rx="2.84947" ry="2.74676" fill="#5BC17F"/>
<ellipse cx="125.514" cy="101.637" rx="2.84947" ry="2.74676" fill="#5BC17F"/>
<ellipse cx="142.607" cy="101.637" rx="2.84947" ry="2.74676" fill="#5BC17F"/>
<ellipse cx="159.701" cy="101.637" rx="2.84947" ry="2.74676" fill="#5BC17F"/>
<ellipse cx="5.82603" cy="118.122" rx="2.84947" ry="2.74676" fill="#5BC17F"/>
<ellipse cx="22.9276" cy="118.122" rx="2.84947" ry="2.74676" fill="#5BC17F"/>
<ellipse cx="40.0213" cy="118.122" rx="2.84947" ry="2.74676" fill="#5BC17F"/>
<ellipse cx="57.1229" cy="118.122" rx="2.84947" ry="2.74676" fill="#5BC17F"/>
<ellipse cx="74.2088" cy="118.122" rx="2.84947" ry="2.74676" fill="#5BC17F"/>
<ellipse cx="91.3104" cy="118.122" rx="2.84947" ry="2.74676" fill="#5BC17F"/>
<ellipse cx="108.42" cy="118.122" rx="2.84947" ry="2.74676" fill="#5BC17F"/>
<ellipse cx="125.514" cy="118.122" rx="2.84947" ry="2.74676" fill="#5BC17F"/>
<ellipse cx="142.607" cy="118.122" rx="2.84947" ry="2.74676" fill="#5BC17F"/>
<ellipse cx="159.701" cy="118.122" rx="2.84947" ry="2.74676" fill="#5BC17F"/>
<ellipse cx="5.82603" cy="134.59" rx="2.84947" ry="2.74676" fill="#5BC17F"/>
<ellipse cx="22.9276" cy="134.59" rx="2.84947" ry="2.74676" fill="#5BC17F"/>
<ellipse cx="40.0213" cy="134.59" rx="2.84947" ry="2.74676" fill="#5BC17F"/>
<ellipse cx="57.1229" cy="134.59" rx="2.84947" ry="2.74676" fill="#5BC17F"/>
<ellipse cx="74.2088" cy="134.59" rx="2.84947" ry="2.74676" fill="#5BC17F"/>
<ellipse cx="91.3104" cy="134.59" rx="2.84947" ry="2.74676" fill="#5BC17F"/>
<ellipse cx="108.42" cy="134.59" rx="2.84947" ry="2.74676" fill="#5BC17F"/>
<ellipse cx="125.514" cy="134.59" rx="2.84947" ry="2.74676" fill="#5BC17F"/>
<ellipse cx="142.607" cy="134.59" rx="2.84947" ry="2.74676" fill="#5BC17F"/>
<ellipse cx="159.701" cy="134.59" rx="2.84947" ry="2.74676" fill="#5BC17F"/>
<ellipse cx="5.82603" cy="151.067" rx="2.84947" ry="2.74676" fill="#5BC17F"/>
<ellipse cx="22.9276" cy="151.067" rx="2.84947" ry="2.74676" fill="#5BC17F"/>
<ellipse cx="40.0213" cy="151.067" rx="2.84947" ry="2.74676" fill="#5BC17F"/>
<ellipse cx="57.1229" cy="151.067" rx="2.84947" ry="2.74676" fill="#5BC17F"/>
<ellipse cx="74.2088" cy="151.067" rx="2.84947" ry="2.74676" fill="#5BC17F"/>
<ellipse cx="91.3104" cy="151.067" rx="2.84947" ry="2.74676" fill="#5BC17F"/>
<ellipse cx="108.42" cy="151.067" rx="2.84947" ry="2.74676" fill="#5BC17F"/>
<ellipse cx="125.514" cy="151.067" rx="2.84947" ry="2.74676" fill="#5BC17F"/>
<ellipse cx="142.607" cy="151.067" rx="2.84947" ry="2.74676" fill="#5BC17F"/>
<ellipse cx="159.701" cy="151.067" rx="2.84947" ry="2.74676" fill="#5BC17F"/>
<ellipse cx="5.82603" cy="167.551" rx="2.84947" ry="2.74676" fill="#5BC17F"/>
<ellipse cx="22.9276" cy="167.551" rx="2.84947" ry="2.74676" fill="#5BC17F"/>
<ellipse cx="40.0213" cy="167.551" rx="2.84947" ry="2.74676" fill="#5BC17F"/>
<ellipse cx="57.1229" cy="167.551" rx="2.84947" ry="2.74676" fill="#5BC17F"/>
<ellipse cx="74.2088" cy="167.551" rx="2.84947" ry="2.74676" fill="#5BC17F"/>
<ellipse cx="91.3104" cy="167.551" rx="2.84947" ry="2.74676" fill="#5BC17F"/>
<ellipse cx="108.42" cy="167.551" rx="2.84947" ry="2.74676" fill="#5BC17F"/>
<ellipse cx="125.514" cy="167.551" rx="2.84947" ry="2.74676" fill="#5BC17F"/>
<ellipse cx="142.607" cy="167.551" rx="2.84947" ry="2.74676" fill="#5BC17F"/>
<ellipse cx="159.701" cy="167.551" rx="2.84947" ry="2.74676" fill="#5BC17F"/>
</g>
<g opacity="0.4">
<path d="M704.694 908.302C695.147 909.728 685.807 910.695 676.781 911.191C657.85 912.23 640.131 911.204 624.114 908.14C606.899 904.85 591.477 899.166 578.272 891.248C551.733 875.333 536.879 853.744 522.512 832.866C519.69 828.767 516.772 824.528 513.834 820.431C493.787 792.511 469.752 769.021 440.361 748.619C381.73 707.921 302.386 677.565 210.902 660.835C105.103 641.488 -6.3416 640.625 -102.904 658.405C-159.659 668.856 -232.808 698.555 -262.808 735.095C-280.611 756.781 -279.82 777.778 -260.515 795.812L-260.841 795.949C-270.963 786.491 -276.081 776.258 -276.048 765.533C-276.019 755.695 -271.676 745.434 -263.138 735.035C-249.559 718.494 -225.906 702.099 -194.736 687.621C-165.933 674.243 -133.338 663.795 -102.951 658.199C-52.416 648.896 1.98533 644.666 58.7422 645.63C110.192 646.506 161.444 651.551 211.073 660.626C302.61 677.366 382.002 707.737 440.666 748.46C470.074 768.876 494.121 792.379 514.181 820.314C517.123 824.41 520.041 828.651 522.859 832.751C537.213 853.614 552.058 875.187 578.561 891.079C604.191 906.45 637.252 913.143 676.819 910.971C731.614 907.964 796.206 887.487 849.598 856.194C926.54 811.099 977.028 754.647 1025.86 700.056C1034.42 690.487 1043.26 680.593 1052.05 671.002C1074.86 646.1 1105.89 613.611 1143.71 583.146C1182.37 552.007 1222.47 527.382 1266.3 507.862C1293.13 495.914 1321.91 486.265 1351.84 479.184C1379.49 472.642 1409.03 468.081 1439.63 465.622C1492.14 461.407 1549.42 463.094 1614.76 470.779C1743.42 485.914 1872.78 508.287 1999.24 537.281C2119.45 564.838 2238.12 598.612 2351.96 637.66L2351.73 637.851C2115.74 556.905 1867.74 500.765 1614.62 470.989C1471.61 454.167 1360.99 465.934 1266.49 508.021C1170.34 550.838 1106.76 611.689 1052.37 671.07C1043.59 680.658 1034.74 690.552 1026.18 700.121C977.339 754.732 926.834 811.2 849.838 856.326C824.958 870.909 796.541 883.63 767.662 893.11C752.407 898.119 737.136 902.185 722.27 905.197C716.346 906.403 710.481 907.437 704.694 908.302Z" fill="#183F30"/>
<path d="M713.613 892.004C689.268 895.632 666.418 896.396 645.674 894.274C622.542 891.908 602.128 885.942 584.995 876.544C583.479 875.711 581.97 874.842 580.508 873.957C554.242 858.078 538.891 836.867 524.048 816.354C521.046 812.208 517.944 807.92 514.821 803.776C496.222 779.101 474.832 758.098 449.422 739.572C446.292 737.291 443.063 735.02 439.815 732.822C380.467 692.635 300.589 662.867 208.817 646.734C102.358 628.05 -9.31191 627.907 -105.624 646.335C-161.918 657.131 -234.694 687.057 -264.877 723.37C-282.95 745.115 -282.84 766.256 -264.565 784.511L-264.895 784.645C-274.474 775.077 -279.147 764.755 -278.781 753.967C-278.444 744.06 -273.879 733.746 -265.207 723.31C-251.465 706.774 -227.883 690.382 -197.017 675.908C-168.489 662.53 -136.053 651.956 -105.681 646.133C-55.2498 636.484 -0.831185 631.897 56.0606 632.498C107.593 633.043 159.043 637.764 208.981 646.529C300.806 662.67 380.728 692.458 440.113 732.666C443.36 734.866 446.594 737.139 449.724 739.422C475.15 757.96 496.553 778.974 515.161 803.662C518.287 807.806 521.389 812.094 524.392 816.241C539.23 836.741 554.568 857.936 580.797 873.794C582.255 874.675 583.764 875.545 585.276 876.376C620.681 895.804 666.618 899.008 713.728 891.986C713.986 891.948 714.241 891.91 714.499 891.871C714.204 891.913 713.908 891.96 713.613 892.004ZM723.645 890.361C767.296 882.573 811.401 866.408 848.552 846.603C928.676 803.756 983.367 747.871 1036.26 693.827C1038.44 691.599 1040.61 689.376 1042.79 687.153C1047.58 682.273 1053.25 676.494 1059.04 670.657C1085.04 644.477 1116.62 613.817 1153.74 584.926C1193.22 554.185 1233.4 529.752 1276.55 510.231C1303.07 498.244 1331.42 488.36 1360.8 480.853C1388.03 473.896 1417.05 468.751 1447.07 465.56C1498.91 460.049 1555.34 460.041 1619.59 465.537C1682.22 470.874 1733.9 476.981 1782.23 484.757C1850.7 495.794 1916.4 510.477 1971.65 523.382C2100.09 553.525 2226.98 590.579 2348.8 633.514L2348.56 633.702C2226.76 590.773 2099.88 553.722 1971.45 523.583C1916.22 510.679 1850.53 495.999 1782.07 484.966C1733.75 477.192 1682.09 471.087 1619.47 465.753C1479.52 453.779 1370.62 467.962 1276.75 510.392C1179.32 554.46 1113.45 616.264 1059.35 670.736C1053.56 676.574 1047.89 682.35 1043.11 687.233C1040.93 689.454 1038.75 691.679 1036.57 693.906C983.664 747.968 928.953 803.872 848.772 846.751C828.887 857.351 807.494 866.605 785.183 874.256C764.415 881.374 743.758 886.778 723.645 890.361Z" fill="#183F30"/>
<path d="M723.519 875.874C720.591 876.31 717.676 876.708 714.78 877.065C690.387 880.081 667.517 880.302 646.808 877.719C624.158 874.893 604.104 868.701 587.205 859.312C585.703 858.474 584.202 857.601 582.747 856.714C556.768 840.881 540.93 820.052 525.618 799.91C522.427 795.712 519.125 791.37 515.802 787.175C496.457 762.697 474.603 741.95 448.986 723.748C445.815 721.498 442.545 719.254 439.256 717.083C379.189 677.412 298.775 648.234 206.714 632.702C99.5991 614.684 -12.298 615.264 -108.363 634.343C-162.446 645.127 -235.135 673.933 -266.926 711.692C-285.293 733.507 -285.88 754.81 -268.626 773.296L-268.96 773.424C-278.001 763.739 -282.224 753.323 -281.52 742.466C-280.873 732.481 -276.072 722.108 -267.252 711.631C-253.339 695.107 -229.835 678.728 -199.277 664.262C-171.028 650.889 -138.759 640.193 -108.419 634.143C-58.088 624.149 -3.65222 619.201 53.3711 619.436C104.99 619.651 156.636 624.044 206.878 632.496C298.993 648.039 379.45 677.234 439.553 716.927C442.842 719.101 446.117 721.344 449.288 723.598C474.918 741.811 496.784 762.571 516.138 787.062C519.461 791.259 522.763 795.601 525.955 799.799C541.261 819.929 557.086 840.744 583.034 856.558C584.488 857.445 585.982 858.317 587.483 859.151C656.15 897.302 767.555 875.537 847.498 837.046C931.431 796.378 990.876 740.694 1048.37 686.845L1048.96 686.292C1054.52 681.073 1060.28 675.678 1066.01 670.344C1126.53 614.066 1193.42 555.53 1286.79 512.625C1313 500.596 1340.91 490.475 1369.74 482.542C1396.56 475.164 1425.07 469.435 1454.48 465.515C1505.75 458.679 1561.33 456.975 1624.39 460.303C1690.66 463.754 1740.78 468.532 1786.91 475.797C1852.63 486.188 1916.96 502.102 1973.72 516.143C2100.13 547.67 2225.25 585.754 2345.62 629.335L2345.39 629.522C2225.03 585.946 2099.92 547.866 1973.52 516.341C1916.77 502.303 1852.45 486.392 1786.75 476.004C1740.64 468.741 1690.54 463.965 1624.29 460.514C1487.59 453.3 1380.41 469.907 1286.98 512.78C1193.67 555.657 1126.8 614.168 1066.32 670.425C1060.58 675.76 1054.83 681.156 1049.26 686.373L1048.67 686.926C1020.02 713.761 990.395 741.509 957.913 767.19C921.409 796.05 885.357 818.949 847.695 837.195C808.281 856.172 764.532 869.773 723.519 875.874Z" fill="#183F30"/>
<path d="M2342.03 625.183C2223.09 581.041 2099.71 542.015 1975.34 509.189C1970.07 507.815 1964.8 506.431 1959.5 505.044C1905.64 490.926 1849.94 476.328 1791.14 467.253C1734.1 458.496 1677.08 456.443 1628.82 455.59C1495.6 453.101 1390.14 472.195 1296.94 515.679C1201.27 560.406 1130.2 621.581 1073.09 670.738C1069.67 673.688 1066.25 676.642 1062.82 679.598C1060.29 681.781 1057.76 683.964 1055.23 686.146C1022.72 714.158 993.104 739.284 959.931 763.128C922.034 790.367 884.94 811.708 846.521 828.374C810.517 843.993 771.428 855.244 734.498 860.752C727.769 861.755 721.119 862.567 714.563 863.18C690.629 865.42 668.188 865.033 647.863 862.031C625.686 858.755 605.986 852.342 589.303 842.97C587.812 842.13 586.321 841.253 584.873 840.364C559.181 824.6 542.86 804.175 527.079 784.422C523.68 780.168 520.163 775.767 516.629 771.514C496.51 747.245 474.177 726.768 448.359 708.912C445.146 706.691 441.829 704.48 438.502 702.339C377.687 663.227 296.722 634.693 204.361 619.818C96.5762 602.535 -15.5467 603.911 -111.357 623.692C-176.847 637.287 -241.732 669.241 -269.149 701.396C-287.826 723.303 -289.108 744.776 -272.864 763.495L-273.203 763.619C-281.708 753.818 -285.491 743.304 -284.447 732.369C-283.486 722.302 -278.448 711.86 -269.475 701.333C-255.4 684.823 -231.981 668.451 -201.749 653.988C-173.789 640.611 -141.71 629.78 -111.417 623.492C-61.1899 613.121 -6.74166 607.781 50.4152 607.617C102.119 607.47 153.972 611.504 204.525 619.609C296.943 634.491 377.951 663.043 438.802 702.178C442.134 704.321 445.451 706.534 448.664 708.755C474.498 726.622 496.84 747.109 516.972 771.389C520.506 775.644 524.023 780.043 527.422 784.3C543.194 804.041 559.506 824.453 585.166 840.198C586.613 841.086 588.101 841.96 589.587 842.8C661.345 883.111 772.747 860.133 846.34 828.209C934.143 790.119 998.315 734.832 1054.94 686.05C1057.47 683.867 1060 681.684 1062.53 679.503C1065.95 676.547 1069.37 673.593 1072.8 670.643C1105.4 642.584 1137.63 615.235 1173.52 589.11C1214.79 559.066 1255.1 534.996 1296.74 515.522C1322.66 503.432 1350.13 493.058 1378.39 484.692C1404.81 476.871 1432.8 470.542 1461.6 465.88C1512.38 457.657 1567.11 454.222 1628.91 455.375C1677.18 456.23 1734.23 458.284 1791.3 467.046C1850.13 476.123 1905.84 490.726 1959.71 504.846C1965 506.234 1970.28 507.617 1975.55 508.991C2099.93 541.82 2223.32 580.85 2342.28 624.997L2342.03 625.183Z" fill="#183F30"/>
<path d="M2338.49 620.667C2218.68 575.2 2097.01 535.316 1976.87 502.125C1969.68 500.14 1962.32 498.085 1955.21 496.099C1904.25 481.874 1851.57 467.164 1795.22 458.723C1738.95 450.352 1681.66 450.12 1633.02 450.999C1503.55 453.176 1399.83 474.824 1306.6 519.124C1217.69 561.483 1150.43 615.209 1085.38 667.166L1078.24 672.871C1072.6 677.377 1066.77 682.035 1061.01 686.608C995.866 738.338 930.344 787.491 845.235 820.375C824.582 828.355 803.19 834.947 781.645 839.975C758.509 845.373 735.824 848.805 714.217 850.174C690.75 851.66 668.743 850.688 648.809 847.284C627.115 843.579 607.762 836.965 591.292 827.625C589.807 826.779 588.326 825.9 586.888 825.013C561.48 809.35 544.682 789.351 528.438 770.01C524.813 765.695 521.062 761.232 517.299 756.916C496.374 732.875 473.554 712.688 447.531 695.201C444.279 693.017 440.918 690.838 437.542 688.728C375.956 650.225 294.418 622.395 201.739 608.246C93.2661 591.781 -19.0887 594.027 -114.637 614.576C-179.461 628.608 -243.994 660.727 -271.563 692.685C-290.562 714.705 -292.545 736.365 -277.3 755.323L-277.643 755.444C-285.621 745.525 -288.965 734.908 -287.584 723.891C-286.309 713.735 -281.03 703.215 -271.893 692.626C-257.658 676.127 -234.342 659.761 -204.458 645.292C-176.801 631.9 -144.925 620.923 -114.704 614.38C-64.5865 603.601 -10.1282 597.83 47.1673 597.225C98.9615 596.68 151.017 600.318 201.892 608.04C294.624 622.196 376.209 650.044 437.832 688.569C441.207 690.681 444.572 692.861 447.825 695.046C473.864 712.54 496.696 732.738 517.63 756.793C521.394 761.108 525.145 765.573 528.77 769.889C545.005 789.219 561.794 809.208 587.174 824.852C588.607 825.736 590.088 826.612 591.569 827.459C661.7 867.229 768.503 849.789 845.069 820.206C930.11 787.35 995.603 738.215 1060.72 686.509C1066.48 681.935 1072.31 677.277 1077.95 672.771L1085.09 667.067C1117.03 641.563 1150.04 615.191 1186.28 589.828C1227.32 561.103 1266.61 537.926 1306.4 518.97C1332.02 506.795 1359.04 496.152 1386.72 487.339C1412.75 479.052 1440.22 472.105 1468.38 466.69C1518.76 457.001 1572.63 451.801 1633.08 450.784C1681.74 449.905 1739.06 450.135 1795.37 458.515C1851.75 466.959 1904.45 481.672 1955.42 495.901C1962.53 497.888 1969.89 499.941 1977.08 501.928C2097.23 535.121 2218.91 575.008 2338.73 620.48L2338.49 620.667Z" fill="#183F30"/>
<path d="M2334.95 616.142C2215.97 569.968 2096.01 529.223 1978.4 495.041C1969.56 492.473 1960.5 489.783 1951.73 487.183C1903.4 472.85 1853.42 458.029 1799.29 450.168C1743.3 442.101 1685.95 443.725 1637.23 446.379C1511.87 453.026 1409.88 477.224 1316.29 522.529C1234.63 562.179 1169.46 610.734 1106.44 657.689C1099.81 662.63 1092.95 667.739 1086.26 672.694C1078.41 678.515 1072.41 682.942 1066.81 687.046C1036.81 709.016 1001 734.503 962.927 756.956C922.577 780.748 883.659 798.876 843.945 812.375C823.062 819.474 801.664 825.194 780.34 829.375C757.445 833.865 735.074 836.486 713.854 837.165C690.863 837.9 669.294 836.341 649.738 832.533C628.532 828.405 609.532 821.586 593.263 812.271C591.796 811.426 590.321 810.546 588.886 809.656C563.783 794.104 546.529 774.539 529.84 755.62C525.969 751.232 521.967 746.695 517.953 742.308C496.213 718.488 472.903 698.593 446.689 681.481C443.392 679.33 439.988 677.186 436.568 675.108C374.213 637.212 292.1 610.088 199.109 596.664C89.9576 581.013 -22.6266 584.134 -117.907 605.447C-172.112 617.659 -241.377 646.658 -273.926 683.913C-293.278 706.063 -295.979 727.928 -281.731 747.142L-282.075 747.257C-289.526 737.21 -292.425 726.482 -290.694 715.37C-289.095 705.113 -283.565 694.509 -274.25 683.848C-259.853 667.371 -236.641 651.019 -207.115 636.554C-179.761 623.154 -148.106 612.037 -117.976 605.249C-67.9682 594.062 -13.497 587.86 43.9285 586.816C95.8081 585.873 148.07 589.115 199.262 596.456C292.306 609.887 374.465 637.027 436.857 674.944C440.277 677.022 443.686 679.17 446.982 681.323C473.209 698.444 496.531 718.35 518.284 742.18C522.302 746.569 526.303 751.106 530.174 755.494C546.852 774.404 564.101 793.957 589.175 809.492C590.61 810.38 592.081 811.259 593.548 812.102C651.978 845.563 745.535 845.597 843.807 812.192C932.803 781.941 1002.64 733.724 1066.54 686.931C1072.14 682.827 1078.14 678.401 1085.99 672.581C1092.67 667.625 1099.53 662.516 1106.16 657.575C1137.19 634.459 1169.27 610.557 1203.78 587.5C1242.8 561.426 1279.54 540.122 1316.1 522.372C1341.44 510.105 1368.01 499.194 1395.09 489.943C1420.74 481.18 1447.69 473.617 1475.19 467.461C1525.27 456.256 1578.29 449.288 1637.27 446.161C1686.02 443.507 1743.41 441.879 1799.44 449.953C1853.61 457.82 1903.6 472.645 1951.94 486.982C1960.71 489.582 1969.78 492.272 1978.62 494.84C2096.24 529.028 2216.21 569.775 2335.19 615.951L2334.95 616.142Z" fill="#183F30"/>
<path d="M2331.4 611.62C2213.26 564.73 2095.01 523.118 1979.93 487.943C1970.13 484.952 1960.07 481.779 1950.33 478.712C1903.95 464.102 1856 448.995 1803.35 441.59C1747.35 433.781 1690.08 437.281 1641.44 441.734C1522.27 452.456 1419.08 479.986 1326 525.896C1251.9 562.564 1189.8 605.987 1129.74 647.982C1117.61 656.464 1105.07 665.236 1092.86 673.635C1085.39 678.775 1078.77 683.298 1072.61 687.463C1043.97 706.815 1005.78 731.85 964.413 753.854C922.846 775.962 883.012 792.489 842.637 804.376C798.601 817.341 753.929 824.18 713.455 824.156C690.951 824.142 669.815 821.998 650.633 817.783C629.922 813.233 611.275 806.211 595.205 796.919C593.748 796.071 592.283 795.189 590.854 794.3C566.078 778.871 548.39 759.755 531.287 741.27C527.149 736.798 522.873 732.174 518.582 727.703C496.01 704.104 472.212 684.497 445.827 667.764C442.487 665.645 439.038 663.535 435.575 661.49C372.452 624.203 289.771 597.781 196.471 585.085C86.6429 570.252 -26.1688 574.244 -121.185 596.321C-185.565 611.393 -247.879 643.049 -276.242 675.089C-295.98 697.386 -299.412 719.476 -286.166 738.971L-286.514 739.08C-293.437 728.894 -295.887 718.041 -293.798 706.827C-291.869 696.462 -286.07 685.761 -276.566 675.023C-262.006 658.575 -238.901 642.245 -209.747 627.799C-182.705 614.401 -151.279 603.149 -121.261 596.122C-71.3646 584.527 -16.8813 577.897 40.6768 576.41C92.6444 575.069 145.112 577.916 196.619 584.873C289.973 597.578 372.7 624.014 435.864 661.324C439.327 663.369 442.775 665.482 446.12 667.601C472.517 684.345 496.328 703.961 518.912 727.57C523.203 732.042 527.48 736.667 531.617 741.139C548.711 759.616 566.391 778.722 591.143 794.136C592.571 795.026 594.032 795.904 595.489 796.751C653.002 830.018 745.35 832.798 842.524 804.189C931.113 778.106 1005.34 732.616 1072.35 687.345C1078.51 683.181 1085.13 678.659 1092.6 673.52C1104.8 665.121 1117.35 656.351 1129.47 647.869C1189.54 605.866 1251.65 562.433 1325.79 525.749C1350.88 513.376 1377.01 502.199 1403.46 492.524C1428.76 483.272 1455.19 475.093 1482.01 468.214C1531.88 455.422 1584.04 446.693 1641.45 441.527C1690.12 437.07 1747.44 433.565 1803.5 441.384C1856.18 448.794 1904.16 463.907 1950.55 478.523C1960.29 481.59 1970.36 484.76 1980.15 487.752C2095.24 522.929 2213.51 564.544 2331.65 611.437L2331.4 611.62Z" fill="#183F30"/>
<path d="M2327.86 607.096C2210.58 559.48 2094.03 517 1981.46 480.832C1971.12 477.508 1960.46 473.944 1950.15 470.496C1905.34 455.51 1859 440.013 1807.43 432.993C1751.2 425.413 1694.1 430.8 1645.67 437.069C1531.49 451.65 1430.11 481.796 1335.74 529.23C1269.57 562.604 1211.6 600.897 1155.53 637.927C1136.26 650.661 1118.05 662.689 1099.49 674.552C1091.94 679.38 1085.05 683.733 1078.44 687.857C1035.77 714.454 1000.02 734.434 965.915 750.736C923.131 771.189 882.383 786.117 841.34 796.373C825.418 800.35 809.464 803.56 793.712 805.971C765.789 810.246 738.487 812.017 713.054 811.142C667.027 809.557 628.03 799.602 597.145 781.554C595.69 780.697 594.235 779.815 592.821 778.929C568.393 763.638 550.307 744.988 532.817 726.95C528.384 722.38 523.806 717.656 519.211 713.083C495.794 689.7 471.506 670.385 444.97 654.033C441.586 651.947 438.094 649.87 434.587 647.859C370.699 611.179 287.448 585.463 193.839 573.491C83.3377 559.477 -29.6962 564.338 -124.446 587.179C-189.023 602.865 -249.488 633.88 -278.482 666.193C-298.637 688.653 -302.82 710.989 -290.585 730.79L-290.937 730.896C-297.325 720.557 -299.321 709.57 -296.865 698.241C-294.591 687.754 -288.516 676.95 -278.802 666.126C-264.078 649.716 -241.089 633.423 -212.316 619.007C-185.59 605.614 -154.412 594.243 -124.526 586.983C-74.7413 574.981 -20.247 567.919 37.4392 565.994C89.4942 564.257 142.162 566.708 193.987 573.279C287.649 585.259 370.947 610.99 434.875 647.69C438.382 649.704 441.874 651.781 445.262 653.868C471.814 670.229 496.115 689.554 519.541 712.946C524.135 717.519 528.718 722.245 533.147 726.815C550.628 744.844 568.705 763.487 593.113 778.764C594.527 779.648 595.978 780.531 597.433 781.386C655.106 815.092 743.975 820.483 841.253 796.175C933.855 773.036 1012.99 728.37 1078.19 687.727C1084.8 683.603 1091.68 679.252 1099.23 674.424C1117.79 662.562 1136 650.536 1155.28 637.802C1211.35 600.764 1269.33 562.465 1335.53 529.079C1360.39 516.582 1386.08 505.138 1411.87 495.062C1436.85 485.303 1462.76 476.509 1488.86 468.926C1538.63 454.465 1589.93 443.975 1645.66 436.858C1694.13 430.583 1751.28 425.192 1807.57 432.781C1859.19 439.805 1905.54 455.31 1950.38 470.302C1960.68 473.749 1971.34 477.314 1981.68 480.636C2094.26 516.807 2210.81 559.292 2328.1 606.911L2327.86 607.096Z" fill="#183F30"/>
<path d="M2324.32 602.555C2206.25 553.522 2094.6 511.369 1982.99 473.686C1972.34 470.091 1961.84 466.362 1950.71 462.416C1907.22 446.986 1862.26 431.032 1811.5 424.356C1754.58 416.944 1695.24 424.74 1649.9 432.361C1541.42 450.397 1441.84 483.157 1345.49 532.513C1287.7 562.224 1235.02 595.326 1184.07 627.341C1157.3 644.167 1132.01 660.056 1106.12 675.428C1098.43 679.994 1091.29 684.176 1084.28 688.213C1040.81 713.21 1003.68 732.075 967.414 747.587C923.397 766.415 881.731 779.748 840.034 788.348C818.609 792.767 797.175 795.859 776.327 797.539C754.254 799.317 732.824 799.506 712.635 798.103C667.886 794.991 629.678 784.247 599.069 766.165C597.623 765.306 596.178 764.422 594.771 763.536C570.724 748.406 552.278 730.238 534.438 712.668C529.679 707.981 524.757 703.133 519.828 698.442C495.547 675.273 470.776 656.248 444.098 640.28C440.667 638.229 437.131 636.185 433.588 634.206C368.937 598.134 285.123 573.122 191.208 561.874C104.536 551.588 16.5795 552.806 -62.7413 565.027C-85.1655 568.482 -106.883 572.813 -127.706 578.014C-191.435 594.054 -251.47 625.142 -280.659 657.215C-301.261 679.856 -306.222 702.464 -295.007 722.595L-295.363 722.696C-301.217 712.192 -302.748 701.058 -299.915 689.604C-297.29 678.987 -290.919 668.066 -280.983 657.148C-266.093 640.785 -243.226 624.541 -214.848 610.166C-188.061 596.596 -157.957 585.411 -127.797 577.822C-78.1244 565.413 -23.6197 557.922 34.197 555.555C86.3343 553.418 139.209 555.472 191.347 561.661C285.316 572.915 369.181 597.941 433.872 634.034C437.419 636.013 440.958 638.058 444.39 640.111C471.08 656.088 495.863 675.121 520.157 698.3C525.086 702.991 530.011 707.839 534.771 712.529C552.603 730.091 571.04 748.253 595.067 763.371C596.474 764.254 597.919 765.139 599.36 765.996C656.6 799.807 744.298 807.878 839.979 788.144C936.798 768.174 1021.27 724.173 1084.05 688.071C1091.06 684.034 1098.2 679.853 1105.89 675.289C1131.77 659.922 1157.06 644.031 1183.83 627.208C1234.79 595.19 1287.47 562.08 1345.29 532.359C1394.89 506.949 1444.1 486.419 1495.73 469.592C1545.51 453.365 1595.94 441.117 1649.87 432.15C1680.64 426.979 1705.87 423.841 1729.27 422.272C1759.49 420.246 1786.44 420.857 1811.65 424.14C1862.46 430.822 1907.44 446.785 1950.95 462.222C1962.08 466.17 1972.59 469.896 1983.23 473.492C2094.84 511.176 2206.5 553.333 2324.57 602.369L2324.32 602.555Z" fill="#183F30"/>
<path d="M2320.77 598.024C2203.58 548.234 2093.59 505.226 1984.51 466.535C1973.72 462.707 1963.06 458.694 1951.76 454.445C1909.44 438.528 1865.68 422.065 1815.56 415.705C1758.19 408.496 1699.15 418.295 1654.13 427.636C1552.23 448.593 1454.47 483.964 1355.26 535.766C1306.39 561.375 1260.28 589.159 1215.68 616.031C1180.42 637.273 1147.12 657.337 1112.76 676.283C1105 680.569 1097.38 684.697 1090.12 688.55C1046.36 711.76 1006.71 730.037 968.91 744.427C923.646 761.658 881.06 773.402 838.717 780.326C817.173 783.848 795.719 786.064 774.963 786.907C753.205 787.79 732.087 787.169 712.196 785.06C668.779 780.456 631.355 768.92 600.966 750.772C599.538 749.913 598.1 749.027 596.694 748.136C573.071 733.194 554.314 715.535 536.174 698.458C531.042 693.626 525.733 688.628 520.42 683.793C495.261 660.835 470.005 642.102 443.209 626.522C439.735 624.503 436.156 622.493 432.57 620.547C367.158 585.084 282.778 560.776 188.558 550.251C76.7195 537.879 -36.7635 544.484 -130.978 568.848C-193.813 585.211 -253.399 616.347 -282.779 648.168C-303.866 671.008 -309.626 693.911 -299.442 714.404L-299.799 714.499C-305.109 703.817 -306.17 692.523 -302.946 680.93C-299.952 670.168 -293.278 659.121 -283.1 648.098C-268.049 631.796 -245.31 615.611 -217.34 601.291C-190.885 587.748 -161.054 576.463 -131.069 568.653C-81.5063 555.838 -26.9961 547.915 30.9466 545.108C83.1698 542.578 136.243 544.236 188.694 550.039C282.97 560.567 367.398 584.891 432.846 620.376C436.436 622.321 440.019 624.333 443.493 626.353C470.305 641.942 495.57 660.684 520.741 683.651C526.057 688.485 531.363 693.484 536.499 698.317C554.631 715.387 573.379 733.038 596.986 747.971C598.391 748.86 599.83 749.746 601.253 750.603C659.187 785.199 743.509 795.685 838.684 780.117C915.911 767.488 995.735 738.344 1089.9 688.402C1097.15 684.549 1104.77 680.423 1112.53 676.138C1146.88 657.195 1180.18 637.135 1215.43 615.895C1260.04 589.02 1306.16 561.23 1355.04 535.615C1405.06 509.496 1453.33 488.113 1502.59 470.239C1552.49 452.132 1602.04 438.128 1654.07 427.429C1699.14 418.076 1758.25 408.268 1815.7 415.488C1865.88 421.858 1909.66 438.327 1952 454.252C1963.3 458.501 1973.96 462.512 1984.75 466.338C2093.83 505.03 2203.82 548.042 2321.02 597.835L2320.77 598.024Z" fill="#183F30"/>
<path d="M2317.22 593.488C2200.92 542.934 2092.59 499.061 1986.05 459.365C1975.23 455.335 1964.52 451.066 1953.17 446.545C1911.91 430.101 1869.24 413.098 1819.63 407.027C1761.73 400.016 1703.04 411.818 1658.38 422.884C1562.96 446.354 1469.76 483.245 1365.06 538.984C1325.8 559.954 1287.65 582.192 1250.75 603.696C1205.93 629.815 1163.61 654.486 1119.42 677.116C1111.46 681.195 1103.57 685.15 1095.98 688.866C1051.23 710.738 1010.16 727.875 970.418 741.251C948.155 748.744 926.052 755.105 904.721 760.159C881.968 765.548 859.319 769.632 837.404 772.299C792.94 777.71 750.664 777.611 711.757 772.008C669.736 765.955 633.099 753.628 602.864 735.364C601.442 734.498 600.013 733.61 598.615 732.725C575.469 718.004 556.464 700.889 538.089 684.339C532.525 679.33 526.774 674.149 521.013 669.134C494.954 646.383 469.213 627.942 442.321 612.753C438.803 610.766 435.177 608.789 431.551 606.878C365.38 572.021 280.44 548.417 185.918 538.62C73.4168 527.07 -40.2825 534.546 -134.235 559.67C-234.813 586.741 -328.263 650.462 -303.859 706.205L-304.221 706.295C-310.326 692.351 -309.552 677.554 -301.925 662.313C-294.959 648.393 -282.452 634.364 -264.751 620.619C-248.293 607.838 -228.136 595.875 -204.846 585.062C-182.694 574.779 -158.311 565.93 -134.334 559.477C-84.8847 546.255 -30.3657 537.902 27.7059 534.655C80.0139 531.729 133.288 532.992 186.051 538.41C280.626 548.216 365.617 571.832 431.828 606.709C435.457 608.622 439.083 610.598 442.605 612.587C469.51 627.782 495.263 646.234 521.335 668.993C527.095 674.008 532.846 679.189 538.41 684.201C556.781 700.745 575.778 717.853 598.912 732.565C600.306 733.45 601.731 734.339 603.152 735.203C661.264 770.302 744.455 783.4 837.401 772.092C916.087 762.514 1000.6 735.244 1095.77 688.717C1103.37 685.001 1111.25 681.049 1119.21 676.97C1163.39 654.346 1205.71 629.678 1250.51 603.563C1287.41 582.055 1325.57 559.815 1364.84 538.842C1469.58 483.079 1562.83 446.173 1658.29 422.689C1688.3 415.253 1713.32 410.469 1737.02 407.634C1767.33 404.009 1794.39 403.742 1819.77 406.816C1869.44 412.893 1912.13 429.907 1953.42 446.36C1964.76 450.878 1975.47 455.148 1986.28 459.176C2092.83 498.875 2201.17 542.75 2317.48 593.307L2317.22 593.488Z" fill="#183F30"/>
<path d="M2313.68 588.94C2198.27 537.607 2091.6 492.869 1987.58 452.167C1976.82 447.955 1966.14 443.451 1954.83 438.679C1914.55 421.682 1872.89 404.106 1823.7 398.315C1764.56 391.42 1703.45 406.302 1662.63 418.095C1551.81 449.928 1454.98 498.672 1374.88 542.158C1346.09 557.831 1317.47 574.142 1289.78 589.915C1234.23 621.557 1181.77 651.443 1126.1 677.913C1117.92 681.807 1109.76 685.587 1101.86 689.15C1056.05 709.774 1013.55 725.771 971.943 738.05C924.773 751.971 879.07 760.788 836.096 764.256C791.948 767.817 749.963 766.027 711.313 758.932C670.774 751.493 634.923 738.372 604.748 719.935C603.341 719.068 601.918 718.178 600.527 717.289C577.929 702.84 558.769 686.319 540.237 670.34C534.166 665.103 527.885 659.691 521.6 654.45C494.248 631.589 468.773 613.959 441.432 598.961C437.87 597.007 434.205 595.065 430.533 593.186C363.598 558.94 278.096 536.041 183.273 526.964C70.1108 516.239 -43.8069 524.586 -137.493 550.468C-238.319 578.485 -329.768 641.324 -308.278 697.991L-308.64 698.075C-313.971 684.016 -312.68 669.15 -304.806 653.892C-297.587 639.912 -285.012 625.846 -267.423 612.086C-251.022 599.254 -230.993 587.225 -207.892 576.328C-185.897 565.951 -161.585 556.943 -137.592 550.275C-88.2532 536.645 -33.73 527.865 24.4657 524.176C76.8577 520.854 130.333 521.721 183.405 526.752C278.285 535.832 363.833 558.745 430.801 593.013C434.474 594.895 438.143 596.838 441.708 598.791C469.065 613.795 494.549 631.437 521.913 654.306C528.199 659.547 534.48 664.962 540.551 670.198C559.078 686.171 578.233 702.687 600.816 717.13C602.207 718.019 603.625 718.908 605.033 719.775C663.69 755.614 745.756 771.336 836.115 764.044C917.156 757.506 1004.02 732.954 1101.67 688.99C1109.57 685.43 1117.73 681.652 1125.91 677.759C1181.56 651.296 1234.01 621.415 1289.55 589.777C1317.23 574.003 1345.86 557.691 1374.65 542.014C1428.52 512.774 1473.56 490.347 1516.39 471.437C1566.82 449.176 1614.61 431.667 1662.52 417.906C1691.71 409.472 1717.36 403.701 1740.91 400.265C1771.24 395.842 1798.37 395.133 1823.84 398.103C1873.1 403.902 1914.78 421.489 1955.08 438.496C1966.39 443.266 1977.07 447.771 1987.82 451.979C2091.85 492.682 2198.52 537.424 2313.94 588.758L2313.68 588.94Z" fill="#183F30"/>
<path d="M2310.14 584.398C2195.63 532.279 2090.62 486.669 1989.11 444.959C1978.47 440.586 1967.88 435.861 1956.68 430.858C1917.31 413.285 1876.61 395.113 1827.77 389.587C1768 382.887 1707.33 399.905 1666.89 413.291C1566.99 446.203 1479.99 492.551 1384.71 545.305C1367.53 554.844 1350.17 564.631 1333.38 574.098C1268.8 610.505 1202.03 648.15 1132.79 678.693C1124.38 682.406 1115.95 686.014 1107.74 689.418C1061.43 708.596 1016.26 723.877 973.463 734.839C924.983 747.257 878.324 754.447 834.771 756.213C791.024 757.987 749.33 754.502 710.846 745.854C671.901 737.103 636.828 723.19 606.604 704.502C605.206 703.632 603.794 702.74 602.409 701.851C580.466 687.74 561.263 671.878 542.694 656.538C536.002 651.011 529.085 645.297 522.16 639.767C493.852 617.108 467.909 599.76 440.516 585.17C436.92 583.254 433.208 581.344 429.488 579.494C361.808 545.849 275.755 523.654 180.625 515.303C66.8078 505.403 -47.3227 514.621 -140.748 541.261C-238.264 569.205 -331.667 630.75 -312.699 689.775L-313.061 689.853C-317.618 675.675 -315.809 660.741 -307.689 645.466C-300.222 631.423 -287.574 617.32 -270.101 603.547C-237.862 578.139 -190.753 555.367 -140.855 541.07C-91.6311 527.034 -37.1008 517.823 21.2217 513.692C73.6972 509.977 127.368 510.446 180.749 515.09C275.932 523.445 362.036 545.655 429.759 579.315C433.483 581.166 437.195 583.076 440.795 584.993C468.2 599.592 494.155 616.947 522.472 639.614C529.397 645.146 536.318 650.86 543.01 656.387C561.575 671.723 580.774 687.582 602.704 701.687C604.086 702.575 605.498 703.466 606.895 704.335C667.364 741.725 746.179 759.589 834.816 755.998C916.892 752.671 1008.65 730.216 1107.56 689.252C1115.77 685.849 1124.19 682.244 1132.6 678.534C1201.81 648.001 1268.58 610.362 1333.14 573.961C1349.93 564.494 1367.29 554.707 1384.48 545.167C1426.18 522.074 1474.75 495.472 1523.31 471.995C1574.1 447.438 1621.02 428.178 1666.75 413.113C1695.53 403.588 1721.06 396.97 1744.8 392.885C1774.73 387.731 1802.68 386.553 1827.9 389.38C1849.78 391.855 1872.15 397.174 1896.29 405.643C1917.6 413.121 1937.6 422.048 1956.93 430.679C1968.13 435.681 1978.72 440.405 1989.36 444.777C2090.87 486.488 2195.88 532.1 2310.4 584.221L2310.14 584.398Z" fill="#183F30"/>
<path d="M2306.6 579.859C2192.99 526.942 2089.64 480.454 1990.64 437.74C1980.16 433.218 1969.72 428.287 1958.67 423.068C1920.18 404.896 1880.38 386.105 1831.84 380.84C1786.48 375.957 1733.91 384.995 1671.15 408.468C1583.38 441.183 1506.7 484.745 1425.53 530.868C1415.42 536.612 1404.97 542.549 1394.56 548.426C1390.49 550.731 1386.41 553.041 1382.34 555.348C1304.98 599.176 1224.98 644.496 1139.49 679.453C1130.85 682.988 1122.15 686.425 1113.64 689.667C1066.14 707.738 1019.49 721.851 975.004 731.612C925.187 742.541 877.563 748.111 833.461 748.163C790.179 748.213 748.774 743.031 710.396 732.761C673.197 722.806 638.905 708.1 608.47 689.047C607.083 688.175 605.681 687.28 604.302 686.39C583.168 672.721 564.101 657.616 545.657 643.009C538.19 637.093 530.464 630.976 522.733 625.056C493.443 602.597 467.037 585.531 439.62 571.352C435.977 569.468 432.226 567.593 428.463 565.777C360.02 532.744 273.408 511.251 177.982 503.626C63.5153 494.551 -50.8339 504.64 -143.995 532.038C-239.61 560.266 -332.779 622.259 -317.108 681.55L-317.474 681.625C-321.253 667.323 -318.93 652.32 -310.563 637.031C-302.843 622.923 -290.127 608.781 -272.765 594.998C-240.698 569.539 -193.805 546.524 -144.105 531.851C-94.9926 517.408 -40.4596 507.767 17.9854 503.196C70.543 499.082 124.416 499.156 178.106 503.412C273.586 511.044 360.251 532.547 428.723 565.599C432.486 567.415 436.245 569.293 439.888 571.177C467.317 585.364 493.739 602.434 523.038 624.902C530.773 630.822 538.495 636.942 545.966 642.857C564.402 657.46 583.468 672.562 604.594 686.225C605.973 687.116 607.37 688.009 608.758 688.881C670.644 727.622 748.367 748.044 833.531 747.943C917.601 747.844 1011.79 728.176 1113.48 689.49C1121.99 686.249 1130.68 682.815 1139.32 679.282C1224.78 644.339 1304.76 599.027 1382.11 555.206C1386.18 552.896 1390.26 550.589 1394.33 548.284C1404.73 542.407 1415.18 536.47 1425.29 530.728C1506.49 484.596 1583.19 441.022 1670.99 408.292C1699.35 397.687 1724.77 390.225 1748.7 385.477C1778.64 379.534 1806.66 377.904 1831.97 380.627C1853.71 382.985 1875.83 388.365 1899.58 397.073C1920.53 404.758 1940.05 413.975 1958.93 422.888C1969.99 428.105 1980.42 433.035 1990.9 437.556C2089.9 480.271 2193.26 526.76 2306.87 579.68L2306.6 579.859Z" fill="#183F30"/>
<path d="M2303.06 575.314C2199.17 525.783 2094.57 477.058 1992.18 430.497C1981.76 425.793 1971.36 420.611 1960.36 415.126C1924.58 397.282 1884.03 377.058 1835.9 372.063C1790.03 367.327 1737.53 377.647 1675.41 403.611C1601.55 434.422 1537.54 472.583 1469.78 512.984C1448.56 525.635 1426.61 538.72 1404.42 551.505C1365.7 573.856 1323.77 597.66 1279.53 620.309C1232.14 644.567 1188.53 664.15 1146.19 680.182C1137.3 683.55 1128.33 686.816 1119.53 689.887C1070.85 706.87 1022.75 719.802 976.558 728.322C925.427 737.752 876.836 741.717 832.128 740.098C749.544 736.912 674.91 714.53 610.302 673.571C608.924 672.697 607.532 671.8 606.16 670.909C586.075 657.843 567.41 643.653 549.36 629.93C540.864 623.471 532.08 616.791 523.275 610.331C492.98 588.064 466.104 571.283 438.696 557.521C435.006 555.669 431.212 553.827 427.41 552.046C358.226 519.616 271.059 498.83 175.337 491.927C60.2192 483.678 -54.3393 494.641 -147.238 522.794C-243.325 551.992 -334.044 613.07 -321.518 673.311L-321.886 673.378C-324.886 658.949 -322.042 643.874 -313.435 628.572C-305.458 614.396 -292.673 600.214 -275.43 586.422C-259.185 573.429 -239.534 561.195 -217.025 550.06C-195.171 539.251 -171.732 530.014 -147.356 522.606C-98.356 507.758 -43.8173 497.686 14.7492 492.674C67.389 488.168 121.456 487.844 175.453 491.713C271.232 498.619 358.45 519.418 427.673 551.863C431.475 553.646 435.277 555.489 438.967 557.341C466.387 571.111 493.275 587.899 523.583 610.172C532.388 616.634 541.172 623.314 549.668 629.775C567.718 643.497 586.378 657.685 606.456 670.746C607.824 671.639 609.22 672.534 610.594 673.409C675.153 714.336 749.721 736.701 832.225 739.883C917.184 742.957 1016.49 725.608 1119.39 689.707C1128.19 686.637 1137.15 683.374 1146.04 680.009C1240.69 644.166 1325.47 596.806 1404.19 551.368C1426.38 538.583 1448.32 525.501 1469.54 512.849C1537.32 472.44 1601.33 434.271 1675.24 403.446C1737.46 377.44 1790.05 367.104 1836.03 371.85C1857.59 374.087 1879.39 379.512 1902.69 388.432C1923.23 396.297 1942.25 405.781 1960.64 414.95C1971.64 420.435 1982.02 425.616 1992.44 430.316C2094.84 476.878 2199.43 525.603 2303.33 575.137L2303.06 575.314Z" fill="#183F30"/>
<path d="M2299.52 570.76C2197.01 520.731 2094.12 471.094 1993.71 423.23C1983.58 418.419 1973.46 413.082 1962.74 407.433C1927.68 388.952 1887.95 368.006 1839.97 363.249C1793.56 358.664 1741.13 370.267 1679.68 398.719C1615.3 428.501 1557.32 465.246 1501.26 500.783C1473.15 518.602 1444.08 537.027 1414.3 554.542C1367.3 582.205 1327.56 603.934 1289.24 622.927C1241.98 646.346 1197.38 665.302 1152.91 680.876C1143.78 684.074 1134.54 687.168 1125.44 690.073C1078.04 705.204 1031.05 716.567 985.644 723.884C983.122 724.291 980.612 724.683 978.101 725.064C925.55 733.043 875.99 735.379 830.8 732.011C808.984 730.358 787.434 727.269 766.753 722.829C747.314 718.656 728.035 713.158 709.451 706.489C676.016 694.49 644.178 678.649 612.125 658.064C610.749 657.178 609.377 656.289 608.011 655.395C589.382 643.203 571.572 630.191 554.35 617.607C544.407 610.343 534.127 602.831 523.812 595.568C492.049 573.19 465.514 557.177 437.765 543.654C434.032 541.835 430.195 540.027 426.351 538.279C356.422 506.461 268.705 486.38 172.689 480.2C56.9254 472.778 -57.8448 484.613 -150.481 513.522C-244.658 542.952 -335.162 604.45 -325.925 665.046L-326.294 665.108C-330.596 636.883 -313.926 606.698 -278.087 577.819C-261.887 564.765 -242.364 552.465 -220.054 541.254C-198.346 530.346 -174.979 520.953 -150.599 513.334C-101.715 498.079 -47.1714 487.578 11.5157 482.124C64.2368 477.224 118.501 476.504 172.801 479.984C268.878 486.169 356.645 506.263 426.618 538.099C430.463 539.849 434.307 541.658 438.04 543.477C465.801 557.009 492.348 573.026 524.119 595.413C534.435 602.678 544.719 610.19 554.658 617.454C571.88 630.036 589.686 643.047 608.311 655.235C609.676 656.129 611.045 657.018 612.421 657.903C680.531 701.647 752.002 725.818 830.92 731.798C940.208 739.945 1051.34 713.506 1125.32 689.89C1134.41 686.987 1143.65 683.895 1152.77 680.698C1255.05 644.877 1346.14 594.39 1414.07 554.409C1443.84 536.899 1472.91 518.474 1501.02 500.658C1557.09 465.114 1615.08 428.36 1679.49 398.564C1706.99 385.832 1732.17 376.677 1756.48 370.578C1786.46 363.056 1814.59 360.519 1840.1 363.041C1861.59 365.17 1883.2 370.677 1906.18 379.873C1926.43 387.977 1945.03 397.78 1963.02 407.263C1973.73 412.911 1983.85 418.246 1993.98 423.054C2094.38 470.918 2197.27 520.555 2299.79 570.584L2299.52 570.76Z" fill="#183F30"/>
<path d="M2295.98 566.226L1995.24 415.967C1985.42 411.06 1975.59 405.581 1965.18 399.783C1930.84 380.647 1891.91 358.959 1844.03 354.436C1797.74 350.064 1743.88 363.317 1683.96 393.829C1626.36 423.16 1574.86 458.096 1525.05 491.883C1492.58 513.907 1459.01 536.679 1424.2 557.574C1319.58 620.378 1226.53 662.539 1131.37 690.26C1091.9 701.759 1052.65 710.688 1014.28 716.91C1002.65 718.796 991.105 720.431 979.654 721.816C925.655 728.346 875.125 729.059 829.475 723.938C787.166 719.189 747.744 709.194 708.969 693.376C678.004 680.745 647.81 664.598 613.948 642.558C596.075 630.927 578.642 618.658 561.783 606.794C523.626 579.945 484.173 552.182 436.845 529.791C364.251 495.449 271.991 474.246 170.038 468.473C53.6351 461.881 -61.3456 474.586 -153.718 504.249C-243.15 532.969 -336.564 592.952 -330.331 656.789L-330.701 656.845C-333.486 628.311 -316.21 598.009 -280.741 569.216C-248.671 543.182 -203.604 520.044 -153.839 504.065C-105.069 488.404 -50.5208 477.472 8.28264 471.577C61.084 466.281 115.544 465.167 170.15 468.259C220.598 471.115 269.012 477.792 314.052 488.105C359.467 498.504 400.872 512.467 437.108 529.609C484.455 552.007 523.921 579.777 562.086 606.633C578.945 618.495 596.378 630.762 614.246 642.392C663.651 674.55 732.781 712.854 829.617 723.721C940.671 736.182 1054.95 712.298 1131.26 690.067C1226.37 662.362 1319.38 620.218 1423.96 557.438C1458.76 536.551 1492.33 513.78 1524.79 491.761C1574.61 457.968 1626.12 423.023 1683.76 393.677C1743.78 363.113 1797.75 349.836 1844.17 354.221C1865.6 356.247 1887.04 361.84 1909.72 371.324C1929.68 379.674 1947.87 389.809 1965.46 399.611C1975.87 405.409 1985.7 410.884 1995.52 415.79L2296.25 566.049L2295.98 566.226Z" fill="#183F30"/>
<path d="M2291.1 560.952C2214.13 517.628 2148.39 482.984 2084.23 451.929C2053.08 436.839 2021.36 422.153 1989.95 408.278C1980.45 404.081 1970.98 399.516 1960.96 394.682C1935.78 382.532 1909.75 369.969 1880.6 362.182C1864.95 357.989 1850.08 355.559 1835.14 354.755C1789.27 352.192 1737.6 366.708 1681.56 397.9C1652.55 414.027 1626.46 431.297 1604.76 446.064C1581.78 461.697 1559.29 478.493 1537.53 494.736C1506.27 518.084 1473.93 542.225 1438.68 564.129C1417.23 577.486 1395.35 589.847 1373.63 600.87C1330.18 622.923 1283.09 642.86 1233.66 660.127C1203.11 670.731 1172.25 679.963 1141.92 687.563C1115.78 694.104 1089.47 699.634 1063.71 704.001C1025.16 710.538 987.307 714.513 951.203 715.812C912.816 717.192 876.127 715.551 842.159 710.932C811.869 706.813 782.924 700.19 753.671 690.681C699.164 672.982 654.56 649.637 621.791 631.276C605.687 622.203 589.903 612.851 574.637 603.807C530.68 577.759 489.161 553.157 438.55 533.374C397.29 517.384 350.963 505.262 300.844 497.342C262.33 491.255 220.832 487.84 177.507 487.191C167.187 487.039 156.69 487.034 146.317 487.181C101.656 487.822 51.7397 491.497 -2.04151 498.102C-56.2687 504.72 -102.798 513.605 -144.28 525.269C-167.734 531.841 -190.248 539.918 -211.206 549.275C-285.197 582.312 -330.038 625.363 -331.157 664.438L-331.621 664.488C-331.323 654.071 -328.021 643.34 -321.81 632.591C-315.909 622.38 -307.348 612.083 -296.367 601.987C-275.619 582.916 -246.25 564.617 -211.438 549.073C-190.447 539.7 -167.897 531.611 -144.407 525.03C-102.882 513.355 -56.3153 504.462 -2.04355 497.839C51.7672 491.229 101.71 487.554 146.4 486.913C156.785 486.767 167.286 486.771 177.613 486.924C220.972 487.572 262.504 490.99 301.049 497.082C351.203 505.007 397.569 517.141 438.849 533.142C489.491 552.937 531.019 577.546 574.992 603.6C590.254 612.644 606.038 621.995 622.138 631.066C654.89 649.419 699.474 672.753 753.95 690.439C783.172 699.939 812.086 706.556 842.341 710.67C908.821 719.709 983.283 717.38 1063.66 703.745C1089.4 699.382 1115.69 693.854 1141.81 687.319C1172.11 679.722 1202.96 670.498 1233.48 659.902C1282.88 642.646 1329.95 622.722 1373.37 600.682C1395.07 589.667 1416.94 577.313 1438.37 563.967C1473.6 542.074 1505.93 517.938 1537.18 494.599C1558.94 478.353 1581.44 461.553 1604.43 445.914C1626.14 431.139 1652.24 413.862 1681.27 397.724C1706.22 383.836 1730.71 373.107 1754.07 365.833C1782.76 356.897 1810.08 353.08 1835.27 354.488C1850.26 355.296 1865.17 357.731 1880.86 361.933C1910.05 369.733 1936.1 382.303 1961.3 394.461C1971.32 399.293 1980.78 403.858 1990.27 408.053C2021.7 421.929 2053.42 436.616 2084.57 451.709C2148.74 482.768 2214.48 517.415 2291.46 560.742L2291.1 560.952Z" fill="#183F30"/>
<path d="M2286.18 555.957C2214.46 510.46 2147.81 473.386 2082.41 442.621C2050.52 427.585 2017.67 413.461 1984.8 400.64C1976.07 397.239 1967.43 393.639 1958.29 389.83C1930.89 378.424 1902.56 366.629 1871.63 360.175C1856 356.893 1841.2 355.197 1826.37 354.992C1769.58 354.204 1715.01 380.102 1679.22 401.968C1653.87 417.427 1631 434.032 1607.87 451.102C1587.62 466.044 1568.76 481.679 1548.79 498.229C1519.14 522.797 1488.49 548.201 1453.1 570.984C1432.11 584.558 1409.99 596.893 1387.35 607.645C1345.19 627.674 1298.51 645.325 1244.66 661.607C1214.52 670.718 1183.49 678.648 1152.44 685.171C1126.23 690.658 1099.96 695.163 1074.35 698.557C1036.24 703.613 998.722 706.213 962.823 706.284C925.121 706.358 888.821 703.638 854.935 698.201C825.247 693.438 796.289 686.343 766.406 676.512C712.139 658.694 664.899 636.997 629.811 620.083C616.822 613.821 604.02 607.481 591.636 601.348C542.319 576.923 495.739 553.851 440.401 536.836C399.043 524.119 353.214 515.001 304.194 509.734C267.103 505.748 228.132 504.445 185.058 505.749C175.117 506.051 165.02 506.495 155.05 507.068C111.263 509.602 64.8519 515.052 8.73076 521.911C-31.7303 526.799 -84.6066 533.965 -134.789 546.109C-158.561 551.821 -181.35 558.957 -202.532 567.315C-277.105 596.749 -325.458 635.838 -331.879 671.883L-332.432 671.913C-330.731 662.355 -326.166 652.545 -318.874 642.754C-311.924 633.424 -302.452 624.056 -290.728 614.905C-268.445 597.518 -238.033 580.973 -202.779 567.06C-181.559 558.685 -158.726 551.536 -134.914 545.815C-84.6839 533.657 -31.7668 526.486 8.7201 521.595C64.8597 514.733 111.286 509.281 155.102 506.744C165.08 506.173 175.184 505.728 185.136 505.423C228.252 504.12 267.261 505.424 304.393 509.413C353.463 514.686 399.33 523.811 440.73 536.54C496.108 553.568 542.708 576.646 592.04 601.081C604.421 607.213 617.223 613.553 630.212 619.812C665.292 636.719 712.511 658.409 766.747 676.219C796.595 686.04 825.522 693.127 855.176 697.884C921.807 708.576 995.544 708.694 1074.33 698.24C1099.92 694.847 1126.16 690.348 1152.34 684.865C1183.37 678.348 1214.37 670.427 1244.48 661.322C1298.29 645.055 1344.93 627.419 1387.06 607.407C1409.67 596.668 1431.76 584.35 1452.73 570.79C1488.08 548.027 1518.72 522.633 1548.36 498.077C1568.33 481.52 1587.2 465.882 1607.46 450.932C1630.6 433.852 1653.48 417.241 1678.86 401.766C1702.06 387.59 1725.27 376.412 1747.84 368.536C1775.21 358.987 1801.68 354.32 1826.5 354.664C1841.38 354.871 1856.23 356.572 1871.9 359.864C1902.9 366.331 1931.25 378.136 1958.67 389.552C1967.81 393.36 1976.45 396.956 1985.17 400.357C2018.06 413.182 2050.91 427.312 2082.82 442.351C2148.23 473.126 2214.89 510.205 2286.62 555.713L2286.18 555.957Z" fill="#183F30"/>
<path d="M2281.22 551.119C2213.81 502.818 2148.23 464.284 2080.75 433.315C2048.11 418.301 2014.16 404.704 1979.83 392.896C1972.5 390.372 1964.93 387.661 1957.61 385.041C1927.4 374.213 1896.16 363.017 1862.84 357.957C1847.19 355.551 1832.45 354.585 1817.77 355.008C1761.43 356.626 1710.12 383.592 1676.99 405.925C1654.54 421.016 1634.29 437.367 1614.71 453.182L1611.04 456.143C1593.26 470.492 1576.79 485.792 1559.35 501.993C1531.57 527.79 1502.85 554.463 1467.47 578.096C1446.89 591.925 1424.53 604.24 1400.99 614.701C1359.96 632.939 1313.76 648.401 1255.6 663.357C1225.53 671.09 1194.36 677.713 1162.94 683.039C1136.68 687.467 1110.46 690.942 1085 693.366C1007.93 700.721 934.869 698.136 867.852 685.683C838.88 680.3 809.926 672.721 779.336 662.508C727.575 645.275 681.166 626.58 638.072 608.907C632.293 606.539 626.575 604.182 620.9 601.845C562.029 577.602 506.425 554.702 442.44 540.141C400.668 530.634 355.321 524.513 307.665 521.946C272.676 520.061 235.063 520.786 192.683 524.158C183.132 524.922 173.431 525.817 163.846 526.82C139.736 529.358 114.257 532.889 87.28 536.627C65.6122 539.63 43.2086 542.734 19.5224 545.61C-26.234 551.074 -78.0917 557.268 -125.247 566.817C-149.578 571.745 -172.635 577.935 -193.781 585.219C-268.827 611.07 -320.674 646.187 -332.47 679.157L-333.106 679.15C-329.997 670.457 -324.176 661.575 -315.809 652.749C-307.807 644.31 -297.434 635.87 -284.977 627.667C-261.152 611.978 -229.702 597.192 -194.034 584.906C-172.841 577.605 -149.736 571.401 -125.358 566.464C-78.1542 556.907 -26.2704 550.71 19.5045 545.244C43.1757 542.368 65.5795 539.266 87.2399 536.264C114.228 532.524 139.714 528.993 163.847 526.453C173.439 525.452 183.152 524.555 192.71 523.79C235.142 520.412 272.8 519.688 307.838 521.575C355.551 524.145 400.947 530.273 442.766 539.79C506.808 554.364 562.439 577.275 621.335 601.53C627.009 603.867 632.73 606.221 638.506 608.592C681.593 626.261 727.986 644.952 779.732 662.179C810.29 672.38 839.214 679.953 868.15 685.328C935.079 697.766 1008.04 700.346 1085.02 693.001C1110.45 690.58 1136.64 687.108 1162.87 682.685C1194.26 677.364 1225.4 670.747 1255.44 663.023C1313.53 648.081 1359.68 632.638 1400.66 614.424C1424.15 603.986 1446.47 591.693 1467.01 577.888C1502.35 554.285 1531.05 527.627 1558.81 501.845C1576.26 485.637 1592.74 470.33 1610.54 455.97L1614.2 453.009C1633.79 437.186 1654.05 420.825 1676.53 405.718C1709.76 383.313 1761.26 356.264 1817.86 354.637C1832.61 354.213 1847.4 355.181 1863.11 357.598C1896.5 362.668 1927.77 373.876 1958.02 384.717C1965.33 387.337 1972.9 390.048 1980.23 392.571C2014.57 404.384 2048.54 417.99 2081.2 433.012C2148.71 463.993 2214.31 502.541 2281.74 550.858L2281.22 551.119Z" fill="#183F30"/>
<path d="M2276.32 545.949C2214.2 495.519 2147.92 454.332 2079.32 423.536C2045.96 408.516 2010.91 395.414 1975.14 384.593C1969.98 383.03 1964.68 381.398 1959.56 379.821C1925.73 369.4 1890.75 358.621 1854.31 355.109C1838.67 353.564 1823.98 353.334 1809.42 354.402C1753.55 358.505 1705.44 386.588 1674.92 409.426C1655.96 423.548 1639.1 438.669 1622.78 453.292C1619.96 455.822 1617.14 458.349 1614.32 460.867C1598.79 474.703 1584.5 489.737 1569.36 505.651C1543.63 532.707 1517.02 560.683 1481.83 585.205C1461.17 599.605 1439.18 611.573 1414.61 621.797C1363.21 643.18 1310.93 655.712 1266.58 665.153C1236.58 671.537 1205.27 676.855 1173.53 680.955C1147.24 684.321 1121.08 686.765 1095.78 688.222C1020.78 692.556 948.522 687.499 881.031 673.189C852.949 667.237 824.018 659.157 792.578 648.488C760.822 637.747 731.184 627.284 702.519 617.165C683.039 610.287 664.636 603.792 646.682 597.601C578.813 574.199 516.768 553.953 444.734 543.211C402.54 536.92 357.647 533.806 311.303 533.956C278.087 534.063 242.848 536.764 200.408 542.449C191.252 543.682 181.937 545.037 172.724 546.477C158.732 548.68 144.284 551.229 128.993 553.929C99.6474 559.108 66.381 564.98 30.3399 569.285C16.6151 570.923 2.60203 572.491 -10.9517 574.006C-45.8126 577.903 -81.8594 581.934 -115.638 587.497C-140.443 591.584 -163.76 596.832 -184.933 603.096C-260.309 625.398 -315.609 656.528 -332.867 686.371L-333.567 686.305C-329.049 678.491 -321.981 670.546 -312.56 662.69C-303.511 655.146 -292.243 647.642 -279.075 640.389C-253.699 626.414 -221.23 613.389 -185.174 602.722C-163.95 596.442 -140.582 591.181 -115.721 587.086C-81.9062 581.516 -45.8444 577.485 -10.9651 573.585C2.58497 572.071 16.5981 570.503 30.3192 568.865C66.327 564.566 99.5677 558.699 128.898 553.522C144.197 550.821 158.648 548.271 172.656 546.066C181.88 544.625 191.202 543.269 200.369 542.034C242.868 536.339 278.16 533.637 311.432 533.529C357.832 533.379 402.785 536.495 445.033 542.796C477.571 547.647 510.786 554.907 546.574 564.986C578.613 574.009 609.946 584.4 647.138 597.223C665.093 603.416 683.495 609.912 702.979 616.789C731.64 626.906 761.278 637.369 793.026 648.109C824.435 658.767 853.335 666.839 881.383 672.785C948.782 687.076 1020.93 692.127 1095.84 687.799C1121.11 686.344 1147.23 683.902 1173.49 680.541C1205.2 676.446 1236.47 671.134 1266.43 664.756C1310.73 655.329 1362.94 642.812 1414.25 621.467C1438.75 611.272 1460.68 599.335 1481.29 584.972C1516.42 560.492 1543.01 532.538 1568.72 505.504C1583.87 489.579 1598.17 474.538 1613.71 460.688C1616.53 458.169 1619.35 455.643 1622.17 453.115C1638.49 438.482 1655.37 423.352 1674.35 409.211C1694.21 394.353 1714.9 382.171 1735.84 373.005C1760.64 362.147 1785.41 355.748 1809.44 353.984C1824.08 352.91 1838.84 353.142 1854.55 354.693C1891.08 358.214 1926.11 369.005 1959.98 379.44C1965.1 381.017 1970.4 382.649 1975.56 384.21C2011.36 395.04 2046.43 408.155 2079.82 423.186C2116.24 439.539 2152.26 458.931 2186.87 480.825C2217.46 500.175 2247.76 521.992 2276.93 545.666L2276.32 545.949Z" fill="#183F30"/>
<path d="M2271.8 538.482C2214.07 485.289 2148.97 442.584 2078.3 411.551C2044.22 396.534 2008.06 383.94 1970.84 374.117C1969.07 373.649 1967.3 373.181 1965.52 372.712C1926.81 362.478 1886.79 351.895 1846.1 350.169C1830.34 349.5 1815.7 350.021 1801.35 351.76C1745.99 358.468 1701.05 387.758 1673.09 411.145C1656.64 424.841 1642.25 439.362 1628.35 453.405C1624.91 456.877 1621.35 460.467 1617.84 463.971C1604.45 477.317 1592.24 492.087 1579.31 507.727C1555.79 536.174 1531.47 565.588 1496.43 591.049C1476.17 605.779 1453.94 617.77 1428.47 627.707C1378.31 647.284 1326.45 657.612 1277.89 665.857C1247.95 670.94 1216.53 674.971 1184.52 677.84C1158.22 680.159 1132.15 681.591 1107.01 682.099C1034.35 683.584 962.939 676.105 894.76 659.867C867.456 653.366 839.374 645.048 806.391 633.69C743.713 612.184 697.279 597.344 655.835 585.572C573.405 562.16 511.063 550.243 447.387 545.725C404.757 542.7 360.279 542.657 315.181 545.596C283.892 547.637 250.923 552.251 208.284 560.564C199.547 562.273 190.616 564.104 181.737 566.009C173.351 567.818 164.841 569.742 155.828 571.779C122.554 579.302 84.8371 587.829 41.2329 593.029C18.2499 595.77 -5.28106 597.992 -28.0363 600.142C-53.8976 602.585 -80.6384 605.11 -105.91 608.356C-131.248 611.61 -154.809 615.93 -175.921 621.197C-251.438 640.031 -310.129 667.185 -332.918 693.831L-333.651 693.682C-327.733 686.759 -319.433 679.761 -308.983 672.88C-298.897 666.237 -286.758 659.673 -272.902 653.365C-245.987 641.111 -212.522 629.833 -176.128 620.757C-154.957 615.478 -131.344 611.146 -105.947 607.884C-80.6541 604.636 -53.8984 602.109 -28.0258 599.666C-5.27796 597.517 18.2419 595.297 41.2064 592.558C84.7328 587.367 122.409 578.849 155.647 571.335C164.663 569.296 173.181 567.372 181.571 565.561C190.461 563.655 199.399 561.823 208.143 560.11C250.848 551.787 283.873 547.163 315.229 545.12C360.39 542.176 404.932 542.219 447.622 545.249C511.385 549.772 573.791 561.702 656.294 585.134C697.754 596.909 744.204 611.754 806.897 633.266C839.857 644.615 867.908 652.924 895.181 659.419C963.268 675.633 1034.58 683.103 1107.13 681.62C1132.23 681.112 1158.27 679.68 1184.53 677.365C1216.51 674.5 1247.88 670.474 1277.79 665.398C1326.28 657.165 1378.05 646.857 1428.1 627.326C1453.47 617.426 1475.62 605.476 1495.81 590.798C1530.77 565.391 1555.07 536.008 1578.56 507.592C1591.5 491.943 1603.72 477.161 1617.13 463.795C1620.64 460.293 1624.2 456.703 1627.64 453.231C1641.55 439.176 1655.95 424.645 1672.43 410.927C1690.67 395.663 1710.11 382.919 1730.2 373.045C1753.74 361.478 1777.67 354.162 1801.32 351.293C1815.75 349.544 1830.47 349.022 1846.31 349.693C1887.12 351.426 1927.21 362.022 1965.97 372.273C1967.75 372.742 1969.52 373.211 1971.29 373.677C2008.55 383.512 2044.75 396.121 2078.87 411.154C2149.6 442.216 2214.75 484.954 2272.52 538.184L2271.8 538.482Z" fill="#183F30"/>
<path d="M1296.45 662.354C1294.37 662.631 1292.33 662.902 1290.31 663.164C1260.42 667.083 1228.9 669.955 1196.66 671.696C1170.37 673.075 1144.38 673.606 1119.4 673.277C1083.72 672.816 1047.69 670.116 1012.32 665.254C978.156 660.559 943.551 653.703 909.458 644.874C876.053 636.224 844.629 625.812 820.983 617.707C765.665 598.814 713.317 583.838 665.394 573.194C587.776 555.955 519.337 548.266 450.005 548.997C408.178 549.438 363.566 552.681 320.858 558.382C320.196 558.47 319.538 558.558 318.876 558.649C282.194 563.617 247.727 572.126 215.95 580.58C207.68 582.787 199.131 585.134 190.54 587.559C185.834 588.895 181.122 590.253 176.137 591.689C140.975 601.83 101.119 613.323 51.949 619.38C22.0034 623.068 -8.71935 625.394 -38.4311 627.642C-57.6158 629.092 -77.4508 630.594 -96.3338 632.422C-122.291 634.936 -146.068 638.415 -167.01 642.767C-242.422 658.436 -304.351 681.755 -332.676 705.148L-333.403 704.896C-318.875 692.898 -296.419 681.192 -266.66 670.101C-238.239 659.509 -203.837 649.883 -167.177 642.266C-146.18 637.904 -122.341 634.413 -96.324 631.895C-77.4225 630.065 -57.5762 628.564 -38.3841 627.112C-8.69081 624.867 22.0135 622.544 51.9182 618.859C100.963 612.818 140.749 601.344 175.853 591.221C180.841 589.781 185.553 588.424 190.263 587.087C198.861 584.662 207.417 582.312 215.695 580.103C247.526 571.635 282.052 563.113 318.823 558.13C362.204 552.252 407.611 548.912 450.152 548.464C485.935 548.088 520.833 549.907 556.833 554.026C591.504 557.994 627.165 564.099 665.848 572.692C713.809 583.344 766.196 598.332 821.549 617.237C845.176 625.338 876.576 635.743 909.947 644.383C979.126 662.299 1049.66 671.84 1119.58 672.746C1144.53 673.076 1170.49 672.545 1196.74 671.168C1228.94 669.429 1260.41 666.563 1290.27 662.647C1336.98 656.521 1391.14 648.39 1442.89 629.267C1469.08 619.587 1491.4 607.568 1511.11 592.522C1545.73 566.098 1567.41 535.221 1588.38 505.358C1599.16 489.997 1609.35 475.488 1620.7 462.591C1624.34 458.459 1628 454.213 1631.54 450.107C1643.5 436.233 1655.87 421.89 1670.4 408.22C1686.99 392.508 1705.12 379.139 1724.29 368.486C1746.52 356.135 1769.59 347.805 1792.85 343.729C1807.21 341.213 1821.9 339.865 1837.75 339.608C1880.15 338.92 1923.06 347.633 1966.96 357.404C2005.23 365.924 2043.68 378.155 2078.14 392.778C2116.42 408.96 2152.85 429.076 2186.43 452.565C2216.34 473.491 2244.17 497.207 2269.14 523.053L2268.31 523.375C2214.68 467.869 2150.49 424.082 2077.52 393.232C2043.1 378.63 2004.71 366.416 1966.5 357.912C1922.68 348.159 1879.85 339.462 1837.61 340.146C1821.84 340.402 1807.24 341.743 1792.97 344.244C1750.22 351.736 1706.96 374.533 1671.16 408.439C1656.67 422.085 1644.31 436.416 1632.35 450.276C1628.81 454.384 1625.15 458.633 1621.51 462.764C1610.18 475.638 1600 490.136 1589.23 505.482C1578.94 520.134 1568.3 535.286 1555.85 550.148C1541.74 566.997 1527.34 580.946 1511.81 592.797C1492.01 607.909 1469.6 619.982 1443.28 629.708C1420.07 638.285 1394.91 645.265 1366.37 651.05C1342.19 655.94 1317.78 659.506 1296.45 662.354Z" fill="#183F30"/>
<path d="M1356.38 653.602C1337.53 656.144 1319.36 657.951 1303.1 659.492C1273.2 662.326 1241.59 664.102 1209.15 664.768C1182.89 665.264 1156.97 664.954 1132.12 663.841C1064.08 660.819 996.107 649.68 924.329 629.793C893.026 621.122 863.351 611.251 835.648 601.885C780.96 583.469 726.865 569.852 674.858 561.41C598.371 548.994 527.69 546.442 452.417 553.38C409.528 557.333 364.557 564.145 322.362 573.078C287.044 580.554 254.131 591.541 223.44 602.153C215.762 604.816 207.6 607.694 199.185 610.707C197.082 611.462 194.962 612.229 192.813 613.003C157.516 625.747 117.577 640.167 65.2073 647.229C64.3237 647.348 63.4437 647.465 62.5522 647.578C27.102 652.154 -9.3493 654.174 -44.605 656.126C-58.5821 656.9 -73.0358 657.701 -86.8883 658.64C-113.945 660.477 -137.28 663.089 -158.227 666.629C-234.417 679.507 -297.928 698.604 -332.467 719.028L-333.129 718.654C-316.054 708.558 -290.932 698.403 -260.489 689.29C-230.544 680.326 -195.223 672.295 -158.346 666.063C-137.339 662.512 -113.946 659.893 -86.8293 658.052C-72.9621 657.112 -58.5044 656.311 -44.5238 655.535C-9.30181 653.583 27.116 651.566 62.4996 646.999C115.99 640.099 156.58 625.441 192.387 612.512C194.532 611.738 196.656 610.971 198.759 610.214C207.181 607.198 215.347 604.319 223.032 601.655C253.774 591.024 286.749 580.02 322.162 572.523C364.424 563.577 409.468 556.753 452.427 552.793C489.729 549.354 525.509 548.288 561.81 549.531C599.196 550.811 636.311 554.508 675.278 560.835C727.35 569.289 781.513 582.923 836.259 601.356C863.951 610.719 893.607 620.584 924.882 629.246C996.564 649.106 1064.43 660.229 1132.36 663.247C1157.18 664.356 1183.06 664.667 1209.29 664.172C1241.68 663.507 1273.25 661.736 1303.1 658.903C1353.34 654.139 1406.68 647.978 1457.99 629.932C1484.99 620.435 1507.44 608.318 1526.62 592.89C1560.8 565.407 1580.44 531.557 1597.78 501.691C1606.5 486.664 1614.73 472.47 1624.14 460.05C1627.53 455.569 1630.93 450.95 1634.23 446.485C1644.52 432.513 1655.17 418.066 1668.09 404.173C1683.02 388.003 1699.82 373.997 1718.01 362.544C1738.9 349.391 1761.09 340.015 1783.95 334.683C1798.23 331.349 1812.89 329.147 1828.76 327.947C1873.1 324.599 1919.13 331.391 1962.28 339.232C2002.12 346.47 2041.86 357.866 2077.21 372.186C2116.53 388.054 2153.31 408.297 2186.51 432.349C2216.2 453.858 2242.95 478.31 2266 505.029L2265.07 505.363C2216.08 448.569 2150.88 402.691 2076.53 372.688C2041.25 358.394 2001.58 347.02 1961.83 339.796C1918.79 331.974 1872.87 325.198 1828.72 328.531C1812.94 329.723 1798.37 331.912 1784.18 335.223C1741.97 345.07 1701.06 369.626 1668.97 404.371C1656.08 418.236 1645.45 432.668 1635.16 446.626C1631.87 451.093 1628.46 455.712 1625.07 460.197C1615.68 472.59 1607.45 486.77 1598.74 501.781C1581.38 531.693 1561.7 565.598 1527.42 593.173C1508.13 608.685 1485.55 620.869 1458.4 630.421C1434.84 638.708 1409.18 645.127 1379.94 650.041C1372.04 651.382 1364.15 652.554 1356.38 653.602Z" fill="#183F30"/>
<path d="M1394.39 648.785C1394.12 648.822 1393.86 648.858 1393.59 648.895C1366.94 652.493 1340.61 654.224 1315.91 655.688C1285.95 657.466 1254.24 658.156 1221.66 657.744C1195.42 657.371 1169.57 656.225 1144.84 654.341C1079.28 649.365 1013.93 636.778 939.171 614.726C912.25 606.788 885.65 597.914 859.923 589.334C856.706 588.26 853.486 587.188 850.265 586.116C795.252 567.87 739.407 555.631 684.284 549.739C608.801 541.672 533.753 544.349 454.849 557.921C411.584 565.365 366.999 575.652 325.914 587.671C293.498 597.155 264.968 609.167 231.035 623.884C224.158 626.876 216.817 630.093 207.938 634.012L207.443 634.232C190.316 641.826 170.904 650.431 148.918 657.961C123.669 666.609 98.9228 672.491 73.2918 675.96C33.323 681.359 -7.87928 682.73 -47.7225 684.053C-57.4844 684.377 -67.5824 684.713 -77.3231 685.1C-105.257 686.213 -128.813 688.065 -149.335 690.763C-224.9 700.698 -291.554 716.199 -332.205 733.288L-332.742 732.79C-312.83 724.419 -285.672 716.123 -254.205 708.8C-222.68 701.463 -186.432 695.009 -149.386 690.138C-128.805 687.432 -105.19 685.574 -77.1959 684.459C-67.4478 684.071 -57.3499 683.735 -47.5842 683.41C-7.78968 682.088 33.3604 680.72 73.2332 675.334C73.4106 675.309 73.5917 675.285 73.7691 675.261C130.796 667.476 172.968 648.779 206.877 633.746L207.376 633.526C216.258 629.605 223.6 626.387 230.481 623.395C264.471 608.653 293.051 596.62 325.57 587.107C366.724 575.066 411.381 564.762 454.72 557.307C493.332 550.666 529.983 546.707 566.773 545.207C606.418 543.59 644.984 544.864 684.671 549.107C739.899 555.009 795.84 567.268 850.942 585.543C854.163 586.615 857.384 587.689 860.601 588.764C886.316 597.341 912.908 606.212 939.807 614.145C1014.47 636.17 1079.72 648.74 1145.18 653.707C1169.87 655.59 1195.68 656.733 1221.89 657.107C1254.42 657.518 1286.08 656.828 1316 655.053C1369.59 651.877 1421.94 647.602 1473.17 630.426C1500.97 621.104 1523.55 608.886 1542.2 593.072C1575.88 564.504 1592.3 529.05 1606.79 497.767C1613.57 483.122 1619.98 469.287 1627.57 457.36C1630.5 452.77 1633.42 448.038 1636.24 443.46C1645.06 429.147 1654.19 414.349 1665.75 399.992C1679.06 383.357 1694.51 368.715 1711.67 356.474C1731.23 342.521 1752.52 332.105 1774.96 325.516C1788.86 321.431 1803.17 318.412 1818.66 316.298C1819 316.252 1819.33 316.206 1819.67 316.162C1867.84 309.73 1918.62 315.31 1957.49 320.888C1998.89 326.833 2039.93 337.375 2076.17 351.375C2116.55 366.913 2153.67 387.266 2186.52 411.871C2215.99 433.952 2241.66 459.132 2262.81 486.716L2261.78 487.061C2230.32 446.019 2172.44 389.262 2075.45 351.932C2039.29 337.963 1998.34 327.447 1957.04 321.516C1918.29 315.951 1867.67 310.386 1819.73 316.788C1803.95 318.89 1789.42 321.934 1775.31 326.081C1733.75 338.29 1695.19 364.602 1666.74 400.172C1655.21 414.496 1646.09 429.277 1637.28 443.574C1634.45 448.154 1631.53 452.889 1628.61 457.481C1621.04 469.377 1614.63 483.195 1607.86 497.824C1593.35 529.163 1576.89 564.685 1543.08 593.363C1524.31 609.283 1501.57 621.584 1473.58 630.967C1449.86 638.918 1423.95 644.75 1394.39 648.785Z" fill="#183F30"/>
<path d="M1424.91 645.407C1419.17 646.201 1413.3 646.908 1407.28 647.53C1380.91 650.256 1355.1 651.06 1328.77 651.705C1298.26 652.452 1267.33 652.082 1234.21 650.575C1208 649.341 1182.22 647.371 1157.59 644.718C1095.1 638.008 1032.31 624.091 954 599.592C934.552 593.509 915.067 587.002 896.223 580.709C885.965 577.284 875.361 573.74 864.862 570.3C809.147 552.11 751.561 541.267 693.701 538.07C617.251 533.844 539.943 541.832 457.349 562.491C413.713 573.407 369.533 587.169 329.589 602.287C297.501 614.432 269.964 629.063 240.808 644.553L238.793 645.623C234.239 648.049 229.637 650.506 224.977 652.993C222.294 654.426 219.593 655.869 216.866 657.323C199.873 666.427 181.494 676.014 160.149 684.389C135.367 694.112 110.538 700.644 84.2367 704.361C40.4498 710.543 -4.81288 710.991 -48.582 711.419C-54.8285 711.479 -61.2918 711.543 -67.5624 711.623C-96.9615 711.996 -120.059 713.066 -140.262 714.988C-214.813 722.081 -284.633 734.017 -331.824 747.737L-332.198 747.125C-284.883 733.369 -214.92 721.405 -140.238 714.301C-119.98 712.373 -96.8228 711.301 -67.3676 710.927C-61.0931 710.848 -54.6297 710.784 -48.3796 710.723C-5.14606 710.3 39.5441 709.862 82.7631 703.88C83.2288 703.816 83.6945 703.751 84.1637 703.684C140.048 695.789 178.483 677.026 216.147 656.852C218.873 655.398 221.575 653.956 224.258 652.522C228.917 650.033 233.516 647.579 238.073 645.151L240.089 644.08C269.294 628.564 296.878 613.908 329.07 601.723C369.087 586.576 413.343 572.791 457.055 561.856C539.857 541.144 617.374 533.136 694.031 537.374C752.034 540.581 809.754 551.448 865.593 569.677C876.092 573.119 886.7 576.66 896.958 580.087C915.795 586.38 935.275 592.885 954.711 598.964C1032.93 623.435 1095.63 637.333 1158.01 644.032C1182.61 646.68 1208.35 648.649 1234.52 649.88C1267.59 651.385 1298.48 651.754 1328.95 651.007C1375.2 649.875 1432.76 648.467 1488.41 630.663C1517.02 621.51 1539.72 609.185 1557.82 592.983C1590.98 563.305 1603.96 526.22 1615.42 493.503C1620.4 479.29 1625.1 465.864 1631.02 454.443C1633.33 449.993 1635.63 445.402 1637.85 440.962C1645.31 426.069 1653.02 410.671 1663.4 395.603C1675.1 378.493 1689.2 363.219 1705.29 350.204C1723.53 335.456 1743.92 324.002 1765.91 316.159C1780.02 311.125 1794.61 307.207 1810.51 304.18C1831.81 300.126 1854.72 298.139 1880.54 298.096C1902.39 298.062 1925.96 299.442 1952.6 302.317C1995.56 306.954 2037.9 316.631 2075.04 330.302C2116.47 345.494 2153.95 365.952 2186.44 391.101C2215.71 413.748 2240.31 439.652 2259.56 468.097L2258.43 468.448C2217.77 408.396 2152.37 359.55 2074.27 330.911C2037.23 317.277 1995.01 307.627 1952.18 303.005C1894.78 296.811 1849.83 297.392 1810.69 304.84C1794.89 307.846 1780.41 311.737 1766.39 316.734C1714.08 335.393 1682.11 370.005 1664.51 395.752C1654.15 410.782 1646.45 426.163 1639 441.037C1636.78 445.48 1634.48 450.072 1632.17 454.525C1626.27 465.912 1621.57 479.321 1616.6 493.517C1605.12 526.305 1592.11 563.468 1558.8 593.281C1540.56 609.611 1517.67 622.035 1488.83 631.261C1469.29 637.514 1448.24 642.178 1424.91 645.407Z" fill="#183F30"/>
<path d="M1451.57 642.739C1412.48 648.229 1374.32 647.858 1341.66 647.541C1310.94 647.245 1279.9 645.841 1246.76 643.253C1220.59 641.169 1194.88 638.381 1170.33 634.962C1096.74 624.737 1029.98 604.601 968.794 584.363C956.301 580.232 943.669 575.939 931.456 571.787C914.498 566.021 896.96 560.06 879.421 554.405C822.825 536.226 763.503 526.788 703.107 526.354C624.979 525.794 545.429 539.101 459.915 567.037C415.885 581.42 372.133 598.652 333.386 616.871C303.501 630.921 278.641 646.852 252.322 663.718C250.457 664.913 248.588 666.112 246.708 667.313L245.689 667.966C239.292 672.07 232.676 676.311 225.966 680.579C209.892 690.839 192.136 701.609 171.261 710.865C147.028 721.608 122.211 728.755 95.3814 732.713C48.2892 739.663 -0.527756 738.957 -47.7334 738.273C-51.0425 738.225 -54.3365 738.177 -57.6151 738.133C-88.7424 737.708 -111.381 738.044 -131.014 739.219C-203.977 743.59 -276.988 751.998 -331.327 762.286L-331.514 761.576C-277.087 751.269 -203.969 742.849 -130.909 738.473C-111.22 737.294 -88.5326 736.957 -57.3491 737.383C-54.0705 737.427 -50.7765 737.475 -47.4635 737.524C-0.34805 738.206 48.3746 738.906 95.2864 731.988C153.55 723.39 192.833 700.714 225.079 680.134C231.789 675.866 238.405 671.625 244.802 667.523L245.821 666.87C247.701 665.667 249.57 664.47 251.436 663.275C277.8 646.38 302.702 630.422 332.687 616.324C371.505 598.071 415.341 580.808 459.447 566.4C499.988 553.156 538.352 543.409 576.725 536.601C619.53 529.009 662.134 525.309 703.359 525.605C763.945 526.04 823.442 535.504 880.198 553.733C897.748 559.39 915.29 565.353 932.252 571.12C944.465 575.272 957.09 579.564 969.578 583.694C1030.7 603.909 1097.38 624.024 1170.84 634.23C1195.35 637.643 1221.03 640.429 1247.16 642.51C1280.25 645.094 1311.24 646.496 1341.92 646.793C1389.02 647.249 1447.63 647.817 1503.69 630.681C1533.11 621.689 1555.93 609.252 1573.48 592.66C1606.08 561.839 1615.41 523.107 1623.65 488.933C1626.96 475.202 1630.08 462.233 1634.47 451.328C1636.09 447.294 1637.71 443.134 1639.27 439.11C1645.39 423.373 1651.73 407.097 1661.04 391.036C1671.15 373.44 1683.88 357.533 1698.87 343.762C1715.79 328.224 1735.28 315.735 1756.81 306.641C1770.79 300.736 1785.33 295.961 1801.28 292.04C1822.76 286.759 1846.86 283.449 1872.92 282.202C1895.74 281.111 1920.87 281.567 1947.6 283.561C1992.11 286.88 2035.75 295.682 2073.79 309.014C2116.28 323.854 2154.13 344.404 2186.27 370.096C2215.31 393.307 2238.85 419.937 2256.24 449.247L2255 449.602C2218.17 387.496 2153.52 337.803 2072.98 309.676C2035.06 296.388 1991.57 287.615 1947.21 284.306C1889.71 280.018 1842.07 282.77 1801.59 292.724C1785.76 296.616 1771.32 301.358 1757.44 307.22C1706.21 328.856 1677.4 364.802 1662.26 391.149C1652.97 407.169 1646.65 423.422 1640.54 439.14C1638.97 443.163 1637.35 447.326 1635.73 451.364C1631.36 462.233 1628.23 475.185 1624.93 488.898C1620.97 505.339 1616.48 523.972 1609 541.9C1600.43 562.442 1589.17 579.143 1574.56 592.959C1566.11 600.947 1556.19 608.13 1545.08 614.307C1533.12 620.95 1519.34 626.679 1504.12 631.332C1486.7 636.659 1469.04 640.285 1451.57 642.739Z" fill="#183F30"/>
<path d="M1475.78 640.481C1462.86 642.324 1449.25 643.55 1434.8 644.18C1406.34 645.422 1378.84 644.232 1354.58 643.185C1324 641.864 1291.95 639.365 1259.33 635.759C1233.22 632.837 1207.56 629.234 1183.07 625.047C1112.78 613.055 1051.13 592.572 983.561 569.006C977.556 566.912 971.456 564.772 965.559 562.7C942.334 554.549 918.321 546.121 893.949 538.397C836.365 520.202 775.318 512.183 712.503 514.561C633.268 517.559 549.17 536.726 462.557 571.53C418.112 589.389 374.803 610.088 337.316 631.391C309.09 647.432 286.31 664.845 262.193 683.282C259.743 685.156 257.282 687.035 254.807 688.923C248.648 693.625 242.013 698.676 235.256 703.748C221.089 714.414 203.751 726.738 182.582 737.248C158.884 749.015 134.078 756.781 106.752 760.985C56.7289 768.686 4.74064 766.644 -45.5368 764.67L-47.451 764.595C-72.0676 763.631 -98.0859 762.82 -121.561 763.423C-193.117 765.262 -267.382 770.048 -330.671 776.897L-330.67 776.108C-267.315 769.252 -192.982 764.461 -121.363 762.621C-97.82 762.016 -71.7567 762.827 -47.1024 763.793L-45.1883 763.868C4.97975 765.836 56.8621 767.87 106.642 760.209C164.131 751.36 201.932 727.645 234.217 703.334C240.974 698.263 247.602 693.214 253.761 688.513C256.236 686.628 258.697 684.746 261.147 682.875C285.306 664.407 308.127 646.962 336.445 630.869C374.003 609.523 417.394 588.785 461.921 570.893C502.558 554.566 542.879 541.557 581.755 532.233C626.176 521.579 670.225 515.361 712.678 513.754C775.733 511.367 837.004 519.413 894.783 537.671C919.174 545.403 943.199 553.834 966.435 561.989C972.332 564.059 978.432 566.199 984.437 568.293C1051.94 591.837 1113.53 612.298 1183.69 624.27C1208.14 628.449 1233.76 632.047 1259.84 634.966C1292.41 638.566 1324.41 641.061 1354.95 642.381C1402.81 644.451 1462.38 647.024 1519.05 630.453C1549.28 621.614 1572.23 609.063 1589.21 592.078C1621.21 560.077 1626.92 517.913 1631.5 484.033C1633.29 470.835 1634.97 458.372 1637.96 447.996C1638.9 444.725 1639.85 441.359 1640.76 438.102C1645.5 421.187 1650.4 403.694 1658.7 386.27C1671.51 359.172 1697.34 321.68 1747.7 296.95C1761.61 290.121 1776.11 284.486 1792.03 279.723C1833.67 267.169 1884.31 262.081 1942.55 264.6C1988.61 266.592 2033.54 274.508 2072.48 287.495C2116.03 301.972 2154.24 322.612 2186.03 348.847C2200.62 360.88 2213.79 374.077 2225.18 388.07C2236.06 401.435 2245.37 415.597 2252.86 430.162L2251.52 430.517C2218.52 366.337 2154.63 315.798 2071.63 288.209C2032.83 275.272 1988.07 267.385 1942.19 265.399C1884.22 262.891 1833.85 267.946 1792.47 280.421C1776.67 285.148 1762.28 290.74 1748.47 297.518C1698.46 322.076 1672.78 359.374 1660.04 386.339C1651.75 403.718 1646.86 421.186 1642.13 438.08C1641.21 441.336 1640.27 444.704 1639.33 447.978C1636.35 458.318 1634.66 470.765 1632.88 483.943C1630.58 500.992 1627.97 520.314 1621.95 539.057C1615.05 560.595 1604.72 578.035 1590.38 592.375C1582.2 600.555 1572.39 607.87 1561.22 614.113C1549.19 620.84 1535.15 626.575 1519.48 631.155C1505.73 635.179 1491.24 638.274 1475.78 640.481Z" fill="#183F30"/>
<path d="M1498.24 638.44C1482.76 640.685 1466.31 641.928 1448.62 642.199C1419.96 642.642 1392.11 640.519 1367.53 638.645C1336.59 636.287 1304.42 632.74 1271.91 628.1C1245.86 624.349 1220.26 619.936 1195.82 614.981C1128.57 601.364 1069.79 579.768 1007.56 556.907C1004.48 555.776 1001.4 554.643 998.311 553.511C969.373 542.896 939.453 531.918 908.46 522.258C849.826 504.034 787.062 497.441 721.911 502.66C640.076 509.215 553.737 533.872 465.287 575.944C421.044 596.987 377.044 621.806 341.39 645.828C314.468 663.965 293.378 683.039 271.05 703.234C268.406 705.625 265.755 708.023 263.083 710.428C257.746 715.24 251.393 720.949 244.732 726.813C232.395 737.695 215.495 751.702 194.108 763.497C170.942 776.275 146.16 784.67 118.342 789.157C95.4728 792.801 69.9756 794.483 40.3898 794.298C14.9887 794.14 -9.72468 792.703 -37.0858 790.984C-62.0685 789.352 -88.4223 787.746 -111.926 787.57C-181.547 787.047 -254.876 788.383 -329.874 791.534L-329.698 790.68C-254.656 787.525 -181.285 786.191 -111.627 786.713C-88.0592 786.891 -61.6676 788.499 -36.6548 790.131C9.20688 793.015 66.285 796.608 118.21 788.334C177.562 778.757 213.522 752.928 243.538 726.443C250.197 720.584 256.546 714.877 261.879 710.068C264.552 707.662 267.202 705.264 269.843 702.876C292.208 682.648 313.336 663.542 340.346 645.345C376.073 621.275 420.158 596.408 464.486 575.325C553.204 533.126 639.842 508.394 721.99 501.813C753.486 499.29 784.724 499.509 814.827 502.465C847.128 505.635 878.928 512.037 909.343 521.488C940.371 531.157 970.311 542.141 999.264 552.764C1002.35 553.898 1005.44 555.029 1008.51 556.16C1070.69 579.002 1129.41 600.576 1196.53 614.167C1220.94 619.114 1246.5 623.522 1272.52 627.267C1304.98 631.899 1337.1 635.442 1368 637.796C1416.55 641.496 1476.99 646.101 1534.45 630.012C1565.58 621.297 1588.65 608.624 1604.98 591.271C1636.46 558.084 1637.85 514.16 1638.96 478.868C1639.37 466.245 1639.74 454.323 1641.47 444.475C1641.83 442.444 1642.18 440.402 1642.54 438.349C1645.74 419.809 1649.06 400.636 1656.38 381.333C1666.81 353.584 1689.53 314.711 1738.57 287.107C1752.25 279.407 1766.69 272.913 1782.73 267.255C1805.02 259.348 1830.19 253.501 1857.53 249.873C1882.49 246.559 1909.37 245.077 1937.42 245.463C1985.01 246.117 2031.23 253.141 2071.07 265.777C2115.68 279.882 2154.25 300.613 2185.71 327.392C2200.14 339.679 2212.96 353.194 2223.8 367.563C2234.19 381.323 2242.8 395.901 2249.4 410.892L2247.96 411.244C2219.22 345.921 2154.42 293.181 2070.18 266.546C2030.51 253.966 1984.49 246.97 1937.11 246.316C1878.68 245.51 1825.5 252.995 1783.31 267.961C1767.39 273.576 1753.06 280.02 1739.49 287.661C1690.78 315.074 1668.19 353.745 1657.82 381.356C1650.52 400.608 1647.21 419.753 1644.01 438.269C1643.65 440.321 1643.3 442.365 1642.94 444.397C1641.22 454.208 1640.84 466.115 1640.44 478.719C1639.32 514.113 1637.93 558.163 1606.25 591.563C1598.37 599.928 1588.68 607.379 1577.43 613.706C1565.33 620.512 1551.01 626.254 1534.88 630.772C1523.23 634.029 1511.07 636.58 1498.24 638.44Z" fill="#183F30"/>
<path d="M1519.49 636.517C1501.85 639.117 1482.99 640.274 1462.49 640.035C1433.49 639.695 1405.33 636.637 1380.5 633.94C1349.11 630.531 1316.81 625.937 1284.5 620.29C1258.52 615.723 1232.97 610.499 1208.56 604.771C1148.45 590.671 1096.13 570.255 1040.74 548.639C1031.68 545.105 1022.32 541.453 1013.03 537.873C980.394 525.297 952.58 515.06 922.942 505.981C863.217 487.722 798.748 482.563 731.319 490.647C646.592 500.805 558.029 530.962 468.096 580.28C423.42 604.781 379.913 633.156 345.592 660.181C319.737 680.54 300.092 701.448 279.295 723.583C276.719 726.325 274.132 729.077 271.528 731.834C266.889 736.752 260.747 743.237 254.388 749.768C227.633 777.311 191.948 806.867 130.141 817.225C128.214 817.545 126.276 817.848 124.341 818.133C75.9693 825.268 25.3651 821.82 -26.519 817.289L-29.7591 817C-55.4644 814.703 -79.7467 812.535 -102.096 811.646C-186.32 808.296 -267.558 806.964 -328.924 806.179L-328.588 805.268C-267.207 806.055 -185.947 807.386 -101.692 810.738C-79.2827 811.629 -54.9736 813.801 -29.2344 816.1L-25.998 816.389C27.7865 821.086 80.1922 824.622 129.986 816.355C191.107 806.111 226.492 776.786 253.048 749.45C259.404 742.923 265.54 736.443 270.179 731.528C272.783 728.769 275.366 726.019 277.942 723.277C298.773 701.108 318.447 680.166 344.385 659.742C378.775 632.661 422.369 604.229 467.134 579.679C508.682 556.893 550.677 537.91 591.951 523.252C639.308 506.433 686.192 495.164 731.293 489.756C799.07 481.629 863.864 486.812 923.869 505.156C953.551 514.25 981.392 524.497 1014.06 537.083C1023.35 540.663 1032.72 544.317 1041.78 547.851C1097.11 569.445 1149.38 589.841 1209.37 603.912C1233.75 609.635 1259.26 614.849 1285.2 619.409C1317.47 625.05 1349.72 629.637 1381.06 633.04C1430.26 638.384 1491.49 645.034 1549.89 629.36C1581.82 620.793 1605 607.996 1620.78 590.239C1651.6 555.784 1648.49 510.084 1645.99 473.364C1645.17 461.383 1644.41 450.064 1645 440.765L1645.02 440.553C1646.36 419.729 1647.76 398.197 1654.06 376.224C1659.51 357.066 1668.12 339.296 1679.63 323.404C1692.61 305.486 1709.37 289.912 1729.42 277.112C1742.84 268.548 1757.23 261.194 1773.41 254.633C1817.12 236.841 1872.04 226.989 1932.23 226.146C1956.46 225.807 1980.55 227.153 2003.83 230.144C2027.25 233.153 2049.38 237.769 2069.6 243.861C2115.27 257.591 2154.2 278.409 2185.31 305.739C2213.27 330.303 2234.22 359.941 2245.88 391.445L2244.33 391.793C2219.39 324.364 2155.36 270.745 2068.67 244.686C2028.13 232.471 1980.86 226.374 1931.97 227.06C1872.12 227.899 1817.54 237.681 1774.14 255.35C1758.09 261.861 1743.81 269.156 1730.5 277.652C1693.05 301.552 1667.16 335.63 1655.62 376.203C1649.33 398.118 1647.94 419.62 1646.59 440.415L1646.58 440.627C1645.98 449.893 1646.75 461.194 1647.56 473.159C1650.06 509.993 1653.18 555.83 1622.15 590.528C1614.55 599.089 1604.96 606.676 1593.66 613.075C1581.48 619.976 1566.89 625.729 1550.31 630.181C1540.44 632.829 1530.19 634.938 1519.49 636.517Z" fill="#183F30"/>
<path d="M135.709 846.493C114.084 849.74 90.2609 850.916 63.1229 850.087C36.1583 849.264 9.27315 846.575 -15.7666 843.794C-20.3011 843.283 -24.802 842.77 -29.2725 842.261C-51.5259 839.724 -72.5455 837.328 -92.0915 835.938C-170.028 830.402 -244.209 826.047 -315.95 821.838L-327.837 821.14L-327.355 820.182L-315.468 820.88C-243.723 825.092 -169.531 829.446 -91.579 834.984C-71.9801 836.376 -50.9339 838.774 -28.6537 841.315C-24.1869 841.825 -19.686 842.339 -15.1555 842.847C36.2449 848.557 90.7108 853.391 141.958 844.536C204.947 833.58 239.585 800.337 262.722 772.603C268.651 765.508 274.339 758.471 278.631 753.133C281.001 750.191 283.353 747.253 285.698 744.323C305.148 720.03 323.518 697.084 348.539 674.293C381.566 644.213 424.641 612.208 469.836 584.176C511.766 558.168 554.571 536.167 597.07 518.782C645.815 498.841 694.09 485.043 740.55 477.77C810.444 466.682 876.996 470.406 938.33 488.841C972.331 499.078 1003.14 511.048 1028.8 521.407C1042.76 527.045 1056.75 532.874 1070.27 538.51C1118.15 558.464 1167.65 579.095 1222.17 593.641C1246.53 600.141 1272 606.157 1297.87 611.522C1329.88 618.137 1362.26 623.76 1394.12 628.232C1443.91 635.222 1505.88 643.922 1565.34 628.605C1598.06 620.174 1621.37 607.247 1636.58 589.083C1666.7 553.305 1658.85 505.812 1652.54 467.652C1650.68 456.367 1648.91 445.707 1648.52 436.971C1647.64 417.276 1647.08 394.316 1651.73 371.049C1655.63 351.339 1662.84 332.954 1673.17 316.406C1684.85 297.686 1700.68 281.087 1720.21 267.066C1733.16 257.776 1747.89 249.327 1764.01 241.953C1787 231.409 1813.2 223.015 1841.88 217.007C1868.74 211.38 1897.36 207.922 1926.92 206.726C1951.85 205.718 1976.63 206.497 2000.57 209.043C2024.66 211.605 2047.35 215.898 2067.99 221.802C2091.78 228.596 2113.97 237.507 2133.93 248.288C2152.85 258.503 2169.96 270.494 2184.78 283.926C2212.52 309.055 2232.38 339.464 2242.23 371.859L2240.58 372.2C2219.44 302.635 2156.18 248.139 2067.03 222.684C2026.2 211.006 1976.37 205.68 1926.71 207.688C1865.31 210.171 1809.34 222.265 1764.87 242.663C1748.89 249.978 1734.27 258.36 1721.43 267.577C1684.62 293.994 1661.72 328.78 1653.38 370.972C1648.74 394.176 1649.3 417.096 1650.19 436.759C1650.58 445.464 1652.34 456.108 1654.2 467.378C1657.31 486.203 1660.84 507.543 1659.83 528.834C1658.67 553.541 1651.54 573.337 1638.06 589.356C1630.72 598.114 1621.24 605.84 1609.89 612.318C1597.63 619.315 1582.78 625.088 1565.75 629.473C1557.16 631.687 1548.52 633.403 1539.88 634.7C1488.16 642.467 1436.31 635.187 1393.44 629.169C1361.54 624.689 1329.11 619.059 1297.05 612.434C1271.14 607.062 1245.64 601.036 1221.25 594.526C1166.62 579.951 1117.06 559.299 1069.14 539.326C1055.62 533.691 1041.64 527.865 1027.68 522.23C1002.06 511.882 971.292 499.928 937.353 489.711C876.35 471.375 810.188 467.671 740.684 478.693C631.508 495.785 533.74 545.8 470.948 584.75C425.844 612.726 382.855 644.664 349.899 674.682C324.954 697.405 306.609 720.316 287.188 744.57C284.843 747.501 282.488 750.439 280.118 753.383C275.822 758.724 270.131 765.766 264.199 772.867C254.487 784.51 239.106 801.644 217.758 815.962C207.39 822.915 196.184 828.838 184.453 833.569C171.372 838.844 157.132 842.843 142.136 845.45C140.012 845.822 137.869 846.169 135.709 846.493Z" fill="#183F30"/>
<path d="M146.932 880.776C125.295 884.153 101.5 885.28 74.4478 884.224C46.4401 883.131 18.4766 879.813 -5.18096 876.709C-12.4507 875.752 -19.7092 874.763 -26.7305 873.807C-46.3566 871.135 -64.8969 868.609 -82.2956 866.9C-144.777 860.761 -206.818 854.93 -266.82 849.291C-286.668 847.425 -307.188 845.497 -327.079 843.617L-326.465 842.61C-306.574 844.49 -286.054 846.418 -266.206 848.283C-206.204 853.923 -144.155 859.755 -81.6698 865.895C-64.2253 867.609 -45.6625 870.136 -26.0132 872.813C-18.9955 873.77 -11.7373 874.757 -4.47493 875.715C44.59 882.146 101.33 888.205 153.784 878.614C218.181 866.8 250.801 831.088 272.031 801.295C277.474 793.662 282.707 786.035 286.656 780.243C288.685 777.27 290.7 774.301 292.711 771.34C310.791 744.703 327.867 719.545 352.006 694.177C383.402 661.184 425.854 625.482 471.536 593.649C535.171 549.463 634.861 492.122 748.404 469.87C820.603 455.642 888.902 457.683 951.396 475.938C979.474 484.146 1007.49 494.297 1042.24 508.853C1059.8 516.208 1077.28 523.945 1094.18 531.424C1138.16 550.883 1183.64 571.007 1233.92 585.879C1258.28 593.086 1283.73 599.822 1309.54 605.899C1340.81 613.246 1373.35 619.798 1406.27 625.373C1456.82 633.839 1519.73 644.379 1579.91 629.224C1612.92 620.978 1636.97 607.469 1651.41 589.073C1680.71 551.829 1667.18 500.489 1657.3 463.004C1654.53 452.483 1651.91 442.548 1650.64 434.401C1647.81 416.295 1644.94 392.289 1647.8 367.144C1652.72 323.577 1673.35 286.902 1709.11 258.141C1721.64 248.019 1736.28 238.639 1752.62 230.261C1775.87 218.332 1802.55 208.584 1831.93 201.29C1859.61 194.419 1889.06 189.862 1919.48 187.746C1945.15 186.008 1970.62 186.145 1995.18 188.15C2019.98 190.177 2043.23 194.063 2064.28 199.699C2088.61 206.211 2111.18 214.973 2131.36 225.745C2150.49 235.954 2167.63 248.046 2182.32 261.686C2209.89 287.295 2228.77 318.416 2236.91 351.683L2235.17 352.02C2217.63 280.351 2154.99 225.176 2063.29 200.642C2021.72 189.508 1970.59 185.287 1919.33 188.757C1856.16 193.156 1798.86 207.749 1753.63 230.962C1737.42 239.271 1722.9 248.575 1710.47 258.616C1674.94 287.187 1654.45 323.652 1649.56 367.004C1646.7 392.081 1649.58 416.039 1652.39 434.11C1653.66 442.227 1656.28 452.151 1659.05 462.658C1664.15 482.034 1669.94 503.999 1670.87 526.178C1671.95 552.004 1666.1 572.661 1652.99 589.329C1645.94 598.316 1636.6 606.215 1625.22 612.806C1612.89 619.952 1597.78 625.787 1580.32 630.149C1553.25 636.965 1523.5 639.28 1489.37 637.226C1459.7 635.439 1430.9 630.615 1405.48 626.36C1372.52 620.778 1339.93 614.216 1308.62 606.859C1282.77 600.773 1257.29 594.029 1232.89 586.812C1182.5 571.91 1136.98 551.765 1092.95 532.285C1076.06 524.807 1058.58 517.076 1041.04 509.727C1006.35 495.197 978.383 485.066 950.371 476.877C888.247 458.723 820.381 456.691 748.641 470.828C635.587 492.987 536.229 550.149 472.784 594.202C427.192 625.969 384.829 661.597 353.5 694.521C329.427 719.817 312.377 744.94 294.326 771.536C292.315 774.5 290.3 777.468 288.271 780.441C284.319 786.238 279.083 793.872 273.634 801.512C252.218 831.57 219.265 867.608 153.981 879.583C151.66 880.007 149.305 880.406 146.932 880.776Z" fill="#183F30"/>
<path d="M158.425 915.006C99.3461 924.574 34.785 914.302 -22.4481 905.194C-40.0353 902.396 -56.6472 899.752 -72.3639 897.787L-326.214 866.055L-325.477 865.003L-71.6278 896.735C-55.8692 898.704 -39.2381 901.351 -21.6277 904.153C37.8176 913.613 105.198 924.334 165.737 912.654C231.472 899.975 262.11 861.782 281.458 829.927C287.786 819.508 293.836 808.97 299.688 798.778C315.695 770.905 332.243 742.082 355.567 713.974C374.087 691.656 397.557 667.594 423.44 644.393C451.834 618.94 482.632 594.819 514.971 572.702C550.628 548.319 587.322 526.982 624.03 509.288C664.632 489.718 705.167 474.669 744.517 464.556C823.345 444.3 897.295 443.69 964.308 462.746C1020 478.579 1068.52 501.454 1115.45 523.575C1156.3 542.83 1198.54 562.739 1245.45 578.009C1299.63 595.644 1357.74 610.604 1418.19 622.47C1469.11 632.469 1532.49 644.915 1594.27 629.804C1646.45 617.043 1674.43 592.363 1679.8 554.351C1684.37 522.019 1671.65 486.603 1661.42 458.147C1657.94 448.45 1654.65 439.29 1652.65 431.753C1641.61 390.209 1640.78 354.574 1650.1 322.814C1655.91 302.998 1665.86 284.562 1679.67 268.019C1695.09 249.54 1715.78 232.866 1741.17 218.461C1763.13 205.999 1788.32 195.451 1816.05 187.109C1842.45 179.168 1870.57 173.386 1899.63 169.922C1956.78 163.11 2013.87 165.78 2060.37 177.439C2085.23 183.671 2108.18 192.296 2128.57 203.072C2147.9 213.286 2165.07 225.494 2179.61 239.362C2206.99 265.485 2224.85 297.368 2231.27 331.56L2229.43 331.894C2215.77 259.081 2152.19 201.716 2059.35 178.444C1960.77 153.73 1827.43 170.848 1742.3 219.152C1657.98 267.001 1629.25 336.421 1654.47 431.38C1656.46 438.892 1659.75 448.04 1663.23 457.726C1673.48 486.243 1686.23 521.734 1681.64 554.214C1679.14 571.905 1671.53 587.029 1659.01 599.17C1651.98 605.996 1643.22 612.062 1632.98 617.196C1622.09 622.66 1609.19 627.232 1594.66 630.786C1588.72 632.239 1582.65 633.469 1576.44 634.474C1553.83 638.137 1529.33 638.837 1502.11 636.626C1471.44 634.135 1441.41 628.238 1417.28 623.5C1356.75 611.616 1298.56 596.637 1244.3 578.976C1197.28 563.675 1155 543.742 1114.11 524.467C1067.24 502.373 1018.78 479.528 963.225 463.734C896.662 444.81 823.218 445.412 744.934 465.53C586.579 506.222 432.935 622.993 357.192 714.267C333.931 742.298 317.403 771.081 301.418 798.917C295.563 809.114 289.51 819.659 283.176 830.087C270.33 851.236 257 867.048 241.226 879.846C231.379 887.832 220.462 894.64 208.776 900.078C195.782 906.124 181.376 910.699 165.953 913.675C163.462 914.152 160.948 914.597 158.425 915.006Z" fill="#183F30"/>
</g>
<path opacity="0.3" d="M1544.86 649.359C1545.19 648.515 1546.39 648.515 1546.72 649.359L1554.96 670.262C1555.07 670.52 1555.27 670.724 1555.53 670.826L1576.43 679.07C1577.27 679.403 1577.27 680.597 1576.43 680.93L1555.53 689.174C1555.27 689.276 1555.07 689.48 1554.96 689.738L1546.72 710.641C1546.39 711.485 1545.19 711.485 1544.86 710.641L1536.61 689.738C1536.51 689.48 1536.31 689.276 1536.05 689.174L1515.15 680.93C1514.3 680.597 1514.3 679.403 1515.15 679.07L1536.05 670.826C1536.31 670.724 1536.51 670.52 1536.61 670.262L1544.86 649.359Z" fill="#063B33"/>
</svg>
