<svg width="63" height="54" viewBox="0 0 63 54" fill="none" xmlns="http://www.w3.org/2000/svg">
<path fill-rule="evenodd" clip-rule="evenodd" d="M21.7305 40.1018L23.2803 40.3853C24.1037 40.5359 24.9463 40.2644 25.5378 39.6577C26.1293 39.0509 26.3939 38.1864 26.2471 37.3416C26.1565 36.8212 26.0628 36.2891 26.0237 35.8182C26.0215 35.7929 26.0183 35.7676 26.014 35.7429C25.8833 34.9921 25.9407 34.2199 26.1801 33.4983C26.1812 33.4956 26.1822 33.4923 26.1828 33.4895C26.5187 32.4398 26.7003 31.3197 26.7003 30.1557C26.7003 24.253 22.0294 19.4609 16.2759 19.4609C10.5224 19.4609 5.85156 24.2534 5.85156 30.1557C5.85156 36.0584 10.5224 40.8504 16.2759 40.8504C17.4196 40.8504 18.5211 40.6602 19.5373 40.2678C20.2374 40.0249 20.9944 39.9667 21.7299 40.1013L21.7305 40.1018ZM11.7214 33.3224H20.8311C21.2774 33.3224 21.64 32.9503 21.64 32.4925C21.64 32.0347 21.2779 31.6626 20.8311 31.6626H11.7214C11.2752 31.6626 10.9125 32.0341 10.9125 32.4925C10.9125 32.9503 11.2746 33.3224 11.7214 33.3224ZM11.7214 28.6491H18.9926C19.4389 28.6491 19.8015 28.2776 19.8015 27.8192C19.8015 27.3614 19.4389 26.9893 18.9926 26.9893H11.7214C11.2752 26.9893 10.9125 27.3608 10.9125 27.8192C10.9125 28.277 11.2746 28.6491 11.7214 28.6491Z" fill="#183F30"/>
<path fill-rule="evenodd" clip-rule="evenodd" d="M32.129 28.3715H51.1065C52.3976 28.3715 53.4464 27.2959 53.4464 25.9709C53.4464 24.6464 52.398 23.5703 51.1065 23.5703H32.129C30.8374 23.5703 29.7891 24.6459 29.7891 25.9709C29.7891 27.296 30.8374 28.3715 32.129 28.3715Z" fill="#183F30"/>
<path fill-rule="evenodd" clip-rule="evenodd" d="M32.129 36.7387H46.8346C48.1256 36.7387 49.1745 35.6631 49.1745 34.3381C49.1745 33.0135 48.1261 31.9375 46.8346 31.9375H32.129C30.8374 31.9375 29.7891 33.0131 29.7891 34.3381C29.7891 35.6632 30.8374 36.7387 32.129 36.7387Z" fill="#183F30"/>
<path fill-rule="evenodd" clip-rule="evenodd" d="M54.2842 50.1094L57.5666 53.0987C58.766 54.3084 60.6972 54.3023 61.8892 53.0795C63.0817 51.8561 63.0876 49.8725 61.9053 48.642L58.9942 45.2773C60.792 45.0234 62.1924 43.4538 62.2224 41.5345C62.2556 39.4153 60.6051 37.667 58.5395 37.6329L50.5071 37.5005C49.4936 37.484 48.5164 37.8896 47.7997 38.625C47.0829 39.3603 46.687 40.3629 46.7036 41.4026L46.8333 49.6439C46.8665 51.7631 48.5706 53.4565 50.6362 53.4219C52.5069 53.3911 54.0369 51.9544 54.2844 50.11L54.2842 50.1094Z" fill="#183F30"/>
<path fill-rule="evenodd" clip-rule="evenodd" d="M47.5983 47.7423C47.8147 47.7423 48.0226 47.6533 48.1747 47.4945C48.3269 47.3362 48.4104 47.1213 48.4067 46.8992L48.3204 41.3763C48.3113 40.7855 48.5358 40.2166 48.9429 39.7989C49.3501 39.3812 49.9051 39.1504 50.4804 39.1603L58.5128 39.2927C58.5717 39.2938 58.6295 39.2971 58.6874 39.3032C58.9145 39.3263 59.1406 39.2493 59.3094 39.0921C59.4786 38.9349 59.5751 38.7118 59.5751 38.4777V6.06648C59.5751 4.45774 58.952 2.91456 57.8431 1.77687C56.7342 0.639205 55.2299 0 53.662 0H6.70217C5.13355 0 3.62994 0.639191 2.52101 1.77687C1.41211 2.91455 0.789062 4.45731 0.789062 6.06648V41.6757C0.789062 43.2845 1.41209 44.8277 2.52101 45.9653C3.62992 47.103 5.13369 47.7422 6.70217 47.7422H47.5976L47.5983 47.7423ZM57.9578 37.6236L50.5066 37.5005C49.4931 37.484 48.5159 37.8896 47.7992 38.625C47.0824 39.3604 46.6866 40.3629 46.7032 41.4026L46.7766 46.0831H6.7026C5.56315 46.0831 4.47091 45.6187 3.6652 44.7921C2.8595 43.9655 2.40683 42.8443 2.40683 41.6759V6.06666C2.40683 4.89765 2.8595 3.77708 3.6652 2.95048C4.47091 2.12388 5.56323 1.65946 6.7026 1.65946H53.6624C54.8018 1.65946 55.8941 2.12388 56.6998 2.95048C57.5055 3.77708 57.9582 4.89774 57.9582 6.06666L57.9578 37.6236ZM58.6585 44.9201C58.8149 44.6667 58.8256 44.3463 58.6869 44.0819C58.5481 43.8181 58.2808 43.6516 57.9883 43.6466L57.2212 43.634C56.9003 43.6285 56.6073 43.8181 56.4733 44.1176C56.3394 44.4166 56.3903 44.7684 56.6035 45.0146L57.0331 45.5114C57.1912 45.6939 57.4194 45.7956 57.6573 45.7901C57.8951 45.784 58.1185 45.6714 58.268 45.4812C58.4094 45.3015 58.5401 45.1141 58.659 44.9201L58.6585 44.9201ZM57.4998 44.4276L57.5448 44.5123L57.5833 44.4254L57.4998 44.4276Z" fill="#183F30"/>
<path fill-rule="evenodd" clip-rule="evenodd" d="M0.789062 13.3981C0.789062 13.8565 1.1512 14.228 1.59798 14.228H58.7665C59.2133 14.228 59.5755 13.8565 59.5755 13.3981V6.06648C59.5755 4.45774 58.9524 2.91456 57.8435 1.77688C56.7346 0.639205 55.2303 0 53.6624 0H6.70255C5.13394 0 3.63032 0.639191 2.5214 1.77688C1.41249 2.91455 0.789448 4.45731 0.789448 6.06648V13.3981H0.789062ZM25.8543 3.9394C24.1465 3.9394 22.7601 5.36172 22.7601 7.11383C22.7601 8.86594 24.1465 10.2883 25.8543 10.2883C27.5621 10.2883 28.9481 8.86594 28.9481 7.11383C28.9481 5.36172 27.5617 3.9394 25.8543 3.9394ZM16.9101 3.9394C15.2023 3.9394 13.8159 5.36172 13.8159 7.11383C13.8159 8.86594 15.2023 10.2883 16.9101 10.2883C18.6179 10.2883 20.0039 8.86594 20.0039 7.11383C20.0039 5.36172 18.6175 3.9394 16.9101 3.9394ZM7.96592 3.9394C6.25811 3.9394 4.87175 5.36172 4.87175 7.11383C4.87175 8.86594 6.25811 10.2883 7.96592 10.2883C9.67374 10.2883 11.0601 8.86594 11.0601 7.11383C11.0601 5.36172 9.67374 3.9394 7.96592 3.9394ZM44.732 10.2241H52.9798C54.6528 10.2241 56.0113 8.83032 56.0113 7.11397C56.0113 5.3976 54.6528 4.00384 52.9798 4.00384H44.732C43.0591 4.00384 41.7005 5.39763 41.7005 7.11397C41.7005 8.83035 43.0591 10.2241 44.732 10.2241Z" fill="#183F30"/>
</svg>
