<svg width="1729" height="987" viewBox="0 0 1729 987" fill="none" xmlns="http://www.w3.org/2000/svg">
<path opacity="0.3" d="M762.019 3.1634C762.352 2.31926 763.547 2.31926 763.88 3.1634L767.626 12.6625C767.728 12.9202 767.932 13.1242 768.189 13.2259L777.689 16.9723C778.533 17.3052 778.533 18.4999 777.689 18.8328L768.189 22.5792C767.932 22.6808 767.728 22.8848 767.626 23.1425L763.88 32.6416C763.547 33.4858 762.352 33.4858 762.019 32.6416L758.273 23.1425C758.171 22.8848 757.967 22.6808 757.709 22.5792L748.21 18.8328C747.366 18.4999 747.366 17.3052 748.21 16.9723L757.709 13.2259C757.967 13.1242 758.171 12.9202 758.273 12.6625L762.019 3.1634Z" fill="#063B33"/>
<path d="M2313.68 576.94C2198.27 525.607 2091.6 480.869 1987.58 440.167C1976.82 435.955 1966.14 431.451 1954.83 426.679C1914.55 409.682 1872.89 392.106 1823.7 386.315C1764.56 379.42 1703.45 394.302 1662.63 406.095C1551.81 437.928 1454.98 486.672 1374.88 530.158C1346.09 545.831 1317.47 562.142 1289.78 577.915C1234.23 609.557 1181.77 639.443 1126.1 665.913C1117.92 669.807 1109.76 673.587 1101.86 677.15C1056.05 697.774 1013.55 713.771 971.943 726.05C924.773 739.971 879.07 748.788 836.096 752.256C791.948 755.817 749.963 754.027 711.313 746.932C670.774 739.493 634.923 726.372 604.748 707.935C603.341 707.068 601.918 706.178 600.527 705.289C577.929 690.84 558.769 674.319 540.237 658.34C534.166 653.103 527.885 647.691 521.6 642.45C494.248 619.589 468.773 601.959 441.432 586.961C437.87 585.007 434.205 583.065 430.533 581.186C363.598 546.94 278.096 524.041 183.273 514.964C70.1108 504.239 -43.8069 512.586 -137.493 538.468C-238.319 566.485 -329.768 629.324 -308.278 685.991L-308.64 686.075C-313.971 672.016 -312.68 657.15 -304.806 641.892C-297.587 627.912 -285.012 613.846 -267.423 600.086C-251.022 587.254 -230.993 575.225 -207.892 564.328C-185.897 553.951 -161.585 544.943 -137.592 538.275C-88.2532 524.645 -33.73 515.865 24.4657 512.176C76.8577 508.854 130.333 509.721 183.405 514.752C278.285 523.832 363.833 546.745 430.801 581.013C434.474 582.895 438.143 584.838 441.708 586.791C469.065 601.795 494.549 619.437 521.913 642.306C528.199 647.547 534.48 652.962 540.551 658.198C559.078 674.171 578.233 690.687 600.816 705.13C602.207 706.019 603.625 706.908 605.033 707.775C663.69 743.614 745.756 759.336 836.115 752.044C917.156 745.506 1004.02 720.954 1101.67 676.99C1109.57 673.43 1117.73 669.652 1125.91 665.759C1181.56 639.296 1234.01 609.415 1289.55 577.777C1317.23 562.003 1345.86 545.691 1374.65 530.014C1428.52 500.774 1473.56 478.347 1516.39 459.437C1566.82 437.176 1614.61 419.667 1662.52 405.906C1691.71 397.472 1717.36 391.701 1740.91 388.265C1771.24 383.842 1798.37 383.133 1823.84 386.103C1873.1 391.902 1914.78 409.489 1955.08 426.496C1966.39 431.266 1977.07 435.771 1987.82 439.979C2091.85 480.682 2198.52 525.424 2313.94 576.758L2313.68 576.94Z" fill="#183F30"/>
<path opacity="0.3" d="M1544.86 637.359C1545.19 636.515 1546.39 636.515 1546.72 637.359L1554.96 658.262C1555.07 658.52 1555.27 658.724 1555.53 658.826L1576.43 667.07C1577.27 667.403 1577.27 668.597 1576.43 668.93L1555.53 677.174C1555.27 677.276 1555.07 677.48 1554.96 677.738L1546.72 698.641C1546.39 699.485 1545.19 699.485 1544.86 698.641L1536.61 677.738C1536.51 677.48 1536.31 677.276 1536.05 677.174L1515.15 668.93C1514.3 668.597 1514.3 667.403 1515.15 667.07L1536.05 658.826C1536.31 658.724 1536.51 658.52 1536.61 658.262L1544.86 637.359Z" fill="#063B33"/>
</svg>
