<svg width="1729" height="1039" viewBox="0 0 1729 1039" fill="none" xmlns="http://www.w3.org/2000/svg">
<path opacity="0.3" d="M762.019 3.1634C762.352 2.31926 763.547 2.31926 763.88 3.1634L767.626 12.6625C767.728 12.9202 767.932 13.1242 768.189 13.2259L777.689 16.9723C778.533 17.3052 778.533 18.4999 777.689 18.8328L768.189 22.5792C767.932 22.6808 767.728 22.8848 767.626 23.1425L763.88 32.6416C763.547 33.4858 762.352 33.4858 762.019 32.6416L758.273 23.1425C758.171 22.8848 757.967 22.6808 757.709 22.5792L748.21 18.8328C747.366 18.4999 747.366 17.3052 748.21 16.9723L757.709 13.2259C757.967 13.1242 758.171 12.9202 758.273 12.6625L762.019 3.1634Z" fill="#063B33"/>
<path opacity="0.1" d="M1477.65 505.624C1477.98 504.78 1479.18 504.78 1479.51 505.624L1483.26 515.123C1483.36 515.381 1483.56 515.585 1483.82 515.687L1493.32 519.433C1494.17 519.766 1494.17 520.961 1493.32 521.294L1483.82 525.04C1483.56 525.142 1483.36 525.346 1483.26 525.603L1479.51 535.103C1479.18 535.947 1477.98 535.947 1477.65 535.103L1473.91 525.603C1473.8 525.346 1473.6 525.142 1473.34 525.04L1463.84 521.294C1463 520.961 1463 519.766 1463.84 519.433L1473.34 515.687C1473.6 515.585 1473.8 515.381 1473.91 515.123L1477.65 505.624Z" fill="#1F37FF"/>
<path opacity="0.1" d="M880.019 553.327C880.352 552.483 881.547 552.483 881.88 553.327L885.626 562.827C885.728 563.084 885.932 563.288 886.189 563.39L895.689 567.136C896.533 567.469 896.533 568.664 895.689 568.997L886.189 572.743C885.932 572.845 885.728 573.049 885.626 573.307L881.88 582.806C881.547 583.65 880.352 583.65 880.019 582.806L876.273 573.307C876.171 573.049 875.967 572.845 875.709 572.743L866.21 568.997C865.366 568.664 865.366 567.469 866.21 567.136L875.709 563.39C875.967 563.288 876.171 563.084 876.273 562.827L880.019 553.327Z" fill="#1F37FF"/>
<path opacity="0.3" d="M1544.86 637.359C1545.19 636.515 1546.39 636.515 1546.72 637.359L1554.96 658.262C1555.07 658.52 1555.27 658.724 1555.53 658.826L1576.43 667.07C1577.27 667.403 1577.27 668.597 1576.43 668.93L1555.53 677.174C1555.27 677.276 1555.07 677.48 1554.96 677.738L1546.72 698.641C1546.39 699.485 1545.19 699.485 1544.86 698.641L1536.61 677.738C1536.51 677.48 1536.31 677.276 1536.05 677.174L1515.15 668.93C1514.3 668.597 1514.3 667.403 1515.15 667.07L1536.05 658.826C1536.31 658.724 1536.51 658.52 1536.61 658.262L1544.86 637.359Z" fill="#063B33"/>
<path d="M704.694 896.708C695.147 898.134 685.807 899.102 676.781 899.597C657.85 900.636 640.131 899.61 624.114 896.547C606.899 893.256 591.477 887.572 578.272 879.654C551.733 863.739 536.879 842.151 522.512 821.273C519.69 817.173 516.772 812.934 513.834 808.837C493.787 780.917 469.752 757.427 440.361 737.025C381.73 696.327 302.386 665.972 210.902 649.241C105.103 629.895 -6.3416 629.031 -102.904 646.811C-159.659 657.262 -232.808 686.961 -262.808 723.501C-280.611 745.188 -279.82 766.184 -260.515 784.218L-260.841 784.355C-270.963 774.897 -276.081 764.664 -276.048 753.939C-276.019 744.102 -271.676 733.841 -263.138 723.441C-249.559 706.901 -225.906 690.506 -194.736 676.027C-165.933 662.649 -133.338 652.201 -102.951 646.605C-52.416 637.302 1.98533 633.072 58.7422 634.037C110.192 634.912 161.444 639.957 211.073 649.033C302.61 665.772 382.002 696.143 440.666 736.866C470.074 757.282 494.121 780.785 514.181 808.72C517.123 812.817 520.041 817.058 522.859 821.158C537.213 842.021 552.058 863.593 578.561 879.485C604.191 894.856 637.252 901.549 676.819 899.377C731.614 896.37 796.206 875.894 849.598 844.6C926.54 799.505 977.028 743.054 1025.86 688.462C1034.42 678.893 1043.26 668.999 1052.05 659.409C1074.86 634.506 1105.89 602.017 1143.71 571.552C1182.37 540.413 1222.47 515.789 1266.3 496.268C1293.13 484.32 1321.91 474.671 1351.84 467.59C1379.49 461.048 1409.03 456.487 1439.63 454.029C1492.14 449.813 1549.42 451.501 1614.76 459.185C1743.42 474.32 1872.78 496.694 1999.24 525.687C2119.45 553.244 2238.12 587.018 2351.96 626.066L2351.73 626.257C2115.74 545.312 1867.74 489.172 1614.62 459.396C1471.61 442.574 1360.99 454.34 1266.49 496.428C1170.34 539.245 1106.76 600.096 1052.37 659.477C1043.59 669.064 1034.74 678.959 1026.18 688.528C977.339 743.138 926.834 799.607 849.838 844.733C824.958 859.316 796.541 872.036 767.662 881.517C752.407 886.525 737.136 890.591 722.27 893.603C716.346 894.81 710.481 895.844 704.694 896.708Z" fill="#183F30"/>
<path d="M713.613 880.402C689.268 884.03 666.418 884.794 645.674 882.673C622.542 880.307 602.128 874.34 584.995 864.943C583.479 864.11 581.97 863.24 580.508 862.355C554.242 846.476 538.891 825.266 524.048 804.752C521.046 800.607 517.944 796.318 514.821 792.174C496.222 767.499 474.832 746.497 449.422 727.97C446.292 725.69 443.063 723.418 439.815 721.221C380.467 681.034 300.589 651.265 208.817 635.133C102.358 616.448 -9.31191 616.306 -105.624 634.733C-161.918 645.529 -234.694 675.456 -264.877 711.769C-282.95 733.513 -282.84 754.655 -264.565 772.91L-264.895 773.043C-274.474 763.475 -279.147 753.153 -278.781 742.366C-278.444 732.459 -273.879 722.144 -265.207 711.709C-251.465 695.173 -227.883 678.781 -197.017 664.307C-168.489 650.928 -136.053 640.354 -105.681 634.531C-55.2498 624.883 -0.831185 620.295 56.0606 620.896C107.593 621.442 159.043 626.163 208.981 634.927C300.806 651.069 380.728 680.856 440.113 721.065C443.36 723.264 446.594 725.538 449.724 727.82C475.15 746.359 496.553 767.372 515.161 792.06C518.287 796.204 521.389 800.492 524.392 804.64C539.23 825.139 554.568 846.335 580.797 862.192C582.255 863.074 583.764 863.943 585.276 864.774C620.681 884.202 666.618 887.406 713.728 880.385C713.986 880.346 714.241 880.308 714.499 880.27C714.204 880.312 713.908 880.358 713.613 880.402ZM723.645 878.759C767.296 870.972 811.401 854.807 848.552 835.001C928.676 792.154 983.367 736.269 1036.26 682.225C1038.44 679.998 1040.61 677.775 1042.79 675.552C1047.58 670.671 1053.25 664.892 1059.04 659.055C1085.04 632.875 1116.62 602.215 1153.74 573.325C1193.22 542.583 1233.4 518.151 1276.55 498.629C1303.07 486.643 1331.42 476.758 1360.8 469.251C1388.03 462.295 1417.05 457.15 1447.07 453.959C1498.91 448.448 1555.34 448.44 1619.59 453.936C1682.22 459.272 1733.9 465.379 1782.23 473.156C1850.7 484.193 1916.4 498.875 1971.65 511.781C2100.09 541.924 2226.98 578.977 2348.8 621.912L2348.56 622.101C2226.76 579.172 2099.88 542.121 1971.45 511.982C1916.22 499.077 1850.53 484.397 1782.07 473.364C1733.75 465.59 1682.09 459.485 1619.47 454.151C1479.52 442.177 1370.62 456.361 1276.75 498.79C1179.32 542.858 1113.45 604.663 1059.35 659.135C1053.56 664.973 1047.89 670.749 1043.11 675.631C1040.93 677.852 1038.75 680.077 1036.57 682.305C983.664 736.366 928.953 792.271 848.772 835.149C828.887 845.749 807.494 855.004 785.183 862.654C764.415 869.772 743.758 875.177 723.645 878.759Z" fill="#183F30"/>
<path d="M723.519 864.281C720.591 864.716 717.676 865.114 714.78 865.471C690.387 868.487 667.517 868.709 646.808 866.125C624.158 863.3 604.104 857.108 587.205 847.718C585.703 846.881 584.202 846.007 582.747 845.121C556.768 829.288 540.93 808.458 525.618 788.316C522.427 784.118 519.125 779.777 515.802 775.581C496.457 751.104 474.603 730.356 448.986 712.154C445.815 709.904 442.545 707.661 439.256 705.489C379.189 665.818 298.775 636.64 206.714 621.108C99.5991 603.09 -12.298 603.671 -108.363 622.75C-162.446 633.533 -235.135 662.339 -266.926 700.098C-285.293 721.913 -285.88 743.216 -268.626 761.703L-268.96 761.83C-278.001 752.145 -282.224 741.729 -281.52 730.873C-280.873 720.888 -276.072 710.514 -267.252 700.037C-253.339 683.513 -229.835 667.135 -199.277 652.669C-171.028 639.295 -138.759 628.599 -108.419 622.55C-58.088 612.556 -3.65222 607.607 53.3711 607.843C104.99 608.057 156.636 612.451 206.878 620.903C298.993 636.445 379.45 665.64 439.553 705.333C442.842 707.507 446.117 709.75 449.288 712.004C474.918 730.217 496.784 750.977 516.138 775.468C519.461 779.666 522.763 784.007 525.955 788.205C541.261 808.335 557.086 829.15 583.034 844.964C584.488 845.851 585.982 846.723 587.483 847.557C656.15 885.709 767.555 863.944 847.498 825.452C931.431 784.784 990.876 729.101 1048.37 675.251L1048.96 674.698C1054.52 669.479 1060.28 664.085 1066.01 658.75C1126.53 602.473 1193.42 543.936 1286.79 501.031C1313 489.003 1340.91 478.881 1369.74 470.949C1396.56 463.571 1425.07 457.841 1454.48 453.921C1505.75 447.086 1561.33 445.381 1624.39 448.709C1690.66 452.161 1740.78 456.939 1786.91 464.203C1852.63 474.594 1916.96 490.508 1973.72 504.549C2100.13 536.076 2225.25 574.16 2345.62 617.741L2345.39 617.928C2225.03 574.352 2099.92 536.272 1973.52 504.747C1916.77 490.709 1852.45 474.798 1786.75 464.41C1740.64 457.147 1690.54 452.371 1624.29 448.92C1487.59 441.706 1380.41 458.313 1286.98 501.186C1193.67 544.063 1126.8 602.574 1066.32 658.831C1060.58 664.166 1054.83 669.563 1049.26 674.78L1048.67 675.332C1020.02 702.167 990.395 729.915 957.913 755.596C921.409 784.456 885.357 807.355 847.695 825.602C808.281 844.578 764.532 858.18 723.519 864.281Z" fill="#183F30"/>
<path d="M2342.03 613.589C2223.09 569.447 2099.71 530.421 1975.34 497.595C1970.07 496.221 1964.8 494.837 1959.5 493.45C1905.64 479.332 1849.94 464.734 1791.14 455.659C1734.1 446.903 1677.08 444.849 1628.82 443.997C1495.6 441.507 1390.14 460.602 1296.94 504.085C1201.27 548.812 1130.2 609.987 1073.09 659.144C1069.67 662.094 1066.25 665.048 1062.82 668.005C1060.29 670.187 1057.76 672.371 1055.23 674.552C1022.72 702.564 993.104 727.69 959.931 751.534C922.034 778.773 884.94 800.114 846.521 816.78C810.517 832.399 771.428 843.651 734.498 849.158C727.769 850.161 721.119 850.973 714.563 851.586C690.629 853.826 668.188 853.44 647.863 850.437C625.686 847.161 605.986 840.748 589.303 831.377C587.812 830.536 586.321 829.66 584.873 828.77C559.181 813.006 542.86 792.581 527.079 772.829C523.68 768.574 520.163 764.173 516.629 759.92C496.51 735.651 474.177 715.175 448.359 697.318C445.146 695.097 441.829 692.887 438.502 690.745C377.687 651.634 296.722 623.099 204.361 608.225C96.5762 590.941 -15.5467 592.318 -111.357 612.098C-176.847 625.693 -241.732 657.647 -269.149 689.802C-287.826 711.709 -289.108 733.182 -272.864 751.901L-273.203 752.025C-281.708 742.224 -285.491 731.71 -284.447 720.776C-283.486 710.708 -278.448 700.267 -269.475 689.739C-255.4 673.229 -231.981 656.857 -201.749 642.394C-173.789 629.018 -141.71 618.186 -111.417 611.898C-61.1899 601.527 -6.74166 596.187 50.4152 596.023C102.119 595.876 153.972 599.91 204.525 608.015C296.943 622.898 377.951 651.449 438.802 690.585C442.134 692.728 445.451 694.94 448.664 697.161C474.498 715.028 496.84 735.516 516.972 759.795C520.506 764.051 524.023 768.449 527.422 772.706C543.194 792.447 559.506 812.859 585.166 828.605C586.613 829.492 588.101 830.367 589.587 831.206C661.345 871.517 772.747 848.539 846.34 816.615C934.143 778.525 998.315 723.238 1054.94 674.457C1057.47 672.273 1060 670.091 1062.53 667.909C1065.95 664.953 1069.37 661.999 1072.8 659.049C1105.4 630.99 1137.63 603.641 1173.52 577.516C1214.79 547.472 1255.1 523.402 1296.74 503.929C1322.66 491.838 1350.13 481.464 1378.39 473.098C1404.81 465.277 1432.8 458.949 1461.6 454.286C1512.38 446.064 1567.11 442.628 1628.91 443.781C1677.18 444.636 1734.23 446.69 1791.3 455.452C1850.13 464.53 1905.84 479.132 1959.71 493.253C1965 494.64 1970.28 496.023 1975.55 497.397C2099.93 530.226 2223.32 569.256 2342.28 613.403L2342.03 613.589Z" fill="#183F30"/>
<path d="M2338.49 609.073C2218.68 563.607 2097.01 523.722 1976.87 490.532C1969.68 488.546 1962.32 486.491 1955.21 484.505C1904.25 470.28 1851.57 455.571 1795.22 447.129C1738.95 438.758 1681.66 438.526 1633.02 439.405C1503.55 441.582 1399.83 463.23 1306.6 507.53C1217.69 549.889 1150.43 603.616 1085.38 655.573L1078.24 661.277C1072.6 665.783 1066.77 670.441 1061.01 675.015C995.866 726.744 930.344 775.897 845.235 808.781C824.582 816.761 803.19 823.353 781.645 828.382C758.509 833.779 735.824 837.211 714.217 838.58C690.75 840.067 668.743 839.095 648.809 835.69C627.115 831.986 607.762 825.371 591.292 816.031C589.807 815.185 588.326 814.306 586.888 813.419C561.48 797.756 544.682 777.757 528.438 758.417C524.813 754.101 521.062 749.638 517.299 745.322C496.374 721.281 473.554 701.094 447.531 683.608C444.279 681.423 440.918 679.244 437.542 677.134C375.956 638.631 294.418 610.801 201.739 596.653C93.2661 580.187 -19.0887 582.433 -114.637 602.982C-179.461 617.014 -243.994 649.134 -271.563 681.092C-290.562 703.112 -292.545 724.771 -277.3 743.729L-277.643 743.85C-285.621 733.931 -288.965 723.314 -287.584 712.298C-286.309 702.141 -281.03 691.621 -271.893 681.032C-257.658 664.534 -234.342 648.167 -204.458 633.698C-176.801 620.306 -144.925 609.329 -114.704 602.786C-64.5865 592.007 -10.1282 586.236 47.1673 585.632C98.9615 585.086 151.017 588.724 201.892 596.447C294.624 610.602 376.209 638.45 437.832 676.975C441.207 679.087 444.572 681.267 447.825 683.452C473.864 700.946 496.696 721.144 517.63 745.199C521.394 749.515 525.145 753.98 528.77 758.295C545.005 777.625 561.794 797.614 587.174 813.259C588.607 814.142 590.088 815.019 591.569 815.865C661.7 855.635 768.503 838.196 845.069 808.612C930.11 775.756 995.603 726.622 1060.72 674.915C1066.48 670.341 1072.31 665.684 1077.95 661.177L1085.09 655.473C1117.03 629.97 1150.04 603.597 1186.28 578.234C1227.32 549.509 1266.61 526.332 1306.4 507.376C1332.02 495.201 1359.04 484.558 1386.72 475.745C1412.75 467.458 1440.22 460.511 1468.38 455.096C1518.76 445.408 1572.63 440.207 1633.08 439.19C1681.74 438.312 1739.06 438.542 1795.37 446.921C1851.75 455.365 1904.45 470.079 1955.42 484.308C1962.53 486.294 1969.89 488.347 1977.08 490.334C2097.23 523.527 2218.91 563.414 2338.73 608.886L2338.49 609.073Z" fill="#183F30"/>
<path d="M2334.95 604.548C2215.97 558.374 2096.01 517.629 1978.4 483.447C1969.56 480.879 1960.5 478.189 1951.73 475.589C1903.4 461.256 1853.42 446.435 1799.29 438.574C1743.3 430.507 1685.95 432.131 1637.23 434.785C1511.87 441.432 1409.88 465.63 1316.29 510.935C1234.63 550.586 1169.46 599.14 1106.44 646.095C1099.81 651.036 1092.95 656.145 1086.26 661.101C1078.41 666.921 1072.41 671.348 1066.81 675.452C1036.81 697.422 1001 722.91 962.927 745.363C922.577 769.155 883.659 787.282 843.945 800.782C823.062 807.88 801.664 813.6 780.34 817.781C757.445 822.271 735.074 824.893 713.854 825.571C690.863 826.306 669.294 824.747 649.738 820.94C628.532 816.811 609.532 809.992 593.263 800.677C591.796 799.832 590.321 798.952 588.886 798.062C563.783 782.51 546.529 762.946 529.84 744.026C525.969 739.638 521.967 735.102 517.953 730.714C496.213 706.895 472.903 686.999 446.689 669.887C443.392 667.736 439.988 665.592 436.568 663.514C374.213 625.619 292.1 598.495 199.109 585.07C89.9576 569.42 -22.6266 572.54 -117.907 593.853C-172.112 606.065 -241.377 635.065 -273.926 672.319C-293.278 694.469 -295.979 716.334 -281.731 735.549L-282.075 735.664C-289.526 725.617 -292.425 714.888 -290.694 703.776C-289.095 693.519 -283.565 682.915 -274.25 672.254C-259.853 655.777 -236.641 639.425 -207.115 624.96C-179.761 611.56 -148.106 600.443 -117.976 593.655C-67.9682 582.468 -13.497 576.266 43.9285 575.222C95.8081 574.279 148.07 577.521 199.262 584.862C292.306 598.293 374.465 625.433 436.857 663.35C440.277 665.429 443.686 667.576 446.982 669.729C473.209 686.85 496.531 706.756 518.284 730.586C522.302 734.975 526.303 739.512 530.174 743.9C546.852 762.811 564.101 782.363 589.175 797.898C590.61 798.787 592.081 799.665 593.548 800.508C651.978 833.969 745.535 834.003 843.807 800.598C932.803 770.348 1002.64 722.13 1066.54 675.337C1072.14 671.233 1078.14 666.807 1085.99 660.987C1092.67 656.031 1099.53 650.923 1106.16 645.981C1137.19 622.865 1169.27 598.963 1203.78 575.906C1242.8 549.832 1279.54 528.528 1316.1 510.778C1341.44 498.511 1368.01 487.6 1395.09 478.349C1420.74 469.586 1447.69 462.023 1475.19 455.867C1525.27 444.662 1578.29 437.695 1637.27 434.567C1686.02 431.913 1743.41 430.285 1799.44 438.36C1853.61 446.226 1903.6 461.051 1951.94 475.388C1960.71 477.989 1969.78 480.678 1978.62 483.247C2096.24 517.434 2216.21 558.181 2335.19 604.357L2334.95 604.548Z" fill="#183F30"/>
<path d="M2331.4 600.026C2213.26 553.137 2095.01 511.524 1979.93 476.35C1970.13 473.358 1960.07 470.185 1950.33 467.119C1903.95 452.509 1856 437.402 1803.35 429.996C1747.35 422.187 1690.08 425.687 1641.44 430.141C1522.27 440.862 1419.08 468.393 1326 514.302C1251.9 550.971 1189.8 594.394 1129.74 636.388C1117.61 644.871 1105.07 653.642 1092.86 662.041C1085.39 667.182 1078.77 671.705 1072.61 675.869C1043.97 695.221 1005.78 720.256 964.413 742.26C922.846 764.368 883.012 780.895 842.637 792.782C798.601 805.747 753.929 812.587 713.455 812.563C690.951 812.548 669.815 810.405 650.633 806.19C629.922 801.639 611.275 794.618 595.205 785.325C593.748 784.478 592.283 783.596 590.854 782.706C566.078 767.277 548.39 748.161 531.287 729.676C527.149 725.204 522.873 720.581 518.582 716.109C496.01 692.51 472.212 672.903 445.827 656.17C442.487 654.052 439.038 651.941 435.575 649.896C372.452 612.609 289.771 586.187 196.471 573.492C86.6429 558.658 -26.1688 562.65 -121.185 584.727C-185.565 599.799 -247.879 631.455 -276.242 663.496C-295.98 685.792 -299.412 707.882 -286.166 727.377L-286.514 727.487C-293.437 717.3 -295.887 706.448 -293.798 695.233C-291.869 684.868 -286.07 674.167 -276.566 663.429C-262.006 646.981 -238.901 630.652 -209.747 616.206C-182.705 602.807 -151.279 591.555 -121.261 584.528C-71.3646 572.934 -16.8813 566.303 40.6768 564.817C92.6444 563.476 145.112 566.322 196.619 573.28C289.973 585.984 372.7 612.42 435.864 649.73C439.327 651.775 442.775 653.888 446.12 656.008C472.517 672.751 496.328 692.367 518.912 715.977C523.203 720.448 527.48 725.074 531.617 729.546C548.711 748.022 566.391 767.129 591.143 782.542C592.571 783.432 594.032 784.31 595.489 785.158C653.002 818.424 745.35 821.204 842.524 792.595C931.113 766.512 1005.34 721.022 1072.35 675.751C1078.51 671.587 1085.13 667.066 1092.6 661.926C1104.8 653.527 1117.35 644.757 1129.47 636.276C1189.54 594.272 1251.65 550.839 1325.79 514.155C1350.88 501.782 1377.01 490.605 1403.46 480.93C1428.76 471.679 1455.19 463.5 1482.01 456.621C1531.88 443.828 1584.04 435.099 1641.45 429.933C1690.12 425.477 1747.44 421.971 1803.5 429.791C1856.18 437.201 1904.16 452.313 1950.55 466.929C1960.29 469.996 1970.36 473.167 1980.15 476.158C2095.24 511.336 2213.51 552.95 2331.65 599.843L2331.4 600.026Z" fill="#183F30"/>
<path d="M2327.86 595.495C2210.58 547.879 2094.03 505.398 1981.46 469.231C1971.12 465.906 1960.46 462.342 1950.15 458.895C1905.34 443.909 1859 428.411 1807.43 421.391C1751.2 413.812 1694.1 419.198 1645.67 425.468C1531.49 440.048 1430.11 470.194 1335.74 517.629C1269.57 551.002 1211.6 589.295 1155.53 626.326C1136.26 639.059 1118.05 651.087 1099.49 662.95C1091.94 667.778 1085.05 672.131 1078.44 676.256C1035.77 702.852 1000.02 722.833 965.915 739.135C923.131 759.587 882.383 774.516 841.34 784.771C825.418 788.749 809.464 791.959 793.712 794.37C765.789 798.644 738.487 800.416 713.054 799.54C667.027 797.955 628.03 788.001 597.145 769.953C595.69 769.096 594.235 768.214 592.821 767.327C568.393 752.037 550.307 733.387 532.817 715.348C528.384 710.778 523.806 706.054 519.211 701.482C495.794 678.098 471.506 658.784 444.97 642.431C441.586 640.346 438.094 638.269 434.587 636.257C370.699 599.578 287.448 573.861 193.839 561.889C83.3377 547.876 -29.6962 552.736 -124.446 575.577C-189.023 591.264 -249.488 622.279 -278.482 654.591C-298.637 677.051 -302.82 699.388 -290.585 719.188L-290.937 719.295C-297.325 708.955 -299.321 697.968 -296.865 686.639C-294.591 676.152 -288.516 665.349 -278.802 654.524C-264.078 638.114 -241.089 621.822 -212.316 607.405C-185.59 594.013 -154.412 582.641 -124.526 575.381C-74.7413 563.379 -20.247 556.317 37.4392 554.392C89.4942 552.655 142.162 555.107 193.987 561.677C287.649 573.658 370.947 599.388 434.875 636.089C438.382 638.103 441.874 640.18 445.262 642.266C471.814 658.627 496.115 677.952 519.541 701.345C524.135 705.917 528.718 710.643 533.147 715.214C550.628 733.243 568.705 751.886 593.113 767.163C594.527 768.047 595.978 768.93 597.433 769.784C655.106 803.49 743.975 808.881 841.253 784.574C933.855 761.435 1012.99 716.769 1078.19 676.125C1084.8 672.001 1091.68 667.65 1099.23 662.822C1117.79 650.96 1136 638.934 1155.28 626.201C1211.35 589.163 1269.33 550.864 1335.53 517.478C1360.39 504.981 1386.08 493.537 1411.87 483.46C1436.85 473.702 1462.76 464.907 1488.86 457.324C1538.63 442.863 1589.93 432.373 1645.66 425.257C1694.13 418.981 1751.28 413.591 1807.57 421.179C1859.19 428.203 1905.54 443.709 1950.38 458.7C1960.68 462.148 1971.34 465.712 1981.68 469.035C2094.26 505.205 2210.81 547.691 2328.1 595.31L2327.86 595.495Z" fill="#183F30"/>
<path d="M2324.32 590.969C2206.25 541.936 2094.6 499.783 1982.99 462.1C1972.34 458.505 1961.84 454.776 1950.71 450.83C1907.22 435.4 1862.26 419.446 1811.5 412.77C1754.58 405.358 1695.24 413.154 1649.9 420.775C1541.42 438.811 1441.84 471.572 1345.49 520.927C1287.7 550.638 1235.02 583.74 1184.07 615.755C1157.3 632.581 1132.01 648.47 1106.12 663.842C1098.43 668.408 1091.29 672.59 1084.28 676.627C1040.81 701.624 1003.68 720.489 967.414 736.001C923.397 754.829 881.731 768.162 840.034 776.762C818.609 781.181 797.175 784.273 776.327 785.953C754.254 787.731 732.824 787.92 712.635 786.517C667.886 783.405 629.678 772.661 599.069 754.579C597.623 753.72 596.178 752.836 594.771 751.95C570.724 736.821 552.278 718.652 534.438 701.082C529.679 696.395 524.757 691.547 519.828 686.856C495.547 663.687 470.776 644.662 444.098 628.694C440.667 626.643 437.131 624.599 433.588 622.62C368.937 586.548 285.123 561.536 191.208 550.288C104.536 540.002 16.5795 541.22 -62.7413 553.441C-85.1655 556.896 -106.883 561.227 -127.706 566.429C-191.435 582.468 -251.47 613.556 -280.659 645.63C-301.261 668.27 -306.222 690.878 -295.007 711.009L-295.363 711.11C-301.217 700.606 -302.748 689.472 -299.915 678.018C-297.29 667.401 -290.919 656.48 -280.983 645.562C-266.093 629.199 -243.226 612.955 -214.848 598.58C-188.061 585.01 -157.957 573.825 -127.797 566.236C-78.1244 553.827 -23.6197 546.336 34.197 543.969C86.3343 541.832 139.209 543.886 191.347 550.075C285.316 561.33 369.181 586.355 433.872 622.448C437.419 624.427 440.958 626.472 444.39 628.525C471.08 644.502 495.863 663.535 520.157 686.715C525.086 691.406 530.011 696.253 534.771 700.943C552.603 718.505 571.04 736.667 595.067 751.785C596.474 752.669 597.919 753.553 599.36 754.41C656.6 788.221 744.298 796.292 839.979 776.558C936.798 756.588 1021.27 712.587 1084.05 676.485C1091.06 672.448 1098.2 668.267 1105.89 663.703C1131.77 648.336 1157.06 632.445 1183.83 615.622C1234.79 583.604 1287.47 550.494 1345.29 520.773C1394.89 495.363 1444.1 474.833 1495.73 458.006C1545.51 441.779 1595.94 429.531 1649.87 420.565C1680.64 415.393 1705.87 412.255 1729.27 410.686C1759.49 408.66 1786.44 409.271 1811.65 412.554C1862.46 419.237 1907.44 435.199 1950.95 450.636C1962.08 454.584 1972.59 458.31 1983.23 461.906C2094.84 499.59 2206.5 541.747 2324.57 590.783L2324.32 590.969Z" fill="#183F30"/>
<path d="M2320.77 586.43C2203.58 536.64 2093.59 493.632 1984.51 454.941C1973.72 451.113 1963.06 447.1 1951.76 442.852C1909.44 426.934 1865.68 410.472 1815.56 404.111C1758.19 396.902 1699.15 406.701 1654.13 416.042C1552.23 436.999 1454.47 472.37 1355.26 524.172C1306.39 549.781 1260.28 577.566 1215.68 604.438C1180.42 625.679 1147.12 645.743 1112.76 664.69C1105 668.975 1097.38 673.103 1090.12 676.957C1046.36 700.166 1006.71 718.444 968.91 732.834C923.646 750.064 881.06 761.808 838.717 768.732C817.173 772.255 795.719 774.471 774.963 775.313C753.205 776.196 732.087 775.575 712.196 773.466C668.779 768.862 631.355 757.327 600.966 739.178C599.538 738.32 598.1 737.434 596.694 736.542C573.071 721.6 554.314 703.941 536.174 686.864C531.042 682.032 525.733 677.035 520.42 672.199C495.261 649.241 470.005 630.509 443.209 614.928C439.735 612.91 436.156 610.899 432.57 608.953C367.158 573.49 282.778 549.182 188.558 538.657C76.7195 526.285 -36.7635 532.89 -130.978 557.254C-193.813 573.617 -253.399 604.754 -282.779 636.574C-303.866 659.415 -309.626 682.317 -299.442 702.81L-299.799 702.906C-305.109 692.224 -306.17 680.929 -302.946 669.336C-299.952 658.574 -293.278 647.528 -283.1 636.504C-268.049 620.202 -245.31 604.017 -217.34 589.697C-190.885 576.154 -161.054 564.869 -131.069 557.06C-81.5063 544.245 -26.9961 536.321 30.9466 533.514C83.1698 530.984 136.243 532.643 188.694 538.445C282.97 548.973 367.398 573.297 432.846 608.782C436.436 610.727 440.019 612.739 443.493 614.76C470.305 630.348 495.57 649.09 520.741 672.057C526.057 676.892 531.363 681.89 536.499 686.723C554.631 703.793 573.379 721.445 596.986 736.377C598.391 737.266 599.83 738.152 601.253 739.009C659.187 773.605 743.509 784.091 838.684 768.523C915.911 755.894 995.735 726.75 1089.9 676.808C1097.15 672.955 1104.77 668.829 1112.53 664.544C1146.88 645.601 1180.18 625.541 1215.43 604.301C1260.04 577.426 1306.16 549.636 1355.04 524.021C1405.06 497.902 1453.33 476.519 1502.59 458.645C1552.49 440.538 1602.04 426.534 1654.07 415.835C1699.14 406.482 1758.25 396.674 1815.7 403.894C1865.88 410.264 1909.66 426.733 1952 442.658C1963.3 446.907 1973.96 450.918 1984.75 454.745C2093.83 493.437 2203.82 536.448 2321.02 586.242L2320.77 586.43Z" fill="#183F30"/>
<path d="M2317.22 581.894C2200.92 531.34 2092.59 487.467 1986.05 447.771C1975.23 443.741 1964.52 439.472 1953.17 434.951C1911.91 418.507 1869.24 401.504 1819.63 395.433C1761.73 388.422 1703.04 400.225 1658.38 411.29C1562.96 434.76 1469.76 471.651 1365.06 527.39C1325.8 548.361 1287.65 570.598 1250.75 592.103C1205.93 618.221 1163.61 642.893 1119.42 665.522C1111.46 669.602 1103.57 673.556 1095.98 677.272C1051.23 699.145 1010.16 716.281 970.418 729.658C948.155 737.151 926.052 743.512 904.721 748.565C881.968 753.954 859.319 758.038 837.404 760.706C792.94 766.116 750.664 766.018 711.757 760.414C669.736 754.361 633.099 742.034 602.864 723.77C601.442 722.904 600.013 722.016 598.615 721.131C575.469 706.41 556.464 689.296 538.089 672.746C532.525 667.736 526.774 662.555 521.013 657.54C494.954 634.789 469.213 616.348 442.321 601.159C438.803 599.172 435.177 597.196 431.551 595.284C365.38 560.427 280.44 536.824 185.918 527.026C73.4168 515.476 -40.2825 522.953 -134.235 548.076C-234.813 575.147 -328.263 638.868 -303.859 694.611L-304.221 694.702C-310.326 680.757 -309.552 665.961 -301.925 650.719C-294.959 636.799 -282.452 622.77 -264.751 609.025C-248.293 596.244 -228.136 584.281 -204.846 573.469C-182.694 563.185 -158.311 554.337 -134.334 547.883C-84.8847 534.661 -30.3657 526.309 27.7059 523.062C80.0139 520.136 133.288 521.398 186.051 526.816C280.626 536.622 365.617 560.239 431.828 595.115C435.457 597.028 439.083 599.004 442.605 600.993C469.51 616.188 495.263 634.64 521.335 657.399C527.095 662.414 532.846 667.595 538.41 672.607C556.781 689.151 575.778 706.259 598.912 720.971C600.306 721.857 601.731 722.745 603.152 723.61C661.264 758.708 744.455 771.807 837.401 760.498C916.087 750.92 1000.6 723.65 1095.77 677.123C1103.37 673.408 1111.25 669.455 1119.21 665.376C1163.39 642.752 1205.71 618.084 1250.51 591.969C1287.41 570.462 1325.57 548.222 1364.84 527.248C1469.58 471.486 1562.83 434.579 1658.29 411.095C1688.3 403.659 1713.32 398.875 1737.02 396.04C1767.33 392.415 1794.39 392.148 1819.77 395.222C1869.44 401.299 1912.13 418.313 1953.42 434.766C1964.76 439.284 1975.47 443.554 1986.28 447.583C2092.83 487.282 2201.17 531.156 2317.48 581.713L2317.22 581.894Z" fill="#183F30"/>
<path d="M2313.68 577.354C2198.27 526.021 2091.6 481.283 1987.58 440.581C1976.82 436.369 1966.14 431.865 1954.83 427.093C1914.55 410.097 1872.89 392.52 1823.7 386.729C1764.56 379.834 1703.45 394.716 1662.63 406.509C1551.81 438.342 1454.98 487.086 1374.88 530.572C1346.09 546.246 1317.47 562.556 1289.78 578.329C1234.23 609.971 1181.77 639.857 1126.1 666.327C1117.92 670.221 1109.76 674.001 1101.86 677.564C1056.05 698.188 1013.55 714.185 971.943 726.464C924.773 740.385 879.07 749.202 836.096 752.67C791.948 756.231 749.963 754.441 711.313 747.346C670.774 739.907 634.923 726.786 604.748 708.349C603.341 707.482 601.918 706.592 600.527 705.703C577.929 691.254 558.769 674.733 540.237 658.754C534.166 653.518 527.885 648.105 521.6 642.864C494.248 620.003 468.773 602.373 441.432 587.375C437.87 585.421 434.205 583.479 430.533 581.6C363.598 547.354 278.096 524.455 183.273 515.379C70.1108 504.653 -43.8069 513 -137.493 538.882C-238.319 566.899 -329.768 629.738 -308.278 686.405L-308.64 686.489C-313.971 672.43 -312.68 657.564 -304.806 642.306C-297.587 628.326 -285.012 614.26 -267.423 600.5C-251.022 587.668 -230.993 575.639 -207.892 564.742C-185.897 554.365 -161.585 545.357 -137.592 538.689C-88.2532 525.059 -33.73 516.279 24.4657 512.59C76.8577 509.268 130.333 510.136 183.405 515.166C278.285 524.246 363.833 547.159 430.801 581.427C434.474 583.309 438.143 585.252 441.708 587.205C469.065 602.209 494.549 619.851 521.913 642.72C528.199 647.961 534.48 653.376 540.551 658.612C559.078 674.585 578.233 691.101 600.816 705.544C602.207 706.433 603.625 707.322 605.033 708.189C663.69 744.028 745.756 759.75 836.115 752.458C917.156 745.92 1004.02 721.368 1101.67 677.404C1109.57 673.844 1117.73 670.066 1125.91 666.173C1181.56 639.71 1234.01 609.829 1289.55 578.191C1317.23 562.417 1345.86 546.105 1374.65 530.428C1428.52 501.188 1473.56 478.761 1516.39 459.851C1566.82 437.59 1614.61 420.081 1662.52 406.32C1691.71 397.886 1717.36 392.115 1740.91 388.679C1771.24 384.256 1798.37 383.547 1823.84 386.517C1873.1 392.316 1914.78 409.903 1955.08 426.91C1966.39 431.68 1977.07 436.185 1987.82 440.393C2091.85 481.096 2198.52 525.838 2313.94 577.172L2313.68 577.354Z" fill="#183F30"/>
<path d="M2310.15 572.805C2195.64 520.685 2090.63 475.075 1989.12 433.365C1978.48 428.992 1967.89 424.267 1956.69 419.264C1917.32 401.691 1876.62 383.519 1827.77 377.993C1768.01 371.294 1707.34 388.312 1666.9 401.697C1567 434.609 1480 480.957 1384.72 533.711C1367.54 543.25 1350.18 553.037 1333.39 562.504C1268.81 598.912 1202.04 636.556 1132.8 667.099C1124.39 670.812 1115.96 674.421 1107.75 677.824C1061.44 697.002 1016.27 712.283 973.471 723.245C924.991 735.664 878.332 742.853 834.779 744.62C791.031 746.394 749.338 742.908 710.853 734.261C671.909 725.509 636.836 711.596 606.612 692.908C605.214 692.038 603.802 691.146 602.417 690.257C580.474 676.146 561.271 660.284 542.701 644.945C536.01 639.417 529.092 633.703 522.167 628.173C493.859 605.515 467.916 588.166 440.524 573.576C436.928 571.66 433.215 569.75 429.496 567.901C361.816 534.255 275.762 512.06 180.633 503.71C66.8156 493.809 -47.3149 503.027 -140.741 529.667C-238.256 557.611 -331.659 619.157 -312.691 678.181L-313.054 678.26C-317.61 664.082 -315.802 649.148 -307.682 633.873C-300.214 619.829 -287.567 605.727 -270.093 591.954C-237.854 566.545 -190.746 543.773 -140.847 529.476C-91.6233 515.441 -37.0929 506.23 21.2295 502.099C73.705 498.383 127.375 498.853 180.757 503.496C275.94 511.851 362.044 534.061 429.767 567.721C433.491 569.572 437.203 571.482 440.803 573.399C468.208 587.998 494.163 605.353 522.48 628.02C529.405 633.553 536.326 639.266 543.018 644.794C561.583 660.129 580.782 675.988 602.712 690.093C604.094 690.982 605.505 691.872 606.903 692.742C667.372 730.131 746.187 747.996 834.824 744.404C916.9 741.078 1008.66 718.622 1107.57 677.659C1115.78 674.256 1124.2 670.65 1132.61 666.94C1201.82 636.408 1268.59 598.768 1333.15 562.368C1349.94 552.9 1367.3 543.114 1384.48 533.574C1426.19 510.481 1474.76 483.879 1523.32 460.401C1574.11 435.844 1621.03 416.584 1666.76 401.519C1695.54 391.994 1721.07 385.376 1744.8 381.291C1774.74 376.137 1802.69 374.959 1827.9 377.786C1849.78 380.261 1872.15 385.581 1896.3 394.05C1917.61 401.527 1937.6 410.454 1956.94 419.085C1968.14 424.087 1978.72 428.811 1989.36 433.184C2090.87 474.895 2195.89 520.506 2310.41 572.627L2310.15 572.805Z" fill="#183F30"/>
<path d="M2306.6 568.265C2192.99 515.348 2089.64 468.861 1990.64 426.146C1980.16 421.624 1969.72 416.693 1958.67 411.474C1920.18 393.302 1880.38 374.512 1831.84 369.247C1786.48 364.364 1733.91 373.401 1671.15 396.874C1583.38 429.589 1506.7 473.151 1425.53 519.275C1415.42 525.018 1404.97 530.955 1394.56 536.832C1390.49 539.138 1386.41 541.447 1382.34 543.755C1304.98 587.582 1224.98 632.902 1139.49 667.859C1130.85 671.394 1122.15 674.831 1113.64 678.073C1066.14 696.144 1019.49 710.257 975.004 720.019C925.187 730.948 877.563 736.517 833.461 736.569C790.179 736.619 748.774 731.437 710.396 721.167C673.197 711.213 638.905 696.506 608.47 677.453C607.083 676.581 605.681 675.686 604.302 674.796C583.168 661.127 564.101 646.022 545.657 631.415C538.19 625.499 530.464 619.382 522.733 613.462C493.443 591.004 467.037 573.937 439.62 559.758C435.977 557.874 432.226 555.999 428.463 554.183C360.02 521.15 273.408 499.657 177.982 492.032C63.5153 482.958 -50.8339 493.046 -143.995 520.444C-239.61 548.672 -332.779 610.665 -317.108 669.956L-317.474 670.031C-321.253 655.73 -318.93 640.727 -310.563 625.438C-302.843 611.33 -290.127 597.187 -272.765 583.404C-240.698 557.945 -193.805 534.93 -144.105 520.257C-94.9926 505.814 -40.4596 496.173 17.9854 491.602C70.543 487.489 124.416 487.562 178.106 491.818C273.586 499.45 360.251 520.953 428.723 554.005C432.486 555.821 436.245 557.699 439.888 559.583C467.317 573.771 493.739 590.841 523.038 613.309C530.773 619.228 538.495 625.348 545.966 631.263C564.402 645.867 583.468 660.968 604.594 674.632C605.973 675.522 607.37 676.415 608.758 677.287C670.644 716.028 748.367 736.45 833.531 736.349C917.601 736.25 1011.79 716.583 1113.48 677.896C1121.99 674.655 1130.68 671.221 1139.32 667.688C1224.78 632.745 1304.76 587.433 1382.11 543.613C1386.18 541.303 1390.26 538.995 1394.33 536.69C1404.73 530.813 1415.18 524.876 1425.29 519.135C1506.49 473.002 1583.19 429.428 1670.99 396.698C1699.35 386.093 1724.77 378.631 1748.7 373.883C1778.64 367.941 1806.66 366.31 1831.97 369.034C1853.71 371.392 1875.83 376.771 1899.58 385.48C1920.53 393.164 1940.05 402.381 1958.93 411.295C1969.99 416.512 1980.42 421.441 1990.9 425.962C2089.9 468.678 2193.26 515.167 2306.87 568.086L2306.6 568.265Z" fill="#183F30"/>
<path d="M2303.06 563.72C2199.17 514.189 2094.57 465.464 1992.18 418.903C1981.76 414.2 1971.36 409.017 1960.36 403.532C1924.58 385.688 1884.03 365.464 1835.9 360.469C1790.03 355.733 1737.53 366.053 1675.41 392.018C1601.55 422.829 1537.54 460.989 1469.78 501.39C1448.56 514.041 1426.61 527.127 1404.42 539.911C1365.7 562.262 1323.77 586.066 1279.53 608.715C1232.14 632.973 1188.53 652.556 1146.19 668.589C1137.3 671.956 1128.33 675.222 1119.53 678.293C1070.85 695.277 1022.75 708.208 976.558 716.728C925.427 726.158 876.836 730.123 832.128 728.504C749.544 725.319 674.91 702.937 610.302 661.978C608.924 661.103 607.532 660.206 606.16 659.316C586.075 646.249 567.41 632.06 549.36 618.336C540.864 611.877 532.08 605.197 523.275 598.737C492.98 576.47 466.104 559.689 438.696 545.927C435.006 544.075 431.212 542.234 427.41 540.452C358.226 508.022 271.059 487.236 175.337 480.333C60.2192 472.085 -54.3393 483.047 -147.238 511.2C-243.325 540.399 -334.044 601.476 -321.518 661.717L-321.886 661.785C-324.886 647.355 -322.042 632.28 -313.435 616.978C-305.458 602.802 -292.673 588.621 -275.43 574.829C-259.185 561.835 -239.534 549.601 -217.025 538.466C-195.171 527.657 -171.732 518.42 -147.356 511.013C-98.356 496.164 -43.8173 486.092 14.7492 481.08C67.389 476.574 121.456 476.25 175.453 480.119C271.232 487.025 358.45 507.824 427.673 540.269C431.475 542.052 435.277 543.895 438.967 545.747C466.387 559.518 493.275 576.305 523.583 598.579C532.388 605.041 541.172 611.721 549.668 618.182C567.718 631.903 586.378 646.091 606.456 659.152C607.824 660.045 609.22 660.94 610.594 661.815C675.153 702.742 749.721 725.107 832.225 728.289C917.184 731.364 1016.49 714.014 1119.39 678.113C1128.19 675.044 1137.15 671.78 1146.04 668.415C1240.69 632.573 1325.47 585.213 1404.19 539.774C1426.38 526.99 1448.32 513.907 1469.54 501.256C1537.32 460.846 1601.33 422.677 1675.24 391.852C1737.46 365.847 1790.05 355.51 1836.03 360.257C1857.59 362.493 1879.39 367.919 1902.69 376.838C1923.23 384.704 1942.25 394.187 1960.64 403.356C1971.64 408.841 1982.02 414.022 1992.44 418.722C2094.84 465.285 2199.43 514.009 2303.33 563.543L2303.06 563.72Z" fill="#183F30"/>
<path d="M2299.52 559.175C2197.01 509.145 2094.12 459.508 1993.71 411.644C1983.58 406.833 1973.46 401.496 1962.74 395.847C1927.68 377.367 1887.95 356.42 1839.97 351.663C1793.56 347.078 1741.13 358.681 1679.68 387.133C1615.3 416.915 1557.32 453.66 1501.26 489.197C1473.15 507.016 1444.08 525.441 1414.3 542.956C1367.3 570.619 1327.56 592.348 1289.24 611.341C1241.98 634.76 1197.38 653.716 1152.91 669.29C1143.78 672.488 1134.54 675.582 1125.44 678.487C1078.04 693.618 1031.05 704.981 985.644 712.299C983.122 712.705 980.612 713.097 978.101 713.478C925.55 721.457 875.99 723.793 830.8 720.425C808.984 718.772 787.434 715.683 766.753 711.243C747.314 707.07 728.035 701.572 709.451 694.903C676.016 682.904 644.178 667.064 612.125 646.478C610.749 645.592 609.377 644.703 608.011 643.809C589.382 631.617 571.572 618.605 554.35 606.021C544.407 598.757 534.127 591.245 523.812 583.982C492.049 561.604 465.514 545.591 437.765 532.068C434.032 530.249 430.195 528.441 426.351 526.693C356.422 494.875 268.705 474.794 172.689 468.614C56.9254 461.192 -57.8448 473.027 -150.481 501.936C-244.658 531.366 -335.162 592.864 -325.925 653.46L-326.294 653.522C-330.596 625.297 -313.926 595.112 -278.087 566.233C-261.887 553.18 -242.364 540.88 -220.054 529.668C-198.346 518.76 -174.979 509.367 -150.599 501.748C-101.715 486.493 -47.1714 475.992 11.5157 470.538C64.2368 465.638 118.501 464.918 172.801 468.398C268.878 474.583 356.645 494.677 426.618 526.513C430.463 528.263 434.307 530.072 438.04 531.891C465.801 545.423 492.348 561.44 524.119 583.827C534.435 591.092 544.719 598.604 554.658 605.868C571.88 618.45 589.686 631.461 608.311 643.649C609.676 644.543 611.045 645.433 612.421 646.317C680.531 690.061 752.002 714.232 830.92 720.212C940.208 728.359 1051.34 701.92 1125.32 678.304C1134.41 675.401 1143.65 672.31 1152.77 669.112C1255.05 633.291 1346.14 582.804 1414.07 542.823C1443.84 525.313 1472.91 506.888 1501.02 489.072C1557.09 453.528 1615.08 416.774 1679.49 386.978C1706.99 374.246 1732.17 365.091 1756.48 358.992C1786.46 351.47 1814.59 348.933 1840.1 351.455C1861.59 353.584 1883.2 359.091 1906.18 368.287C1926.43 376.391 1945.03 386.194 1963.02 395.677C1973.73 401.325 1983.85 406.661 1993.98 411.468C2094.38 459.333 2197.27 508.969 2299.79 558.998L2299.52 559.175Z" fill="#183F30"/>
<path d="M2295.98 554.625L1995.24 404.366C1985.42 399.458 1975.59 393.98 1965.18 388.182C1930.84 369.045 1891.91 347.357 1844.03 342.834C1797.74 338.462 1743.88 351.715 1683.96 382.227C1626.36 411.559 1574.86 446.495 1525.05 480.282C1492.58 502.305 1459.01 525.077 1424.2 545.972C1319.58 608.776 1226.53 650.937 1131.37 678.659C1091.9 690.157 1052.65 699.087 1014.28 705.308C1002.65 707.194 991.105 708.83 979.654 710.214C925.655 716.744 875.125 717.458 829.475 712.336C787.166 707.588 747.744 697.592 708.969 681.774C678.004 669.144 647.81 652.996 613.948 630.957C596.075 619.326 578.642 607.057 561.783 595.192C523.626 568.343 484.173 540.58 436.845 518.189C364.251 483.847 271.991 462.644 170.038 456.871C53.6351 450.279 -61.3456 462.985 -153.718 492.648C-243.15 521.367 -336.564 581.35 -330.331 645.188L-330.701 645.243C-333.486 616.709 -316.21 586.408 -280.741 557.615C-248.671 531.581 -203.604 508.443 -153.839 492.463C-105.069 476.803 -50.5208 465.871 8.28264 459.975C61.084 454.68 115.544 453.565 170.15 456.657C220.598 459.514 269.012 466.191 314.052 476.503C359.467 486.902 400.872 500.866 437.108 518.008C484.455 540.406 523.921 568.176 562.086 595.031C578.945 606.894 596.378 619.161 614.246 630.79C663.651 662.949 732.781 701.253 829.617 712.119C940.671 724.581 1054.95 700.696 1131.26 678.465C1226.37 650.76 1319.38 608.616 1423.96 545.836C1458.76 524.95 1492.33 502.179 1524.79 480.16C1574.61 446.367 1626.12 411.422 1683.76 382.075C1743.78 351.511 1797.75 338.235 1844.17 342.619C1865.6 344.645 1887.04 350.238 1909.72 359.723C1929.68 368.072 1947.87 378.208 1965.46 388.009C1975.87 393.807 1985.7 399.282 1995.52 404.188L2296.25 554.447L2295.98 554.625Z" fill="#183F30"/>
<path d="M2291.1 549.358C2214.13 506.034 2148.39 471.391 2084.23 440.335C2053.08 425.246 2021.36 410.56 1989.95 396.684C1980.45 392.487 1970.98 387.922 1960.96 383.088C1935.78 370.938 1909.75 358.376 1880.6 350.589C1864.95 346.395 1850.08 343.966 1835.14 343.161C1789.27 340.598 1737.6 355.114 1681.56 386.307C1652.55 402.433 1626.46 419.703 1604.76 434.47C1581.78 450.104 1559.29 466.899 1537.53 483.142C1506.27 506.49 1473.93 530.631 1438.68 552.535C1417.23 565.892 1395.35 578.253 1373.63 589.276C1330.18 611.329 1283.09 631.266 1233.66 648.533C1203.11 659.137 1172.25 668.369 1141.92 675.969C1115.78 682.51 1089.47 688.041 1063.71 692.407C1025.16 698.944 987.307 702.919 951.203 704.218C912.816 705.598 876.127 703.957 842.159 699.338C811.869 695.22 782.924 688.596 753.671 679.087C699.164 661.389 654.56 638.044 621.791 619.682C605.687 610.609 589.903 601.257 574.637 592.213C530.68 566.165 489.161 541.563 438.55 521.78C397.29 505.79 350.963 493.668 300.844 485.748C262.33 479.661 220.832 476.247 177.507 475.597C167.187 475.445 156.69 475.44 146.317 475.587C101.656 476.228 51.7397 479.903 -2.04151 486.508C-56.2687 493.126 -102.798 502.012 -144.28 513.675C-167.734 520.247 -190.248 528.324 -211.206 537.681C-285.197 570.719 -330.038 613.77 -331.157 652.845L-331.621 652.894C-331.323 642.477 -328.021 631.747 -321.81 620.997C-315.909 610.786 -307.348 600.49 -296.367 590.394C-275.619 571.322 -246.25 553.024 -211.438 537.48C-190.447 528.107 -167.897 520.018 -144.407 513.436C-102.882 501.762 -56.3153 492.868 -2.04355 486.245C51.7672 479.636 101.71 475.961 146.4 475.319C156.785 475.173 167.286 475.177 177.613 475.33C220.972 475.978 262.504 479.396 301.049 485.489C351.203 493.414 397.569 505.547 438.849 521.548C489.491 541.343 531.019 565.952 574.992 592.006C590.254 601.051 606.038 610.401 622.138 619.472C654.89 637.826 699.474 661.159 753.95 678.846C783.172 688.345 812.086 694.963 842.341 699.076C908.821 708.115 983.283 705.786 1063.66 692.151C1089.4 687.788 1115.69 682.261 1141.81 675.725C1172.11 668.129 1202.96 658.904 1233.48 648.308C1282.88 631.052 1329.95 611.128 1373.37 589.088C1395.07 578.073 1416.94 565.719 1438.37 552.373C1473.6 530.481 1505.93 506.345 1537.18 483.005C1558.94 466.76 1581.44 449.959 1604.43 434.32C1626.14 419.545 1652.24 402.268 1681.27 386.13C1706.22 372.242 1730.71 361.513 1754.07 354.239C1782.76 345.304 1810.08 341.486 1835.27 342.894C1850.26 343.702 1865.17 346.137 1880.86 350.34C1910.05 358.139 1936.1 370.71 1961.3 382.867C1971.32 387.699 1980.78 392.265 1990.27 396.459C2021.7 410.335 2053.42 425.023 2084.57 440.116C2148.74 471.175 2214.48 505.822 2291.46 549.148L2291.1 549.358Z" fill="#183F30"/>
<path d="M2286.18 544.363C2214.46 498.866 2147.81 461.792 2082.41 431.027C2050.52 415.992 2017.67 401.867 1984.8 389.046C1976.07 385.645 1967.43 382.046 1958.29 378.237C1930.89 366.83 1902.56 355.035 1871.63 348.582C1856 345.299 1841.2 343.603 1826.37 343.399C1769.58 342.61 1715.01 368.509 1679.22 390.375C1653.87 405.833 1631 422.438 1607.87 439.508C1587.62 454.45 1568.76 470.085 1548.79 486.636C1519.14 511.203 1488.49 536.607 1453.1 559.39C1432.11 572.965 1409.99 585.299 1387.35 596.051C1345.19 616.081 1298.51 633.731 1244.66 650.014C1214.52 659.124 1183.49 667.054 1152.44 673.577C1126.23 679.064 1099.96 683.569 1074.35 686.963C1036.24 692.02 998.722 694.619 962.823 694.69C925.121 694.764 888.821 692.045 854.935 686.607C825.247 681.844 796.289 674.749 766.406 664.919C712.139 647.101 664.899 625.403 629.811 608.489C616.822 602.227 604.02 595.888 591.636 589.754C542.319 565.33 495.739 542.257 440.401 525.243C399.043 512.526 353.214 503.407 304.194 498.14C267.103 494.155 228.132 492.852 185.058 494.155C175.117 494.458 165.02 494.902 155.05 495.474C111.263 498.008 64.8519 503.459 8.73076 510.318C-31.7303 515.205 -84.6066 522.371 -134.789 534.516C-158.561 540.227 -181.35 547.363 -202.532 555.721C-277.105 585.155 -325.458 624.244 -331.879 660.289L-332.432 660.32C-330.731 650.762 -326.166 640.951 -318.874 631.16C-311.924 621.831 -302.452 612.463 -290.728 603.311C-268.445 585.925 -238.033 569.379 -202.779 555.466C-181.559 547.091 -158.726 539.943 -134.914 534.221C-84.6839 522.063 -31.7668 514.893 8.7201 510.001C64.8597 503.14 111.286 497.687 155.102 495.15C165.08 494.579 175.184 494.134 185.136 493.829C228.252 492.526 267.261 493.83 304.393 497.82C353.463 503.092 399.33 512.217 440.73 524.947C496.108 541.975 542.708 565.052 592.04 589.487C604.421 595.619 617.223 601.959 630.212 608.218C665.292 625.125 712.511 646.815 766.747 664.625C796.595 674.446 825.522 681.533 855.176 686.291C921.807 696.982 995.544 697.101 1074.33 686.646C1099.92 683.253 1126.16 678.754 1152.34 673.271C1183.37 666.754 1214.37 658.833 1244.48 649.729C1298.29 633.461 1344.93 615.825 1387.06 595.813C1409.67 585.074 1431.76 572.757 1452.73 559.196C1488.08 536.433 1518.72 511.04 1548.36 486.484C1568.33 469.926 1587.2 454.288 1607.46 439.338C1630.6 422.258 1653.48 405.647 1678.86 390.172C1702.06 375.997 1725.27 364.818 1747.84 356.942C1775.21 347.393 1801.68 342.726 1826.5 343.07C1841.38 343.278 1856.23 344.978 1871.9 348.27C1902.9 354.737 1931.25 366.543 1958.67 377.958C1967.81 381.766 1976.45 385.363 1985.17 388.763C2018.06 401.588 2050.91 415.718 2082.82 430.758C2148.23 461.532 2214.89 498.611 2286.62 544.119L2286.18 544.363Z" fill="#183F30"/>
<path d="M2281.22 539.525C2213.81 491.224 2148.23 452.69 2080.75 421.721C2048.11 406.707 2014.16 393.11 1979.83 381.303C1972.5 378.778 1964.93 376.067 1957.61 373.447C1927.4 362.619 1896.16 351.423 1862.84 346.363C1847.19 343.957 1832.45 342.992 1817.77 343.414C1761.43 345.033 1710.12 371.998 1676.99 394.332C1654.54 409.422 1634.29 425.774 1614.71 441.588L1611.04 444.549C1593.26 458.898 1576.79 474.198 1559.35 490.399C1531.57 516.196 1502.85 542.869 1467.47 566.502C1446.89 580.331 1424.53 592.647 1400.99 603.107C1359.96 621.345 1313.76 636.807 1255.6 651.763C1225.53 659.497 1194.36 666.12 1162.94 671.446C1136.68 675.873 1110.46 679.349 1085 681.772C1007.93 689.127 934.869 686.542 867.852 674.09C838.88 668.706 809.926 661.128 779.336 650.914C727.575 633.681 681.166 614.986 638.072 597.314C632.293 594.945 626.575 592.589 620.9 590.251C562.029 566.008 506.425 543.108 442.44 528.547C400.668 519.04 355.321 512.92 307.665 510.352C272.676 508.468 235.063 509.192 192.683 512.565C183.132 513.328 173.431 514.224 163.846 515.226C139.736 517.764 114.257 521.295 87.28 525.033C65.6122 528.036 43.2086 531.141 19.5224 534.016C-26.234 539.48 -78.0917 545.675 -125.247 555.223C-149.578 560.151 -172.635 566.342 -193.781 573.625C-268.827 599.476 -320.674 634.593 -332.47 667.564L-333.106 667.556C-329.997 658.864 -324.176 649.981 -315.809 641.155C-307.807 632.716 -297.434 624.277 -284.977 616.073C-261.152 600.384 -229.702 585.598 -194.034 573.312C-172.841 566.011 -149.736 559.807 -125.358 554.871C-78.1542 545.313 -26.2704 539.117 19.5045 533.65C43.1757 530.775 65.5795 527.672 87.2399 524.671C114.228 520.93 139.714 517.399 163.847 514.859C173.439 513.858 183.152 512.961 192.71 512.196C235.142 508.818 272.8 508.094 307.838 509.981C355.551 512.551 400.947 518.68 442.766 528.197C506.808 542.771 562.439 565.681 621.335 589.936C627.009 592.273 632.73 594.627 638.506 596.998C681.593 614.667 727.986 633.359 779.732 650.585C810.29 660.786 839.214 668.359 868.15 673.735C935.079 686.172 1008.04 688.752 1085.02 681.408C1110.45 678.986 1136.64 675.514 1162.87 671.091C1194.26 665.77 1225.4 659.153 1255.44 651.429C1313.53 636.487 1359.68 621.044 1400.66 602.83C1424.15 592.392 1446.47 580.099 1467.01 566.294C1502.35 542.691 1531.05 516.033 1558.81 490.252C1576.26 474.044 1592.74 458.736 1610.54 444.376L1614.2 441.415C1633.79 425.593 1654.05 409.232 1676.53 394.125C1709.76 371.719 1761.26 344.67 1817.86 343.043C1832.61 342.62 1847.4 343.587 1863.11 346.004C1896.5 351.075 1927.77 362.282 1958.02 373.123C1965.33 375.744 1972.9 378.454 1980.23 380.977C2014.57 392.791 2048.54 406.396 2081.2 421.418C2148.71 452.399 2214.31 490.947 2281.74 539.264L2281.22 539.525Z" fill="#183F30"/>
<path d="M2276.32 534.355C2214.2 483.925 2147.92 442.738 2079.32 411.942C2045.96 396.922 2010.91 383.82 1975.14 372.999C1969.98 371.436 1964.68 369.804 1959.56 368.227C1925.73 357.806 1890.75 347.027 1854.31 343.516C1838.67 341.971 1823.98 341.74 1809.42 342.808C1753.55 346.911 1705.44 374.994 1674.92 397.832C1655.96 411.955 1639.1 427.075 1622.78 441.698C1619.96 444.229 1617.14 446.755 1614.32 449.273C1598.79 463.109 1584.5 478.143 1569.36 494.057C1543.63 521.114 1517.02 549.09 1481.83 573.612C1461.17 588.012 1439.18 599.979 1414.61 610.203C1363.21 631.587 1310.93 644.119 1266.58 653.56C1236.58 659.943 1205.27 665.261 1173.53 669.362C1147.24 672.727 1121.08 675.172 1095.78 676.629C1020.78 680.963 948.522 675.905 881.031 661.595C852.949 655.643 824.018 647.563 792.578 636.894C760.822 626.153 731.184 615.69 702.519 605.572C683.039 598.694 664.636 592.198 646.682 586.007C578.813 562.605 516.768 542.36 444.734 531.617C402.54 525.326 357.647 522.212 311.303 522.362C278.087 522.47 242.848 525.17 200.408 530.855C191.252 532.088 181.937 533.443 172.724 534.883C158.732 537.086 144.284 539.635 128.993 542.335C99.6474 547.515 66.381 553.387 30.3399 557.691C16.6151 559.329 2.60203 560.897 -10.9517 562.412C-45.8126 566.31 -81.8594 570.34 -115.638 575.903C-140.443 579.99 -163.76 585.238 -184.933 591.502C-260.309 613.804 -315.609 644.935 -332.867 674.777L-333.567 674.712C-329.049 666.897 -321.981 658.952 -312.56 651.096C-303.511 643.552 -292.243 636.048 -279.075 628.795C-253.699 614.82 -221.23 601.796 -185.174 591.128C-163.95 584.849 -140.582 579.587 -115.721 575.492C-81.9062 569.922 -45.8444 565.892 -10.9651 561.992C2.58497 560.477 16.5981 558.909 30.3192 557.272C66.327 552.972 99.5677 547.106 128.898 541.928C144.197 539.227 158.648 536.677 172.656 534.472C181.88 533.031 191.202 531.675 200.369 530.44C242.868 524.745 278.16 522.044 311.432 521.935C357.832 521.785 402.785 524.902 445.033 531.202C477.571 536.054 510.786 543.313 546.574 553.393C578.613 562.416 609.946 572.806 647.138 585.629C665.093 591.822 683.495 598.318 702.979 605.195C731.64 615.313 761.278 625.775 793.026 636.515C824.435 647.174 853.335 655.245 881.383 661.191C948.782 675.483 1020.93 680.533 1095.84 676.205C1121.11 674.75 1147.23 672.309 1173.49 668.947C1205.2 664.852 1236.47 659.54 1266.43 653.162C1310.73 643.735 1362.94 631.219 1414.25 609.873C1438.75 599.678 1460.68 587.741 1481.29 573.379C1516.42 548.899 1543.01 520.944 1568.72 493.91C1583.87 477.986 1598.17 462.945 1613.71 449.094C1616.53 446.575 1619.35 444.049 1622.17 441.521C1638.49 426.888 1655.37 411.758 1674.35 397.617C1694.21 382.759 1714.9 370.577 1735.84 361.411C1760.64 350.553 1785.41 344.154 1809.44 342.391C1824.08 341.316 1838.84 341.548 1854.55 343.099C1891.08 346.62 1926.11 357.412 1959.98 367.846C1965.1 369.423 1970.4 371.055 1975.56 372.616C2011.36 383.446 2046.43 396.561 2079.82 411.593C2116.24 427.946 2152.26 447.338 2186.87 469.231C2217.46 488.581 2247.76 510.398 2276.93 534.072L2276.32 534.355Z" fill="#183F30"/>
<path d="M2271.8 526.888C2214.07 473.696 2148.97 430.99 2078.3 399.957C2044.22 384.94 2008.06 372.347 1970.84 362.523C1969.07 362.055 1967.3 361.588 1965.52 361.118C1926.81 350.884 1886.79 340.301 1846.1 338.575C1830.34 337.906 1815.7 338.428 1801.35 340.166C1745.99 346.875 1701.05 376.164 1673.09 399.551C1656.64 413.247 1642.25 427.768 1628.35 441.811C1624.91 445.283 1621.35 448.874 1617.84 452.377C1604.45 465.723 1592.24 480.494 1579.31 496.133C1555.79 524.58 1531.47 553.994 1496.43 579.455C1476.17 594.185 1453.94 606.176 1428.47 616.114C1378.31 635.69 1326.45 646.018 1277.89 654.263C1247.95 659.347 1216.53 663.378 1184.52 666.246C1158.22 668.565 1132.15 669.998 1107.01 670.505C1034.35 671.99 962.939 664.511 894.76 648.273C867.456 641.772 839.374 633.454 806.391 622.096C743.713 600.59 697.279 585.75 655.835 573.978C573.405 550.567 511.063 538.65 447.387 534.131C404.757 531.106 360.279 531.063 315.181 534.003C283.892 536.043 250.923 540.657 208.284 548.97C199.547 550.68 190.616 552.511 181.737 554.415C173.351 556.224 164.841 558.149 155.828 560.185C122.554 567.708 84.8371 576.235 41.2329 581.435C18.2499 584.177 -5.28106 586.399 -28.0363 588.548C-53.8976 590.991 -80.6384 593.517 -105.91 596.762C-131.248 600.016 -154.809 604.337 -175.921 609.603C-251.438 628.437 -310.129 655.591 -332.918 682.237L-333.651 682.088C-327.733 675.165 -319.433 668.167 -308.983 661.287C-298.897 654.644 -286.758 648.079 -272.902 641.772C-245.987 629.517 -212.522 618.239 -176.128 609.163C-154.957 603.884 -131.344 599.553 -105.947 596.291C-80.6541 593.042 -53.8984 590.515 -28.0258 588.072C-5.27796 585.924 18.2419 583.703 41.2064 580.964C84.7328 575.773 122.409 567.255 155.647 559.742C164.663 557.702 173.181 555.779 181.571 553.967C190.461 552.061 199.399 550.229 208.143 548.517C250.848 540.193 283.873 535.569 315.229 533.526C360.39 530.582 404.932 530.625 447.622 533.655C511.385 538.179 573.791 550.108 656.294 573.54C697.754 585.316 744.204 600.16 806.897 621.672C839.857 633.021 867.908 641.33 895.181 647.825C963.268 664.039 1034.58 671.509 1107.13 670.026C1132.23 669.519 1158.27 668.086 1184.53 665.772C1216.51 662.906 1247.88 658.881 1277.79 653.804C1326.28 645.571 1378.05 635.264 1428.1 615.732C1453.47 605.832 1475.62 593.882 1495.81 579.204C1530.77 553.798 1555.07 524.414 1578.56 495.998C1591.5 480.349 1603.72 465.567 1617.13 452.201C1620.64 448.7 1624.2 445.11 1627.64 441.637C1641.55 427.583 1655.95 413.052 1672.43 399.333C1690.67 384.07 1710.11 371.325 1730.2 361.451C1753.74 349.885 1777.67 342.568 1801.32 339.7C1815.75 337.951 1830.47 337.428 1846.31 338.099C1887.12 339.832 1927.21 350.428 1965.97 360.679C1967.75 361.148 1969.52 361.618 1971.29 362.084C2008.55 371.919 2044.75 384.528 2078.87 399.56C2149.6 430.622 2214.75 473.361 2272.52 526.59L2271.8 526.888Z" fill="#183F30"/>
<path d="M1296.45 650.761C1294.37 651.037 1292.33 651.308 1290.31 651.57C1260.42 655.489 1228.9 658.361 1196.66 660.102C1170.37 661.482 1144.38 662.012 1119.4 661.683C1083.72 661.222 1047.69 658.522 1012.32 653.661C978.156 648.966 943.551 642.11 909.458 633.28C876.053 624.63 844.629 614.218 820.983 606.113C765.665 587.22 713.317 572.244 665.394 561.6C587.776 544.361 519.337 536.672 450.005 537.403C408.178 537.844 363.566 541.087 320.858 546.788C320.196 546.877 319.538 546.964 318.876 547.055C282.194 552.024 247.727 560.532 215.95 568.986C207.68 571.194 199.131 573.541 190.54 575.965C185.834 577.301 181.122 578.659 176.137 580.095C140.975 590.237 101.119 601.729 51.949 607.787C22.0034 611.475 -8.71935 613.8 -38.4311 616.048C-57.6158 617.499 -77.4508 619 -96.3338 620.828C-122.291 623.342 -146.068 626.821 -167.01 631.174C-242.422 646.843 -304.351 670.162 -332.676 693.554L-333.403 693.302C-318.875 681.305 -296.419 669.599 -266.66 658.507C-238.239 647.916 -203.837 638.289 -167.177 630.673C-146.18 626.31 -122.341 622.819 -96.324 620.301C-77.4225 618.471 -57.5762 616.97 -38.3841 615.518C-8.69081 613.273 22.0135 610.95 51.9182 607.265C100.963 601.225 140.749 589.75 175.853 579.627C180.841 578.188 185.553 576.83 190.263 575.493C198.861 573.068 207.417 570.718 215.695 568.509C247.526 560.042 282.052 551.519 318.823 546.536C362.204 540.659 407.611 537.318 450.152 536.87C485.935 536.495 520.833 538.313 556.833 542.432C591.504 546.4 627.165 552.505 665.848 561.098C713.809 571.751 766.196 586.738 821.549 605.643C845.176 613.745 876.576 624.15 909.947 632.789C979.126 650.705 1049.66 660.247 1119.58 661.153C1144.53 661.482 1170.49 660.951 1196.74 659.575C1228.94 657.835 1260.41 654.969 1290.27 651.054C1336.98 644.927 1391.14 636.796 1442.89 617.673C1469.08 607.993 1491.4 595.974 1511.11 580.928C1545.73 554.504 1567.41 523.627 1588.38 493.764C1599.16 478.404 1609.35 463.894 1620.7 450.997C1624.34 446.865 1628 442.62 1631.54 438.513C1643.5 424.639 1655.87 410.296 1670.4 396.626C1686.99 380.914 1705.12 367.546 1724.29 356.893C1746.52 344.541 1769.59 336.212 1792.85 332.136C1807.21 329.619 1821.9 328.271 1837.75 328.015C1880.15 327.326 1923.06 336.039 1966.96 345.811C2005.23 354.33 2043.68 366.561 2078.14 381.184C2116.42 397.367 2152.85 417.482 2186.43 440.971C2216.34 461.897 2244.17 485.613 2269.14 511.459L2268.31 511.781C2214.68 456.275 2150.49 412.488 2077.52 381.639C2043.1 367.037 2004.71 354.822 1966.5 346.319C1922.68 336.565 1879.85 327.868 1837.61 328.552C1821.84 328.808 1807.24 330.15 1792.97 332.65C1750.22 340.142 1706.96 362.939 1671.16 396.846C1656.67 410.491 1644.31 424.822 1632.35 438.682C1628.81 442.791 1625.15 447.039 1621.51 451.171C1610.18 464.044 1600 478.542 1589.23 493.888C1578.94 508.54 1568.3 523.692 1555.85 538.554C1541.74 555.403 1527.34 569.352 1511.81 581.203C1492.01 596.315 1469.6 608.388 1443.28 618.114C1420.07 626.691 1394.91 633.671 1366.37 639.456C1342.19 644.346 1317.78 647.912 1296.45 650.761Z" fill="#183F30"/>
<path d="M1356.38 642.008C1337.53 644.55 1319.36 646.357 1303.1 647.898C1273.2 650.732 1241.59 652.508 1209.15 653.174C1182.89 653.67 1156.97 653.36 1132.12 652.247C1064.08 649.225 996.107 638.086 924.329 618.199C893.026 609.528 863.351 599.657 835.648 590.292C780.96 571.876 726.865 558.258 674.858 549.816C598.371 537.401 527.69 534.849 452.417 541.786C409.528 545.739 364.557 552.551 322.362 561.484C287.044 568.96 254.131 579.947 223.44 590.559C215.762 593.222 207.6 596.101 199.185 599.113C197.082 599.868 194.962 600.635 192.813 601.409C157.516 614.153 117.577 628.573 65.2073 635.635C64.3237 635.754 63.4437 635.871 62.5522 635.985C27.102 640.56 -9.3493 642.58 -44.605 644.532C-58.5821 645.306 -73.0358 646.108 -86.8883 647.047C-113.945 648.884 -137.28 651.495 -158.227 655.035C-234.417 667.913 -297.928 687.01 -332.467 707.434L-333.129 707.06C-316.054 696.964 -290.932 686.81 -260.489 677.696C-230.544 668.733 -195.223 660.701 -158.346 654.469C-137.339 650.919 -113.946 648.299 -86.8293 646.459C-72.9621 645.518 -58.5044 644.717 -44.5238 643.941C-9.30181 641.99 27.116 639.972 62.4996 635.405C115.99 628.505 156.58 613.848 192.387 600.919C194.532 600.145 196.656 599.378 198.759 598.62C207.181 595.605 215.347 592.726 223.032 590.062C253.774 579.431 286.749 568.426 322.162 560.929C364.424 551.983 409.468 545.159 452.427 541.199C489.729 537.76 525.509 536.694 561.81 537.937C599.196 539.218 636.311 542.914 675.278 549.241C727.35 557.696 781.513 571.329 836.259 589.762C863.951 599.126 893.607 608.99 924.882 617.652C996.564 637.512 1064.43 648.635 1132.36 651.653C1157.18 652.762 1183.06 653.073 1209.29 652.578C1241.68 651.914 1273.25 650.142 1303.1 647.309C1353.34 642.545 1406.68 636.385 1457.99 618.338C1484.99 608.841 1507.44 596.724 1526.62 581.296C1560.8 553.813 1580.44 519.963 1597.78 490.097C1606.5 475.07 1614.73 460.876 1624.14 448.456C1627.53 443.975 1630.93 439.356 1634.23 434.891C1644.52 420.919 1655.17 406.472 1668.09 392.579C1683.02 376.409 1699.82 362.403 1718.01 350.95C1738.9 337.797 1761.09 328.422 1783.95 323.09C1798.23 319.755 1812.89 317.554 1828.76 316.354C1873.1 313.005 1919.13 319.798 1962.28 327.638C2002.12 334.877 2041.86 346.273 2077.21 360.593C2116.53 376.46 2153.31 396.703 2186.51 420.755C2216.2 442.265 2242.95 466.716 2266 493.435L2265.07 493.769C2216.08 436.976 2150.88 391.098 2076.53 361.094C2041.25 346.801 2001.58 335.427 1961.83 328.203C1918.79 320.38 1872.87 313.604 1828.72 316.937C1812.94 318.129 1798.37 320.318 1784.18 323.63C1741.97 333.476 1701.06 358.032 1668.97 392.777C1656.08 406.642 1645.45 421.074 1635.16 435.032C1631.87 439.5 1628.46 444.118 1625.07 448.604C1615.68 460.996 1607.45 475.176 1598.74 490.187C1581.38 520.1 1561.7 554.005 1527.42 581.579C1508.13 597.092 1485.55 609.275 1458.4 618.827C1434.84 627.114 1409.18 633.534 1379.94 638.448C1372.04 639.789 1364.15 640.96 1356.38 642.008Z" fill="#183F30"/>
<path d="M1394.39 637.191C1394.12 637.228 1393.86 637.264 1393.59 637.301C1366.94 640.9 1340.61 642.63 1315.91 644.094C1285.95 645.872 1254.24 646.562 1221.66 646.151C1195.42 645.777 1169.57 644.631 1144.84 642.747C1079.28 637.771 1013.93 625.184 939.171 603.133C912.25 595.194 885.65 586.32 859.923 577.741C856.706 576.666 853.486 575.594 850.265 574.522C795.252 556.276 739.407 544.037 684.284 538.145C608.801 530.079 533.753 532.755 454.849 546.328C411.584 553.771 366.999 564.058 325.914 576.077C293.498 585.562 264.968 597.573 231.035 612.29C224.158 615.282 216.817 618.5 207.938 622.418L207.443 622.638C190.316 630.232 170.904 638.838 148.918 646.368C123.669 655.015 98.9228 660.897 73.2918 664.366C33.323 669.765 -7.87928 671.136 -47.7225 672.459C-57.4844 672.783 -67.5824 673.119 -77.3231 673.506C-105.257 674.619 -128.813 676.471 -149.335 679.169C-224.9 689.104 -291.554 704.605 -332.205 721.694L-332.742 721.197C-312.83 712.825 -285.672 704.53 -254.205 697.207C-222.68 689.869 -186.432 683.415 -149.386 678.544C-128.805 675.838 -105.19 673.98 -77.1959 672.865C-67.4478 672.477 -57.3499 672.141 -47.5842 671.816C-7.78968 670.494 33.3604 669.126 73.2332 663.74C73.4106 663.716 73.5917 663.691 73.7691 663.667C130.796 655.882 172.968 637.186 206.877 622.153L207.376 621.932C216.258 618.011 223.6 614.793 230.481 611.801C264.471 597.059 293.051 585.026 325.57 575.513C366.724 563.472 411.381 553.168 454.72 545.713C493.332 539.072 529.983 535.113 566.773 533.613C606.418 531.996 644.984 533.271 684.671 537.513C739.899 543.416 795.84 555.674 850.942 573.95C854.163 575.022 857.384 576.096 860.601 577.17C886.316 585.747 912.908 594.618 939.807 602.551C1014.47 624.576 1079.72 637.146 1145.18 642.114C1169.87 643.996 1195.68 645.139 1221.89 645.513C1254.42 645.925 1286.08 645.234 1316 643.459C1369.59 640.283 1421.94 636.008 1473.17 618.832C1500.97 609.51 1523.55 597.292 1542.2 581.478C1575.88 552.911 1592.3 517.457 1606.79 486.173C1613.57 471.528 1619.98 457.693 1627.57 445.766C1630.5 441.177 1633.42 436.444 1636.24 431.866C1645.06 417.553 1654.19 402.756 1665.75 388.398C1679.06 371.764 1694.51 357.121 1711.67 344.88C1731.23 330.927 1752.52 320.511 1774.96 313.922C1788.86 309.837 1803.17 306.819 1818.66 304.704C1819 304.658 1819.33 304.612 1819.67 304.568C1867.84 298.137 1918.62 303.716 1957.49 309.295C1998.89 315.24 2039.93 325.781 2076.17 339.781C2116.55 355.319 2153.67 375.672 2186.52 400.278C2215.99 422.358 2241.66 447.538 2262.81 475.122L2261.78 475.468C2230.32 434.425 2172.44 377.668 2075.45 340.339C2039.29 326.37 1998.34 315.853 1957.04 309.922C1918.29 304.357 1867.67 298.793 1819.73 305.194C1803.95 307.296 1789.42 310.34 1775.31 314.487C1733.75 326.696 1695.19 353.008 1666.74 388.578C1655.21 402.902 1646.09 417.684 1637.28 431.98C1634.45 436.56 1631.53 441.295 1628.61 445.887C1621.04 457.784 1614.63 471.601 1607.86 486.23C1593.35 517.57 1576.89 553.091 1543.08 581.77C1524.31 597.69 1501.57 609.99 1473.58 619.374C1449.86 627.325 1423.95 633.156 1394.39 637.191Z" fill="#183F30"/>
<path d="M1424.91 633.813C1419.17 634.607 1413.3 635.314 1407.28 635.937C1380.91 638.663 1355.1 639.466 1328.77 640.111C1298.26 640.858 1267.33 640.489 1234.21 638.982C1208 637.747 1182.22 635.778 1157.59 633.124C1095.1 626.415 1032.31 612.497 954 587.999C934.552 581.915 915.067 575.408 896.223 569.115C885.965 565.69 875.361 562.146 864.862 558.706C809.147 540.516 751.561 529.674 693.701 526.476C617.251 522.25 539.943 530.238 457.349 550.898C413.713 561.813 369.533 575.575 329.589 590.693C297.501 602.838 269.964 617.469 240.808 632.959L238.793 634.03C234.239 636.455 229.637 638.912 224.977 641.399C222.294 642.833 219.593 644.275 216.866 645.729C199.873 654.833 181.494 664.42 160.149 672.795C135.367 682.518 110.538 689.051 84.2367 692.767C40.4498 698.949 -4.81288 699.398 -48.582 699.825C-54.8285 699.885 -61.2918 699.949 -67.5624 700.03C-96.9615 700.403 -120.059 701.473 -140.262 703.394C-214.813 710.487 -284.633 722.423 -331.824 736.143L-332.198 735.532C-284.883 721.775 -214.92 709.812 -140.238 702.707C-119.98 700.78 -96.8228 699.708 -67.3676 699.333C-61.0931 699.255 -54.6297 699.19 -48.3796 699.13C-5.14606 698.707 39.5441 698.268 82.7631 692.287C83.2288 692.222 83.6945 692.158 84.1637 692.091C140.048 684.196 178.483 665.432 216.147 645.259C218.873 643.804 221.575 642.362 224.258 640.928C228.917 638.44 233.516 635.985 238.073 633.557L240.089 632.486C269.294 616.97 296.878 602.314 329.07 590.129C369.087 574.982 413.343 561.197 457.055 550.263C539.857 529.551 617.374 521.542 694.031 525.78C752.034 528.987 809.754 539.854 865.593 558.083C876.092 561.525 886.7 565.067 896.958 568.494C915.795 574.786 935.275 581.292 954.711 587.37C1032.93 611.841 1095.63 625.739 1158.01 632.438C1182.61 635.086 1208.35 637.055 1234.52 638.286C1267.59 639.791 1298.48 640.161 1328.95 639.413C1375.2 638.281 1432.76 636.874 1488.41 619.069C1517.02 609.916 1539.72 597.591 1557.82 581.389C1590.98 551.711 1603.96 514.626 1615.42 481.909C1620.4 467.696 1625.1 454.27 1631.02 442.849C1633.33 438.399 1635.63 433.808 1637.85 429.368C1645.31 414.476 1653.02 399.077 1663.4 384.01C1675.1 366.899 1689.2 351.625 1705.29 338.61C1723.53 323.863 1743.92 312.409 1765.91 304.565C1780.02 299.531 1794.61 295.613 1810.51 292.587C1831.81 288.532 1854.72 286.545 1880.54 286.502C1902.39 286.468 1925.96 287.848 1952.6 290.723C1995.56 295.36 2037.9 305.038 2075.04 318.708C2116.47 333.901 2153.95 354.358 2186.44 379.507C2215.71 402.154 2240.31 428.058 2259.56 456.503L2258.43 456.854C2217.77 396.802 2152.37 347.956 2074.27 319.317C2037.23 305.683 1995.01 296.034 1952.18 291.411C1894.78 285.218 1849.83 285.798 1810.69 293.246C1794.89 296.252 1780.41 300.143 1766.39 305.14C1714.08 323.799 1682.11 358.411 1664.51 384.159C1654.15 399.188 1646.45 414.569 1639 429.443C1636.78 433.886 1634.48 438.479 1632.17 442.931C1626.27 454.318 1621.57 467.728 1616.6 481.923C1605.12 514.711 1592.11 551.874 1558.8 581.687C1540.56 598.017 1517.67 610.441 1488.83 619.667C1469.29 625.921 1448.24 630.585 1424.91 633.813Z" fill="#183F30"/>
<path d="M1451.57 631.146C1412.48 636.635 1374.32 636.264 1341.66 635.948C1310.94 635.651 1279.9 634.247 1246.76 631.66C1220.59 629.576 1194.88 626.787 1170.33 623.368C1096.74 613.143 1029.98 593.007 968.794 572.769C956.301 568.638 943.669 564.345 931.456 560.193C914.498 554.427 896.96 548.466 879.421 542.812C822.825 524.632 763.503 515.194 703.107 514.76C624.979 514.2 545.429 527.507 459.915 555.443C415.885 569.826 372.133 587.058 333.386 605.277C303.501 619.328 278.641 635.259 252.322 652.124C250.457 653.319 248.588 654.518 246.708 655.719L245.689 656.373C239.292 660.476 232.676 664.717 225.966 668.985C209.892 679.245 192.136 690.016 171.261 699.271C147.028 710.014 122.211 717.161 95.3814 721.119C48.2892 728.069 -0.527756 727.363 -47.7334 726.679C-51.0425 726.631 -54.3365 726.583 -57.6151 726.54C-88.7424 726.114 -111.381 726.45 -131.014 727.626C-203.977 731.997 -276.988 740.404 -331.327 750.693L-331.514 749.983C-277.087 739.675 -203.969 731.255 -130.909 726.879C-111.22 725.7 -88.5326 725.363 -57.3491 725.789C-54.0705 725.833 -50.7765 725.881 -47.4635 725.93C-0.34805 726.612 48.3746 727.313 95.2864 720.394C153.55 711.797 192.833 689.12 225.079 668.54C231.789 664.272 238.405 660.031 244.802 655.93L245.821 655.276C247.701 654.073 249.57 652.876 251.436 651.681C277.8 634.786 302.702 618.828 332.687 604.73C371.505 586.477 415.341 569.215 459.447 554.806C499.988 541.563 538.352 531.815 576.725 525.008C619.53 517.415 662.134 513.715 703.359 514.011C763.945 514.446 823.442 523.91 880.198 542.139C897.748 547.797 915.29 553.759 932.252 559.526C944.465 563.678 957.09 567.97 969.578 572.1C1030.7 592.315 1097.38 612.43 1170.84 622.636C1195.35 626.049 1221.03 628.835 1247.16 630.916C1280.25 633.5 1311.24 634.902 1341.92 635.199C1389.02 635.655 1447.63 636.223 1503.69 619.088C1533.11 610.095 1555.93 597.658 1573.48 581.066C1606.08 550.245 1615.41 511.513 1623.65 477.339C1626.96 463.608 1630.08 450.639 1634.47 439.734C1636.09 435.7 1637.71 431.54 1639.27 427.517C1645.39 411.779 1651.73 395.503 1661.04 379.442C1671.15 361.846 1683.88 345.939 1698.87 332.169C1715.79 316.63 1735.28 304.141 1756.81 295.047C1770.79 289.142 1785.33 284.367 1801.28 280.446C1822.76 275.165 1846.86 271.855 1872.92 270.609C1895.74 269.517 1920.87 269.973 1947.6 271.967C1992.11 275.287 2035.75 284.088 2073.79 297.42C2116.28 312.26 2154.13 332.81 2186.27 358.502C2215.31 381.713 2238.85 408.343 2256.24 437.653L2255 438.008C2218.17 375.902 2153.52 326.209 2072.98 298.082C2035.06 284.794 1991.57 276.021 1947.21 272.712C1889.71 268.424 1842.07 271.176 1801.59 281.13C1785.76 285.023 1771.32 289.764 1757.44 295.626C1706.21 317.262 1677.4 353.208 1662.26 379.555C1652.97 395.575 1646.65 411.828 1640.54 427.546C1638.97 431.57 1637.35 435.732 1635.73 439.77C1631.36 450.64 1628.23 463.591 1624.93 477.305C1620.97 493.745 1616.48 512.378 1609 530.307C1600.43 550.848 1589.17 567.549 1574.56 581.365C1566.11 589.354 1556.19 596.536 1545.08 602.713C1533.12 609.356 1519.34 615.085 1504.12 619.738C1486.7 625.065 1469.04 628.691 1451.57 631.146Z" fill="#183F30"/>
<path d="M1475.78 628.879C1462.86 630.723 1449.25 631.948 1434.8 632.579C1406.34 633.821 1378.84 632.631 1354.58 631.584C1324 630.262 1291.95 627.763 1259.33 624.158C1233.22 621.235 1207.56 617.633 1183.07 613.446C1112.78 601.454 1051.13 580.97 983.561 557.404C977.556 555.31 971.456 553.17 965.559 551.099C942.334 542.948 918.321 534.519 893.949 526.796C836.365 508.601 775.318 500.581 712.503 502.959C633.268 505.958 549.17 525.125 462.557 559.928C418.112 577.787 374.803 598.486 337.316 619.79C309.09 635.83 286.31 653.244 262.193 671.68C259.743 673.554 257.282 675.433 254.807 677.321C248.648 682.024 242.013 687.074 235.256 692.147C221.089 702.813 203.751 715.137 182.582 725.647C158.884 737.413 134.078 745.179 106.752 749.384C56.7289 757.084 4.74064 755.042 -45.5368 753.068L-47.451 752.994C-72.0676 752.029 -98.0859 751.218 -121.561 751.821C-193.117 753.661 -267.382 758.446 -330.671 765.295L-330.67 764.507C-267.315 757.65 -192.982 752.86 -121.363 751.019C-97.82 750.415 -71.7567 751.226 -47.1024 752.191L-45.1883 752.266C4.97975 754.235 56.8621 756.269 106.642 748.607C164.131 739.759 201.932 716.043 234.217 691.732C240.974 686.662 247.602 681.612 253.761 676.912C256.236 675.026 258.697 673.145 261.147 671.273C285.306 652.805 308.127 635.361 336.445 619.267C374.003 597.922 417.394 577.184 461.921 559.292C502.558 542.964 542.879 529.956 581.755 520.631C626.176 509.978 670.225 503.76 712.678 502.152C775.733 499.765 837.004 507.812 894.783 526.07C919.174 533.801 943.199 542.232 966.435 550.388C972.332 552.457 978.432 554.597 984.437 556.691C1051.94 580.235 1113.53 600.696 1183.69 612.669C1208.14 616.848 1233.76 620.445 1259.84 623.364C1292.41 626.964 1324.41 629.46 1354.95 630.779C1402.81 632.849 1462.38 635.422 1519.05 618.851C1549.28 610.012 1572.23 597.461 1589.21 580.476C1621.21 548.476 1626.92 506.312 1631.5 472.431C1633.29 459.234 1634.97 446.77 1637.96 436.394C1638.9 433.123 1639.85 429.757 1640.76 426.501C1645.5 409.586 1650.4 392.092 1658.7 374.668C1671.51 347.57 1697.34 310.078 1747.7 285.348C1761.61 278.52 1776.11 272.884 1792.03 268.121C1833.67 255.567 1884.31 250.48 1942.55 252.998C1988.61 254.99 2033.54 262.907 2072.48 275.894C2116.03 290.37 2154.24 311.01 2186.03 337.246C2200.62 349.279 2213.79 362.476 2225.18 376.468C2236.06 389.833 2245.37 403.995 2252.86 418.561L2251.52 418.916C2218.52 354.735 2154.63 304.196 2071.63 276.608C2032.83 263.67 1988.07 255.784 1942.19 253.798C1884.22 251.289 1833.85 256.344 1792.47 268.819C1776.67 273.546 1762.28 279.139 1748.47 285.916C1698.46 310.475 1672.78 347.772 1660.04 374.737C1651.75 392.116 1646.86 409.585 1642.13 426.479C1641.21 429.735 1640.27 433.103 1639.33 436.376C1636.35 446.717 1634.66 459.164 1632.88 472.341C1630.58 489.39 1627.97 508.713 1621.95 527.456C1615.05 548.993 1604.72 566.434 1590.38 580.773C1582.2 588.953 1572.39 596.268 1561.22 602.512C1549.19 609.239 1535.15 614.974 1519.48 619.554C1505.73 623.577 1491.24 626.672 1475.78 628.879Z" fill="#183F30"/>
<path d="M1498.24 626.839C1482.76 629.084 1466.31 630.326 1448.62 630.598C1419.96 631.041 1392.11 628.918 1367.53 627.044C1336.59 624.686 1304.42 621.139 1271.91 616.499C1245.86 612.747 1220.26 608.334 1195.82 603.38C1128.57 589.763 1069.79 568.166 1007.56 545.306C1004.48 544.175 1001.4 543.042 998.311 541.91C969.373 531.294 939.453 520.316 908.46 510.657C849.826 492.433 787.062 485.839 721.911 491.059C640.076 497.613 553.737 522.271 465.287 564.342C421.044 585.386 377.044 610.205 341.39 634.226C314.468 652.364 293.378 671.437 271.05 691.632C268.406 694.023 265.755 696.421 263.083 698.827C257.746 703.639 251.393 709.348 244.732 715.211C232.395 726.094 215.495 740.101 194.108 751.896C170.942 764.673 146.16 773.068 118.342 777.556C95.4728 781.199 69.9756 782.881 40.3898 782.696C14.9887 782.538 -9.72468 781.101 -37.0858 779.382C-62.0685 777.75 -88.4223 776.144 -111.926 775.968C-181.547 775.445 -254.876 776.781 -329.874 779.932L-329.698 779.079C-254.656 775.923 -181.285 774.59 -111.627 775.112C-88.0592 775.289 -61.6676 776.898 -36.6548 778.53C9.20688 781.414 66.285 785.007 118.21 776.732C177.562 767.155 213.522 741.326 243.538 714.841C250.197 708.982 256.546 703.276 261.879 698.466C264.552 696.061 267.202 693.663 269.843 691.274C292.208 671.047 313.336 651.94 340.346 633.743C376.073 609.674 420.158 584.807 464.486 563.723C553.204 521.524 639.842 496.792 721.99 490.211C753.486 487.688 784.724 487.907 814.827 490.863C847.128 494.033 878.928 500.435 909.343 509.886C940.371 519.555 970.311 530.539 999.264 541.163C1002.35 542.297 1005.44 543.427 1008.51 544.558C1070.69 567.4 1129.41 588.974 1196.53 602.566C1220.94 607.513 1246.5 611.921 1272.52 615.665C1304.98 620.297 1337.1 623.841 1368 626.195C1416.55 629.895 1476.99 634.499 1534.45 618.411C1565.58 609.696 1588.65 597.022 1604.98 579.67C1636.46 546.482 1637.85 502.559 1638.96 467.266C1639.37 454.643 1639.74 442.721 1641.47 432.874C1641.83 430.842 1642.18 428.8 1642.54 426.748C1645.74 408.208 1649.06 389.035 1656.38 369.732C1666.81 341.982 1689.53 303.11 1738.57 275.506C1752.25 267.805 1766.69 261.312 1782.73 255.653C1805.02 247.747 1830.19 241.9 1857.53 238.271C1882.49 234.958 1909.37 233.475 1937.42 233.862C1985.01 234.515 2031.23 241.539 2071.07 254.175C2115.68 268.28 2154.25 289.012 2185.71 315.79C2200.14 328.077 2212.96 341.593 2223.8 355.961C2234.19 369.722 2242.8 384.3 2249.4 399.291L2247.96 399.643C2219.22 334.32 2154.42 281.579 2070.18 254.944C2030.51 242.364 1984.49 235.368 1937.11 234.715C1878.68 233.908 1825.5 241.394 1783.31 256.359C1767.39 261.975 1753.06 268.418 1739.49 276.06C1690.78 303.473 1668.19 342.143 1657.82 369.754C1650.52 389.006 1647.21 408.151 1644.01 426.667C1643.65 428.72 1643.3 430.764 1642.94 432.795C1641.22 442.606 1640.84 454.513 1640.44 467.117C1639.32 502.511 1637.93 546.562 1606.25 579.962C1598.37 588.326 1588.68 595.778 1577.43 602.104C1565.33 608.91 1551.01 614.652 1534.88 619.17C1523.23 622.427 1511.07 624.978 1498.24 626.839Z" fill="#183F30"/>
<path d="M1519.48 624.923C1501.84 627.524 1482.98 628.681 1462.48 628.441C1433.48 628.102 1405.33 625.043 1380.49 622.346C1349.1 618.937 1316.81 614.343 1284.49 608.696C1258.51 604.129 1232.96 598.906 1208.55 593.177C1148.44 579.077 1096.12 558.661 1040.73 537.046C1031.68 533.512 1022.31 529.859 1013.03 526.279C980.386 513.703 952.573 503.466 922.934 494.387C863.209 476.128 798.74 470.969 731.311 479.054C646.584 489.211 558.021 519.369 468.088 568.686C423.412 593.187 379.905 621.562 345.584 648.587C319.729 668.946 300.084 689.854 279.287 711.989C276.711 714.731 274.124 717.483 271.52 720.24C266.882 725.158 260.739 731.643 254.38 738.175C227.626 765.717 191.94 795.273 130.134 805.631C128.206 805.951 126.269 806.254 124.333 806.539C75.9615 813.674 25.3572 810.226 -26.5269 805.695L-29.7669 805.407C-55.4722 803.109 -79.7545 800.941 -102.104 800.052C-186.328 796.702 -267.566 795.37 -328.931 794.585L-328.596 793.674C-267.215 794.461 -185.955 795.792 -101.7 799.144C-79.2905 800.035 -54.9814 802.207 -29.2422 804.506L-26.0058 804.795C27.7787 809.492 80.1844 813.028 129.978 804.762C191.099 794.517 226.484 765.193 253.041 737.856C259.396 731.329 265.532 724.85 270.171 719.934C272.775 717.175 275.358 714.426 277.934 711.683C298.765 689.514 318.44 668.572 344.377 648.148C378.767 621.067 422.361 592.635 467.126 568.085C508.674 545.3 550.669 526.316 591.943 511.658C639.3 494.839 686.184 483.571 731.285 478.163C799.062 470.036 863.857 475.218 923.861 493.562C953.543 502.656 981.385 512.903 1014.05 525.489C1023.34 529.069 1032.71 532.723 1041.77 536.257C1097.11 557.851 1149.37 578.248 1209.36 592.318C1233.74 598.041 1259.25 603.255 1285.2 607.816C1317.46 613.457 1349.71 618.043 1381.05 621.446C1430.25 626.79 1491.48 633.44 1549.88 617.767C1581.81 609.199 1605 596.402 1620.77 578.646C1651.59 544.19 1648.48 498.491 1645.98 461.77C1645.17 449.789 1644.4 438.47 1645 429.172L1645.01 428.959C1646.36 408.135 1647.75 386.603 1654.06 364.63C1659.51 345.472 1668.11 327.702 1679.62 311.81C1692.61 293.893 1709.36 278.319 1729.41 265.518C1742.83 256.954 1757.22 249.6 1773.4 243.039C1817.11 225.247 1872.03 215.395 1932.22 214.552C1956.45 214.213 1980.54 215.559 2003.83 218.55C2027.25 221.559 2049.37 226.176 2069.59 232.267C2115.26 245.997 2154.19 266.815 2185.3 294.145C2213.27 318.709 2234.21 348.347 2245.87 379.851L2244.33 380.199C2219.38 312.77 2155.35 259.151 2068.67 233.092C2028.13 220.878 1980.85 214.78 1931.96 215.467C1872.11 216.305 1817.53 226.087 1774.13 243.756C1758.08 250.267 1743.81 257.562 1730.49 266.059C1693.05 289.958 1667.15 324.037 1655.61 364.609C1649.32 386.525 1647.93 408.027 1646.59 428.821L1646.57 429.034C1645.97 438.299 1646.74 449.601 1647.55 461.565C1650.06 498.399 1653.17 544.237 1622.14 578.934C1614.54 587.496 1604.95 595.083 1593.65 601.482C1581.47 608.382 1566.89 614.135 1550.3 618.587C1540.43 621.235 1530.18 623.345 1519.48 624.923Z" fill="#183F30"/>
<path d="M135.709 834.892C114.084 838.139 90.2609 839.315 63.1229 838.486C36.1583 837.663 9.27315 834.973 -15.7666 832.192C-20.3011 831.682 -24.802 831.168 -29.2725 830.659C-51.5259 828.122 -72.5455 825.727 -92.0915 824.337C-170.028 818.801 -244.209 814.445 -315.95 810.237L-327.837 809.538L-327.355 808.58L-315.468 809.279C-243.723 813.49 -169.531 817.844 -91.579 823.382C-71.9801 824.775 -50.9339 827.173 -28.6537 829.714C-24.1869 830.224 -19.686 830.737 -15.1555 831.246C36.2449 836.955 90.7108 841.789 141.958 832.935C204.947 821.978 239.585 788.735 262.722 761.001C268.651 753.907 274.339 746.869 278.631 741.531C281.001 738.589 283.353 735.651 285.698 732.721C305.148 708.428 323.518 685.483 348.539 662.692C381.566 632.612 424.641 600.607 469.836 572.574C511.766 546.567 554.571 524.565 597.07 507.181C645.815 487.24 694.09 473.442 740.55 466.169C810.444 455.08 876.996 458.805 938.33 477.239C972.331 487.476 1003.14 499.446 1028.8 509.806C1042.76 515.444 1056.75 521.272 1070.27 526.908C1118.15 546.862 1167.65 567.494 1222.17 582.039C1246.53 588.539 1272 594.556 1297.87 599.921C1329.88 606.536 1362.26 612.158 1394.12 616.631C1443.91 623.621 1505.88 632.321 1565.34 617.004C1598.06 608.573 1621.37 595.645 1636.58 577.481C1666.7 541.703 1658.85 494.211 1652.54 456.05C1650.68 444.766 1648.91 434.105 1648.52 425.369C1647.64 405.675 1647.08 382.714 1651.73 359.448C1655.63 339.738 1662.84 321.353 1673.17 304.804C1684.85 286.085 1700.68 269.485 1720.21 255.465C1733.16 246.174 1747.89 237.725 1764.01 230.352C1787 219.807 1813.2 211.413 1841.88 205.406C1868.74 199.779 1897.36 196.32 1926.92 195.124C1951.85 194.117 1976.63 194.895 2000.57 197.442C2024.66 200.004 2047.35 204.296 2067.99 210.2C2091.78 216.995 2113.97 225.906 2133.93 236.687C2152.85 246.901 2169.96 258.892 2184.78 272.324C2212.52 297.454 2232.38 327.862 2242.23 360.257L2240.58 360.599C2219.44 291.033 2156.18 236.537 2067.03 211.083C2026.2 199.405 1976.37 194.078 1926.71 196.086C1865.31 198.569 1809.34 210.664 1764.87 231.062C1748.89 238.376 1734.27 246.758 1721.43 255.975C1684.62 282.392 1661.72 317.179 1653.38 359.37C1648.74 382.575 1649.3 405.494 1650.19 425.157C1650.58 433.862 1652.34 444.506 1654.2 455.776C1657.31 474.602 1660.84 495.941 1659.83 517.233C1658.67 541.939 1651.54 561.736 1638.06 577.754C1630.72 586.512 1621.24 594.239 1609.89 600.716C1597.63 607.714 1582.78 613.486 1565.75 617.872C1557.16 620.086 1548.52 621.802 1539.88 623.099C1488.16 630.865 1436.31 623.586 1393.44 617.568C1361.54 613.088 1329.11 607.458 1297.05 600.832C1271.14 595.46 1245.64 589.434 1221.25 582.925C1166.62 568.35 1117.06 547.697 1069.14 527.725C1055.62 522.09 1041.64 516.263 1027.68 510.628C1002.06 500.28 971.292 488.327 937.353 478.11C876.35 459.773 810.188 456.07 740.684 467.091C631.508 484.184 533.74 534.198 470.948 573.148C425.844 601.125 382.855 633.062 349.899 663.081C324.954 685.804 306.609 708.714 287.188 732.969C284.843 735.899 282.488 738.837 280.118 741.782C275.822 747.122 270.131 754.164 264.199 761.266C254.487 772.908 239.106 790.042 217.758 804.36C207.39 811.313 196.184 817.237 184.453 821.968C171.372 827.243 157.132 831.241 142.136 833.849C140.012 834.22 137.869 834.567 135.709 834.892Z" fill="#183F30"/>
<path d="M146.932 869.182C125.295 872.559 101.5 873.686 74.4478 872.63C46.4401 871.537 18.4766 868.219 -5.18096 865.116C-12.4507 864.158 -19.7092 863.169 -26.7305 862.213C-46.3566 859.541 -64.8969 857.015 -82.2956 855.306C-144.777 849.167 -206.818 843.337 -266.82 837.697C-286.668 835.832 -307.188 833.903 -327.079 832.023L-326.465 831.016C-306.574 832.896 -286.054 834.824 -266.206 836.69C-206.204 842.329 -144.155 848.161 -81.6698 854.302C-64.2253 856.016 -45.6625 858.542 -26.0132 861.219C-18.9955 862.176 -11.7373 863.163 -4.47493 864.121C44.59 870.553 101.33 876.611 153.784 867.021C218.181 855.206 250.801 819.494 272.031 789.701C277.474 782.068 282.707 774.441 286.656 768.649C288.685 765.676 290.7 762.708 292.711 759.746C310.791 733.11 327.867 707.952 352.006 682.584C383.402 649.59 425.854 613.888 471.536 582.055C535.171 537.87 634.861 480.528 748.404 458.276C820.603 444.049 888.902 446.089 951.396 464.345C979.474 472.553 1007.49 482.703 1042.24 497.259C1059.8 504.615 1077.28 512.351 1094.18 519.83C1138.16 539.29 1183.64 559.413 1233.92 574.285C1258.28 581.492 1283.73 588.228 1309.54 594.305C1340.81 601.653 1373.35 608.204 1406.27 613.78C1456.82 622.246 1519.73 632.785 1579.91 617.63C1612.92 609.385 1636.97 595.876 1651.41 577.479C1680.71 540.235 1667.18 488.895 1657.3 451.41C1654.53 440.89 1651.91 430.954 1650.64 422.807C1647.81 404.701 1644.94 380.696 1647.8 355.55C1652.72 311.983 1673.35 275.308 1709.11 246.547C1721.64 236.425 1736.28 227.045 1752.62 218.667C1775.87 206.738 1802.55 196.99 1831.93 189.696C1859.61 182.825 1889.06 178.268 1919.48 176.152C1945.15 174.414 1970.62 174.551 1995.18 176.556C2019.98 178.583 2043.23 182.469 2064.28 188.106C2088.61 194.617 2111.18 203.379 2131.36 214.152C2150.49 224.361 2167.63 236.452 2182.32 250.092C2209.89 275.701 2228.77 306.822 2236.91 340.09L2235.17 340.427C2217.63 268.757 2154.99 213.582 2063.29 189.048C2021.72 177.915 1970.59 173.693 1919.33 177.163C1856.16 181.562 1798.86 196.155 1753.63 219.368C1737.42 227.677 1722.9 236.982 1710.47 247.023C1674.94 275.593 1654.45 312.058 1649.56 355.411C1646.7 380.488 1649.58 404.445 1652.39 422.516C1653.66 430.634 1656.28 440.558 1659.05 451.064C1664.15 470.441 1669.94 492.405 1670.87 514.584C1671.95 540.411 1666.1 561.067 1652.99 577.736C1645.94 586.723 1636.6 594.621 1625.22 601.212C1612.89 608.358 1597.78 614.193 1580.32 618.555C1553.25 625.371 1523.5 627.687 1489.37 625.632C1459.7 623.846 1430.9 619.022 1405.48 614.767C1372.52 609.184 1339.93 602.623 1308.62 595.266C1282.77 589.18 1257.29 582.435 1232.89 575.218C1182.5 560.316 1136.98 540.171 1092.95 520.691C1076.06 513.213 1058.58 505.482 1041.04 498.133C1006.35 483.603 978.383 473.472 950.371 465.283C888.247 447.13 820.381 445.098 748.641 459.235C635.587 481.394 536.229 538.555 472.784 582.608C427.192 614.376 384.829 650.003 353.5 682.927C329.427 708.224 312.377 733.346 294.326 759.942C292.315 762.906 290.3 765.875 288.271 768.847C284.319 774.644 279.083 782.278 273.634 789.918C252.218 819.976 219.265 856.014 153.981 867.99C151.66 868.413 149.305 868.812 146.932 869.182Z" fill="#183F30"/>
<path d="M158.425 903.412C99.3461 912.98 34.785 902.708 -22.4481 893.6C-40.0353 890.803 -56.6472 888.159 -72.3639 886.194L-326.214 854.461L-325.477 853.409L-71.6278 885.141C-55.8692 887.11 -39.2381 889.757 -21.6277 892.559C37.8176 902.019 105.198 912.74 165.737 901.061C231.472 888.382 262.11 850.188 281.458 818.333C287.786 807.914 293.836 797.376 299.688 787.184C315.695 759.311 332.243 730.488 355.567 702.38C374.087 680.062 397.557 656.001 423.44 632.8C451.834 607.347 482.632 583.225 514.971 561.109C550.628 536.725 587.322 515.388 624.03 497.694C664.632 478.124 705.167 463.075 744.517 452.963C823.345 432.707 897.295 432.096 964.308 451.152C1020 466.986 1068.52 489.86 1115.45 511.981C1156.3 531.236 1198.54 551.145 1245.45 566.415C1299.63 584.05 1357.74 599.01 1418.19 610.876C1469.11 620.875 1532.49 633.321 1594.27 618.21C1646.45 605.449 1674.43 580.769 1679.8 542.757C1684.37 510.425 1671.65 475.009 1661.42 446.554C1657.94 436.856 1654.65 427.696 1652.65 420.16C1641.61 378.615 1640.78 342.98 1650.1 311.22C1655.91 291.404 1665.86 272.968 1679.67 256.425C1695.09 237.946 1715.78 221.272 1741.17 206.867C1763.13 194.405 1788.32 183.857 1816.05 175.515C1842.45 167.574 1870.57 161.792 1899.63 158.329C1956.78 151.517 2013.87 154.187 2060.37 165.845C2085.23 172.077 2108.18 180.702 2128.57 191.478C2147.9 201.692 2165.07 213.901 2179.61 227.768C2206.99 253.891 2224.85 285.774 2231.27 319.967L2229.43 320.3C2215.77 247.487 2152.19 190.122 2059.35 166.851C1960.77 142.136 1827.43 159.255 1742.3 207.558C1657.98 255.407 1629.25 324.828 1654.47 419.786C1656.46 427.299 1659.75 436.446 1663.23 446.132C1673.48 474.649 1686.23 510.14 1681.64 542.62C1679.14 560.311 1671.53 575.436 1659.01 587.577C1651.98 594.403 1643.22 600.468 1632.98 605.603C1622.09 611.067 1609.19 615.638 1594.66 619.193C1588.72 620.645 1582.65 621.875 1576.44 622.881C1553.83 626.544 1529.33 627.244 1502.11 625.033C1471.44 622.541 1441.41 616.644 1417.28 611.906C1356.75 600.022 1298.56 585.043 1244.3 567.383C1197.28 552.082 1155 532.148 1114.11 512.873C1067.24 490.78 1018.78 467.934 963.225 452.141C896.662 433.216 823.218 433.818 744.934 453.936C586.579 494.629 432.935 611.4 357.192 702.673C333.931 730.704 317.403 759.487 301.418 787.323C295.563 797.52 289.51 808.065 283.176 818.493C270.33 839.642 257 855.455 241.226 868.252C231.379 876.239 220.462 883.046 208.776 888.484C195.782 894.53 181.376 899.105 165.953 902.081C163.462 902.558 160.948 903.004 158.425 903.412Z" fill="#183F30"/>
</svg>
