<svg width="1729" height="1051" viewBox="0 0 1729 1051" fill="none" xmlns="http://www.w3.org/2000/svg">
<path opacity="0.3" d="M762.019 15.1634C762.352 14.3193 763.547 14.3193 763.88 15.1634L767.626 24.6625C767.728 24.9202 767.932 25.1242 768.189 25.2259L777.689 28.9723C778.533 29.3052 778.533 30.4999 777.689 30.8328L768.189 34.5792C767.932 34.6808 767.728 34.8848 767.626 35.1425L763.88 44.6416C763.547 45.4858 762.352 45.4858 762.019 44.6416L758.273 35.1425C758.171 34.8848 757.967 34.6808 757.709 34.5792L748.21 30.8328C747.366 30.4999 747.366 29.3052 748.21 28.9723L757.709 25.2259C757.967 25.1242 758.171 24.9202 758.273 24.6625L762.019 15.1634Z" fill="#063B33"/>
<path opacity="0.1" d="M1477.65 517.624C1477.98 516.78 1479.18 516.78 1479.51 517.624L1483.26 527.123C1483.36 527.381 1483.56 527.585 1483.82 527.687L1493.32 531.433C1494.17 531.766 1494.17 532.961 1493.32 533.294L1483.82 537.04C1483.56 537.142 1483.36 537.346 1483.26 537.603L1479.51 547.103C1479.18 547.947 1477.98 547.947 1477.65 547.103L1473.91 537.603C1473.8 537.346 1473.6 537.142 1473.34 537.04L1463.84 533.294C1463 532.961 1463 531.766 1463.84 531.433L1473.34 527.687C1473.6 527.585 1473.8 527.381 1473.91 527.123L1477.65 517.624Z" fill="#1F37FF"/>
<path opacity="0.1" d="M880.019 565.327C880.352 564.483 881.547 564.483 881.88 565.327L885.626 574.827C885.728 575.084 885.932 575.288 886.189 575.39L895.689 579.136C896.533 579.469 896.533 580.664 895.689 580.997L886.189 584.743C885.932 584.845 885.728 585.049 885.626 585.307L881.88 594.806C881.547 595.65 880.352 595.65 880.019 594.806L876.273 585.307C876.171 585.049 875.967 584.845 875.709 584.743L866.21 580.997C865.366 580.664 865.366 579.469 866.21 579.136L875.709 575.39C875.967 575.288 876.171 575.084 876.273 574.827L880.019 565.327Z" fill="#1F37FF"/>
<path opacity="0.3" d="M1544.86 649.359C1545.19 648.515 1546.39 648.515 1546.72 649.359L1554.96 670.262C1555.07 670.52 1555.27 670.724 1555.53 670.826L1576.43 679.07C1577.27 679.403 1577.27 680.597 1576.43 680.93L1555.53 689.174C1555.27 689.276 1555.07 689.48 1554.96 689.738L1546.72 710.641C1546.39 711.485 1545.19 711.485 1544.86 710.641L1536.61 689.738C1536.51 689.48 1536.31 689.276 1536.05 689.174L1515.15 680.93C1514.3 680.597 1514.3 679.403 1515.15 679.07L1536.05 670.826C1536.31 670.724 1536.51 670.52 1536.61 670.262L1544.86 649.359Z" fill="#063B33"/>
<path d="M704.694 908.708C695.147 910.134 685.807 911.102 676.781 911.597C657.85 912.636 640.131 911.61 624.114 908.547C606.899 905.256 591.477 899.572 578.272 891.654C551.733 875.739 536.879 854.151 522.512 833.273C519.69 829.173 516.772 824.934 513.834 820.837C493.787 792.917 469.752 769.427 440.361 749.025C381.73 708.327 302.386 677.972 210.902 661.241C105.103 641.895 -6.3416 641.031 -102.904 658.811C-159.659 669.262 -232.808 698.961 -262.808 735.501C-280.611 757.188 -279.82 778.184 -260.515 796.218L-260.841 796.355C-270.963 786.897 -276.081 776.664 -276.048 765.939C-276.019 756.102 -271.676 745.841 -263.138 735.441C-249.559 718.901 -225.906 702.506 -194.736 688.027C-165.933 674.649 -133.338 664.201 -102.951 658.605C-52.416 649.302 1.98533 645.072 58.7422 646.037C110.192 646.912 161.444 651.957 211.073 661.033C302.61 677.772 382.002 708.143 440.666 748.866C470.074 769.282 494.121 792.785 514.181 820.72C517.123 824.817 520.041 829.058 522.859 833.158C537.213 854.021 552.058 875.593 578.561 891.485C604.191 906.856 637.252 913.549 676.819 911.377C731.614 908.37 796.206 887.894 849.598 856.6C926.54 811.505 977.028 755.054 1025.86 700.462C1034.42 690.893 1043.26 680.999 1052.05 671.409C1074.86 646.506 1105.89 614.017 1143.71 583.552C1182.37 552.413 1222.47 527.789 1266.3 508.268C1293.13 496.32 1321.91 486.671 1351.84 479.59C1379.49 473.048 1409.03 468.487 1439.63 466.029C1492.14 461.813 1549.42 463.501 1614.76 471.185C1743.42 486.32 1872.78 508.694 1999.24 537.687C2119.45 565.244 2238.12 599.018 2351.96 638.066L2351.73 638.257C2115.74 557.312 1867.74 501.172 1614.62 471.396C1471.61 454.574 1360.99 466.34 1266.49 508.428C1170.34 551.245 1106.76 612.096 1052.37 671.477C1043.59 681.064 1034.74 690.959 1026.18 700.528C977.339 755.138 926.834 811.607 849.838 856.733C824.958 871.316 796.541 884.036 767.662 893.517C752.407 898.525 737.136 902.591 722.27 905.603C716.346 906.81 710.481 907.844 704.694 908.708Z" fill="#183F30"/>
<path d="M713.613 892.402C689.268 896.03 666.418 896.794 645.674 894.673C622.542 892.307 602.128 886.34 584.995 876.943C583.479 876.11 581.97 875.24 580.508 874.355C554.242 858.476 538.891 837.266 524.048 816.752C521.046 812.607 517.944 808.318 514.821 804.174C496.222 779.499 474.832 758.497 449.422 739.97C446.292 737.69 443.063 735.418 439.815 733.221C380.467 693.034 300.589 663.265 208.817 647.133C102.358 628.448 -9.31191 628.306 -105.624 646.733C-161.918 657.529 -234.694 687.456 -264.877 723.769C-282.95 745.513 -282.84 766.655 -264.565 784.91L-264.895 785.043C-274.474 775.475 -279.147 765.153 -278.781 754.366C-278.444 744.459 -273.879 734.144 -265.207 723.709C-251.465 707.173 -227.883 690.781 -197.017 676.307C-168.489 662.928 -136.053 652.354 -105.681 646.531C-55.2498 636.883 -0.831185 632.295 56.0606 632.896C107.593 633.442 159.043 638.163 208.981 646.927C300.806 663.069 380.728 692.856 440.113 733.065C443.36 735.264 446.594 737.538 449.724 739.82C475.15 758.359 496.553 779.372 515.161 804.06C518.287 808.204 521.389 812.492 524.392 816.64C539.23 837.139 554.568 858.335 580.797 874.192C582.255 875.074 583.764 875.943 585.276 876.774C620.681 896.202 666.618 899.406 713.728 892.385C713.986 892.346 714.241 892.308 714.499 892.27C714.204 892.312 713.908 892.358 713.613 892.402ZM723.645 890.759C767.296 882.972 811.401 866.807 848.552 847.001C928.676 804.154 983.367 748.269 1036.26 694.225C1038.44 691.998 1040.61 689.775 1042.79 687.552C1047.58 682.671 1053.25 676.892 1059.04 671.055C1085.04 644.875 1116.62 614.215 1153.74 585.325C1193.22 554.583 1233.4 530.151 1276.55 510.629C1303.07 498.643 1331.42 488.758 1360.8 481.251C1388.03 474.295 1417.05 469.15 1447.07 465.959C1498.91 460.448 1555.34 460.44 1619.59 465.936C1682.22 471.272 1733.9 477.379 1782.23 485.156C1850.7 496.193 1916.4 510.875 1971.65 523.781C2100.09 553.924 2226.98 590.977 2348.8 633.912L2348.56 634.101C2226.76 591.172 2099.88 554.121 1971.45 523.982C1916.22 511.077 1850.53 496.397 1782.07 485.364C1733.75 477.59 1682.09 471.485 1619.47 466.151C1479.52 454.177 1370.62 468.361 1276.75 510.79C1179.32 554.858 1113.45 616.663 1059.35 671.135C1053.56 676.973 1047.89 682.749 1043.11 687.631C1040.93 689.852 1038.75 692.077 1036.57 694.305C983.664 748.366 928.953 804.271 848.772 847.149C828.887 857.749 807.494 867.004 785.183 874.654C764.415 881.772 743.758 887.177 723.645 890.759Z" fill="#183F30"/>
<path d="M723.519 876.281C720.591 876.716 717.676 877.114 714.78 877.471C690.387 880.487 667.517 880.709 646.808 878.125C624.158 875.3 604.104 869.108 587.205 859.718C585.703 858.881 584.202 858.007 582.747 857.121C556.768 841.288 540.93 820.458 525.618 800.316C522.427 796.118 519.125 791.777 515.802 787.581C496.457 763.104 474.603 742.356 448.986 724.154C445.815 721.904 442.545 719.661 439.256 717.489C379.189 677.818 298.775 648.64 206.714 633.108C99.5991 615.09 -12.298 615.671 -108.363 634.75C-162.446 645.533 -235.135 674.339 -266.926 712.098C-285.293 733.913 -285.88 755.216 -268.626 773.703L-268.96 773.83C-278.001 764.145 -282.224 753.729 -281.52 742.873C-280.873 732.888 -276.072 722.514 -267.252 712.037C-253.339 695.513 -229.835 679.135 -199.277 664.669C-171.028 651.295 -138.759 640.599 -108.419 634.55C-58.088 624.556 -3.65222 619.607 53.3711 619.843C104.99 620.057 156.636 624.451 206.878 632.903C298.993 648.445 379.45 677.64 439.553 717.333C442.842 719.507 446.117 721.75 449.288 724.004C474.918 742.217 496.784 762.977 516.138 787.468C519.461 791.666 522.763 796.007 525.955 800.205C541.261 820.335 557.086 841.15 583.034 856.964C584.488 857.851 585.982 858.723 587.483 859.557C656.15 897.709 767.555 875.944 847.498 837.452C931.431 796.784 990.876 741.101 1048.37 687.251L1048.96 686.698C1054.52 681.479 1060.28 676.085 1066.01 670.75C1126.53 614.473 1193.42 555.936 1286.79 513.031C1313 501.003 1340.91 490.881 1369.74 482.949C1396.56 475.571 1425.07 469.841 1454.48 465.921C1505.75 459.086 1561.33 457.381 1624.39 460.709C1690.66 464.161 1740.78 468.939 1786.91 476.203C1852.63 486.594 1916.96 502.508 1973.72 516.549C2100.13 548.076 2225.25 586.16 2345.62 629.741L2345.39 629.928C2225.03 586.352 2099.92 548.272 1973.52 516.747C1916.77 502.709 1852.45 486.798 1786.75 476.41C1740.64 469.147 1690.54 464.371 1624.29 460.92C1487.59 453.706 1380.41 470.313 1286.98 513.186C1193.67 556.063 1126.8 614.574 1066.32 670.831C1060.58 676.166 1054.83 681.563 1049.26 686.78L1048.67 687.332C1020.02 714.167 990.395 741.915 957.913 767.596C921.409 796.456 885.357 819.355 847.695 837.602C808.281 856.578 764.532 870.18 723.519 876.281Z" fill="#183F30"/>
<path d="M2342.03 625.589C2223.09 581.447 2099.71 542.421 1975.34 509.595C1970.07 508.221 1964.8 506.837 1959.5 505.45C1905.64 491.332 1849.94 476.734 1791.14 467.659C1734.1 458.903 1677.08 456.849 1628.82 455.997C1495.6 453.507 1390.14 472.602 1296.94 516.085C1201.27 560.812 1130.2 621.987 1073.09 671.144C1069.67 674.094 1066.25 677.048 1062.82 680.005C1060.29 682.187 1057.76 684.371 1055.23 686.552C1022.72 714.564 993.104 739.69 959.931 763.534C922.034 790.773 884.94 812.114 846.521 828.78C810.517 844.399 771.428 855.651 734.498 861.158C727.769 862.161 721.119 862.973 714.563 863.586C690.629 865.826 668.188 865.44 647.863 862.437C625.686 859.161 605.986 852.748 589.303 843.377C587.812 842.536 586.321 841.66 584.873 840.77C559.181 825.006 542.86 804.581 527.079 784.829C523.68 780.574 520.163 776.173 516.629 771.92C496.51 747.651 474.177 727.175 448.359 709.318C445.146 707.097 441.829 704.887 438.502 702.745C377.687 663.634 296.722 635.099 204.361 620.225C96.5762 602.941 -15.5467 604.318 -111.357 624.098C-176.847 637.693 -241.732 669.647 -269.149 701.802C-287.826 723.709 -289.108 745.182 -272.864 763.901L-273.203 764.025C-281.708 754.224 -285.491 743.71 -284.447 732.776C-283.486 722.708 -278.448 712.267 -269.475 701.739C-255.4 685.229 -231.981 668.857 -201.749 654.394C-173.789 641.018 -141.71 630.186 -111.417 623.898C-61.1899 613.527 -6.74166 608.187 50.4152 608.023C102.119 607.876 153.972 611.91 204.525 620.015C296.943 634.898 377.951 663.449 438.802 702.585C442.134 704.728 445.451 706.94 448.664 709.161C474.498 727.028 496.84 747.516 516.972 771.795C520.506 776.051 524.023 780.449 527.422 784.706C543.194 804.447 559.506 824.859 585.166 840.605C586.613 841.492 588.101 842.367 589.587 843.206C661.345 883.517 772.747 860.539 846.34 828.615C934.143 790.525 998.315 735.238 1054.94 686.457C1057.47 684.273 1060 682.091 1062.53 679.909C1065.95 676.953 1069.37 673.999 1072.8 671.049C1105.4 642.99 1137.63 615.641 1173.52 589.516C1214.79 559.472 1255.1 535.402 1296.74 515.929C1322.66 503.838 1350.13 493.464 1378.39 485.098C1404.81 477.277 1432.8 470.949 1461.6 466.286C1512.38 458.064 1567.11 454.628 1628.91 455.781C1677.18 456.636 1734.23 458.69 1791.3 467.452C1850.13 476.53 1905.84 491.132 1959.71 505.253C1965 506.64 1970.28 508.023 1975.55 509.397C2099.93 542.226 2223.32 581.256 2342.28 625.403L2342.03 625.589Z" fill="#183F30"/>
<path d="M2338.49 621.073C2218.68 575.607 2097.01 535.722 1976.87 502.532C1969.68 500.546 1962.32 498.491 1955.21 496.505C1904.25 482.28 1851.57 467.571 1795.22 459.129C1738.95 450.758 1681.66 450.526 1633.02 451.405C1503.55 453.582 1399.83 475.23 1306.6 519.53C1217.69 561.889 1150.43 615.616 1085.38 667.573L1078.24 673.277C1072.6 677.783 1066.77 682.441 1061.01 687.015C995.866 738.744 930.344 787.897 845.235 820.781C824.582 828.761 803.19 835.353 781.645 840.382C758.509 845.779 735.824 849.211 714.217 850.58C690.75 852.067 668.743 851.095 648.809 847.69C627.115 843.986 607.762 837.371 591.292 828.031C589.807 827.185 588.326 826.306 586.888 825.419C561.48 809.756 544.682 789.757 528.438 770.417C524.813 766.101 521.062 761.638 517.299 757.322C496.374 733.281 473.554 713.094 447.531 695.608C444.279 693.423 440.918 691.244 437.542 689.134C375.956 650.631 294.418 622.801 201.739 608.653C93.2661 592.187 -19.0887 594.433 -114.637 614.982C-179.461 629.014 -243.994 661.134 -271.563 693.092C-290.562 715.112 -292.545 736.771 -277.3 755.729L-277.643 755.85C-285.621 745.931 -288.965 735.314 -287.584 724.298C-286.309 714.141 -281.03 703.621 -271.893 693.032C-257.658 676.534 -234.342 660.167 -204.458 645.698C-176.801 632.306 -144.925 621.329 -114.704 614.786C-64.5865 604.007 -10.1282 598.236 47.1673 597.632C98.9615 597.086 151.017 600.724 201.892 608.447C294.624 622.602 376.209 650.45 437.832 688.975C441.207 691.087 444.572 693.267 447.825 695.452C473.864 712.946 496.696 733.144 517.63 757.199C521.394 761.515 525.145 765.98 528.77 770.295C545.005 789.625 561.794 809.614 587.174 825.259C588.607 826.142 590.088 827.019 591.569 827.865C661.7 867.635 768.503 850.196 845.069 820.612C930.11 787.756 995.603 738.622 1060.72 686.915C1066.48 682.341 1072.31 677.684 1077.95 673.177L1085.09 667.473C1117.03 641.97 1150.04 615.597 1186.28 590.234C1227.32 561.509 1266.61 538.332 1306.4 519.376C1332.02 507.201 1359.04 496.558 1386.72 487.745C1412.75 479.458 1440.22 472.511 1468.38 467.096C1518.76 457.408 1572.63 452.207 1633.08 451.19C1681.74 450.312 1739.06 450.542 1795.37 458.921C1851.75 467.365 1904.45 482.079 1955.42 496.308C1962.53 498.294 1969.89 500.347 1977.08 502.334C2097.23 535.527 2218.91 575.414 2338.73 620.886L2338.49 621.073Z" fill="#183F30"/>
<path d="M2334.95 616.548C2215.97 570.374 2096.01 529.629 1978.4 495.447C1969.56 492.879 1960.5 490.189 1951.73 487.589C1903.4 473.256 1853.42 458.435 1799.29 450.574C1743.3 442.507 1685.95 444.131 1637.23 446.785C1511.87 453.432 1409.88 477.63 1316.29 522.935C1234.63 562.586 1169.46 611.14 1106.44 658.095C1099.81 663.036 1092.95 668.145 1086.26 673.101C1078.41 678.921 1072.41 683.348 1066.81 687.452C1036.81 709.422 1001 734.91 962.927 757.363C922.577 781.155 883.659 799.282 843.945 812.782C823.062 819.88 801.664 825.6 780.34 829.781C757.445 834.271 735.074 836.893 713.854 837.571C690.863 838.306 669.294 836.747 649.738 832.94C628.532 828.811 609.532 821.992 593.263 812.677C591.796 811.832 590.321 810.952 588.886 810.062C563.783 794.51 546.529 774.946 529.84 756.026C525.969 751.638 521.967 747.102 517.953 742.714C496.213 718.895 472.903 698.999 446.689 681.887C443.392 679.736 439.988 677.592 436.568 675.514C374.213 637.619 292.1 610.495 199.109 597.07C89.9576 581.42 -22.6266 584.54 -117.907 605.853C-172.112 618.065 -241.377 647.065 -273.926 684.319C-293.278 706.469 -295.979 728.334 -281.731 747.549L-282.075 747.664C-289.526 737.617 -292.425 726.888 -290.694 715.776C-289.095 705.519 -283.565 694.915 -274.25 684.254C-259.853 667.777 -236.641 651.425 -207.115 636.96C-179.761 623.56 -148.106 612.443 -117.976 605.655C-67.9682 594.468 -13.497 588.266 43.9285 587.222C95.8081 586.279 148.07 589.521 199.262 596.862C292.306 610.293 374.465 637.433 436.857 675.35C440.277 677.429 443.686 679.576 446.982 681.729C473.209 698.85 496.531 718.756 518.284 742.586C522.302 746.975 526.303 751.512 530.174 755.9C546.852 774.811 564.101 794.363 589.175 809.898C590.61 810.787 592.081 811.665 593.548 812.508C651.978 845.969 745.535 846.003 843.807 812.598C932.803 782.348 1002.64 734.13 1066.54 687.337C1072.14 683.233 1078.14 678.807 1085.99 672.987C1092.67 668.031 1099.53 662.923 1106.16 657.981C1137.19 634.865 1169.27 610.963 1203.78 587.906C1242.8 561.832 1279.54 540.528 1316.1 522.778C1341.44 510.511 1368.01 499.6 1395.09 490.349C1420.74 481.586 1447.69 474.023 1475.19 467.867C1525.27 456.662 1578.29 449.695 1637.27 446.567C1686.02 443.913 1743.41 442.285 1799.44 450.36C1853.61 458.226 1903.6 473.051 1951.94 487.388C1960.71 489.989 1969.78 492.678 1978.62 495.247C2096.24 529.434 2216.21 570.181 2335.19 616.357L2334.95 616.548Z" fill="#183F30"/>
<path d="M2331.4 612.026C2213.26 565.137 2095.01 523.524 1979.93 488.35C1970.13 485.358 1960.07 482.185 1950.33 479.119C1903.95 464.509 1856 449.402 1803.35 441.996C1747.35 434.187 1690.08 437.687 1641.44 442.141C1522.27 452.862 1419.08 480.393 1326 526.302C1251.9 562.971 1189.8 606.394 1129.74 648.388C1117.61 656.871 1105.07 665.642 1092.86 674.041C1085.39 679.182 1078.77 683.705 1072.61 687.869C1043.97 707.221 1005.78 732.256 964.413 754.26C922.846 776.368 883.012 792.895 842.637 804.782C798.601 817.747 753.929 824.587 713.455 824.563C690.951 824.548 669.815 822.405 650.633 818.19C629.922 813.639 611.275 806.618 595.205 797.325C593.748 796.478 592.283 795.596 590.854 794.706C566.078 779.277 548.39 760.161 531.287 741.676C527.149 737.204 522.873 732.581 518.582 728.109C496.01 704.51 472.212 684.903 445.827 668.17C442.487 666.052 439.038 663.941 435.575 661.896C372.452 624.609 289.771 598.187 196.471 585.492C86.6429 570.658 -26.1688 574.65 -121.185 596.727C-185.565 611.799 -247.879 643.455 -276.242 675.496C-295.98 697.792 -299.412 719.882 -286.166 739.377L-286.514 739.487C-293.437 729.3 -295.887 718.448 -293.798 707.233C-291.869 696.868 -286.07 686.167 -276.566 675.429C-262.006 658.981 -238.901 642.652 -209.747 628.206C-182.705 614.807 -151.279 603.555 -121.261 596.528C-71.3646 584.934 -16.8813 578.303 40.6768 576.817C92.6444 575.476 145.112 578.322 196.619 585.28C289.973 597.984 372.7 624.42 435.864 661.73C439.327 663.775 442.775 665.888 446.12 668.008C472.517 684.751 496.328 704.367 518.912 727.977C523.203 732.448 527.48 737.074 531.617 741.546C548.711 760.022 566.391 779.129 591.143 794.542C592.571 795.432 594.032 796.31 595.489 797.158C653.002 830.424 745.35 833.204 842.524 804.595C931.113 778.512 1005.34 733.022 1072.35 687.751C1078.51 683.587 1085.13 679.066 1092.6 673.926C1104.8 665.527 1117.35 656.757 1129.47 648.276C1189.54 606.272 1251.65 562.839 1325.79 526.155C1350.88 513.782 1377.01 502.605 1403.46 492.93C1428.76 483.679 1455.19 475.5 1482.01 468.621C1531.88 455.828 1584.04 447.099 1641.45 441.933C1690.12 437.477 1747.44 433.971 1803.5 441.791C1856.18 449.201 1904.16 464.313 1950.55 478.929C1960.29 481.996 1970.36 485.167 1980.15 488.158C2095.24 523.336 2213.51 564.95 2331.65 611.843L2331.4 612.026Z" fill="#183F30"/>
<path d="M2327.86 607.495C2210.58 559.879 2094.03 517.398 1981.46 481.231C1971.12 477.906 1960.46 474.342 1950.15 470.895C1905.34 455.909 1859 440.411 1807.43 433.391C1751.2 425.812 1694.1 431.198 1645.67 437.468C1531.49 452.048 1430.11 482.194 1335.74 529.629C1269.57 563.002 1211.6 601.295 1155.53 638.326C1136.26 651.059 1118.05 663.087 1099.49 674.95C1091.94 679.778 1085.05 684.131 1078.44 688.256C1035.77 714.852 1000.02 734.833 965.915 751.135C923.131 771.587 882.383 786.516 841.34 796.771C825.418 800.749 809.464 803.959 793.712 806.37C765.789 810.644 738.487 812.416 713.054 811.54C667.027 809.955 628.03 800.001 597.145 781.953C595.69 781.096 594.235 780.214 592.821 779.327C568.393 764.037 550.307 745.387 532.817 727.348C528.384 722.778 523.806 718.054 519.211 713.482C495.794 690.098 471.506 670.784 444.97 654.431C441.586 652.346 438.094 650.269 434.587 648.257C370.699 611.578 287.448 585.861 193.839 573.889C83.3377 559.876 -29.6962 564.736 -124.446 587.577C-189.023 603.264 -249.488 634.279 -278.482 666.591C-298.637 689.051 -302.82 711.388 -290.585 731.188L-290.937 731.295C-297.325 720.955 -299.321 709.968 -296.865 698.639C-294.591 688.152 -288.516 677.349 -278.802 666.524C-264.078 650.114 -241.089 633.822 -212.316 619.405C-185.59 606.013 -154.412 594.641 -124.526 587.381C-74.7413 575.379 -20.247 568.317 37.4392 566.392C89.4942 564.655 142.162 567.107 193.987 573.677C287.649 585.658 370.947 611.388 434.875 648.089C438.382 650.103 441.874 652.18 445.262 654.266C471.814 670.627 496.115 689.952 519.541 713.345C524.135 717.917 528.718 722.643 533.147 727.214C550.628 745.243 568.705 763.886 593.113 779.163C594.527 780.047 595.978 780.93 597.433 781.784C655.106 815.49 743.975 820.881 841.253 796.574C933.855 773.435 1012.99 728.769 1078.19 688.125C1084.8 684.001 1091.68 679.65 1099.23 674.822C1117.79 662.96 1136 650.934 1155.28 638.201C1211.35 601.163 1269.33 562.864 1335.53 529.478C1360.39 516.981 1386.08 505.537 1411.87 495.46C1436.85 485.702 1462.76 476.907 1488.86 469.324C1538.63 454.863 1589.93 444.373 1645.66 437.257C1694.13 430.981 1751.28 425.591 1807.57 433.179C1859.19 440.203 1905.54 455.709 1950.38 470.7C1960.68 474.148 1971.34 477.712 1981.68 481.035C2094.26 517.205 2210.81 559.691 2328.1 607.31L2327.86 607.495Z" fill="#183F30"/>
<path d="M2324.32 602.969C2206.25 553.936 2094.6 511.783 1982.99 474.1C1972.34 470.505 1961.84 466.776 1950.71 462.83C1907.22 447.4 1862.26 431.446 1811.5 424.77C1754.58 417.358 1695.24 425.154 1649.9 432.775C1541.42 450.811 1441.84 483.572 1345.49 532.927C1287.7 562.638 1235.02 595.74 1184.07 627.755C1157.3 644.581 1132.01 660.47 1106.12 675.842C1098.43 680.408 1091.29 684.59 1084.28 688.627C1040.81 713.624 1003.68 732.489 967.414 748.001C923.397 766.829 881.731 780.162 840.034 788.762C818.609 793.181 797.175 796.273 776.327 797.953C754.254 799.731 732.824 799.92 712.635 798.517C667.886 795.405 629.678 784.661 599.069 766.579C597.623 765.72 596.178 764.836 594.771 763.95C570.724 748.821 552.278 730.652 534.438 713.082C529.679 708.395 524.757 703.547 519.828 698.856C495.547 675.687 470.776 656.662 444.098 640.694C440.667 638.643 437.131 636.599 433.588 634.62C368.937 598.548 285.123 573.536 191.208 562.288C104.536 552.002 16.5795 553.22 -62.7413 565.441C-85.1655 568.896 -106.883 573.227 -127.706 578.429C-191.435 594.468 -251.47 625.556 -280.659 657.63C-301.261 680.27 -306.222 702.878 -295.007 723.009L-295.363 723.11C-301.217 712.606 -302.748 701.472 -299.915 690.018C-297.29 679.401 -290.919 668.48 -280.983 657.562C-266.093 641.199 -243.226 624.955 -214.848 610.58C-188.061 597.01 -157.957 585.825 -127.797 578.236C-78.1244 565.827 -23.6197 558.336 34.197 555.969C86.3343 553.832 139.209 555.886 191.347 562.075C285.316 573.33 369.181 598.355 433.872 634.448C437.419 636.427 440.958 638.472 444.39 640.525C471.08 656.502 495.863 675.535 520.157 698.715C525.086 703.406 530.011 708.253 534.771 712.943C552.603 730.505 571.04 748.667 595.067 763.785C596.474 764.669 597.919 765.553 599.36 766.41C656.6 800.221 744.298 808.292 839.979 788.558C936.798 768.588 1021.27 724.587 1084.05 688.485C1091.06 684.448 1098.2 680.267 1105.89 675.703C1131.77 660.336 1157.06 644.445 1183.83 627.622C1234.79 595.604 1287.47 562.494 1345.29 532.773C1394.89 507.363 1444.1 486.833 1495.73 470.006C1545.51 453.779 1595.94 441.531 1649.87 432.565C1680.64 427.393 1705.87 424.255 1729.27 422.686C1759.49 420.66 1786.44 421.271 1811.65 424.554C1862.46 431.237 1907.44 447.199 1950.95 462.636C1962.08 466.584 1972.59 470.31 1983.23 473.906C2094.84 511.59 2206.5 553.747 2324.57 602.783L2324.32 602.969Z" fill="#183F30"/>
<path d="M2320.77 598.43C2203.58 548.64 2093.59 505.632 1984.51 466.941C1973.72 463.113 1963.06 459.1 1951.76 454.852C1909.44 438.934 1865.68 422.472 1815.56 416.111C1758.19 408.902 1699.15 418.701 1654.13 428.042C1552.23 448.999 1454.47 484.37 1355.26 536.172C1306.39 561.781 1260.28 589.566 1215.68 616.438C1180.42 637.679 1147.12 657.743 1112.76 676.69C1105 680.975 1097.38 685.103 1090.12 688.957C1046.36 712.166 1006.71 730.444 968.91 744.834C923.646 762.064 881.06 773.808 838.717 780.732C817.173 784.255 795.719 786.471 774.963 787.313C753.205 788.196 732.087 787.575 712.196 785.466C668.779 780.862 631.355 769.327 600.966 751.178C599.538 750.32 598.1 749.434 596.694 748.542C573.071 733.6 554.314 715.941 536.174 698.864C531.042 694.032 525.733 689.035 520.42 684.199C495.261 661.241 470.005 642.509 443.209 626.928C439.735 624.91 436.156 622.899 432.57 620.953C367.158 585.49 282.778 561.182 188.558 550.657C76.7195 538.285 -36.7635 544.89 -130.978 569.254C-193.813 585.617 -253.399 616.754 -282.779 648.574C-303.866 671.415 -309.626 694.317 -299.442 714.81L-299.799 714.906C-305.109 704.224 -306.17 692.929 -302.946 681.336C-299.952 670.574 -293.278 659.528 -283.1 648.504C-268.049 632.202 -245.31 616.017 -217.34 601.697C-190.885 588.154 -161.054 576.869 -131.069 569.06C-81.5063 556.245 -26.9961 548.321 30.9466 545.514C83.1698 542.984 136.243 544.643 188.694 550.445C282.97 560.973 367.398 585.297 432.846 620.782C436.436 622.727 440.019 624.739 443.493 626.76C470.305 642.348 495.57 661.09 520.741 684.057C526.057 688.892 531.363 693.89 536.499 698.723C554.631 715.793 573.379 733.445 596.986 748.377C598.391 749.266 599.83 750.152 601.253 751.009C659.187 785.605 743.509 796.091 838.684 780.523C915.911 767.894 995.735 738.75 1089.9 688.808C1097.15 684.955 1104.77 680.829 1112.53 676.544C1146.88 657.601 1180.18 637.541 1215.43 616.301C1260.04 589.426 1306.16 561.636 1355.04 536.021C1405.06 509.902 1453.33 488.519 1502.59 470.645C1552.49 452.538 1602.04 438.534 1654.07 427.835C1699.14 418.482 1758.25 408.674 1815.7 415.894C1865.88 422.264 1909.66 438.733 1952 454.658C1963.3 458.907 1973.96 462.918 1984.75 466.745C2093.83 505.437 2203.82 548.448 2321.02 598.242L2320.77 598.43Z" fill="#183F30"/>
<path d="M2317.22 593.894C2200.92 543.34 2092.59 499.467 1986.05 459.771C1975.23 455.741 1964.52 451.472 1953.17 446.951C1911.91 430.507 1869.24 413.504 1819.63 407.433C1761.73 400.422 1703.04 412.225 1658.38 423.29C1562.96 446.76 1469.76 483.651 1365.06 539.39C1325.8 560.361 1287.65 582.598 1250.75 604.103C1205.93 630.221 1163.61 654.893 1119.42 677.522C1111.46 681.602 1103.57 685.556 1095.98 689.272C1051.23 711.145 1010.16 728.281 970.418 741.658C948.155 749.151 926.052 755.512 904.721 760.565C881.968 765.954 859.319 770.038 837.404 772.706C792.94 778.116 750.664 778.018 711.757 772.414C669.736 766.361 633.099 754.034 602.864 735.77C601.442 734.904 600.013 734.016 598.615 733.131C575.469 718.41 556.464 701.296 538.089 684.746C532.525 679.736 526.774 674.555 521.013 669.54C494.954 646.789 469.213 628.348 442.321 613.159C438.803 611.172 435.177 609.196 431.551 607.284C365.38 572.427 280.44 548.824 185.918 539.026C73.4168 527.476 -40.2825 534.953 -134.235 560.076C-234.813 587.147 -328.263 650.868 -303.859 706.611L-304.221 706.702C-310.326 692.757 -309.552 677.961 -301.925 662.719C-294.959 648.799 -282.452 634.77 -264.751 621.025C-248.293 608.244 -228.136 596.281 -204.846 585.469C-182.694 575.185 -158.311 566.337 -134.334 559.883C-84.8847 546.661 -30.3657 538.309 27.7059 535.062C80.0139 532.136 133.288 533.398 186.051 538.816C280.626 548.622 365.617 572.239 431.828 607.115C435.457 609.028 439.083 611.004 442.605 612.993C469.51 628.188 495.263 646.64 521.335 669.399C527.095 674.414 532.846 679.595 538.41 684.607C556.781 701.151 575.778 718.259 598.912 732.971C600.306 733.857 601.731 734.745 603.152 735.61C661.264 770.708 744.455 783.807 837.401 772.498C916.087 762.92 1000.6 735.65 1095.77 689.123C1103.37 685.408 1111.25 681.455 1119.21 677.376C1163.39 654.752 1205.71 630.084 1250.51 603.969C1287.41 582.462 1325.57 560.222 1364.84 539.248C1469.58 483.486 1562.83 446.579 1658.29 423.095C1688.3 415.659 1713.32 410.875 1737.02 408.04C1767.33 404.415 1794.39 404.148 1819.77 407.222C1869.44 413.299 1912.13 430.313 1953.42 446.766C1964.76 451.284 1975.47 455.554 1986.28 459.583C2092.83 499.282 2201.17 543.156 2317.48 593.713L2317.22 593.894Z" fill="#183F30"/>
<path d="M2313.68 589.354C2198.27 538.021 2091.6 493.283 1987.58 452.581C1976.82 448.369 1966.14 443.865 1954.83 439.093C1914.55 422.097 1872.89 404.52 1823.7 398.729C1764.56 391.834 1703.45 406.716 1662.63 418.509C1551.81 450.342 1454.98 499.086 1374.88 542.572C1346.09 558.246 1317.47 574.556 1289.78 590.329C1234.23 621.971 1181.77 651.857 1126.1 678.327C1117.92 682.221 1109.76 686.001 1101.86 689.564C1056.05 710.188 1013.55 726.185 971.943 738.464C924.773 752.385 879.07 761.202 836.096 764.67C791.948 768.231 749.963 766.441 711.313 759.346C670.774 751.907 634.923 738.786 604.748 720.349C603.341 719.482 601.918 718.592 600.527 717.703C577.929 703.254 558.769 686.733 540.237 670.754C534.166 665.518 527.885 660.105 521.6 654.864C494.248 632.003 468.773 614.373 441.432 599.375C437.87 597.421 434.205 595.479 430.533 593.6C363.598 559.354 278.096 536.455 183.273 527.379C70.1108 516.653 -43.8069 525 -137.493 550.882C-238.319 578.899 -329.768 641.738 -308.278 698.405L-308.64 698.489C-313.971 684.43 -312.68 669.564 -304.806 654.306C-297.587 640.326 -285.012 626.26 -267.423 612.5C-251.022 599.668 -230.993 587.639 -207.892 576.742C-185.897 566.365 -161.585 557.357 -137.592 550.689C-88.2532 537.059 -33.73 528.279 24.4657 524.59C76.8577 521.268 130.333 522.136 183.405 527.166C278.285 536.246 363.833 559.159 430.801 593.427C434.474 595.309 438.143 597.252 441.708 599.205C469.065 614.209 494.549 631.851 521.913 654.72C528.199 659.961 534.48 665.376 540.551 670.612C559.078 686.585 578.233 703.101 600.816 717.544C602.207 718.433 603.625 719.322 605.033 720.189C663.69 756.028 745.756 771.75 836.115 764.458C917.156 757.92 1004.02 733.368 1101.67 689.404C1109.57 685.844 1117.73 682.066 1125.91 678.173C1181.56 651.71 1234.01 621.829 1289.55 590.191C1317.23 574.417 1345.86 558.105 1374.65 542.428C1428.52 513.188 1473.56 490.761 1516.39 471.851C1566.82 449.59 1614.61 432.081 1662.52 418.32C1691.71 409.886 1717.36 404.115 1740.91 400.679C1771.24 396.256 1798.37 395.547 1823.84 398.517C1873.1 404.316 1914.78 421.903 1955.08 438.91C1966.39 443.68 1977.07 448.185 1987.82 452.393C2091.85 493.096 2198.52 537.838 2313.94 589.172L2313.68 589.354Z" fill="#183F30"/>
<path d="M2310.15 584.805C2195.64 532.685 2090.63 487.075 1989.12 445.365C1978.48 440.992 1967.89 436.267 1956.69 431.264C1917.32 413.691 1876.62 395.519 1827.77 389.993C1768.01 383.294 1707.34 400.312 1666.9 413.697C1567 446.609 1480 492.957 1384.72 545.711C1367.54 555.25 1350.18 565.037 1333.39 574.504C1268.81 610.912 1202.04 648.556 1132.8 679.099C1124.39 682.812 1115.96 686.421 1107.75 689.824C1061.44 709.002 1016.27 724.283 973.471 735.245C924.991 747.664 878.332 754.853 834.779 756.62C791.031 758.394 749.338 754.908 710.853 746.261C671.909 737.509 636.836 723.596 606.612 704.908C605.214 704.038 603.802 703.146 602.417 702.257C580.474 688.146 561.271 672.284 542.701 656.945C536.01 651.417 529.092 645.703 522.167 640.173C493.859 617.515 467.916 600.166 440.524 585.576C436.928 583.66 433.215 581.75 429.496 579.901C361.816 546.255 275.762 524.06 180.633 515.71C66.8156 505.809 -47.3149 515.027 -140.741 541.667C-238.256 569.611 -331.659 631.157 -312.691 690.181L-313.054 690.26C-317.61 676.082 -315.802 661.148 -307.682 645.873C-300.214 631.829 -287.567 617.727 -270.093 603.954C-237.854 578.545 -190.746 555.773 -140.847 541.476C-91.6233 527.441 -37.0929 518.23 21.2295 514.099C73.705 510.383 127.375 510.853 180.757 515.496C275.94 523.851 362.044 546.061 429.767 579.721C433.491 581.572 437.203 583.482 440.803 585.399C468.208 599.998 494.163 617.353 522.48 640.02C529.405 645.553 536.326 651.266 543.018 656.794C561.583 672.129 580.782 687.988 602.712 702.093C604.094 702.982 605.505 703.872 606.903 704.742C667.372 742.131 746.187 759.996 834.824 756.404C916.9 753.078 1008.66 730.622 1107.57 689.659C1115.78 686.256 1124.2 682.65 1132.61 678.94C1201.82 648.408 1268.59 610.768 1333.15 574.368C1349.94 564.9 1367.3 555.114 1384.48 545.574C1426.19 522.481 1474.76 495.879 1523.32 472.401C1574.11 447.844 1621.03 428.584 1666.76 413.519C1695.54 403.994 1721.07 397.376 1744.8 393.291C1774.74 388.137 1802.69 386.959 1827.9 389.786C1849.78 392.261 1872.15 397.581 1896.3 406.05C1917.61 413.527 1937.6 422.454 1956.94 431.085C1968.14 436.087 1978.72 440.811 1989.36 445.184C2090.87 486.895 2195.89 532.506 2310.41 584.627L2310.15 584.805Z" fill="#183F30"/>
<path d="M2306.6 580.265C2192.99 527.348 2089.64 480.861 1990.64 438.146C1980.16 433.624 1969.72 428.693 1958.67 423.474C1920.18 405.302 1880.38 386.512 1831.84 381.247C1786.48 376.364 1733.91 385.401 1671.15 408.874C1583.38 441.589 1506.7 485.151 1425.53 531.275C1415.42 537.018 1404.97 542.955 1394.56 548.832C1390.49 551.138 1386.41 553.447 1382.34 555.755C1304.98 599.582 1224.98 644.902 1139.49 679.859C1130.85 683.394 1122.15 686.831 1113.64 690.073C1066.14 708.144 1019.49 722.257 975.004 732.019C925.187 742.948 877.563 748.517 833.461 748.569C790.179 748.619 748.774 743.437 710.396 733.167C673.197 723.213 638.905 708.506 608.47 689.453C607.083 688.581 605.681 687.686 604.302 686.796C583.168 673.127 564.101 658.022 545.657 643.415C538.19 637.499 530.464 631.382 522.733 625.462C493.443 603.004 467.037 585.937 439.62 571.758C435.977 569.874 432.226 567.999 428.463 566.183C360.02 533.15 273.408 511.657 177.982 504.032C63.5153 494.958 -50.8339 505.046 -143.995 532.444C-239.61 560.672 -332.779 622.665 -317.108 681.956L-317.474 682.031C-321.253 667.73 -318.93 652.727 -310.563 637.438C-302.843 623.33 -290.127 609.187 -272.765 595.404C-240.698 569.945 -193.805 546.93 -144.105 532.257C-94.9926 517.814 -40.4596 508.173 17.9854 503.602C70.543 499.489 124.416 499.562 178.106 503.818C273.586 511.45 360.251 532.953 428.723 566.005C432.486 567.821 436.245 569.699 439.888 571.583C467.317 585.771 493.739 602.841 523.038 625.309C530.773 631.228 538.495 637.348 545.966 643.263C564.402 657.867 583.468 672.968 604.594 686.632C605.973 687.522 607.37 688.415 608.758 689.287C670.644 728.028 748.367 748.45 833.531 748.349C917.601 748.25 1011.79 728.583 1113.48 689.896C1121.99 686.655 1130.68 683.221 1139.32 679.688C1224.78 644.745 1304.76 599.433 1382.11 555.613C1386.18 553.303 1390.26 550.995 1394.33 548.69C1404.73 542.813 1415.18 536.876 1425.29 531.135C1506.49 485.002 1583.19 441.428 1670.99 408.698C1699.35 398.093 1724.77 390.631 1748.7 385.883C1778.64 379.941 1806.66 378.31 1831.97 381.034C1853.71 383.392 1875.83 388.771 1899.58 397.48C1920.53 405.164 1940.05 414.381 1958.93 423.295C1969.99 428.512 1980.42 433.441 1990.9 437.962C2089.9 480.678 2193.26 527.167 2306.87 580.086L2306.6 580.265Z" fill="#183F30"/>
<path d="M2303.06 575.72C2199.17 526.189 2094.57 477.464 1992.18 430.903C1981.76 426.2 1971.36 421.017 1960.36 415.532C1924.58 397.688 1884.03 377.464 1835.9 372.469C1790.03 367.733 1737.53 378.053 1675.41 404.018C1601.55 434.829 1537.54 472.989 1469.78 513.39C1448.56 526.041 1426.61 539.127 1404.42 551.911C1365.7 574.262 1323.77 598.066 1279.53 620.715C1232.14 644.973 1188.53 664.556 1146.19 680.589C1137.3 683.956 1128.33 687.222 1119.53 690.293C1070.85 707.277 1022.75 720.208 976.558 728.728C925.427 738.158 876.836 742.123 832.128 740.504C749.544 737.319 674.91 714.937 610.302 673.978C608.924 673.103 607.532 672.206 606.16 671.316C586.075 658.249 567.41 644.06 549.36 630.336C540.864 623.877 532.08 617.197 523.275 610.737C492.98 588.47 466.104 571.689 438.696 557.927C435.006 556.075 431.212 554.234 427.41 552.452C358.226 520.022 271.059 499.236 175.337 492.333C60.2192 484.085 -54.3393 495.047 -147.238 523.2C-243.325 552.399 -334.044 613.476 -321.518 673.717L-321.886 673.785C-324.886 659.355 -322.042 644.28 -313.435 628.978C-305.458 614.802 -292.673 600.621 -275.43 586.829C-259.185 573.835 -239.534 561.601 -217.025 550.466C-195.171 539.657 -171.732 530.42 -147.356 523.013C-98.356 508.164 -43.8173 498.092 14.7492 493.08C67.389 488.574 121.456 488.25 175.453 492.119C271.232 499.025 358.45 519.824 427.673 552.269C431.475 554.052 435.277 555.895 438.967 557.747C466.387 571.518 493.275 588.305 523.583 610.579C532.388 617.041 541.172 623.721 549.668 630.182C567.718 643.903 586.378 658.091 606.456 671.152C607.824 672.045 609.22 672.94 610.594 673.815C675.153 714.742 749.721 737.107 832.225 740.289C917.184 743.364 1016.49 726.014 1119.39 690.113C1128.19 687.044 1137.15 683.78 1146.04 680.415C1240.69 644.573 1325.47 597.213 1404.19 551.774C1426.38 538.99 1448.32 525.907 1469.54 513.256C1537.32 472.846 1601.33 434.677 1675.24 403.852C1737.46 377.847 1790.05 367.51 1836.03 372.257C1857.59 374.493 1879.39 379.919 1902.69 388.838C1923.23 396.704 1942.25 406.187 1960.64 415.356C1971.64 420.841 1982.02 426.022 1992.44 430.722C2094.84 477.285 2199.43 526.009 2303.33 575.543L2303.06 575.72Z" fill="#183F30"/>
<path d="M2299.52 571.175C2197.01 521.145 2094.12 471.508 1993.71 423.644C1983.58 418.833 1973.46 413.496 1962.74 407.847C1927.68 389.367 1887.95 368.42 1839.97 363.663C1793.56 359.078 1741.13 370.681 1679.68 399.133C1615.3 428.915 1557.32 465.66 1501.26 501.197C1473.15 519.016 1444.08 537.441 1414.3 554.956C1367.3 582.619 1327.56 604.348 1289.24 623.341C1241.98 646.76 1197.38 665.716 1152.91 681.29C1143.78 684.488 1134.54 687.582 1125.44 690.487C1078.04 705.618 1031.05 716.981 985.644 724.299C983.122 724.705 980.612 725.097 978.101 725.478C925.55 733.457 875.99 735.793 830.8 732.425C808.984 730.772 787.434 727.683 766.753 723.243C747.314 719.07 728.035 713.572 709.451 706.903C676.016 694.904 644.178 679.064 612.125 658.478C610.749 657.592 609.377 656.703 608.011 655.809C589.382 643.617 571.572 630.605 554.35 618.021C544.407 610.757 534.127 603.245 523.812 595.982C492.049 573.604 465.514 557.591 437.765 544.068C434.032 542.249 430.195 540.441 426.351 538.693C356.422 506.875 268.705 486.794 172.689 480.614C56.9254 473.192 -57.8448 485.027 -150.481 513.936C-244.658 543.366 -335.162 604.864 -325.925 665.46L-326.294 665.522C-330.596 637.297 -313.926 607.112 -278.087 578.233C-261.887 565.18 -242.364 552.88 -220.054 541.668C-198.346 530.76 -174.979 521.367 -150.599 513.748C-101.715 498.493 -47.1714 487.992 11.5157 482.538C64.2368 477.638 118.501 476.918 172.801 480.398C268.878 486.583 356.645 506.677 426.618 538.513C430.463 540.263 434.307 542.072 438.04 543.891C465.801 557.423 492.348 573.44 524.119 595.827C534.435 603.092 544.719 610.604 554.658 617.868C571.88 630.45 589.686 643.461 608.311 655.649C609.676 656.543 611.045 657.433 612.421 658.317C680.531 702.061 752.002 726.232 830.92 732.212C940.208 740.359 1051.34 713.92 1125.32 690.304C1134.41 687.401 1143.65 684.31 1152.77 681.112C1255.05 645.291 1346.14 594.804 1414.07 554.823C1443.84 537.313 1472.91 518.888 1501.02 501.072C1557.09 465.528 1615.08 428.774 1679.49 398.978C1706.99 386.246 1732.17 377.091 1756.48 370.992C1786.46 363.47 1814.59 360.933 1840.1 363.455C1861.59 365.584 1883.2 371.091 1906.18 380.287C1926.43 388.391 1945.03 398.194 1963.02 407.677C1973.73 413.325 1983.85 418.661 1993.98 423.468C2094.38 471.333 2197.27 520.969 2299.79 570.998L2299.52 571.175Z" fill="#183F30"/>
<path d="M2295.98 566.625L1995.24 416.366C1985.42 411.458 1975.59 405.98 1965.18 400.182C1930.84 381.045 1891.91 359.357 1844.03 354.834C1797.74 350.462 1743.88 363.715 1683.96 394.227C1626.36 423.559 1574.86 458.495 1525.05 492.282C1492.58 514.305 1459.01 537.077 1424.2 557.972C1319.58 620.776 1226.53 662.937 1131.37 690.659C1091.9 702.157 1052.65 711.087 1014.28 717.308C1002.65 719.194 991.105 720.83 979.654 722.214C925.655 728.744 875.125 729.458 829.475 724.336C787.166 719.588 747.744 709.592 708.969 693.774C678.004 681.144 647.81 664.996 613.948 642.957C596.075 631.326 578.642 619.057 561.783 607.192C523.626 580.343 484.173 552.58 436.845 530.189C364.251 495.847 271.991 474.644 170.038 468.871C53.6351 462.279 -61.3456 474.985 -153.718 504.648C-243.15 533.367 -336.564 593.35 -330.331 657.188L-330.701 657.243C-333.486 628.709 -316.21 598.408 -280.741 569.615C-248.671 543.581 -203.604 520.443 -153.839 504.463C-105.069 488.803 -50.5208 477.871 8.28264 471.975C61.084 466.68 115.544 465.565 170.15 468.657C220.598 471.514 269.012 478.191 314.052 488.503C359.467 498.902 400.872 512.866 437.108 530.008C484.455 552.406 523.921 580.176 562.086 607.031C578.945 618.894 596.378 631.161 614.246 642.79C663.651 674.949 732.781 713.253 829.617 724.119C940.671 736.581 1054.95 712.696 1131.26 690.465C1226.37 662.76 1319.38 620.616 1423.96 557.836C1458.76 536.95 1492.33 514.179 1524.79 492.16C1574.61 458.367 1626.12 423.422 1683.76 394.075C1743.78 363.511 1797.75 350.235 1844.17 354.619C1865.6 356.645 1887.04 362.238 1909.72 371.723C1929.68 380.072 1947.87 390.208 1965.46 400.009C1975.87 405.807 1985.7 411.282 1995.52 416.188L2296.25 566.447L2295.98 566.625Z" fill="#183F30"/>
<path d="M2291.1 561.358C2214.13 518.034 2148.39 483.391 2084.23 452.335C2053.08 437.246 2021.36 422.56 1989.95 408.684C1980.45 404.487 1970.98 399.922 1960.96 395.088C1935.78 382.938 1909.75 370.376 1880.6 362.589C1864.95 358.395 1850.08 355.966 1835.14 355.161C1789.27 352.598 1737.6 367.114 1681.56 398.307C1652.55 414.433 1626.46 431.703 1604.76 446.47C1581.78 462.104 1559.29 478.899 1537.53 495.142C1506.27 518.49 1473.93 542.631 1438.68 564.535C1417.23 577.892 1395.35 590.253 1373.63 601.276C1330.18 623.329 1283.09 643.266 1233.66 660.533C1203.11 671.137 1172.25 680.369 1141.92 687.969C1115.78 694.51 1089.47 700.041 1063.71 704.407C1025.16 710.944 987.307 714.919 951.203 716.218C912.816 717.598 876.127 715.957 842.159 711.338C811.869 707.22 782.924 700.596 753.671 691.087C699.164 673.389 654.56 650.044 621.791 631.682C605.687 622.609 589.903 613.257 574.637 604.213C530.68 578.165 489.161 553.563 438.55 533.78C397.29 517.79 350.963 505.668 300.844 497.748C262.33 491.661 220.832 488.247 177.507 487.597C167.187 487.445 156.69 487.44 146.317 487.587C101.656 488.228 51.7397 491.903 -2.04151 498.508C-56.2687 505.126 -102.798 514.012 -144.28 525.675C-167.734 532.247 -190.248 540.324 -211.206 549.681C-285.197 582.719 -330.038 625.77 -331.157 664.845L-331.621 664.894C-331.323 654.477 -328.021 643.747 -321.81 632.997C-315.909 622.786 -307.348 612.49 -296.367 602.394C-275.619 583.322 -246.25 565.024 -211.438 549.48C-190.447 540.107 -167.897 532.018 -144.407 525.436C-102.882 513.762 -56.3153 504.868 -2.04355 498.245C51.7672 491.636 101.71 487.961 146.4 487.319C156.785 487.173 167.286 487.177 177.613 487.33C220.972 487.978 262.504 491.396 301.049 497.489C351.203 505.414 397.569 517.547 438.849 533.548C489.491 553.343 531.019 577.952 574.992 604.006C590.254 613.051 606.038 622.401 622.138 631.472C654.89 649.826 699.474 673.159 753.95 690.846C783.172 700.345 812.086 706.963 842.341 711.076C908.821 720.115 983.283 717.786 1063.66 704.151C1089.4 699.788 1115.69 694.261 1141.81 687.725C1172.11 680.129 1202.96 670.904 1233.48 660.308C1282.88 643.052 1329.95 623.128 1373.37 601.088C1395.07 590.073 1416.94 577.719 1438.37 564.373C1473.6 542.481 1505.93 518.345 1537.18 495.005C1558.94 478.76 1581.44 461.959 1604.43 446.32C1626.14 431.545 1652.24 414.268 1681.27 398.13C1706.22 384.242 1730.71 373.513 1754.07 366.239C1782.76 357.304 1810.08 353.486 1835.27 354.894C1850.26 355.702 1865.17 358.137 1880.86 362.34C1910.05 370.139 1936.1 382.71 1961.3 394.867C1971.32 399.699 1980.78 404.265 1990.27 408.459C2021.7 422.335 2053.42 437.023 2084.57 452.116C2148.74 483.175 2214.48 517.822 2291.46 561.148L2291.1 561.358Z" fill="#183F30"/>
<path d="M2286.18 556.363C2214.46 510.866 2147.81 473.792 2082.41 443.027C2050.52 427.992 2017.67 413.867 1984.8 401.046C1976.07 397.645 1967.43 394.046 1958.29 390.237C1930.89 378.83 1902.56 367.035 1871.63 360.582C1856 357.299 1841.2 355.603 1826.37 355.399C1769.58 354.61 1715.01 380.509 1679.22 402.375C1653.87 417.833 1631 434.438 1607.87 451.508C1587.62 466.45 1568.76 482.085 1548.79 498.636C1519.14 523.203 1488.49 548.607 1453.1 571.39C1432.11 584.965 1409.99 597.299 1387.35 608.051C1345.19 628.081 1298.51 645.731 1244.66 662.014C1214.52 671.124 1183.49 679.054 1152.44 685.577C1126.23 691.064 1099.96 695.569 1074.35 698.963C1036.24 704.02 998.722 706.619 962.823 706.69C925.121 706.764 888.821 704.045 854.935 698.607C825.247 693.844 796.289 686.749 766.406 676.919C712.139 659.101 664.899 637.403 629.811 620.489C616.822 614.227 604.02 607.888 591.636 601.754C542.319 577.33 495.739 554.257 440.401 537.243C399.043 524.526 353.214 515.407 304.194 510.14C267.103 506.155 228.132 504.852 185.058 506.155C175.117 506.458 165.02 506.902 155.05 507.474C111.263 510.008 64.8519 515.459 8.73076 522.318C-31.7303 527.205 -84.6066 534.371 -134.789 546.516C-158.561 552.227 -181.35 559.363 -202.532 567.721C-277.105 597.155 -325.458 636.244 -331.879 672.289L-332.432 672.32C-330.731 662.762 -326.166 652.951 -318.874 643.16C-311.924 633.831 -302.452 624.463 -290.728 615.311C-268.445 597.925 -238.033 581.379 -202.779 567.466C-181.559 559.091 -158.726 551.943 -134.914 546.221C-84.6839 534.063 -31.7668 526.893 8.7201 522.001C64.8597 515.14 111.286 509.687 155.102 507.15C165.08 506.579 175.184 506.134 185.136 505.829C228.252 504.526 267.261 505.83 304.393 509.82C353.463 515.092 399.33 524.217 440.73 536.947C496.108 553.975 542.708 577.052 592.04 601.487C604.421 607.619 617.223 613.959 630.212 620.218C665.292 637.125 712.511 658.815 766.747 676.625C796.595 686.446 825.522 693.533 855.176 698.291C921.807 708.982 995.544 709.101 1074.33 698.646C1099.92 695.253 1126.16 690.754 1152.34 685.271C1183.37 678.754 1214.37 670.833 1244.48 661.729C1298.29 645.461 1344.93 627.825 1387.06 607.813C1409.67 597.074 1431.76 584.757 1452.73 571.196C1488.08 548.433 1518.72 523.04 1548.36 498.484C1568.33 481.926 1587.2 466.288 1607.46 451.338C1630.6 434.258 1653.48 417.647 1678.86 402.172C1702.06 387.997 1725.27 376.818 1747.84 368.942C1775.21 359.393 1801.68 354.726 1826.5 355.07C1841.38 355.278 1856.23 356.978 1871.9 360.27C1902.9 366.737 1931.25 378.543 1958.67 389.958C1967.81 393.766 1976.45 397.363 1985.17 400.763C2018.06 413.588 2050.91 427.718 2082.82 442.758C2148.23 473.532 2214.89 510.611 2286.62 556.119L2286.18 556.363Z" fill="#183F30"/>
<path d="M2281.22 551.525C2213.81 503.224 2148.23 464.69 2080.75 433.721C2048.11 418.707 2014.16 405.11 1979.83 393.303C1972.5 390.778 1964.93 388.067 1957.61 385.447C1927.4 374.619 1896.16 363.423 1862.84 358.363C1847.19 355.957 1832.45 354.992 1817.77 355.414C1761.43 357.033 1710.12 383.998 1676.99 406.332C1654.54 421.422 1634.29 437.774 1614.71 453.588L1611.04 456.549C1593.26 470.898 1576.79 486.198 1559.35 502.399C1531.57 528.196 1502.85 554.869 1467.47 578.502C1446.89 592.331 1424.53 604.647 1400.99 615.107C1359.96 633.345 1313.76 648.807 1255.6 663.763C1225.53 671.497 1194.36 678.12 1162.94 683.446C1136.68 687.873 1110.46 691.349 1085 693.772C1007.93 701.127 934.869 698.542 867.852 686.09C838.88 680.706 809.926 673.128 779.336 662.914C727.575 645.681 681.166 626.986 638.072 609.314C632.293 606.945 626.575 604.589 620.9 602.251C562.029 578.008 506.425 555.108 442.44 540.547C400.668 531.04 355.321 524.92 307.665 522.352C272.676 520.468 235.063 521.192 192.683 524.565C183.132 525.328 173.431 526.224 163.846 527.226C139.736 529.764 114.257 533.295 87.28 537.033C65.6122 540.036 43.2086 543.141 19.5224 546.016C-26.234 551.48 -78.0917 557.675 -125.247 567.223C-149.578 572.151 -172.635 578.342 -193.781 585.625C-268.827 611.476 -320.674 646.593 -332.47 679.564L-333.106 679.556C-329.997 670.864 -324.176 661.981 -315.809 653.155C-307.807 644.716 -297.434 636.277 -284.977 628.073C-261.152 612.384 -229.702 597.598 -194.034 585.312C-172.841 578.011 -149.736 571.807 -125.358 566.871C-78.1542 557.313 -26.2704 551.117 19.5045 545.65C43.1757 542.775 65.5795 539.672 87.2399 536.671C114.228 532.93 139.714 529.399 163.847 526.859C173.439 525.858 183.152 524.961 192.71 524.196C235.142 520.818 272.8 520.094 307.838 521.981C355.551 524.551 400.947 530.68 442.766 540.197C506.808 554.771 562.439 577.681 621.335 601.936C627.009 604.273 632.73 606.627 638.506 608.998C681.593 626.667 727.986 645.359 779.732 662.585C810.29 672.786 839.214 680.359 868.15 685.735C935.079 698.172 1008.04 700.752 1085.02 693.408C1110.45 690.986 1136.64 687.514 1162.87 683.091C1194.26 677.77 1225.4 671.153 1255.44 663.429C1313.53 648.487 1359.68 633.044 1400.66 614.83C1424.15 604.392 1446.47 592.099 1467.01 578.294C1502.35 554.691 1531.05 528.033 1558.81 502.252C1576.26 486.044 1592.74 470.736 1610.54 456.376L1614.2 453.415C1633.79 437.593 1654.05 421.232 1676.53 406.125C1709.76 383.719 1761.26 356.67 1817.86 355.043C1832.61 354.62 1847.4 355.587 1863.11 358.004C1896.5 363.075 1927.77 374.282 1958.02 385.123C1965.33 387.744 1972.9 390.454 1980.23 392.977C2014.57 404.791 2048.54 418.396 2081.2 433.418C2148.71 464.399 2214.31 502.947 2281.74 551.264L2281.22 551.525Z" fill="#183F30"/>
<path d="M2276.32 546.355C2214.2 495.925 2147.92 454.738 2079.32 423.942C2045.96 408.922 2010.91 395.82 1975.14 384.999C1969.98 383.436 1964.68 381.804 1959.56 380.227C1925.73 369.806 1890.75 359.027 1854.31 355.516C1838.67 353.971 1823.98 353.74 1809.42 354.808C1753.55 358.911 1705.44 386.994 1674.92 409.832C1655.96 423.955 1639.1 439.075 1622.78 453.698C1619.96 456.229 1617.14 458.755 1614.32 461.273C1598.79 475.109 1584.5 490.143 1569.36 506.057C1543.63 533.114 1517.02 561.09 1481.83 585.612C1461.17 600.012 1439.18 611.979 1414.61 622.203C1363.21 643.587 1310.93 656.119 1266.58 665.56C1236.58 671.943 1205.27 677.261 1173.53 681.362C1147.24 684.727 1121.08 687.172 1095.78 688.629C1020.78 692.963 948.522 687.905 881.031 673.595C852.949 667.643 824.018 659.563 792.578 648.894C760.822 638.153 731.184 627.69 702.519 617.572C683.039 610.694 664.636 604.198 646.682 598.007C578.813 574.605 516.768 554.36 444.734 543.617C402.54 537.326 357.647 534.212 311.303 534.362C278.087 534.47 242.848 537.17 200.408 542.855C191.252 544.088 181.937 545.443 172.724 546.883C158.732 549.086 144.284 551.635 128.993 554.335C99.6474 559.515 66.381 565.387 30.3399 569.691C16.6151 571.329 2.60203 572.897 -10.9517 574.412C-45.8126 578.31 -81.8594 582.34 -115.638 587.903C-140.443 591.99 -163.76 597.238 -184.933 603.502C-260.309 625.804 -315.609 656.935 -332.867 686.777L-333.567 686.712C-329.049 678.897 -321.981 670.952 -312.56 663.096C-303.511 655.552 -292.243 648.048 -279.075 640.795C-253.699 626.82 -221.23 613.796 -185.174 603.128C-163.95 596.849 -140.582 591.587 -115.721 587.492C-81.9062 581.922 -45.8444 577.892 -10.9651 573.992C2.58497 572.477 16.5981 570.909 30.3192 569.272C66.327 564.972 99.5677 559.106 128.898 553.928C144.197 551.227 158.648 548.677 172.656 546.472C181.88 545.031 191.202 543.675 200.369 542.44C242.868 536.745 278.16 534.044 311.432 533.935C357.832 533.785 402.785 536.902 445.033 543.202C477.571 548.054 510.786 555.313 546.574 565.393C578.613 574.416 609.946 584.806 647.138 597.629C665.093 603.822 683.495 610.318 702.979 617.195C731.64 627.313 761.278 637.775 793.026 648.515C824.435 659.174 853.335 667.245 881.383 673.191C948.782 687.483 1020.93 692.533 1095.84 688.205C1121.11 686.75 1147.23 684.309 1173.49 680.947C1205.2 676.852 1236.47 671.54 1266.43 665.162C1310.73 655.735 1362.94 643.219 1414.25 621.873C1438.75 611.678 1460.68 599.741 1481.29 585.379C1516.42 560.899 1543.01 532.944 1568.72 505.91C1583.87 489.986 1598.17 474.945 1613.71 461.094C1616.53 458.575 1619.35 456.049 1622.17 453.521C1638.49 438.888 1655.37 423.758 1674.35 409.617C1694.21 394.759 1714.9 382.577 1735.84 373.411C1760.64 362.553 1785.41 356.154 1809.44 354.391C1824.08 353.316 1838.84 353.548 1854.55 355.099C1891.08 358.62 1926.11 369.412 1959.98 379.846C1965.1 381.423 1970.4 383.055 1975.56 384.616C2011.36 395.446 2046.43 408.561 2079.82 423.593C2116.24 439.946 2152.26 459.338 2186.87 481.231C2217.46 500.581 2247.76 522.398 2276.93 546.072L2276.32 546.355Z" fill="#183F30"/>
<path d="M2271.8 538.888C2214.07 485.696 2148.97 442.99 2078.3 411.957C2044.22 396.94 2008.06 384.347 1970.84 374.523C1969.07 374.055 1967.3 373.588 1965.52 373.118C1926.81 362.884 1886.79 352.301 1846.1 350.575C1830.34 349.906 1815.7 350.428 1801.35 352.166C1745.99 358.875 1701.05 388.164 1673.09 411.551C1656.64 425.247 1642.25 439.768 1628.35 453.811C1624.91 457.283 1621.35 460.874 1617.84 464.377C1604.45 477.723 1592.24 492.494 1579.31 508.133C1555.79 536.58 1531.47 565.994 1496.43 591.455C1476.17 606.185 1453.94 618.176 1428.47 628.114C1378.31 647.69 1326.45 658.018 1277.89 666.263C1247.95 671.347 1216.53 675.378 1184.52 678.246C1158.22 680.565 1132.15 681.998 1107.01 682.505C1034.35 683.99 962.939 676.511 894.76 660.273C867.456 653.772 839.374 645.454 806.391 634.096C743.713 612.59 697.279 597.75 655.835 585.978C573.405 562.567 511.063 550.65 447.387 546.131C404.757 543.106 360.279 543.063 315.181 546.003C283.892 548.043 250.923 552.657 208.284 560.97C199.547 562.68 190.616 564.511 181.737 566.415C173.351 568.224 164.841 570.149 155.828 572.185C122.554 579.708 84.8371 588.235 41.2329 593.435C18.2499 596.177 -5.28106 598.399 -28.0363 600.548C-53.8976 602.991 -80.6384 605.517 -105.91 608.762C-131.248 612.016 -154.809 616.337 -175.921 621.603C-251.438 640.437 -310.129 667.591 -332.918 694.237L-333.651 694.088C-327.733 687.165 -319.433 680.167 -308.983 673.287C-298.897 666.644 -286.758 660.079 -272.902 653.772C-245.987 641.517 -212.522 630.239 -176.128 621.163C-154.957 615.884 -131.344 611.553 -105.947 608.291C-80.6541 605.042 -53.8984 602.515 -28.0258 600.072C-5.27796 597.924 18.2419 595.703 41.2064 592.964C84.7328 587.773 122.409 579.255 155.647 571.742C164.663 569.702 173.181 567.779 181.571 565.967C190.461 564.061 199.399 562.229 208.143 560.517C250.848 552.193 283.873 547.569 315.229 545.526C360.39 542.582 404.932 542.625 447.622 545.655C511.385 550.179 573.791 562.108 656.294 585.54C697.754 597.316 744.204 612.16 806.897 633.672C839.857 645.021 867.908 653.33 895.181 659.825C963.268 676.039 1034.58 683.509 1107.13 682.026C1132.23 681.519 1158.27 680.086 1184.53 677.772C1216.51 674.906 1247.88 670.881 1277.79 665.804C1326.28 657.571 1378.05 647.264 1428.1 627.732C1453.47 617.832 1475.62 605.882 1495.81 591.204C1530.77 565.798 1555.07 536.414 1578.56 507.998C1591.5 492.349 1603.72 477.567 1617.13 464.201C1620.64 460.7 1624.2 457.11 1627.64 453.637C1641.55 439.583 1655.95 425.052 1672.43 411.333C1690.67 396.07 1710.11 383.325 1730.2 373.451C1753.74 361.885 1777.67 354.568 1801.32 351.7C1815.75 349.951 1830.47 349.428 1846.31 350.099C1887.12 351.832 1927.21 362.428 1965.97 372.679C1967.75 373.148 1969.52 373.618 1971.29 374.084C2008.55 383.919 2044.75 396.528 2078.87 411.56C2149.6 442.622 2214.75 485.361 2272.52 538.59L2271.8 538.888Z" fill="#183F30"/>
<path d="M1296.45 662.761C1294.37 663.037 1292.33 663.308 1290.31 663.57C1260.42 667.489 1228.9 670.361 1196.66 672.102C1170.37 673.482 1144.38 674.012 1119.4 673.683C1083.72 673.222 1047.69 670.522 1012.32 665.661C978.156 660.966 943.551 654.11 909.458 645.28C876.053 636.63 844.629 626.218 820.983 618.113C765.665 599.22 713.317 584.244 665.394 573.6C587.776 556.361 519.337 548.672 450.005 549.403C408.178 549.844 363.566 553.087 320.858 558.788C320.196 558.877 319.538 558.964 318.876 559.055C282.194 564.024 247.727 572.532 215.95 580.986C207.68 583.194 199.131 585.541 190.54 587.965C185.834 589.301 181.122 590.659 176.137 592.095C140.975 602.237 101.119 613.729 51.949 619.787C22.0034 623.475 -8.71935 625.8 -38.4311 628.048C-57.6158 629.499 -77.4508 631 -96.3338 632.828C-122.291 635.342 -146.068 638.821 -167.01 643.174C-242.422 658.843 -304.351 682.162 -332.676 705.554L-333.403 705.302C-318.875 693.305 -296.419 681.599 -266.66 670.507C-238.239 659.916 -203.837 650.289 -167.177 642.673C-146.18 638.31 -122.341 634.819 -96.324 632.301C-77.4225 630.471 -57.5762 628.97 -38.3841 627.518C-8.69081 625.273 22.0135 622.95 51.9182 619.265C100.963 613.225 140.749 601.75 175.853 591.627C180.841 590.188 185.553 588.83 190.263 587.493C198.861 585.068 207.417 582.718 215.695 580.509C247.526 572.042 282.052 563.519 318.823 558.536C362.204 552.659 407.611 549.318 450.152 548.87C485.935 548.495 520.833 550.313 556.833 554.432C591.504 558.4 627.165 564.505 665.848 573.098C713.809 583.751 766.196 598.738 821.549 617.643C845.176 625.745 876.576 636.15 909.947 644.789C979.126 662.705 1049.66 672.247 1119.58 673.153C1144.53 673.482 1170.49 672.951 1196.74 671.575C1228.94 669.835 1260.41 666.969 1290.27 663.054C1336.98 656.927 1391.14 648.796 1442.89 629.673C1469.08 619.993 1491.4 607.974 1511.11 592.928C1545.73 566.504 1567.41 535.627 1588.38 505.764C1599.16 490.404 1609.35 475.894 1620.7 462.997C1624.34 458.865 1628 454.62 1631.54 450.513C1643.5 436.639 1655.87 422.296 1670.4 408.626C1686.99 392.914 1705.12 379.546 1724.29 368.893C1746.52 356.541 1769.59 348.212 1792.85 344.136C1807.21 341.619 1821.9 340.271 1837.75 340.015C1880.15 339.326 1923.06 348.039 1966.96 357.811C2005.23 366.33 2043.68 378.561 2078.14 393.184C2116.42 409.367 2152.85 429.482 2186.43 452.971C2216.34 473.897 2244.17 497.613 2269.14 523.459L2268.31 523.781C2214.68 468.275 2150.49 424.488 2077.52 393.639C2043.1 379.037 2004.71 366.822 1966.5 358.319C1922.68 348.565 1879.85 339.868 1837.61 340.552C1821.84 340.808 1807.24 342.15 1792.97 344.65C1750.22 352.142 1706.96 374.939 1671.16 408.846C1656.67 422.491 1644.31 436.822 1632.35 450.682C1628.81 454.791 1625.15 459.039 1621.51 463.171C1610.18 476.044 1600 490.542 1589.23 505.888C1578.94 520.54 1568.3 535.692 1555.85 550.554C1541.74 567.403 1527.34 581.352 1511.81 593.203C1492.01 608.315 1469.6 620.388 1443.28 630.114C1420.07 638.691 1394.91 645.671 1366.37 651.456C1342.19 656.346 1317.78 659.912 1296.45 662.761Z" fill="#183F30"/>
<path d="M1356.38 654.008C1337.53 656.55 1319.36 658.357 1303.1 659.898C1273.2 662.732 1241.59 664.508 1209.15 665.174C1182.89 665.67 1156.97 665.36 1132.12 664.247C1064.08 661.225 996.107 650.086 924.329 630.199C893.026 621.528 863.351 611.657 835.648 602.292C780.96 583.876 726.865 570.258 674.858 561.816C598.371 549.401 527.69 546.849 452.417 553.786C409.528 557.739 364.557 564.551 322.362 573.484C287.044 580.96 254.131 591.947 223.44 602.559C215.762 605.222 207.6 608.101 199.185 611.113C197.082 611.868 194.962 612.635 192.813 613.409C157.516 626.153 117.577 640.573 65.2073 647.635C64.3237 647.754 63.4437 647.871 62.5522 647.985C27.102 652.56 -9.3493 654.58 -44.605 656.532C-58.5821 657.306 -73.0358 658.108 -86.8883 659.047C-113.945 660.884 -137.28 663.495 -158.227 667.035C-234.417 679.913 -297.928 699.01 -332.467 719.434L-333.129 719.06C-316.054 708.964 -290.932 698.81 -260.489 689.696C-230.544 680.733 -195.223 672.701 -158.346 666.469C-137.339 662.919 -113.946 660.299 -86.8293 658.459C-72.9621 657.518 -58.5044 656.717 -44.5238 655.941C-9.30181 653.99 27.116 651.972 62.4996 647.405C115.99 640.505 156.58 625.848 192.387 612.919C194.532 612.145 196.656 611.378 198.759 610.62C207.181 607.605 215.347 604.726 223.032 602.062C253.774 591.431 286.749 580.426 322.162 572.929C364.424 563.983 409.468 557.159 452.427 553.199C489.729 549.76 525.509 548.694 561.81 549.937C599.196 551.218 636.311 554.914 675.278 561.241C727.35 569.696 781.513 583.329 836.259 601.762C863.951 611.126 893.607 620.99 924.882 629.652C996.564 649.512 1064.43 660.635 1132.36 663.653C1157.18 664.762 1183.06 665.073 1209.29 664.578C1241.68 663.914 1273.25 662.142 1303.1 659.309C1353.34 654.545 1406.68 648.385 1457.99 630.338C1484.99 620.841 1507.44 608.724 1526.62 593.296C1560.8 565.813 1580.44 531.963 1597.78 502.097C1606.5 487.07 1614.73 472.876 1624.14 460.456C1627.53 455.975 1630.93 451.356 1634.23 446.891C1644.52 432.919 1655.17 418.472 1668.09 404.579C1683.02 388.409 1699.82 374.403 1718.01 362.95C1738.9 349.797 1761.09 340.422 1783.95 335.09C1798.23 331.755 1812.89 329.554 1828.76 328.354C1873.1 325.005 1919.13 331.798 1962.28 339.638C2002.12 346.877 2041.86 358.273 2077.21 372.593C2116.53 388.46 2153.31 408.703 2186.51 432.755C2216.2 454.265 2242.95 478.716 2266 505.435L2265.07 505.769C2216.08 448.976 2150.88 403.098 2076.53 373.094C2041.25 358.801 2001.58 347.427 1961.83 340.203C1918.79 332.38 1872.87 325.604 1828.72 328.937C1812.94 330.129 1798.37 332.318 1784.18 335.63C1741.97 345.476 1701.06 370.032 1668.97 404.777C1656.08 418.642 1645.45 433.074 1635.16 447.032C1631.87 451.5 1628.46 456.118 1625.07 460.604C1615.68 472.996 1607.45 487.176 1598.74 502.187C1581.38 532.1 1561.7 566.005 1527.42 593.579C1508.13 609.092 1485.55 621.275 1458.4 630.827C1434.84 639.114 1409.18 645.534 1379.94 650.448C1372.04 651.789 1364.15 652.96 1356.38 654.008Z" fill="#183F30"/>
<path d="M1394.39 649.191C1394.12 649.228 1393.86 649.264 1393.59 649.301C1366.94 652.9 1340.61 654.63 1315.91 656.094C1285.95 657.872 1254.24 658.562 1221.66 658.151C1195.42 657.777 1169.57 656.631 1144.84 654.747C1079.28 649.771 1013.93 637.184 939.171 615.133C912.25 607.194 885.65 598.32 859.923 589.741C856.706 588.666 853.486 587.594 850.265 586.522C795.252 568.276 739.407 556.037 684.284 550.145C608.801 542.079 533.753 544.755 454.849 558.328C411.584 565.771 366.999 576.058 325.914 588.077C293.498 597.562 264.968 609.573 231.035 624.29C224.158 627.282 216.817 630.5 207.938 634.418L207.443 634.638C190.316 642.232 170.904 650.838 148.918 658.368C123.669 667.015 98.9228 672.897 73.2918 676.366C33.323 681.765 -7.87928 683.136 -47.7225 684.459C-57.4844 684.783 -67.5824 685.119 -77.3231 685.506C-105.257 686.619 -128.813 688.471 -149.335 691.169C-224.9 701.104 -291.554 716.605 -332.205 733.694L-332.742 733.197C-312.83 724.825 -285.672 716.53 -254.205 709.207C-222.68 701.869 -186.432 695.415 -149.386 690.544C-128.805 687.838 -105.19 685.98 -77.1959 684.865C-67.4478 684.477 -57.3499 684.141 -47.5842 683.816C-7.78968 682.494 33.3604 681.126 73.2332 675.74C73.4106 675.716 73.5917 675.691 73.7691 675.667C130.796 667.882 172.968 649.186 206.877 634.153L207.376 633.932C216.258 630.011 223.6 626.793 230.481 623.801C264.471 609.059 293.051 597.026 325.57 587.513C366.724 575.472 411.381 565.168 454.72 557.713C493.332 551.072 529.983 547.113 566.773 545.613C606.418 543.996 644.984 545.271 684.671 549.513C739.899 555.416 795.84 567.674 850.942 585.95C854.163 587.022 857.384 588.096 860.601 589.17C886.316 597.747 912.908 606.618 939.807 614.551C1014.47 636.576 1079.72 649.146 1145.18 654.114C1169.87 655.996 1195.68 657.139 1221.89 657.513C1254.42 657.925 1286.08 657.234 1316 655.459C1369.59 652.283 1421.94 648.008 1473.17 630.832C1500.97 621.51 1523.55 609.292 1542.2 593.478C1575.88 564.911 1592.3 529.457 1606.79 498.173C1613.57 483.528 1619.98 469.693 1627.57 457.766C1630.5 453.177 1633.42 448.444 1636.24 443.866C1645.06 429.553 1654.19 414.756 1665.75 400.398C1679.06 383.764 1694.51 369.121 1711.67 356.88C1731.23 342.927 1752.52 332.511 1774.96 325.922C1788.86 321.837 1803.17 318.819 1818.66 316.704C1819 316.658 1819.33 316.612 1819.67 316.568C1867.84 310.137 1918.62 315.716 1957.49 321.295C1998.89 327.24 2039.93 337.781 2076.17 351.781C2116.55 367.319 2153.67 387.672 2186.52 412.278C2215.99 434.358 2241.66 459.538 2262.81 487.122L2261.78 487.468C2230.32 446.425 2172.44 389.668 2075.45 352.339C2039.29 338.37 1998.34 327.853 1957.04 321.922C1918.29 316.357 1867.67 310.793 1819.73 317.194C1803.95 319.296 1789.42 322.34 1775.31 326.487C1733.75 338.696 1695.19 365.008 1666.74 400.578C1655.21 414.902 1646.09 429.684 1637.28 443.98C1634.45 448.56 1631.53 453.295 1628.61 457.887C1621.04 469.784 1614.63 483.601 1607.86 498.23C1593.35 529.57 1576.89 565.091 1543.08 593.77C1524.31 609.69 1501.57 621.99 1473.58 631.374C1449.86 639.325 1423.95 645.156 1394.39 649.191Z" fill="#183F30"/>
<path d="M1424.91 645.813C1419.17 646.607 1413.3 647.314 1407.28 647.937C1380.91 650.663 1355.1 651.466 1328.77 652.111C1298.26 652.858 1267.33 652.489 1234.21 650.982C1208 649.747 1182.22 647.778 1157.59 645.124C1095.1 638.415 1032.31 624.497 954 599.999C934.552 593.915 915.067 587.408 896.223 581.115C885.965 577.69 875.361 574.146 864.862 570.706C809.147 552.516 751.561 541.674 693.701 538.476C617.251 534.25 539.943 542.238 457.349 562.898C413.713 573.813 369.533 587.575 329.589 602.693C297.501 614.838 269.964 629.469 240.808 644.959L238.793 646.03C234.239 648.455 229.637 650.912 224.977 653.399C222.294 654.833 219.593 656.275 216.866 657.729C199.873 666.833 181.494 676.42 160.149 684.795C135.367 694.518 110.538 701.051 84.2367 704.767C40.4498 710.949 -4.81288 711.398 -48.582 711.825C-54.8285 711.885 -61.2918 711.949 -67.5624 712.03C-96.9615 712.403 -120.059 713.473 -140.262 715.394C-214.813 722.487 -284.633 734.423 -331.824 748.143L-332.198 747.532C-284.883 733.775 -214.92 721.812 -140.238 714.707C-119.98 712.78 -96.8228 711.708 -67.3676 711.333C-61.0931 711.255 -54.6297 711.19 -48.3796 711.13C-5.14606 710.707 39.5441 710.268 82.7631 704.287C83.2288 704.222 83.6945 704.158 84.1637 704.091C140.048 696.196 178.483 677.432 216.147 657.259C218.873 655.804 221.575 654.362 224.258 652.928C228.917 650.44 233.516 647.985 238.073 645.557L240.089 644.486C269.294 628.97 296.878 614.314 329.07 602.129C369.087 586.982 413.343 573.197 457.055 562.263C539.857 541.551 617.374 533.542 694.031 537.78C752.034 540.987 809.754 551.854 865.593 570.083C876.092 573.525 886.7 577.067 896.958 580.494C915.795 586.786 935.275 593.292 954.711 599.37C1032.93 623.841 1095.63 637.739 1158.01 644.438C1182.61 647.086 1208.35 649.055 1234.52 650.286C1267.59 651.791 1298.48 652.161 1328.95 651.413C1375.2 650.281 1432.76 648.874 1488.41 631.069C1517.02 621.916 1539.72 609.591 1557.82 593.389C1590.98 563.711 1603.96 526.626 1615.42 493.909C1620.4 479.696 1625.1 466.27 1631.02 454.849C1633.33 450.399 1635.63 445.808 1637.85 441.368C1645.31 426.476 1653.02 411.077 1663.4 396.01C1675.1 378.899 1689.2 363.625 1705.29 350.61C1723.53 335.863 1743.92 324.409 1765.91 316.565C1780.02 311.531 1794.61 307.613 1810.51 304.587C1831.81 300.532 1854.72 298.545 1880.54 298.502C1902.39 298.468 1925.96 299.848 1952.6 302.723C1995.56 307.36 2037.9 317.038 2075.04 330.708C2116.47 345.901 2153.95 366.358 2186.44 391.507C2215.71 414.154 2240.31 440.058 2259.56 468.503L2258.43 468.854C2217.77 408.802 2152.37 359.956 2074.27 331.317C2037.23 317.683 1995.01 308.034 1952.18 303.411C1894.78 297.218 1849.83 297.798 1810.69 305.246C1794.89 308.252 1780.41 312.143 1766.39 317.14C1714.08 335.799 1682.11 370.411 1664.51 396.159C1654.15 411.188 1646.45 426.569 1639 441.443C1636.78 445.886 1634.48 450.479 1632.17 454.931C1626.27 466.318 1621.57 479.728 1616.6 493.923C1605.12 526.711 1592.11 563.874 1558.8 593.687C1540.56 610.017 1517.67 622.441 1488.83 631.667C1469.29 637.921 1448.24 642.585 1424.91 645.813Z" fill="#183F30"/>
<path d="M1451.57 643.146C1412.48 648.635 1374.32 648.264 1341.66 647.948C1310.94 647.651 1279.9 646.247 1246.76 643.66C1220.59 641.576 1194.88 638.787 1170.33 635.368C1096.74 625.143 1029.98 605.007 968.794 584.769C956.301 580.638 943.669 576.345 931.456 572.193C914.498 566.427 896.96 560.466 879.421 554.812C822.825 536.632 763.503 527.194 703.107 526.76C624.979 526.2 545.429 539.507 459.915 567.443C415.885 581.826 372.133 599.058 333.386 617.277C303.501 631.328 278.641 647.259 252.322 664.124C250.457 665.319 248.588 666.518 246.708 667.719L245.689 668.373C239.292 672.476 232.676 676.717 225.966 680.985C209.892 691.245 192.136 702.016 171.261 711.271C147.028 722.014 122.211 729.161 95.3814 733.119C48.2892 740.069 -0.527756 739.363 -47.7334 738.679C-51.0425 738.631 -54.3365 738.583 -57.6151 738.54C-88.7424 738.114 -111.381 738.45 -131.014 739.626C-203.977 743.997 -276.988 752.404 -331.327 762.693L-331.514 761.983C-277.087 751.675 -203.969 743.255 -130.909 738.879C-111.22 737.7 -88.5326 737.363 -57.3491 737.789C-54.0705 737.833 -50.7765 737.881 -47.4635 737.93C-0.34805 738.612 48.3746 739.313 95.2864 732.394C153.55 723.797 192.833 701.12 225.079 680.54C231.789 676.272 238.405 672.031 244.802 667.93L245.821 667.276C247.701 666.073 249.57 664.876 251.436 663.681C277.8 646.786 302.702 630.828 332.687 616.73C371.505 598.477 415.341 581.215 459.447 566.806C499.988 553.563 538.352 543.815 576.725 537.008C619.53 529.415 662.134 525.715 703.359 526.011C763.945 526.446 823.442 535.91 880.198 554.139C897.748 559.797 915.29 565.759 932.252 571.526C944.465 575.678 957.09 579.97 969.578 584.1C1030.7 604.315 1097.38 624.43 1170.84 634.636C1195.35 638.049 1221.03 640.835 1247.16 642.916C1280.25 645.5 1311.24 646.902 1341.92 647.199C1389.02 647.655 1447.63 648.223 1503.69 631.088C1533.11 622.095 1555.93 609.658 1573.48 593.066C1606.08 562.245 1615.41 523.513 1623.65 489.339C1626.96 475.608 1630.08 462.639 1634.47 451.734C1636.09 447.7 1637.71 443.54 1639.27 439.517C1645.39 423.779 1651.73 407.503 1661.04 391.442C1671.15 373.846 1683.88 357.939 1698.87 344.169C1715.79 328.63 1735.28 316.141 1756.81 307.047C1770.79 301.142 1785.33 296.367 1801.28 292.446C1822.76 287.165 1846.86 283.855 1872.92 282.609C1895.74 281.517 1920.87 281.973 1947.6 283.967C1992.11 287.287 2035.75 296.088 2073.79 309.42C2116.28 324.26 2154.13 344.81 2186.27 370.502C2215.31 393.713 2238.85 420.343 2256.24 449.653L2255 450.008C2218.17 387.902 2153.52 338.209 2072.98 310.082C2035.06 296.794 1991.57 288.021 1947.21 284.712C1889.71 280.424 1842.07 283.176 1801.59 293.13C1785.76 297.023 1771.32 301.764 1757.44 307.626C1706.21 329.262 1677.4 365.208 1662.26 391.555C1652.97 407.575 1646.65 423.828 1640.54 439.546C1638.97 443.57 1637.35 447.732 1635.73 451.77C1631.36 462.64 1628.23 475.591 1624.93 489.305C1620.97 505.745 1616.48 524.378 1609 542.307C1600.43 562.848 1589.17 579.549 1574.56 593.365C1566.11 601.354 1556.19 608.536 1545.08 614.713C1533.12 621.356 1519.34 627.085 1504.12 631.738C1486.7 637.065 1469.04 640.691 1451.57 643.146Z" fill="#183F30"/>
<path d="M1475.78 640.879C1462.86 642.723 1449.25 643.948 1434.8 644.579C1406.34 645.821 1378.84 644.631 1354.58 643.584C1324 642.262 1291.95 639.763 1259.33 636.158C1233.22 633.235 1207.56 629.633 1183.07 625.446C1112.78 613.454 1051.13 592.97 983.561 569.404C977.556 567.31 971.456 565.17 965.559 563.099C942.334 554.948 918.321 546.519 893.949 538.796C836.365 520.601 775.318 512.581 712.503 514.959C633.268 517.958 549.17 537.125 462.557 571.928C418.112 589.787 374.803 610.486 337.316 631.79C309.09 647.83 286.31 665.244 262.193 683.68C259.743 685.554 257.282 687.433 254.807 689.321C248.648 694.024 242.013 699.074 235.256 704.147C221.089 714.813 203.751 727.137 182.582 737.647C158.884 749.413 134.078 757.179 106.752 761.384C56.7289 769.084 4.74064 767.042 -45.5368 765.068L-47.451 764.994C-72.0676 764.029 -98.0859 763.218 -121.561 763.821C-193.117 765.661 -267.382 770.446 -330.671 777.295L-330.67 776.507C-267.315 769.65 -192.982 764.86 -121.363 763.019C-97.82 762.415 -71.7567 763.226 -47.1024 764.191L-45.1883 764.266C4.97975 766.235 56.8621 768.269 106.642 760.607C164.131 751.759 201.932 728.043 234.217 703.732C240.974 698.662 247.602 693.612 253.761 688.912C256.236 687.026 258.697 685.145 261.147 683.273C285.306 664.805 308.127 647.361 336.445 631.267C374.003 609.922 417.394 589.184 461.921 571.292C502.558 554.964 542.879 541.956 581.755 532.631C626.176 521.978 670.225 515.76 712.678 514.152C775.733 511.765 837.004 519.812 894.783 538.07C919.174 545.801 943.199 554.232 966.435 562.388C972.332 564.457 978.432 566.597 984.437 568.691C1051.94 592.235 1113.53 612.696 1183.69 624.669C1208.14 628.848 1233.76 632.445 1259.84 635.364C1292.41 638.964 1324.41 641.46 1354.95 642.779C1402.81 644.849 1462.38 647.422 1519.05 630.851C1549.28 622.012 1572.23 609.461 1589.21 592.476C1621.21 560.476 1626.92 518.312 1631.5 484.431C1633.29 471.234 1634.97 458.77 1637.96 448.394C1638.9 445.123 1639.85 441.757 1640.76 438.501C1645.5 421.586 1650.4 404.092 1658.7 386.668C1671.51 359.57 1697.34 322.078 1747.7 297.348C1761.61 290.52 1776.11 284.884 1792.03 280.121C1833.67 267.567 1884.31 262.48 1942.55 264.998C1988.61 266.99 2033.54 274.907 2072.48 287.894C2116.03 302.37 2154.24 323.01 2186.03 349.246C2200.62 361.279 2213.79 374.476 2225.18 388.468C2236.06 401.833 2245.37 415.995 2252.86 430.561L2251.52 430.916C2218.52 366.735 2154.63 316.196 2071.63 288.608C2032.83 275.67 1988.07 267.784 1942.19 265.798C1884.22 263.289 1833.85 268.344 1792.47 280.819C1776.67 285.546 1762.28 291.139 1748.47 297.916C1698.46 322.475 1672.78 359.772 1660.04 386.737C1651.75 404.116 1646.86 421.585 1642.13 438.479C1641.21 441.735 1640.27 445.103 1639.33 448.376C1636.35 458.717 1634.66 471.164 1632.88 484.341C1630.58 501.39 1627.97 520.713 1621.95 539.456C1615.05 560.993 1604.72 578.434 1590.38 592.773C1582.2 600.953 1572.39 608.268 1561.22 614.512C1549.19 621.239 1535.15 626.974 1519.48 631.554C1505.73 635.577 1491.24 638.672 1475.78 640.879Z" fill="#183F30"/>
<path d="M1498.24 638.839C1482.76 641.084 1466.31 642.326 1448.62 642.598C1419.96 643.041 1392.11 640.918 1367.53 639.044C1336.59 636.686 1304.42 633.139 1271.91 628.499C1245.86 624.747 1220.26 620.334 1195.82 615.38C1128.57 601.763 1069.79 580.166 1007.56 557.306C1004.48 556.175 1001.4 555.042 998.311 553.91C969.373 543.294 939.453 532.316 908.46 522.657C849.826 504.433 787.062 497.839 721.911 503.059C640.076 509.613 553.737 534.271 465.287 576.342C421.044 597.386 377.044 622.205 341.39 646.226C314.468 664.364 293.378 683.437 271.05 703.632C268.406 706.023 265.755 708.421 263.083 710.827C257.746 715.639 251.393 721.348 244.732 727.211C232.395 738.094 215.495 752.101 194.108 763.896C170.942 776.673 146.16 785.068 118.342 789.556C95.4728 793.199 69.9756 794.881 40.3898 794.696C14.9887 794.538 -9.72468 793.101 -37.0858 791.382C-62.0685 789.75 -88.4223 788.144 -111.926 787.968C-181.547 787.445 -254.876 788.781 -329.874 791.932L-329.698 791.079C-254.656 787.923 -181.285 786.59 -111.627 787.112C-88.0592 787.289 -61.6676 788.898 -36.6548 790.53C9.20688 793.414 66.285 797.007 118.21 788.732C177.562 779.155 213.522 753.326 243.538 726.841C250.197 720.982 256.546 715.276 261.879 710.466C264.552 708.061 267.202 705.663 269.843 703.274C292.208 683.047 313.336 663.94 340.346 645.743C376.073 621.674 420.158 596.807 464.486 575.723C553.204 533.524 639.842 508.792 721.99 502.211C753.486 499.688 784.724 499.907 814.827 502.863C847.128 506.033 878.928 512.435 909.343 521.886C940.371 531.555 970.311 542.539 999.264 553.163C1002.35 554.297 1005.44 555.427 1008.51 556.558C1070.69 579.4 1129.41 600.974 1196.53 614.566C1220.94 619.513 1246.5 623.921 1272.52 627.665C1304.98 632.297 1337.1 635.841 1368 638.195C1416.55 641.895 1476.99 646.499 1534.45 630.411C1565.58 621.696 1588.65 609.022 1604.98 591.67C1636.46 558.482 1637.85 514.559 1638.96 479.266C1639.37 466.643 1639.74 454.721 1641.47 444.874C1641.83 442.842 1642.18 440.8 1642.54 438.748C1645.74 420.208 1649.06 401.035 1656.38 381.732C1666.81 353.982 1689.53 315.11 1738.57 287.506C1752.25 279.805 1766.69 273.312 1782.73 267.653C1805.02 259.747 1830.19 253.9 1857.53 250.271C1882.49 246.958 1909.37 245.475 1937.42 245.862C1985.01 246.515 2031.23 253.539 2071.07 266.175C2115.68 280.28 2154.25 301.012 2185.71 327.79C2200.14 340.077 2212.96 353.593 2223.8 367.961C2234.19 381.722 2242.8 396.3 2249.4 411.291L2247.96 411.643C2219.22 346.32 2154.42 293.579 2070.18 266.944C2030.51 254.364 1984.49 247.368 1937.11 246.715C1878.68 245.908 1825.5 253.394 1783.31 268.359C1767.39 273.975 1753.06 280.418 1739.49 288.06C1690.78 315.473 1668.19 354.143 1657.82 381.754C1650.52 401.006 1647.21 420.151 1644.01 438.667C1643.65 440.72 1643.3 442.764 1642.94 444.795C1641.22 454.606 1640.84 466.513 1640.44 479.117C1639.32 514.511 1637.93 558.562 1606.25 591.962C1598.37 600.326 1588.68 607.778 1577.43 614.104C1565.33 620.91 1551.01 626.652 1534.88 631.17C1523.23 634.427 1511.07 636.978 1498.24 638.839Z" fill="#183F30"/>
<path d="M1519.48 636.923C1501.84 639.524 1482.98 640.681 1462.48 640.441C1433.48 640.102 1405.33 637.043 1380.49 634.346C1349.1 630.937 1316.81 626.343 1284.49 620.696C1258.51 616.129 1232.96 610.906 1208.55 605.177C1148.44 591.077 1096.12 570.661 1040.73 549.046C1031.68 545.512 1022.31 541.859 1013.03 538.279C980.386 525.703 952.573 515.466 922.934 506.387C863.209 488.128 798.74 482.969 731.311 491.054C646.584 501.211 558.021 531.369 468.088 580.686C423.412 605.187 379.905 633.562 345.584 660.587C319.729 680.946 300.084 701.854 279.287 723.989C276.711 726.731 274.124 729.483 271.52 732.24C266.882 737.158 260.739 743.643 254.38 750.175C227.626 777.717 191.94 807.273 130.134 817.631C128.206 817.951 126.269 818.254 124.333 818.539C75.9615 825.674 25.3572 822.226 -26.5269 817.695L-29.7669 817.407C-55.4722 815.109 -79.7545 812.941 -102.104 812.052C-186.328 808.702 -267.566 807.37 -328.931 806.585L-328.596 805.674C-267.215 806.461 -185.955 807.792 -101.7 811.144C-79.2905 812.035 -54.9814 814.207 -29.2422 816.506L-26.0058 816.795C27.7787 821.492 80.1844 825.028 129.978 816.762C191.099 806.517 226.484 777.193 253.041 749.856C259.396 743.329 265.532 736.85 270.171 731.934C272.775 729.175 275.358 726.426 277.934 723.683C298.765 701.514 318.44 680.572 344.377 660.148C378.767 633.067 422.361 604.635 467.126 580.085C508.674 557.3 550.669 538.316 591.943 523.658C639.3 506.839 686.184 495.571 731.285 490.163C799.062 482.036 863.857 487.218 923.861 505.562C953.543 514.656 981.385 524.903 1014.05 537.489C1023.34 541.069 1032.71 544.723 1041.77 548.257C1097.11 569.851 1149.37 590.248 1209.36 604.318C1233.74 610.041 1259.25 615.255 1285.2 619.816C1317.46 625.457 1349.71 630.043 1381.05 633.446C1430.25 638.79 1491.48 645.44 1549.88 629.767C1581.81 621.199 1605 608.402 1620.77 590.646C1651.59 556.19 1648.48 510.491 1645.98 473.77C1645.17 461.789 1644.4 450.47 1645 441.172L1645.01 440.959C1646.36 420.135 1647.75 398.603 1654.06 376.63C1659.51 357.472 1668.11 339.702 1679.62 323.81C1692.61 305.893 1709.36 290.319 1729.41 277.518C1742.83 268.954 1757.22 261.6 1773.4 255.039C1817.11 237.247 1872.03 227.395 1932.22 226.552C1956.45 226.213 1980.54 227.559 2003.83 230.55C2027.25 233.559 2049.37 238.176 2069.59 244.267C2115.26 257.997 2154.19 278.815 2185.3 306.145C2213.27 330.709 2234.21 360.347 2245.87 391.851L2244.33 392.199C2219.38 324.77 2155.35 271.151 2068.67 245.092C2028.13 232.878 1980.85 226.78 1931.96 227.467C1872.11 228.305 1817.53 238.087 1774.13 255.756C1758.08 262.267 1743.81 269.562 1730.49 278.059C1693.05 301.958 1667.15 336.037 1655.61 376.609C1649.32 398.525 1647.93 420.027 1646.59 440.821L1646.57 441.034C1645.97 450.299 1646.74 461.601 1647.55 473.565C1650.06 510.399 1653.17 556.237 1622.14 590.934C1614.54 599.496 1604.95 607.083 1593.65 613.482C1581.47 620.382 1566.89 626.135 1550.3 630.587C1540.43 633.235 1530.18 635.345 1519.48 636.923Z" fill="#183F30"/>
<path d="M135.709 846.892C114.084 850.139 90.2609 851.315 63.1229 850.486C36.1583 849.663 9.27315 846.973 -15.7666 844.192C-20.3011 843.682 -24.802 843.168 -29.2725 842.659C-51.5259 840.122 -72.5455 837.727 -92.0915 836.337C-170.028 830.801 -244.209 826.445 -315.95 822.237L-327.837 821.538L-327.355 820.58L-315.468 821.279C-243.723 825.49 -169.531 829.844 -91.579 835.382C-71.9801 836.775 -50.9339 839.173 -28.6537 841.714C-24.1869 842.224 -19.686 842.737 -15.1555 843.246C36.2449 848.955 90.7108 853.789 141.958 844.935C204.947 833.978 239.585 800.735 262.722 773.001C268.651 765.907 274.339 758.869 278.631 753.531C281.001 750.589 283.353 747.651 285.698 744.721C305.148 720.428 323.518 697.483 348.539 674.692C381.566 644.612 424.641 612.607 469.836 584.574C511.766 558.567 554.571 536.565 597.07 519.181C645.815 499.24 694.09 485.442 740.55 478.169C810.444 467.08 876.996 470.805 938.33 489.239C972.331 499.476 1003.14 511.446 1028.8 521.806C1042.76 527.444 1056.75 533.272 1070.27 538.908C1118.15 558.862 1167.65 579.494 1222.17 594.039C1246.53 600.539 1272 606.556 1297.87 611.921C1329.88 618.536 1362.26 624.158 1394.12 628.631C1443.91 635.621 1505.88 644.321 1565.34 629.004C1598.06 620.573 1621.37 607.645 1636.58 589.481C1666.7 553.703 1658.85 506.211 1652.54 468.05C1650.68 456.766 1648.91 446.105 1648.52 437.369C1647.64 417.675 1647.08 394.714 1651.73 371.448C1655.63 351.738 1662.84 333.353 1673.17 316.804C1684.85 298.085 1700.68 281.485 1720.21 267.465C1733.16 258.174 1747.89 249.725 1764.01 242.352C1787 231.807 1813.2 223.413 1841.88 217.406C1868.74 211.779 1897.36 208.32 1926.92 207.124C1951.85 206.117 1976.63 206.895 2000.57 209.442C2024.66 212.004 2047.35 216.296 2067.99 222.2C2091.78 228.995 2113.97 237.906 2133.93 248.687C2152.85 258.901 2169.96 270.892 2184.78 284.324C2212.52 309.454 2232.38 339.862 2242.23 372.257L2240.58 372.599C2219.44 303.033 2156.18 248.537 2067.03 223.083C2026.2 211.405 1976.37 206.078 1926.71 208.086C1865.31 210.569 1809.34 222.664 1764.87 243.062C1748.89 250.376 1734.27 258.758 1721.43 267.975C1684.62 294.392 1661.72 329.179 1653.38 371.37C1648.74 394.575 1649.3 417.494 1650.19 437.157C1650.58 445.862 1652.34 456.506 1654.2 467.776C1657.31 486.602 1660.84 507.941 1659.83 529.233C1658.67 553.939 1651.54 573.736 1638.06 589.754C1630.72 598.512 1621.24 606.239 1609.89 612.716C1597.63 619.714 1582.78 625.486 1565.75 629.872C1557.16 632.086 1548.52 633.802 1539.88 635.099C1488.16 642.865 1436.31 635.586 1393.44 629.568C1361.54 625.088 1329.11 619.458 1297.05 612.832C1271.14 607.46 1245.64 601.434 1221.25 594.925C1166.62 580.35 1117.06 559.697 1069.14 539.725C1055.62 534.09 1041.64 528.263 1027.68 522.628C1002.06 512.28 971.292 500.327 937.353 490.11C876.35 471.773 810.188 468.07 740.684 479.091C631.508 496.184 533.74 546.198 470.948 585.148C425.844 613.125 382.855 645.062 349.899 675.081C324.954 697.804 306.609 720.714 287.188 744.969C284.843 747.899 282.488 750.837 280.118 753.782C275.822 759.122 270.131 766.164 264.199 773.266C254.487 784.908 239.106 802.042 217.758 816.36C207.39 823.313 196.184 829.237 184.453 833.968C171.372 839.243 157.132 843.241 142.136 845.849C140.012 846.22 137.869 846.567 135.709 846.892Z" fill="#183F30"/>
<path d="M146.932 881.182C125.295 884.559 101.5 885.686 74.4478 884.63C46.4401 883.537 18.4766 880.219 -5.18096 877.116C-12.4507 876.158 -19.7092 875.169 -26.7305 874.213C-46.3566 871.541 -64.8969 869.015 -82.2956 867.306C-144.777 861.167 -206.818 855.337 -266.82 849.697C-286.668 847.832 -307.188 845.903 -327.079 844.023L-326.465 843.016C-306.574 844.896 -286.054 846.824 -266.206 848.69C-206.204 854.329 -144.155 860.161 -81.6698 866.302C-64.2253 868.016 -45.6625 870.542 -26.0132 873.219C-18.9955 874.176 -11.7373 875.163 -4.47493 876.121C44.59 882.553 101.33 888.611 153.784 879.021C218.181 867.206 250.801 831.494 272.031 801.701C277.474 794.068 282.707 786.441 286.656 780.649C288.685 777.676 290.7 774.708 292.711 771.746C310.791 745.11 327.867 719.952 352.006 694.584C383.402 661.59 425.854 625.888 471.536 594.055C535.171 549.87 634.861 492.528 748.404 470.276C820.603 456.049 888.902 458.089 951.396 476.345C979.474 484.553 1007.49 494.703 1042.24 509.259C1059.8 516.615 1077.28 524.351 1094.18 531.83C1138.16 551.29 1183.64 571.413 1233.92 586.285C1258.28 593.492 1283.73 600.228 1309.54 606.305C1340.81 613.653 1373.35 620.204 1406.27 625.78C1456.82 634.246 1519.73 644.785 1579.91 629.63C1612.92 621.385 1636.97 607.876 1651.41 589.479C1680.71 552.235 1667.18 500.895 1657.3 463.41C1654.53 452.89 1651.91 442.954 1650.64 434.807C1647.81 416.701 1644.94 392.696 1647.8 367.55C1652.72 323.983 1673.35 287.308 1709.11 258.547C1721.64 248.425 1736.28 239.045 1752.62 230.667C1775.87 218.738 1802.55 208.99 1831.93 201.696C1859.61 194.825 1889.06 190.268 1919.48 188.152C1945.15 186.414 1970.62 186.551 1995.18 188.556C2019.98 190.583 2043.23 194.469 2064.28 200.106C2088.61 206.617 2111.18 215.379 2131.36 226.152C2150.49 236.361 2167.63 248.452 2182.32 262.092C2209.89 287.701 2228.77 318.822 2236.91 352.09L2235.17 352.427C2217.63 280.757 2154.99 225.582 2063.29 201.048C2021.72 189.915 1970.59 185.693 1919.33 189.163C1856.16 193.562 1798.86 208.155 1753.63 231.368C1737.42 239.677 1722.9 248.982 1710.47 259.023C1674.94 287.593 1654.45 324.058 1649.56 367.411C1646.7 392.488 1649.58 416.445 1652.39 434.516C1653.66 442.634 1656.28 452.558 1659.05 463.064C1664.15 482.441 1669.94 504.405 1670.87 526.584C1671.95 552.411 1666.1 573.067 1652.99 589.736C1645.94 598.723 1636.6 606.621 1625.22 613.212C1612.89 620.358 1597.78 626.193 1580.32 630.555C1553.25 637.371 1523.5 639.687 1489.37 637.632C1459.7 635.846 1430.9 631.022 1405.48 626.767C1372.52 621.184 1339.93 614.623 1308.62 607.266C1282.77 601.18 1257.29 594.435 1232.89 587.218C1182.5 572.316 1136.98 552.171 1092.95 532.691C1076.06 525.213 1058.58 517.482 1041.04 510.133C1006.35 495.603 978.383 485.472 950.371 477.283C888.247 459.13 820.381 457.098 748.641 471.235C635.587 493.394 536.229 550.555 472.784 594.608C427.192 626.376 384.829 662.003 353.5 694.927C329.427 720.224 312.377 745.346 294.326 771.942C292.315 774.906 290.3 777.875 288.271 780.847C284.319 786.644 279.083 794.278 273.634 801.918C252.218 831.976 219.265 868.014 153.981 879.99C151.66 880.413 149.305 880.812 146.932 881.182Z" fill="#183F30"/>
<path d="M158.425 915.412C99.3461 924.98 34.785 914.708 -22.4481 905.6C-40.0353 902.803 -56.6472 900.159 -72.3639 898.194L-326.214 866.461L-325.477 865.409L-71.6278 897.141C-55.8692 899.11 -39.2381 901.757 -21.6277 904.559C37.8176 914.019 105.198 924.74 165.737 913.061C231.472 900.382 262.11 862.188 281.458 830.333C287.786 819.914 293.836 809.376 299.688 799.184C315.695 771.311 332.243 742.488 355.567 714.38C374.087 692.062 397.557 668.001 423.44 644.8C451.834 619.347 482.632 595.225 514.971 573.109C550.628 548.725 587.322 527.388 624.03 509.694C664.632 490.124 705.167 475.075 744.517 464.963C823.345 444.707 897.295 444.096 964.308 463.152C1020 478.986 1068.52 501.86 1115.45 523.981C1156.3 543.236 1198.54 563.145 1245.45 578.415C1299.63 596.05 1357.74 611.01 1418.19 622.876C1469.11 632.875 1532.49 645.321 1594.27 630.21C1646.45 617.449 1674.43 592.769 1679.8 554.757C1684.37 522.425 1671.65 487.009 1661.42 458.554C1657.94 448.856 1654.65 439.696 1652.65 432.16C1641.61 390.615 1640.78 354.98 1650.1 323.22C1655.91 303.404 1665.86 284.968 1679.67 268.425C1695.09 249.946 1715.78 233.272 1741.17 218.867C1763.13 206.405 1788.32 195.857 1816.05 187.515C1842.45 179.574 1870.57 173.792 1899.63 170.329C1956.78 163.517 2013.87 166.187 2060.37 177.845C2085.23 184.077 2108.18 192.702 2128.57 203.478C2147.9 213.692 2165.07 225.901 2179.61 239.768C2206.99 265.891 2224.85 297.774 2231.27 331.967L2229.43 332.3C2215.77 259.487 2152.19 202.122 2059.35 178.851C1960.77 154.136 1827.43 171.255 1742.3 219.558C1657.98 267.407 1629.25 336.828 1654.47 431.786C1656.46 439.299 1659.75 448.446 1663.23 458.132C1673.48 486.649 1686.23 522.14 1681.64 554.62C1679.14 572.311 1671.53 587.436 1659.01 599.577C1651.98 606.403 1643.22 612.468 1632.98 617.603C1622.09 623.067 1609.19 627.638 1594.66 631.193C1588.72 632.645 1582.65 633.875 1576.44 634.881C1553.83 638.544 1529.33 639.244 1502.11 637.033C1471.44 634.541 1441.41 628.644 1417.28 623.906C1356.75 612.022 1298.56 597.043 1244.3 579.383C1197.28 564.082 1155 544.148 1114.11 524.873C1067.24 502.78 1018.78 479.934 963.225 464.141C896.662 445.216 823.218 445.818 744.934 465.936C586.579 506.629 432.935 623.4 357.192 714.673C333.931 742.704 317.403 771.487 301.418 799.323C295.563 809.52 289.51 820.065 283.176 830.493C270.33 851.642 257 867.455 241.226 880.252C231.379 888.239 220.462 895.046 208.776 900.484C195.782 906.53 181.376 911.105 165.953 914.081C163.462 914.558 160.948 915.004 158.425 915.412Z" fill="#183F30"/>
<ellipse cx="5.82603" cy="2.74676" rx="2.84947" ry="2.74676" fill="#5BC17F"/>
<ellipse cx="22.9276" cy="2.74676" rx="2.84947" ry="2.74676" fill="#5BC17F"/>
<ellipse cx="40.0213" cy="2.74676" rx="2.84947" ry="2.74676" fill="#5BC17F"/>
<ellipse cx="57.1229" cy="2.74676" rx="2.84947" ry="2.74676" fill="#5BC17F"/>
<ellipse cx="74.2088" cy="2.74676" rx="2.84947" ry="2.74676" fill="#5BC17F"/>
<ellipse cx="91.3104" cy="2.74676" rx="2.84947" ry="2.74676" fill="#5BC17F"/>
<ellipse cx="108.42" cy="2.74676" rx="2.84947" ry="2.74676" fill="#5BC17F"/>
<ellipse cx="125.514" cy="2.74676" rx="2.84947" ry="2.74676" fill="#5BC17F"/>
<ellipse cx="142.607" cy="2.74676" rx="2.84947" ry="2.74676" fill="#5BC17F"/>
<ellipse cx="159.701" cy="2.74676" rx="2.84947" ry="2.74676" fill="#5BC17F"/>
<ellipse cx="5.82603" cy="19.2233" rx="2.84947" ry="2.74676" fill="#5BC17F"/>
<ellipse cx="22.9276" cy="19.2233" rx="2.84947" ry="2.74676" fill="#5BC17F"/>
<ellipse cx="40.0213" cy="19.2233" rx="2.84947" ry="2.74676" fill="#5BC17F"/>
<ellipse cx="57.1229" cy="19.2233" rx="2.84947" ry="2.74676" fill="#5BC17F"/>
<ellipse cx="74.2088" cy="19.2233" rx="2.84947" ry="2.74676" fill="#5BC17F"/>
<ellipse cx="91.3104" cy="19.2233" rx="2.84947" ry="2.74676" fill="#5BC17F"/>
<ellipse cx="108.42" cy="19.2233" rx="2.84947" ry="2.74676" fill="#5BC17F"/>
<ellipse cx="125.514" cy="19.2233" rx="2.84947" ry="2.74676" fill="#5BC17F"/>
<ellipse cx="142.607" cy="19.2233" rx="2.84947" ry="2.74676" fill="#5BC17F"/>
<ellipse cx="159.701" cy="19.2233" rx="2.84947" ry="2.74676" fill="#5BC17F"/>
<ellipse cx="5.82603" cy="35.7155" rx="2.84947" ry="2.74676" fill="#5BC17F"/>
<ellipse cx="22.9276" cy="35.7155" rx="2.84947" ry="2.74676" fill="#5BC17F"/>
<ellipse cx="40.0213" cy="35.7155" rx="2.84947" ry="2.74676" fill="#5BC17F"/>
<ellipse cx="57.1229" cy="35.7155" rx="2.84947" ry="2.74676" fill="#5BC17F"/>
<ellipse cx="74.2088" cy="35.7155" rx="2.84947" ry="2.74676" fill="#5BC17F"/>
<ellipse cx="91.3104" cy="35.7155" rx="2.84947" ry="2.74676" fill="#5BC17F"/>
<ellipse cx="108.42" cy="35.7155" rx="2.84947" ry="2.74676" fill="#5BC17F"/>
<ellipse cx="125.514" cy="35.7155" rx="2.84947" ry="2.74676" fill="#5BC17F"/>
<ellipse cx="142.607" cy="35.7155" rx="2.84947" ry="2.74676" fill="#5BC17F"/>
<ellipse cx="159.701" cy="35.7155" rx="2.84947" ry="2.74676" fill="#5BC17F"/>
<ellipse cx="5.82603" cy="52.1843" rx="2.84947" ry="2.74676" fill="#5BC17F"/>
<ellipse cx="22.9276" cy="52.1843" rx="2.84947" ry="2.74676" fill="#5BC17F"/>
<ellipse cx="40.0213" cy="52.1843" rx="2.84947" ry="2.74676" fill="#5BC17F"/>
<ellipse cx="57.1229" cy="52.1843" rx="2.84947" ry="2.74676" fill="#5BC17F"/>
<ellipse cx="74.2088" cy="52.1843" rx="2.84947" ry="2.74676" fill="#5BC17F"/>
<ellipse cx="91.3104" cy="52.1843" rx="2.84947" ry="2.74676" fill="#5BC17F"/>
<ellipse cx="108.42" cy="52.1843" rx="2.84947" ry="2.74676" fill="#5BC17F"/>
<ellipse cx="125.514" cy="52.1843" rx="2.84947" ry="2.74676" fill="#5BC17F"/>
<ellipse cx="142.607" cy="52.1843" rx="2.84947" ry="2.74676" fill="#5BC17F"/>
<ellipse cx="159.701" cy="52.1843" rx="2.84947" ry="2.74676" fill="#5BC17F"/>
<ellipse cx="5.82603" cy="68.6686" rx="2.84947" ry="2.74676" fill="#5BC17F"/>
<ellipse cx="22.9276" cy="68.6686" rx="2.84947" ry="2.74676" fill="#5BC17F"/>
<ellipse cx="40.0213" cy="68.6686" rx="2.84947" ry="2.74676" fill="#5BC17F"/>
<ellipse cx="57.1229" cy="68.6686" rx="2.84947" ry="2.74676" fill="#5BC17F"/>
<ellipse cx="74.2088" cy="68.6686" rx="2.84947" ry="2.74676" fill="#5BC17F"/>
<ellipse cx="91.3104" cy="68.6686" rx="2.84947" ry="2.74676" fill="#5BC17F"/>
<ellipse cx="108.42" cy="68.6686" rx="2.84947" ry="2.74676" fill="#5BC17F"/>
<ellipse cx="125.514" cy="68.6686" rx="2.84947" ry="2.74676" fill="#5BC17F"/>
<ellipse cx="142.607" cy="68.6686" rx="2.84947" ry="2.74676" fill="#5BC17F"/>
<ellipse cx="159.701" cy="68.6686" rx="2.84947" ry="2.74676" fill="#5BC17F"/>
<ellipse cx="5.82603" cy="85.1452" rx="2.84947" ry="2.74676" fill="#5BC17F"/>
<ellipse cx="22.9276" cy="85.1452" rx="2.84947" ry="2.74676" fill="#5BC17F"/>
<ellipse cx="40.0213" cy="85.1452" rx="2.84947" ry="2.74676" fill="#5BC17F"/>
<ellipse cx="57.1229" cy="85.1452" rx="2.84947" ry="2.74676" fill="#5BC17F"/>
<ellipse cx="74.2088" cy="85.1452" rx="2.84947" ry="2.74676" fill="#5BC17F"/>
<ellipse cx="91.3104" cy="85.1452" rx="2.84947" ry="2.74676" fill="#5BC17F"/>
<ellipse cx="108.42" cy="85.1452" rx="2.84947" ry="2.74676" fill="#5BC17F"/>
<ellipse cx="125.514" cy="85.1452" rx="2.84947" ry="2.74676" fill="#5BC17F"/>
<ellipse cx="142.607" cy="85.1452" rx="2.84947" ry="2.74676" fill="#5BC17F"/>
<ellipse cx="159.701" cy="85.1452" rx="2.84947" ry="2.74676" fill="#5BC17F"/>
<ellipse cx="5.82603" cy="101.637" rx="2.84947" ry="2.74676" fill="#5BC17F"/>
<ellipse cx="22.9276" cy="101.637" rx="2.84947" ry="2.74676" fill="#5BC17F"/>
<ellipse cx="40.0213" cy="101.637" rx="2.84947" ry="2.74676" fill="#5BC17F"/>
<ellipse cx="57.1229" cy="101.637" rx="2.84947" ry="2.74676" fill="#5BC17F"/>
<ellipse cx="74.2088" cy="101.637" rx="2.84947" ry="2.74676" fill="#5BC17F"/>
<ellipse cx="91.3104" cy="101.637" rx="2.84947" ry="2.74676" fill="#5BC17F"/>
<ellipse cx="108.42" cy="101.637" rx="2.84947" ry="2.74676" fill="#5BC17F"/>
<ellipse cx="125.514" cy="101.637" rx="2.84947" ry="2.74676" fill="#5BC17F"/>
<ellipse cx="142.607" cy="101.637" rx="2.84947" ry="2.74676" fill="#5BC17F"/>
<ellipse cx="159.701" cy="101.637" rx="2.84947" ry="2.74676" fill="#5BC17F"/>
<ellipse cx="5.82603" cy="118.122" rx="2.84947" ry="2.74676" fill="#5BC17F"/>
<ellipse cx="22.9276" cy="118.122" rx="2.84947" ry="2.74676" fill="#5BC17F"/>
<ellipse cx="40.0213" cy="118.122" rx="2.84947" ry="2.74676" fill="#5BC17F"/>
<ellipse cx="57.1229" cy="118.122" rx="2.84947" ry="2.74676" fill="#5BC17F"/>
<ellipse cx="74.2088" cy="118.122" rx="2.84947" ry="2.74676" fill="#5BC17F"/>
<ellipse cx="91.3104" cy="118.122" rx="2.84947" ry="2.74676" fill="#5BC17F"/>
<ellipse cx="108.42" cy="118.122" rx="2.84947" ry="2.74676" fill="#5BC17F"/>
<ellipse cx="125.514" cy="118.122" rx="2.84947" ry="2.74676" fill="#5BC17F"/>
<ellipse cx="142.607" cy="118.122" rx="2.84947" ry="2.74676" fill="#5BC17F"/>
<ellipse cx="159.701" cy="118.122" rx="2.84947" ry="2.74676" fill="#5BC17F"/>
<ellipse cx="5.82603" cy="134.59" rx="2.84947" ry="2.74676" fill="#5BC17F"/>
<ellipse cx="22.9276" cy="134.59" rx="2.84947" ry="2.74676" fill="#5BC17F"/>
<ellipse cx="40.0213" cy="134.59" rx="2.84947" ry="2.74676" fill="#5BC17F"/>
<ellipse cx="57.1229" cy="134.59" rx="2.84947" ry="2.74676" fill="#5BC17F"/>
<ellipse cx="74.2088" cy="134.59" rx="2.84947" ry="2.74676" fill="#5BC17F"/>
<ellipse cx="91.3104" cy="134.59" rx="2.84947" ry="2.74676" fill="#5BC17F"/>
<ellipse cx="108.42" cy="134.59" rx="2.84947" ry="2.74676" fill="#5BC17F"/>
<ellipse cx="125.514" cy="134.59" rx="2.84947" ry="2.74676" fill="#5BC17F"/>
<ellipse cx="142.607" cy="134.59" rx="2.84947" ry="2.74676" fill="#5BC17F"/>
<ellipse cx="159.701" cy="134.59" rx="2.84947" ry="2.74676" fill="#5BC17F"/>
<ellipse cx="5.82603" cy="151.067" rx="2.84947" ry="2.74676" fill="#5BC17F"/>
<ellipse cx="22.9276" cy="151.067" rx="2.84947" ry="2.74676" fill="#5BC17F"/>
<ellipse cx="40.0213" cy="151.067" rx="2.84947" ry="2.74676" fill="#5BC17F"/>
<ellipse cx="57.1229" cy="151.067" rx="2.84947" ry="2.74676" fill="#5BC17F"/>
<ellipse cx="74.2088" cy="151.067" rx="2.84947" ry="2.74676" fill="#5BC17F"/>
<ellipse cx="91.3104" cy="151.067" rx="2.84947" ry="2.74676" fill="#5BC17F"/>
<ellipse cx="108.42" cy="151.067" rx="2.84947" ry="2.74676" fill="#5BC17F"/>
<ellipse cx="125.514" cy="151.067" rx="2.84947" ry="2.74676" fill="#5BC17F"/>
<ellipse cx="142.607" cy="151.067" rx="2.84947" ry="2.74676" fill="#5BC17F"/>
<ellipse cx="159.701" cy="151.067" rx="2.84947" ry="2.74676" fill="#5BC17F"/>
<ellipse cx="5.82603" cy="167.551" rx="2.84947" ry="2.74676" fill="#5BC17F"/>
<ellipse cx="22.9276" cy="167.551" rx="2.84947" ry="2.74676" fill="#5BC17F"/>
<ellipse cx="40.0213" cy="167.551" rx="2.84947" ry="2.74676" fill="#5BC17F"/>
<ellipse cx="57.1229" cy="167.551" rx="2.84947" ry="2.74676" fill="#5BC17F"/>
<ellipse cx="74.2088" cy="167.551" rx="2.84947" ry="2.74676" fill="#5BC17F"/>
<ellipse cx="91.3104" cy="167.551" rx="2.84947" ry="2.74676" fill="#5BC17F"/>
<ellipse cx="108.42" cy="167.551" rx="2.84947" ry="2.74676" fill="#5BC17F"/>
<ellipse cx="125.514" cy="167.551" rx="2.84947" ry="2.74676" fill="#5BC17F"/>
<ellipse cx="142.607" cy="167.551" rx="2.84947" ry="2.74676" fill="#5BC17F"/>
<ellipse cx="159.701" cy="167.551" rx="2.84947" ry="2.74676" fill="#5BC17F"/>
</svg>
