<svg width="163" height="171" viewBox="0 0 163 171" fill="none" xmlns="http://www.w3.org/2000/svg">
<ellipse cx="5.82603" cy="2.74676" rx="2.84947" ry="2.74676" fill="#5BC17F"/>
<ellipse cx="22.9276" cy="2.74676" rx="2.84947" ry="2.74676" fill="#5BC17F"/>
<ellipse cx="40.0213" cy="2.74676" rx="2.84947" ry="2.74676" fill="#5BC17F"/>
<ellipse cx="57.1229" cy="2.74676" rx="2.84947" ry="2.74676" fill="#5BC17F"/>
<ellipse cx="74.2088" cy="2.74676" rx="2.84947" ry="2.74676" fill="#5BC17F"/>
<ellipse cx="91.3104" cy="2.74676" rx="2.84947" ry="2.74676" fill="#5BC17F"/>
<ellipse cx="108.42" cy="2.74676" rx="2.84947" ry="2.74676" fill="#5BC17F"/>
<ellipse cx="125.514" cy="2.74676" rx="2.84947" ry="2.74676" fill="#5BC17F"/>
<ellipse cx="142.607" cy="2.74676" rx="2.84947" ry="2.74676" fill="#5BC17F"/>
<ellipse cx="159.701" cy="2.74676" rx="2.84947" ry="2.74676" fill="#5BC17F"/>
<ellipse cx="5.82603" cy="19.2233" rx="2.84947" ry="2.74676" fill="#5BC17F"/>
<ellipse cx="22.9276" cy="19.2233" rx="2.84947" ry="2.74676" fill="#5BC17F"/>
<ellipse cx="40.0213" cy="19.2233" rx="2.84947" ry="2.74676" fill="#5BC17F"/>
<ellipse cx="57.1229" cy="19.2233" rx="2.84947" ry="2.74676" fill="#5BC17F"/>
<ellipse cx="74.2088" cy="19.2233" rx="2.84947" ry="2.74676" fill="#5BC17F"/>
<ellipse cx="91.3104" cy="19.2233" rx="2.84947" ry="2.74676" fill="#5BC17F"/>
<ellipse cx="108.42" cy="19.2233" rx="2.84947" ry="2.74676" fill="#5BC17F"/>
<ellipse cx="125.514" cy="19.2233" rx="2.84947" ry="2.74676" fill="#5BC17F"/>
<ellipse cx="142.607" cy="19.2233" rx="2.84947" ry="2.74676" fill="#5BC17F"/>
<ellipse cx="159.701" cy="19.2233" rx="2.84947" ry="2.74676" fill="#5BC17F"/>
<ellipse cx="5.82603" cy="35.7155" rx="2.84947" ry="2.74676" fill="#5BC17F"/>
<ellipse cx="22.9276" cy="35.7155" rx="2.84947" ry="2.74676" fill="#5BC17F"/>
<ellipse cx="40.0213" cy="35.7155" rx="2.84947" ry="2.74676" fill="#5BC17F"/>
<ellipse cx="57.1229" cy="35.7155" rx="2.84947" ry="2.74676" fill="#5BC17F"/>
<ellipse cx="74.2088" cy="35.7155" rx="2.84947" ry="2.74676" fill="#5BC17F"/>
<ellipse cx="91.3104" cy="35.7155" rx="2.84947" ry="2.74676" fill="#5BC17F"/>
<ellipse cx="108.42" cy="35.7155" rx="2.84947" ry="2.74676" fill="#5BC17F"/>
<ellipse cx="125.514" cy="35.7155" rx="2.84947" ry="2.74676" fill="#5BC17F"/>
<ellipse cx="142.607" cy="35.7155" rx="2.84947" ry="2.74676" fill="#5BC17F"/>
<ellipse cx="159.701" cy="35.7155" rx="2.84947" ry="2.74676" fill="#5BC17F"/>
<ellipse cx="5.82603" cy="52.1843" rx="2.84947" ry="2.74676" fill="#5BC17F"/>
<ellipse cx="22.9276" cy="52.1843" rx="2.84947" ry="2.74676" fill="#5BC17F"/>
<ellipse cx="40.0213" cy="52.1843" rx="2.84947" ry="2.74676" fill="#5BC17F"/>
<ellipse cx="57.1229" cy="52.1843" rx="2.84947" ry="2.74676" fill="#5BC17F"/>
<ellipse cx="74.2088" cy="52.1843" rx="2.84947" ry="2.74676" fill="#5BC17F"/>
<ellipse cx="91.3104" cy="52.1843" rx="2.84947" ry="2.74676" fill="#5BC17F"/>
<ellipse cx="108.42" cy="52.1843" rx="2.84947" ry="2.74676" fill="#5BC17F"/>
<ellipse cx="125.514" cy="52.1843" rx="2.84947" ry="2.74676" fill="#5BC17F"/>
<ellipse cx="142.607" cy="52.1843" rx="2.84947" ry="2.74676" fill="#5BC17F"/>
<ellipse cx="159.701" cy="52.1843" rx="2.84947" ry="2.74676" fill="#5BC17F"/>
<ellipse cx="5.82603" cy="68.6686" rx="2.84947" ry="2.74676" fill="#5BC17F"/>
<ellipse cx="22.9276" cy="68.6686" rx="2.84947" ry="2.74676" fill="#5BC17F"/>
<ellipse cx="40.0213" cy="68.6686" rx="2.84947" ry="2.74676" fill="#5BC17F"/>
<ellipse cx="57.1229" cy="68.6686" rx="2.84947" ry="2.74676" fill="#5BC17F"/>
<ellipse cx="74.2088" cy="68.6686" rx="2.84947" ry="2.74676" fill="#5BC17F"/>
<ellipse cx="91.3104" cy="68.6686" rx="2.84947" ry="2.74676" fill="#5BC17F"/>
<ellipse cx="108.42" cy="68.6686" rx="2.84947" ry="2.74676" fill="#5BC17F"/>
<ellipse cx="125.514" cy="68.6686" rx="2.84947" ry="2.74676" fill="#5BC17F"/>
<ellipse cx="142.607" cy="68.6686" rx="2.84947" ry="2.74676" fill="#5BC17F"/>
<ellipse cx="159.701" cy="68.6686" rx="2.84947" ry="2.74676" fill="#5BC17F"/>
<ellipse cx="5.82603" cy="85.1452" rx="2.84947" ry="2.74676" fill="#5BC17F"/>
<ellipse cx="22.9276" cy="85.1452" rx="2.84947" ry="2.74676" fill="#5BC17F"/>
<ellipse cx="40.0213" cy="85.1452" rx="2.84947" ry="2.74676" fill="#5BC17F"/>
<ellipse cx="57.1229" cy="85.1452" rx="2.84947" ry="2.74676" fill="#5BC17F"/>
<ellipse cx="74.2088" cy="85.1452" rx="2.84947" ry="2.74676" fill="#5BC17F"/>
<ellipse cx="91.3104" cy="85.1452" rx="2.84947" ry="2.74676" fill="#5BC17F"/>
<ellipse cx="108.42" cy="85.1452" rx="2.84947" ry="2.74676" fill="#5BC17F"/>
<ellipse cx="125.514" cy="85.1452" rx="2.84947" ry="2.74676" fill="#5BC17F"/>
<ellipse cx="142.607" cy="85.1452" rx="2.84947" ry="2.74676" fill="#5BC17F"/>
<ellipse cx="159.701" cy="85.1452" rx="2.84947" ry="2.74676" fill="#5BC17F"/>
<ellipse cx="5.82603" cy="101.637" rx="2.84947" ry="2.74676" fill="#5BC17F"/>
<ellipse cx="22.9276" cy="101.637" rx="2.84947" ry="2.74676" fill="#5BC17F"/>
<ellipse cx="40.0213" cy="101.637" rx="2.84947" ry="2.74676" fill="#5BC17F"/>
<ellipse cx="57.1229" cy="101.637" rx="2.84947" ry="2.74676" fill="#5BC17F"/>
<ellipse cx="74.2088" cy="101.637" rx="2.84947" ry="2.74676" fill="#5BC17F"/>
<ellipse cx="91.3104" cy="101.637" rx="2.84947" ry="2.74676" fill="#5BC17F"/>
<ellipse cx="108.42" cy="101.637" rx="2.84947" ry="2.74676" fill="#5BC17F"/>
<ellipse cx="125.514" cy="101.637" rx="2.84947" ry="2.74676" fill="#5BC17F"/>
<ellipse cx="142.607" cy="101.637" rx="2.84947" ry="2.74676" fill="#5BC17F"/>
<ellipse cx="159.701" cy="101.637" rx="2.84947" ry="2.74676" fill="#5BC17F"/>
<ellipse cx="5.82603" cy="118.122" rx="2.84947" ry="2.74676" fill="#5BC17F"/>
<ellipse cx="22.9276" cy="118.122" rx="2.84947" ry="2.74676" fill="#5BC17F"/>
<ellipse cx="40.0213" cy="118.122" rx="2.84947" ry="2.74676" fill="#5BC17F"/>
<ellipse cx="57.1229" cy="118.122" rx="2.84947" ry="2.74676" fill="#5BC17F"/>
<ellipse cx="74.2088" cy="118.122" rx="2.84947" ry="2.74676" fill="#5BC17F"/>
<ellipse cx="91.3104" cy="118.122" rx="2.84947" ry="2.74676" fill="#5BC17F"/>
<ellipse cx="108.42" cy="118.122" rx="2.84947" ry="2.74676" fill="#5BC17F"/>
<ellipse cx="125.514" cy="118.122" rx="2.84947" ry="2.74676" fill="#5BC17F"/>
<ellipse cx="142.607" cy="118.122" rx="2.84947" ry="2.74676" fill="#5BC17F"/>
<ellipse cx="159.701" cy="118.122" rx="2.84947" ry="2.74676" fill="#5BC17F"/>
<ellipse cx="5.82603" cy="134.59" rx="2.84947" ry="2.74676" fill="#5BC17F"/>
<ellipse cx="22.9276" cy="134.59" rx="2.84947" ry="2.74676" fill="#5BC17F"/>
<ellipse cx="40.0213" cy="134.59" rx="2.84947" ry="2.74676" fill="#5BC17F"/>
<ellipse cx="57.1229" cy="134.59" rx="2.84947" ry="2.74676" fill="#5BC17F"/>
<ellipse cx="74.2088" cy="134.59" rx="2.84947" ry="2.74676" fill="#5BC17F"/>
<ellipse cx="91.3104" cy="134.59" rx="2.84947" ry="2.74676" fill="#5BC17F"/>
<ellipse cx="108.42" cy="134.59" rx="2.84947" ry="2.74676" fill="#5BC17F"/>
<ellipse cx="125.514" cy="134.59" rx="2.84947" ry="2.74676" fill="#5BC17F"/>
<ellipse cx="142.607" cy="134.59" rx="2.84947" ry="2.74676" fill="#5BC17F"/>
<ellipse cx="159.701" cy="134.59" rx="2.84947" ry="2.74676" fill="#5BC17F"/>
<ellipse cx="5.82603" cy="151.067" rx="2.84947" ry="2.74676" fill="#5BC17F"/>
<ellipse cx="22.9276" cy="151.067" rx="2.84947" ry="2.74676" fill="#5BC17F"/>
<ellipse cx="40.0213" cy="151.067" rx="2.84947" ry="2.74676" fill="#5BC17F"/>
<ellipse cx="57.1229" cy="151.067" rx="2.84947" ry="2.74676" fill="#5BC17F"/>
<ellipse cx="74.2088" cy="151.067" rx="2.84947" ry="2.74676" fill="#5BC17F"/>
<ellipse cx="91.3104" cy="151.067" rx="2.84947" ry="2.74676" fill="#5BC17F"/>
<ellipse cx="108.42" cy="151.067" rx="2.84947" ry="2.74676" fill="#5BC17F"/>
<ellipse cx="125.514" cy="151.067" rx="2.84947" ry="2.74676" fill="#5BC17F"/>
<ellipse cx="142.607" cy="151.067" rx="2.84947" ry="2.74676" fill="#5BC17F"/>
<ellipse cx="159.701" cy="151.067" rx="2.84947" ry="2.74676" fill="#5BC17F"/>
<ellipse cx="5.82603" cy="167.551" rx="2.84947" ry="2.74676" fill="#5BC17F"/>
<ellipse cx="22.9276" cy="167.551" rx="2.84947" ry="2.74676" fill="#5BC17F"/>
<ellipse cx="40.0213" cy="167.551" rx="2.84947" ry="2.74676" fill="#5BC17F"/>
<ellipse cx="57.1229" cy="167.551" rx="2.84947" ry="2.74676" fill="#5BC17F"/>
<ellipse cx="74.2088" cy="167.551" rx="2.84947" ry="2.74676" fill="#5BC17F"/>
<ellipse cx="91.3104" cy="167.551" rx="2.84947" ry="2.74676" fill="#5BC17F"/>
<ellipse cx="108.42" cy="167.551" rx="2.84947" ry="2.74676" fill="#5BC17F"/>
<ellipse cx="125.514" cy="167.551" rx="2.84947" ry="2.74676" fill="#5BC17F"/>
<ellipse cx="142.607" cy="167.551" rx="2.84947" ry="2.74676" fill="#5BC17F"/>
<ellipse cx="159.701" cy="167.551" rx="2.84947" ry="2.74676" fill="#5BC17F"/>
</svg>
