<?xml version="1.0" encoding="utf-8"?>
<!-- Generator: Adobe Illustrator 27.5.0, SVG Export Plug-In . SVG Version: 6.00 Build 0)  -->
<svg version="1.1" id="Layer_1" xmlns="http://www.w3.org/2000/svg" xmlns:xlink="http://www.w3.org/1999/xlink" x="0px" y="0px"
	 viewBox="0 0 290.57 400" style="enable-background:new 0 0 290.57 400;" xml:space="preserve">
<g>
	<g>
		<g>
			<path style="fill:#C28890;" d="M195.722,251.167c-13.802-4.204-48.909-3.325-53.549-3.188
				c-4.639-0.137-39.746-1.016-53.549,3.188c-14.793,4.506-4.769,19.797-4.769,19.797c14.142,31.786,51.171,67.607,57.803,73.873
				v0.963c0,0,0.179-0.165,0.514-0.479c0.335,0.314,0.514,0.479,0.514,0.479v-0.963c6.632-6.265,43.661-42.087,57.803-73.873
				C200.491,270.964,210.514,255.673,195.722,251.167z"/>
			<path style="opacity:0.6;fill:#C28890;" d="M195.722,251.167c-13.802-4.204-48.909-3.325-53.549-3.188
				c-4.639-0.137-39.746-1.016-53.549,3.188c-14.793,4.506-4.769,19.797-4.769,19.797c14.142,31.786,51.171,67.607,57.803,73.873
				v0.963c0,0,0.179-0.165,0.514-0.479c0.335,0.314,0.514,0.479,0.514,0.479v-0.963c6.632-6.265,43.661-42.087,57.803-73.873
				C200.491,270.964,210.514,255.673,195.722,251.167z"/>
			<path style="fill:#BCBEC0;" d="M195.722,251.167c-13.802-4.204-48.909-3.325-53.549-3.188
				c-4.639-0.137-39.746-1.016-53.549,3.188c-14.793,4.506-4.769,19.797-4.769,19.797c14.142,31.786,51.171,67.607,57.803,73.873
				v0.963c0,0,0.179-0.165,0.514-0.479c0.335,0.314,0.514,0.479,0.514,0.479v-0.963c6.632-6.265,43.661-42.087,57.803-73.873
				C200.491,270.964,210.514,255.673,195.722,251.167z"/>
		</g>
		<g>
			<path style="fill:#D3926E;" d="M110.217,219.824c0,0,11.07,54.186-19.227,64.48c0,0-9.082,73.212,51.474,73.212h0.043
				c60.557,0,51.474-73.212,51.474-73.212c-30.298-10.293-19.227-64.48-19.227-64.48H110.217z"/>
			<path style="opacity:0.6;fill:#D3926E;" d="M110.217,219.824c0,0,1.357,6.653,1.82,15.736
				c6.549,4.224,13.598,7.677,20.849,10.514c3.555,1.391,7.093,3.053,11.003,2.582c3.63-0.437,6.957-2.233,10.287-3.617
				c6.237-2.592,12.734-5.757,18.765-9.638c0.47-9.002,1.812-15.577,1.812-15.577H110.217z"/>
			<path style="fill:#821522;" d="M182.635,276.666c-0.449,0.423-0.901,0.842-1.372,1.24c-1.077,0.912-2.289,1.682-3.487,2.424
				c-7.403,4.584-15.991,7.175-24.59,8.268c-4.388,0.558-8.833,0.713-13.247,0.413c-4.442-0.301-8.84-1.128-13.15-2.231
				c-4.827-1.236-9.594-2.895-13.989-5.265c-2.082-1.123-3.932-2.534-5.728-4.065c-1.065-0.908-2.115-1.842-3.204-2.723
				c-3.104,4.276-7.284,7.676-12.878,9.577c0,0-9.082,73.212,51.474,73.212h0.043c60.557,0,51.474-73.212,51.474-73.212
				C189.261,282.699,185.545,280.03,182.635,276.666z"/>
		</g>
		<g>
			<path style="fill:#C28890;" d="M283.106,372.757c-0.056-0.493-0.112-0.987-0.17-1.48c-0.181-1.537-0.372-3.073-0.571-4.607
				c-0.267-2.059-0.55-4.117-0.848-6.172c-0.356-2.461-0.733-4.92-1.132-7.374c-0.446-2.743-0.92-5.481-1.425-8.213
				c-0.537-2.904-1.11-5.801-1.726-8.689c-0.628-2.945-1.302-5.881-2.035-8.802c-0.719-2.868-1.496-5.722-2.352-8.552
				c-0.809-2.673-1.688-5.326-2.677-7.939c-0.895-2.365-1.878-4.701-3.01-6.963c-0.977-1.952-2.064-3.858-3.351-5.623
				c-10.314-14.144-41.515-15.89-56.303-15.889c-2.393,2.638-4.777,5.284-7.195,7.899c-1.833,1.984-3.661,3.967-5.642,5.805
				c-1.969,1.826-3.959,3.627-5.959,5.418c-3.987,3.571-8.012,7.099-11.978,10.694c-3.878,3.516-7.734,7.076-11.348,10.866
				c-3.555,3.728-6.882,7.671-9.996,11.774c-1.512,1.993-3.031,4.006-4.407,6.097c-0.992,1.507-1.777,3.159-2.601,4.76
				c-1.579,3.065-3.214,6.73-6.109,8.793c-0.096,0.068-0.261,0.041-0.338-0.044c-2.249-2.479-4.07-5.325-5.853-8.147
				c-1.824-2.888-3.725-5.703-5.648-8.525c-3.474-5.099-6.889-10.255-10.867-14.983c-2.044-2.43-4.266-4.657-6.524-6.884
				c-2.393-2.359-4.648-4.855-6.848-7.393c-4.169-4.811-8.215-9.727-12.181-14.707c-2.91-3.654-5.797-7.393-8.222-11.402
				c-13.248-0.2-48.04,0.774-59.047,15.869C13.05,317.127,7.264,374.492,7.264,374.492c0,2.953,19.714,5.569,21.621,5.918
				c18.556,3.394,37.357,5.543,56.149,7.088c49.964,4.108,100.435,3.208,150.184-3.077c11.743-1.483,23.499-3.205,35.071-5.719
				c0.366-0.08,0.737-0.14,1.106-0.207c2.453-0.445,4.908-0.914,7.312-1.579c1.127-0.312,2.276-0.65,3.322-1.183
				c0.342-0.174,0.704-0.374,0.97-0.657C283.568,374.472,283.188,373.483,283.106,372.757z"/>
			<path style="opacity:0.6;fill:#C28890;" d="M55.416,288.507c2.183,6.987,8.825,12.784,14.142,17.414
				c7.329,6.383,15.28,12.04,23.237,17.604c15.152,10.594,32.117,20.349,44.951,33.834c1.671,1.756,3.264,3.618,4.55,5.679
				c-0.02,0.108-0.048,0.2-0.088,0.266c0.041-0.068,0.086-0.135,0.128-0.202c0.042,0.068,0.087,0.134,0.128,0.202
				c-0.04-0.066-0.068-0.158-0.088-0.266c1.286-2.061,2.879-3.923,4.55-5.679c12.835-13.485,29.8-23.239,44.951-33.834
				c7.957-5.564,15.907-11.221,23.237-17.604c5.317-4.631,11.96-10.428,14.143-17.414c0.492-1.574,0.62-3.139,0.471-4.673
				c-8.419-1.122-16.532-1.381-22.218-1.38c-2.393,2.638-4.777,5.284-7.195,7.899c-1.833,1.984-3.661,3.967-5.642,5.805
				c-1.969,1.826-3.959,3.627-5.959,5.418c-3.987,3.571-8.012,7.099-11.978,10.694c-3.878,3.516-7.734,7.076-11.348,10.866
				c-3.555,3.728-6.882,7.671-9.996,11.774c-1.512,1.993-3.031,4.006-4.407,6.097c-0.992,1.507-1.777,3.159-2.601,4.76
				c-1.359,2.639-2.762,5.72-4.973,7.842c-0.485,1.952-0.873,3.936-1.075,5.937c-0.195-1.938-0.565-3.861-1.029-5.754
				c-1.963-2.302-3.611-4.871-5.223-7.423c-1.824-2.888-3.725-5.703-5.648-8.525c-3.474-5.099-6.889-10.255-10.867-14.983
				c-2.044-2.43-4.266-4.657-6.524-6.884c-2.393-2.359-4.648-4.855-6.848-7.393c-4.169-4.811-8.215-9.727-12.181-14.707
				c-2.91-3.654-5.797-7.393-8.222-11.402c-6.725-0.101-19.003,0.101-30.902,2.298C54.867,286.004,55.024,287.252,55.416,288.507z
				 M142.336,362.32c0.002,0.096,0.002,0.188,0,0.277C142.338,362.508,142.338,362.415,142.336,362.32z"/>
			<path style="fill:#C28890;" d="M57.419,367.548c-0.349-3.833-0.837-7.664-1.542-11.45c1.012,2.626,1.969,5.194,2.873,7.67
				c0.075,0.225,0.316,0.356,0.549,0.293c0.242-0.066,0.384-0.315,0.318-0.556c-0.867-3.185-1.89-6.307-2.945-9.426
				c-6.083-17.246-15.368-38.922-29.353-51.057c-0.773-0.652-1.576-1.274-2.403-1.863c-0.201,0.343-0.401,0.695-0.599,1.055
				c0.702,0.602,1.386,1.225,2.05,1.867c11.832,11.842,20.894,30.437,27.705,47.428c0.299,2.044,0.531,4.096,0.696,6.152
				c0.603,8.853,0.312,17.821-0.617,26.643c1.302,0.167,2.606,0.329,3.909,0.487C58.135,379.016,57.904,373.306,57.419,367.548z"/>
			<path style="fill:#C28890;" d="M233.215,367.548c0.349-3.833,0.837-7.664,1.542-11.45c-1.012,2.626-1.969,5.194-2.873,7.67
				c-0.075,0.225-0.316,0.356-0.548,0.293c-0.242-0.066-0.384-0.315-0.318-0.556c0.867-3.185,1.89-6.307,2.945-9.426
				c6.083-17.246,15.368-38.922,29.353-51.057c0.773-0.652,1.576-1.274,2.402-1.863c0.202,0.343,0.401,0.695,0.599,1.055
				c-0.702,0.602-1.386,1.225-2.05,1.867c-11.832,11.842-20.893,30.437-27.705,47.428c-0.299,2.044-0.531,4.096-0.696,6.152
				c-0.603,8.853-0.312,17.821,0.617,26.643c-1.302,0.167-2.606,0.329-3.909,0.487C232.499,379.016,232.73,373.306,233.215,367.548z
				"/>
		</g>
		<g>
			<g>
				<path style="fill:#C28890;" d="M142.464,357.515c-0.287-0.474-0.004-2.197-0.043-2.758c-0.187-2.692-0.722-5.364-1.42-7.966
					c-2.773-10.352-8.37-19.851-14.852-28.296c-8.009-10.433-17.53-19.578-25.711-29.868c-6.495-8.17-17.583-22.092-14.347-33.42
					c0.448-1.567,1.262-3,2.534-4.041c-0.681,0.557-3.403,0.507-4.285,0.718c-7.812,1.872-14.884,6.215-20.691,11.697
					c-4.988,4.709-10.518,11.822-8.233,19.137c2.183,6.987,8.825,12.784,14.142,17.414c7.329,6.383,15.28,12.04,23.237,17.604
					c15.152,10.594,32.117,20.349,44.951,33.833C139.489,353.402,141.151,355.347,142.464,357.515z"/>
				<path style="fill:#594A42;" d="M115.265,324.852c0.489-0.612,1.245-1.181,2.406-1.37c1.536-0.25,3.082,0.369,4.13,1.52
					c3.279,3.596,10.055,15.433,4.242,48.918c0,0-2.989,1.832-6.245-0.849c0,0,5.919-32.541-4.481-45.286
					C114.62,326.93,114.577,325.714,115.265,324.852z"/>
			</g>
			<g>
				<path style="fill:#C28890;" d="M142.208,357.515c0.287-0.474,0.004-2.197,0.043-2.758c0.187-2.692,0.722-5.364,1.42-7.966
					c2.773-10.352,8.37-19.851,14.852-28.296c8.009-10.433,17.531-19.578,25.711-29.868c6.495-8.17,17.583-22.092,14.347-33.42
					c-0.448-1.567-1.262-3-2.534-4.041c0.681,0.557,3.402,0.507,4.285,0.718c7.812,1.872,14.884,6.215,20.692,11.697
					c4.988,4.709,10.518,11.822,8.233,19.137c-2.183,6.987-8.826,12.784-14.143,17.414c-7.329,6.383-15.28,12.04-23.237,17.604
					c-15.152,10.594-32.117,20.349-44.951,33.833C145.182,353.402,143.521,355.347,142.208,357.515z"/>
				<path style="fill:#594A42;" d="M169.406,324.852c-0.489-0.612-1.245-1.181-2.406-1.37c-1.536-0.25-3.082,0.369-4.13,1.52
					c-3.279,3.596-10.055,15.433-4.242,48.918c0,0,2.989,1.832,6.245-0.849c0,0-5.919-32.541,4.481-45.286
					C170.051,326.93,170.095,325.714,169.406,324.852z"/>
			</g>
		</g>
	</g>
	<g>
		<path style="fill:#D3926E;" d="M210.929,80.178c0.629,9.318-0.547,18.984-1.068,28.035c-0.905,15.72-2.312,31.41-4.46,47.009
			c-2.014,14.627-4.504,29.623-9.93,43.401c-6.801,17.271-24.95,27.986-41.294,34.779c-3.33,1.384-6.657,3.18-10.287,3.617
			c-3.91,0.471-7.448-1.191-11.003-2.582c-7.522-2.944-14.833-6.541-21.587-10.984c-9.328-6.135-18.101-14.238-22.272-24.83
			c-11.102-28.191-12.664-60.984-14.42-90.916c-0.818-13.939-3.26-29.194,2.711-42.29c3.52-7.72,9.17-14.287,16.089-19.168
			c14.39-10.15,32.841-12.88,50.06-12.88c22.95,0,50.158,5.471,62.229,27.317C209.045,66.746,210.469,73.369,210.929,80.178z"/>
		<g>
			<g>
				<g>
					<g>
						<g>
							<path style="fill:#FFFFFF;" d="M106.042,168.281c0,0-12.014-1.877-13.087-11.639c-1.073-9.761,8.796-16.573,18.236-15.393
								c9.44,1.18,16.413,9.11,17.593,23.434C128.783,164.684,119.504,171.016,106.042,168.281z"/>
							<path style="fill:#844E3D;" d="M97.665,164.372c4.058,2.417,8.739,3.679,13.42,4.112c1.551,0.167,3.191,0.169,4.75,0.211
								c0.162-0.006,0.194,0.249,0.021,0.27c-0.795,0.101-1.595,0.206-2.399,0.259c-4.03,0.224-8.158-0.408-11.85-2.07
								c-1.475-0.671-2.896-1.479-4.113-2.572C97.376,164.472,97.522,164.27,97.665,164.372L97.665,164.372z"/>
							<path style="fill:#231F20;" d="M126.259,152.786c-3.182-8.664-10.634-13.402-19.867-12.507
								c-4.003,0.388-8.044,1.785-10.841,4.786c-1.386,1.487-2.453,3.268-3.118,5.189c-0.682,1.971-0.754,3.966-0.32,6.005
								c0.371,1.746,1.066,3.436,2.041,4.931c0.072,0.126,0.287,0.037,0.25-0.102c-0.493-2.648-0.656-5.254-0.276-7.708
								c1.108-7.773,9.823-11.232,16.857-11.171c5.348,0.064,10.059,2.749,12.894,7.305c1.441,2.217,2.46,4.695,3.228,7.226
								c0.775,2.544,1.347,5.164,1.533,7.819c0.005,0.074,0.069,0.131,0.144,0.126c0.075-0.005,0.131-0.069,0.127-0.144
								C128.618,160.52,127.703,156.548,126.259,152.786z"/>
							<g>
								
									<ellipse transform="matrix(0.7071 -0.7071 0.7071 0.7071 -76.7819 125.4403)" style="fill:#726658;" cx="113.029" cy="155.404" rx="11.46" ry="11.46"/>
								<circle style="fill:#241F20;" cx="113.029" cy="155.404" r="6.571"/>
								<path style="fill:#FFFFFF;" d="M114.823,153.066c0,2.283,1.851,4.134,4.134,4.134c2.283,0,4.134-1.851,4.134-4.134
									c0-2.283-1.851-4.134-4.134-4.134C116.674,148.932,114.823,150.783,114.823,153.066z"/>
							</g>
						</g>
						<g>
							<path style="fill:#3A3F4F;" d="M88.111,134.247c0,0,5.366-0.456,10.563-2.243c5.197-1.787,9.211-0.553,13.397,1.619
								c4.186,2.172,18.772,7.682,18.557,5.745c0,0,1.178,0.619,1.149-0.851c0,0,0.579-10.794-5.733-11.867
								c-6.312-1.074-21.652-4.203-26.234-1.65C95.227,127.551,91.763,130.447,88.111,134.247z"/>
							<path style="fill:#3A3F4F;" d="M132.347,128.937c0,0-1.118-0.234-0.736,1.152c0.382,1.386,1.786,4.957,0.954,9.669
								c0,0,0.395,1.019,0.912-0.649C133.994,137.441,134.544,132.279,132.347,128.937z"/>
						</g>
					</g>
				</g>
				<g>
					<g>
						<g>
							<path style="fill:#FFFFFF;" d="M178.484,168.281c0,0,12.014-1.877,13.087-11.639c1.073-9.761-8.796-16.573-18.236-15.393
								c-9.44,1.18-16.413,9.11-17.593,23.434C155.743,164.684,165.022,171.016,178.484,168.281z"/>
							<path style="fill:#844E3D;" d="M186.861,164.372c-4.059,2.417-8.74,3.679-13.42,4.112c-1.551,0.167-3.191,0.169-4.75,0.211
								c-0.162-0.006-0.194,0.249-0.022,0.27c0.795,0.101,1.595,0.206,2.399,0.259c4.03,0.224,8.158-0.408,11.85-2.07
								c1.476-0.671,2.896-1.479,4.113-2.572C187.15,164.472,187.004,164.27,186.861,164.372L186.861,164.372z"/>
							<path style="fill:#231F20;" d="M158.267,152.786c3.182-8.664,10.634-13.402,19.867-12.507
								c4.003,0.388,8.044,1.785,10.841,4.786c1.386,1.487,2.453,3.268,3.118,5.189c0.682,1.971,0.754,3.966,0.32,6.005
								c-0.371,1.746-1.066,3.436-2.041,4.931c-0.072,0.126-0.287,0.037-0.25-0.102c0.493-2.648,0.656-5.254,0.276-7.708
								c-1.108-7.773-9.823-11.232-16.857-11.171c-5.348,0.064-10.058,2.749-12.894,7.305c-1.441,2.217-2.46,4.695-3.228,7.226
								c-0.775,2.544-1.347,5.164-1.533,7.819c-0.005,0.074-0.069,0.131-0.144,0.126c-0.075-0.005-0.131-0.069-0.127-0.144
								C155.908,160.52,156.823,156.548,158.267,152.786z"/>
							<g>
								
									<ellipse transform="matrix(0.7071 -0.7071 0.7071 0.7071 -59.657 166.7836)" style="fill:#726658;" cx="171.497" cy="155.404" rx="11.46" ry="11.46"/>
								<circle style="fill:#241F20;" cx="171.497" cy="155.404" r="6.571"/>
								<path style="fill:#FFFFFF;" d="M169.703,153.066c0,2.283-1.851,4.134-4.134,4.134c-2.283,0-4.134-1.851-4.134-4.134
									c0-2.283,1.851-4.134,4.134-4.134C167.852,148.932,169.703,150.783,169.703,153.066z"/>
							</g>
						</g>
						<g>
							<path style="fill:#3A3F4F;" d="M196.415,134.247c0,0-5.366-0.456-10.563-2.243c-5.197-1.787-9.211-0.553-13.397,1.619
								c-4.186,2.172-18.772,7.682-18.557,5.745c0,0-1.178,0.619-1.149-0.851c0,0-0.579-10.794,5.733-11.867
								c6.312-1.074,21.652-4.203,26.234-1.65C189.299,127.551,192.763,130.447,196.415,134.247z"/>
							<path style="fill:#3A3F4F;" d="M152.179,128.937c0,0,1.118-0.234,0.736,1.152c-0.382,1.386-1.786,4.957-0.954,9.669
								c0,0-0.395,1.019-0.912-0.649C150.532,137.441,149.982,132.279,152.179,128.937z"/>
						</g>
					</g>
				</g>
			</g>
			<g>
				<g style="opacity:0.5;">
					<path style="fill:#D3926E;" d="M151.001,184.424c-0.368-1.69-2.014-2.995-3.604-3.567c-2.038-0.733-4.267-0.986-6.425-0.787
						c-1.974,0.182-4.187,0.663-5.786,1.874c-0.178,0.134-0.348,0.278-0.508,0.432c-2.407,2.3-0.885,5.534,0.917,7.641
						c0.875,1.024,1.921,1.891,3.078,2.55c1.244,0.709,2.711,0.943,4.12,0.823c1.48-0.126,2.936-0.655,4.144-1.522
						c0.993-0.713,1.845-1.69,2.594-2.664C150.556,187.871,151.371,186.126,151.001,184.424z M142.263,187.13
						c-3.448,0-6.243-1.281-6.243-2.86s2.795-2.86,6.243-2.86s6.243,1.281,6.243,2.86S145.711,187.13,142.263,187.13z"/>
				</g>
				<g>
					<path style="fill:#754C29;" d="M139.851,189.56c-0.554-0.511-1.203-0.871-1.901-1.176c-0.487-0.213-1.729-0.699-1.819,0.205
						c-0.022,0.224,0.088,0.442,0.231,0.617c0.805,0.986,2.215,1.792,3.51,1.833c0.254,0.008,0.608-0.048,0.701-0.327
						c0.108-0.323-0.219-0.627-0.411-0.84C140.061,189.762,139.958,189.658,139.851,189.56z"/>
					<path style="fill:#754C29;" d="M144.675,189.56c0.554-0.511,1.203-0.871,1.901-1.176c0.487-0.213,1.729-0.699,1.819,0.205
						c0.022,0.224-0.088,0.442-0.231,0.617c-0.805,0.986-2.215,1.792-3.51,1.833c-0.254,0.008-0.608-0.048-0.701-0.327
						c-0.108-0.323,0.219-0.627,0.411-0.84C144.465,189.762,144.568,189.658,144.675,189.56z"/>
				</g>
			</g>
			<path style="fill:#D3926E;" d="M168.81,200.349c-4.311,2.997-9.49,4.32-14.578,5.26c-0.591,0.088-1.991,0.288-2.556,0.371
				c-0.525,0.053-2.019,0.206-2.568,0.26c-1.977,0.181-4.855,0.25-6.869,0.263v-0.535h0.077v0.535l-3.437-0.046
				c-1.952-0.089-4.054-0.241-6.002-0.462c-0.57-0.08-1.977-0.285-2.557-0.367c-3.955-0.696-7.928-1.703-11.558-3.465
				c-1.052-0.509-2.055-1.048-3.045-1.78l0.613-0.749c3.662,2.61,8.091,3.967,12.448,4.94c0,0,1.667,0.34,1.667,0.34
				c0.582,0.094,1.965,0.313,2.522,0.403c1.93,0.249,4.003,0.432,5.939,0.551l3.411,0.1v0.535h-0.077v-0.535
				c2.659-0.046,5.886-0.192,8.506-0.539c0.96-0.09,2.41-0.352,3.369-0.496c3.877-0.74,7.758-1.779,11.291-3.555
				c0.999-0.495,2.003-1.067,2.848-1.711L168.81,200.349L168.81,200.349z"/>
		</g>
		<g>
			<g>
				<path style="fill:#D3926E;" d="M83.514,163.876c-1.721-4.701-3.718-9.324-7.073-13.115c-6.154-6.953-17.492-3.682-20.728,4.529
					c-2.556,6.486,0.199,13.959,3.424,19.698c2.968,5.282,6.869,10.667,12.721,13.062c4.877,1.996,13.789,2.678,15.729-3.725
					c1.605-5.297-1.184-12.277-2.93-17.24C84.282,166.017,83.905,164.944,83.514,163.876z"/>
				<path style="fill:#D3926E;" d="M75.893,164.964c0,0-4.279-2.265-4.531,2.937c-0.252,5.202,4.363,8.139,4.363,8.139
					s-12.753,2.181-14.012-11.159C60.455,151.54,73.376,152.715,75.893,164.964z"/>
			</g>
			<g>
				<path style="fill:#D3926E;" d="M201.012,163.876c1.721-4.701,3.718-9.324,7.073-13.115c6.154-6.953,17.492-3.682,20.728,4.529
					c2.556,6.486-0.199,13.959-3.424,19.698c-2.968,5.282-6.869,10.667-12.721,13.062c-4.877,1.996-13.789,2.678-15.729-3.725
					c-1.605-5.297,1.184-12.277,2.93-17.24C200.244,166.017,200.621,164.944,201.012,163.876z"/>
				<path style="fill:#D3926E;" d="M208.633,164.964c0,0,4.279-2.265,4.531,2.937c0.252,5.202-4.363,8.139-4.363,8.139
					s12.753,2.181,14.012-11.159C224.071,151.54,211.15,152.715,208.633,164.964z"/>
			</g>
		</g>
		<g>
			<path style="fill:#3A3F4F;" d="M205.738,153.381c1.086-19.394-9.464-47.475-9.464-47.475c-0.776,9.464-9.929,9.464-9.929,9.464
				c9.619-3.724,2.896-25.731,2.896-25.731s-7.598,25.225-51.057,28.871c-43.459,3.647-46.194-10.029-46.194-10.029
				s10.729,8.286,32.572,0.725c0,0-28.564,3.192-36.629-8.905c0,0-11.593,25.539-10.081,51.247c0,0-13.946-32.764-13.106-62.84
				c0,0-4.464,6.807-3.157,12.327c0,0-7.554-21.063,7.408-33.41c0,0-8.135,2.76-10.604,12.783c0,0-1.453-35.734,31.376-46.193
				c0,0-13.945-0.581-15.252-12.928c0,0,8.861,8.861,23.532,0.872c14.671-7.989,28.907-14.526,51.858-11.33
				s38.494,13.945,40.964,29.488c0,0,1.453-5.665-2.469-12.638c0,0,5.375,2.469,6.101,10.314c0,0,2.905-4.503,11.766-3.196
				c0,0-5.229,2.469-6.246,8.57c0,0,13.594,0.97,21.789,17.431C238.372,94.063,205.738,153.381,205.738,153.381z"/>
			<path style="opacity:0.45;fill:#3A3F4F;" d="M188.251,62.97c7.089,42.532-59.811,49.178-59.811,49.178
				c29.905-11.298,29.241-30.57,29.241-30.57s-20.823,17.943-46.519,15.507c-25.696-2.437-13.956-21.709-13.956-21.709
				c-21.931,8.196-13.07,24.367-13.07,24.367l-10.19,20.38c-5.538-9.082-9.201-31.414-9.201-31.414
				c-0.84,30.076,13.106,62.84,13.106,62.84c-1.512-25.707,10.081-51.247,10.081-51.247c8.065,12.098,36.629,8.905,36.629,8.905
				c-21.843,7.561-32.572-0.725-32.572-0.725s2.735,13.676,46.194,10.029c43.459-3.647,51.057-28.871,51.057-28.871
				s6.723,22.007-2.896,25.73c0,0,5.41-0.005,8.264-4.309c0.628-1.666,1.19-3.383,1.666-5.155
				C203.19,80.17,188.251,62.97,188.251,62.97z"/>
		</g>
	</g>
</g>
</svg>
