<svg width="40" height="46" viewBox="0 0 40 46" fill="none" xmlns="http://www.w3.org/2000/svg">
<path d="M35.6338 2.4998H28.9306V1.99999C28.9306 1.46967 28.6739 0.960954 28.2167 0.585772C27.7595 0.210589 27.1394 0 26.493 0H13.0861C12.4397 0 11.8197 0.210637 11.3625 0.585772C10.9052 0.960907 10.6485 1.46964 10.6485 1.99999V2.4998H3.9454C2.99468 2.48641 2.0766 2.78265 1.39127 3.32301C0.706366 3.86376 0.309929 4.60509 0.289062 5.3848V43.1146C0.309928 43.8946 0.706366 44.6356 1.39127 45.1764C2.07664 45.7171 2.99474 46.013 3.9454 45.9996H35.6327C36.5834 46.013 37.5015 45.7171 38.1869 45.1764C38.8722 44.6356 39.2682 43.8947 39.2891 43.1146V5.3848C39.2682 4.60513 38.8722 3.86378 38.1869 3.32301C37.5015 2.78264 36.5834 2.48641 35.6327 2.4998H35.6338ZM27.7119 14.7147C27.7119 14.98 27.5835 15.2342 27.3549 15.4218C27.1263 15.6093 26.8165 15.7147 26.4931 15.7147H22.6721L19.0158 17.8148C18.4729 18.114 17.7385 18.0079 17.3525 17.5747C16.9661 17.1255 17.094 16.5048 17.6387 16.1847L18.4493 15.7147H16.2126C15.5023 15.7139 14.807 15.5464 14.2087 15.232C13.6103 14.9175 13.1346 14.469 12.8366 13.9399L11.9776 12.4401V12.4397C11.695 11.9373 11.9621 11.3419 12.5749 11.1096C13.1873 10.8778 13.9129 11.0974 14.1956 11.5998L15.0488 13.0995C15.2579 13.4732 15.7119 13.7132 16.2126 13.7147H26.4931C26.8165 13.7147 27.1263 13.82 27.3549 14.0076C27.5835 14.1952 27.7119 14.4493 27.7119 14.7147ZM12.5132 21.6446C12.7886 21.7849 12.9845 22.0093 13.0575 22.268C13.1306 22.527 13.0752 22.799 12.9033 23.0246L9.85662 27.0245C9.65976 27.2835 9.33 27.4547 8.96079 27.4893H8.82064C8.49769 27.4882 8.1888 27.3821 7.9611 27.1945L6.13318 25.6948V25.6944C5.87509 25.5132 5.72132 25.2519 5.70816 24.9735C5.69501 24.6951 5.82383 24.425 6.06423 24.2277C6.30417 24.0308 6.63347 23.9248 6.97276 23.9356C7.31249 23.9464 7.63091 24.0729 7.8518 24.2843L8.60112 24.8943L10.8314 21.9594C11.0033 21.7346 11.2773 21.5749 11.593 21.5158C11.9082 21.4566 12.2397 21.5032 12.5132 21.6446ZM6.13314 33.0439C6.60851 32.6565 7.37642 32.6565 7.8518 33.0439L8.60112 33.6539L10.8314 30.719C11.1884 30.2497 11.9413 30.1065 12.5132 30.399C13.0857 30.6919 13.2603 31.3096 12.9033 31.7789L9.85663 35.7788C9.65977 36.0378 9.33001 36.209 8.96081 36.244H8.82065C8.49771 36.2429 8.18881 36.1368 7.96111 35.9489L6.13319 34.4491C5.66463 34.0595 5.66463 33.4335 6.13319 33.0438L6.13314 33.0439ZM15.5237 33.4991C15.5237 32.9468 16.0694 32.4991 16.7425 32.4991H32.5867C33.2598 32.4991 33.8055 32.9468 33.8055 33.4991C33.8055 34.0513 33.2598 34.4991 32.5867 34.4991H16.7425C16.0693 34.4991 15.5237 34.0513 15.5237 33.4991ZM32.5872 25.7492H16.7429C16.0698 25.7492 15.5242 25.3015 15.5242 24.7493C15.5242 24.197 16.0698 23.7493 16.7429 23.7493H32.5872C33.2603 23.7493 33.8059 24.197 33.8059 24.7493C33.8059 25.3015 33.2603 25.7492 32.5872 25.7492ZM13.0864 1.99975H26.4933V4.99968H13.0864V1.99975Z" fill="#183F30"/>
</svg>
