<svg width="42" height="42" viewBox="0 0 42 42" fill="none" xmlns="http://www.w3.org/2000/svg">
<path d="M41.1802 23.8406C41.3314 21.1792 41.281 18.4737 41.281 15.8123V7.65122C41.281 6.98577 40.9786 6.76397 40.2229 6.67558C38.6104 6.49813 36.9979 6.36504 35.4354 6.05449C30.4463 5.07885 26.0116 3.03847 21.829 0.465814C20.821 -0.155271 20.821 -0.155271 19.8133 0.465814C14.2702 3.83672 8.37448 6.27635 1.52077 6.63123C0.462702 6.6756 0.311464 6.89741 0.311464 7.78436C0.311464 12.6633 0.261061 17.5866 0.311464 22.5105C0.311464 23.7523 0.513074 24.9946 0.815499 26.192C1.62195 29.3411 3.58729 31.9138 6.10662 34.176C10.1381 37.7688 14.976 40.164 20.3172 41.9382C20.6196 42.0269 21.0228 42.0269 21.3252 41.8938C23.1394 41.184 25.0038 40.5189 26.818 39.7203C31.0511 37.7687 34.7802 35.2847 37.6527 31.8694C39.7184 29.4741 41.029 26.8122 41.1802 23.8406ZM20.8211 34.6191C12.3045 34.6191 5.35024 28.4981 5.35024 21.0022C5.34985 13.5062 12.3043 7.38534 20.8211 7.38534C29.3379 7.38534 36.292 13.5064 36.292 21.0022C36.292 28.4983 29.3375 34.6191 20.8211 34.6191ZM20.8211 10.2246C14.0682 10.2246 8.57505 15.0591 8.57505 21.0031C8.57505 26.9471 14.0678 31.7817 20.8211 31.7817C27.5744 31.7817 33.0672 26.9471 33.0672 21.0031C33.0672 15.0591 27.574 10.2246 20.8211 10.2246ZM24.8022 25.8373C24.1974 26.5028 23.3913 26.9017 22.484 27.1235C22.0808 27.2122 21.8792 27.3896 21.9296 27.7889V28.8533C21.9296 29.1638 21.728 29.3413 21.3751 29.3413H20.065C19.6618 29.3413 19.5106 29.1638 19.5106 28.8089V28.0104C19.5106 27.4337 19.4602 27.3893 18.8553 27.3006C18.0489 27.1675 17.2428 27.0344 16.4867 26.7239C15.8819 26.4577 15.8315 26.3246 16.0331 25.7926C16.1339 25.3933 16.2851 24.9941 16.4363 24.5951C16.5875 24.1515 16.7387 24.0627 17.2428 24.2846C18.0492 24.6838 18.9561 24.8613 19.8633 24.9944C20.4682 25.0387 21.0222 24.9944 21.5767 24.8169C22.5847 24.4177 22.7356 23.3977 21.8791 22.7765C21.5767 22.5547 21.2742 22.4216 20.9214 22.2886C20.0142 21.9336 19.1073 21.6675 18.2505 21.2242C16.8899 20.5144 16.0331 19.4944 16.1339 18.0307C16.2347 16.3896 17.2928 15.3253 19.057 14.793C19.7626 14.5711 19.7626 14.5711 19.7626 13.9057V13.2403C19.7626 12.7523 19.8634 12.6635 20.4178 12.6635H20.9219C22.1312 12.6635 22.1312 12.6635 22.1312 13.7279C22.1312 14.4821 22.1312 14.4821 22.988 14.5708C23.6433 14.6595 24.2478 14.837 24.8526 15.0588C25.2054 15.1919 25.3062 15.3694 25.2054 15.6799C25.0542 16.1235 24.903 16.5672 24.7518 17.0548C24.6006 17.4984 24.4494 17.5428 23.9957 17.3653C23.0885 16.9661 22.0808 16.7886 21.0727 16.833C20.8207 16.833 20.5183 16.8773 20.2663 16.9661C19.359 17.321 19.2582 18.1636 20.0142 18.6958C20.4175 18.962 20.8207 19.1395 21.274 19.3169C22.0804 19.5831 22.8361 19.8936 23.5921 20.2482C25.8603 21.4017 26.4651 24.0188 24.8022 25.8373Z" fill="#183F30"/>
</svg>
