<svg width="61" height="43" viewBox="0 0 61 43" fill="none" xmlns="http://www.w3.org/2000/svg">
<path fill-rule="evenodd" clip-rule="evenodd" d="M41.0646 0.00158463C51.6816 0.00158463 60.2891 9.63149 60.2891 21.5008C60.2891 33.3701 51.6818 43 41.0646 43C40.2597 43 39.4608 42.9416 38.6818 42.8315H22.0233C20.5241 42.8315 19.3005 41.463 19.3005 39.7876C19.3005 38.1116 20.5246 36.7363 22.0233 36.7363H22.9591C24.2685 36.7363 25.3677 35.6974 25.6297 34.3216C25.6687 34.1167 25.6885 33.9046 25.6885 33.6924C25.6885 32.6388 25.2044 31.7021 24.4644 31.1535L24.438 31.1313H24.4314L24.3721 31.0871L24.3655 31.0797L24.3457 31.0723L24.3259 31.0576L24.3127 31.0428H24.3061L24.2863 31.0281L24.2599 31.0133L24.2401 31.006L24.2203 30.9912L24.2137 30.9838L24.1939 30.9765L24.1741 30.9617H24.1675L24.1609 30.9543L24.1153 30.9322L24.1087 30.9248L24.0823 30.9175L24.0625 30.9101V30.9027L24.0168 30.8806L23.997 30.8732L23.9706 30.8584H23.964L23.9184 30.8363H23.9118L23.9052 30.8289L23.8661 30.8142H23.8529L23.8072 30.7921L23.7615 30.7773H23.7549L23.7483 30.7699L23.7027 30.7552C23.4672 30.682 23.2185 30.6383 22.9566 30.6383H15.9332C14.434 30.6383 13.2104 29.2698 13.2104 27.5944C13.2104 25.9184 14.4345 24.5431 15.9332 24.5431H19.8801C20.685 24.5431 21.4117 24.1482 21.9157 23.5184C22.3476 22.984 22.6095 22.2742 22.6095 21.4987C22.6095 20.7231 22.341 20.0132 21.9157 19.4715C21.4117 18.8496 20.685 18.4542 19.8801 18.4542H12.8567C11.3575 18.4542 10.1273 17.0783 10.1273 15.4029C10.1273 13.7269 11.358 12.359 12.8567 12.359H23.6503V12.3516C25.1098 12.3005 26.2948 10.9542 26.2948 9.30768C26.2948 8.86117 26.203 8.44416 26.0528 8.05664C25.6209 7.00305 24.6652 6.26373 23.5654 6.26373H3.01183C1.51266 6.26373 0.289062 4.88787 0.289062 3.21242C0.289062 1.53643 1.51317 0.168512 3.01183 0.168512H38.5609H38.6655C39.4445 0.0590098 40.2494 0 41.061 0L41.0646 0.00158463ZM4.89964 12.3611H6.28057C7.77974 12.3611 9.00334 13.737 9.00334 15.4124C9.00334 17.0884 7.77923 18.4563 6.28057 18.4563H4.89964C3.40047 18.4563 2.17025 17.0878 2.17025 15.4124C2.17025 13.7364 3.40095 12.3611 4.89964 12.3611ZM26.5974 7.33381C26.8852 6.96787 27.1866 6.60929 27.5008 6.26546C27.1866 6.60929 26.8857 6.96785 26.5974 7.33381ZM42.4699 8.70968C44.5974 8.99506 46.5478 9.93915 48.158 11.344L44.5055 15.4273C43.8904 14.9881 43.2028 14.6664 42.4699 14.4832V8.70968ZM50.148 13.5686C51.4046 15.3689 52.2425 17.5492 52.5044 19.9276H47.3334C47.17 19.1077 46.8817 18.3394 46.4955 17.6518L50.148 13.5686ZM52.5044 23.0741C52.2425 25.4525 51.4046 27.633 50.148 29.4331L46.4955 25.3498C46.8818 24.6622 47.1695 23.8935 47.3334 23.0741H52.5044ZM48.1581 31.6579C46.5478 33.0626 44.5975 34.0068 42.4701 34.2922V28.5187C43.2034 28.336 43.884 28.0137 44.5057 27.5746L48.1581 31.6579ZM39.6554 34.2922C37.5213 34.0068 35.571 33.0627 33.9673 31.6579L37.6198 27.5746C38.2349 28.0137 38.9225 28.3354 39.6554 28.5187V34.2922ZM31.9773 29.4333C30.7141 27.633 29.8762 25.4527 29.6143 23.0743H34.7853C34.9487 23.8941 35.237 24.6624 35.6298 25.35L31.9773 29.4333ZM29.6143 19.9277C29.8762 17.5493 30.7141 15.3689 31.9773 13.5687L35.6298 17.652C35.237 18.3396 34.9492 19.1084 34.7853 19.9277H29.6143ZM33.9672 11.344C35.571 9.9392 37.5212 8.99508 39.6553 8.70968V14.4832C38.922 14.6659 38.2347 14.9881 37.6197 15.4273L33.9672 11.344ZM41.0626 16.166C43.694 16.166 45.8276 18.5586 45.8276 21.5004C45.8276 24.4422 43.6935 26.8348 41.0626 26.8348C38.4246 26.8348 36.291 24.4422 36.291 21.5004C36.291 18.5586 38.4251 16.166 41.0626 16.166ZM41.0626 6.40449C48.5179 6.40449 54.5667 13.1584 54.5667 21.5013C54.5667 29.8433 48.5187 36.5981 41.0626 36.5981C33.6007 36.5981 27.5534 29.8442 27.5534 21.5013C27.5534 13.1593 33.6014 6.40449 41.0626 6.40449Z" fill="#183F30"/>
</svg>
