<svg width="93" height="114" viewBox="0 0 93 114" fill="none" xmlns="http://www.w3.org/2000/svg">
<circle cx="5.13301" cy="5.13301" r="5.13301" fill="white" fill-opacity="0.1"/>
<circle cx="5.13301" cy="25.7111" r="5.13301" fill="white" fill-opacity="0.1"/>
<circle cx="5.13301" cy="46.2814" r="5.13301" fill="white" fill-opacity="0.1"/>
<circle cx="5.13301" cy="66.8596" r="5.13301" fill="white" fill-opacity="0.1"/>
<circle cx="5.13301" cy="87.4377" r="5.13301" fill="white" fill-opacity="0.1"/>
<circle cx="5.13301" cy="108.008" r="5.13301" fill="white" fill-opacity="0.1"/>
<circle cx="25.7111" cy="5.13301" r="5.13301" fill="white" fill-opacity="0.1"/>
<circle cx="25.7111" cy="25.7111" r="5.13301" fill="white" fill-opacity="0.1"/>
<circle cx="25.7111" cy="46.2814" r="5.13301" fill="white" fill-opacity="0.1"/>
<circle cx="25.7111" cy="66.8596" r="5.13301" fill="white" fill-opacity="0.1"/>
<circle cx="25.7111" cy="87.4377" r="5.13301" fill="white" fill-opacity="0.1"/>
<circle cx="25.7111" cy="108.008" r="5.13301" fill="white" fill-opacity="0.1"/>
<circle cx="46.2814" cy="5.13301" r="5.13301" fill="white" fill-opacity="0.1"/>
<circle cx="46.2814" cy="25.7111" r="5.13301" fill="white" fill-opacity="0.1"/>
<circle cx="46.2814" cy="46.2814" r="5.13301" fill="white" fill-opacity="0.1"/>
<circle cx="46.2814" cy="66.8596" r="5.13301" fill="white" fill-opacity="0.1"/>
<circle cx="46.2814" cy="87.4377" r="5.13301" fill="white" fill-opacity="0.1"/>
<circle cx="46.2814" cy="108.008" r="5.13301" fill="white" fill-opacity="0.1"/>
<circle cx="66.8596" cy="5.13301" r="5.13301" fill="white" fill-opacity="0.1"/>
<circle cx="66.8596" cy="25.7111" r="5.13301" fill="white" fill-opacity="0.1"/>
<circle cx="66.8596" cy="46.2814" r="5.13301" fill="white" fill-opacity="0.1"/>
<circle cx="66.8596" cy="66.8596" r="5.13301" fill="white" fill-opacity="0.1"/>
<circle cx="66.8596" cy="87.4377" r="5.13301" fill="white" fill-opacity="0.1"/>
<circle cx="66.8596" cy="108.008" r="5.13301" fill="white" fill-opacity="0.1"/>
<circle cx="87.4377" cy="5.13301" r="5.13301" fill="white" fill-opacity="0.1"/>
<circle cx="87.4377" cy="25.7111" r="5.13301" fill="white" fill-opacity="0.1"/>
<circle cx="87.4377" cy="46.2814" r="5.13301" fill="white" fill-opacity="0.1"/>
<circle cx="87.4377" cy="66.8596" r="5.13301" fill="white" fill-opacity="0.1"/>
<circle cx="87.4377" cy="87.4377" r="5.13301" fill="white" fill-opacity="0.1"/>
<circle cx="87.4377" cy="108.008" r="5.13301" fill="white" fill-opacity="0.1"/>
</svg>
