<svg width="1728" height="1036" viewBox="0 0 1728 1036" fill="none" xmlns="http://www.w3.org/2000/svg">
<circle cx="201.575" cy="623.575" r="11.5752" fill="white" fill-opacity="0.06"/>
<circle cx="201.575" cy="669.981" r="11.5752" fill="white" fill-opacity="0.06"/>
<circle cx="201.575" cy="716.372" r="11.5752" fill="white" fill-opacity="0.06"/>
<circle cx="201.575" cy="762.77" r="11.5752" fill="white" fill-opacity="0.06"/>
<circle cx="201.575" cy="809.177" r="11.5752" fill="white" fill-opacity="0.06"/>
<circle cx="201.575" cy="855.567" r="11.5752" fill="white" fill-opacity="0.06"/>
<circle cx="247.981" cy="623.575" r="11.5752" fill="white" fill-opacity="0.06"/>
<circle cx="247.981" cy="669.981" r="11.5752" fill="white" fill-opacity="0.06"/>
<circle cx="247.981" cy="716.372" r="11.5752" fill="white" fill-opacity="0.06"/>
<circle cx="247.981" cy="762.77" r="11.5752" fill="white" fill-opacity="0.06"/>
<circle cx="247.981" cy="809.177" r="11.5752" fill="white" fill-opacity="0.06"/>
<circle cx="247.981" cy="855.567" r="11.5752" fill="white" fill-opacity="0.06"/>
<circle cx="294.372" cy="623.575" r="11.5752" fill="white" fill-opacity="0.06"/>
<circle cx="294.372" cy="669.981" r="11.5752" fill="white" fill-opacity="0.06"/>
<circle cx="294.372" cy="716.372" r="11.5752" fill="white" fill-opacity="0.06"/>
<circle cx="294.372" cy="762.77" r="11.5752" fill="white" fill-opacity="0.06"/>
<circle cx="294.372" cy="809.177" r="11.5752" fill="white" fill-opacity="0.06"/>
<circle cx="294.372" cy="855.567" r="11.5752" fill="white" fill-opacity="0.06"/>
<circle cx="340.77" cy="623.575" r="11.5752" fill="white" fill-opacity="0.06"/>
<circle cx="340.77" cy="669.981" r="11.5752" fill="white" fill-opacity="0.06"/>
<circle cx="340.77" cy="716.372" r="11.5752" fill="white" fill-opacity="0.06"/>
<circle cx="340.77" cy="762.77" r="11.5752" fill="white" fill-opacity="0.06"/>
<circle cx="340.77" cy="809.177" r="11.5752" fill="white" fill-opacity="0.06"/>
<circle cx="340.77" cy="855.567" r="11.5752" fill="white" fill-opacity="0.06"/>
<circle cx="387.177" cy="623.575" r="11.5752" fill="white" fill-opacity="0.06"/>
<circle cx="387.177" cy="669.981" r="11.5752" fill="white" fill-opacity="0.06"/>
<circle cx="387.177" cy="716.372" r="11.5752" fill="white" fill-opacity="0.06"/>
<circle cx="387.177" cy="762.77" r="11.5752" fill="white" fill-opacity="0.06"/>
<circle cx="387.177" cy="809.177" r="11.5752" fill="white" fill-opacity="0.06"/>
<circle cx="387.177" cy="855.567" r="11.5752" fill="white" fill-opacity="0.06"/>
<circle cx="722.133" cy="103.133" r="5.13301" fill="white" fill-opacity="0.1"/>
<circle cx="722.133" cy="123.711" r="5.13301" fill="white" fill-opacity="0.1"/>
<circle cx="722.133" cy="144.281" r="5.13301" fill="white" fill-opacity="0.1"/>
<circle cx="722.133" cy="164.86" r="5.13301" fill="white" fill-opacity="0.1"/>
<circle cx="722.133" cy="185.438" r="5.13301" fill="white" fill-opacity="0.1"/>
<circle cx="722.133" cy="206.008" r="5.13301" fill="white" fill-opacity="0.1"/>
<circle cx="742.711" cy="103.133" r="5.13301" fill="white" fill-opacity="0.1"/>
<circle cx="742.711" cy="123.711" r="5.13301" fill="white" fill-opacity="0.1"/>
<circle cx="742.711" cy="144.281" r="5.13301" fill="white" fill-opacity="0.1"/>
<circle cx="742.711" cy="164.86" r="5.13301" fill="white" fill-opacity="0.1"/>
<circle cx="742.711" cy="185.438" r="5.13301" fill="white" fill-opacity="0.1"/>
<circle cx="742.711" cy="206.008" r="5.13301" fill="white" fill-opacity="0.1"/>
<circle cx="763.281" cy="103.133" r="5.13301" fill="white" fill-opacity="0.1"/>
<circle cx="763.281" cy="123.711" r="5.13301" fill="white" fill-opacity="0.1"/>
<circle cx="763.281" cy="144.281" r="5.13301" fill="white" fill-opacity="0.1"/>
<circle cx="763.281" cy="164.86" r="5.13301" fill="white" fill-opacity="0.1"/>
<circle cx="763.281" cy="185.438" r="5.13301" fill="white" fill-opacity="0.1"/>
<circle cx="763.281" cy="206.008" r="5.13301" fill="white" fill-opacity="0.1"/>
<circle cx="783.86" cy="103.133" r="5.13301" fill="white" fill-opacity="0.1"/>
<circle cx="783.86" cy="123.711" r="5.13301" fill="white" fill-opacity="0.1"/>
<circle cx="783.86" cy="144.281" r="5.13301" fill="white" fill-opacity="0.1"/>
<circle cx="783.86" cy="164.86" r="5.13301" fill="white" fill-opacity="0.1"/>
<circle cx="783.86" cy="185.438" r="5.13301" fill="white" fill-opacity="0.1"/>
<circle cx="783.86" cy="206.008" r="5.13301" fill="white" fill-opacity="0.1"/>
<circle cx="804.438" cy="103.133" r="5.13301" fill="white" fill-opacity="0.1"/>
<circle cx="804.438" cy="123.711" r="5.13301" fill="white" fill-opacity="0.1"/>
<circle cx="804.438" cy="144.281" r="5.13301" fill="white" fill-opacity="0.1"/>
<circle cx="804.438" cy="164.86" r="5.13301" fill="white" fill-opacity="0.1"/>
<circle cx="804.438" cy="185.438" r="5.13301" fill="white" fill-opacity="0.1"/>
<circle cx="804.438" cy="206.008" r="5.13301" fill="white" fill-opacity="0.1"/>
<path opacity="0.1" d="M400 1036L162.553 825.714L162.553 1036L400 1036Z" fill="#5BC17F" fill-opacity="0.67"/>
<rect opacity="0.2" width="224.516" height="259.365" transform="matrix(-5.04963e-08 -1 -1 3.78381e-08 259.367 909.516)" fill="#5BC17F" fill-opacity="0.52"/>
<ellipse cx="1565" cy="214.602" rx="56.6642" ry="70.1351" transform="rotate(90 1565 214.602)" fill="white" fill-opacity="0.1"/>
<ellipse cx="1707.47" cy="99.7298" rx="56.9798" ry="70.5257" transform="rotate(90 1707.47 99.7298)" fill="white" fill-opacity="0.1"/>
<path opacity="0.1" d="M1494.87 -14.2298C1494.87 -6.74714 1496.69 0.662296 1500.24 7.57541C1503.78 14.4885 1508.97 20.7699 1515.52 26.061C1522.07 31.3521 1529.85 35.5492 1538.4 38.4127C1546.96 41.2762 1556.13 42.75 1565.39 42.75C1574.65 42.75 1583.83 41.2762 1592.38 38.4127C1600.94 35.5492 1608.71 31.352 1615.26 26.061C1621.81 20.7699 1627.01 14.4885 1630.55 7.57539C1634.09 0.662272 1635.92 -6.74716 1635.92 -14.2299L1565.39 -14.2298L1494.87 -14.2298Z" fill="white"/>
<path opacity="0.1" d="M1424 156.813C1433.3 156.813 1442.51 155.333 1451.1 152.458C1459.69 149.584 1467.49 145.37 1474.07 140.058C1480.64 134.747 1485.86 128.441 1489.42 121.501C1492.97 114.56 1494.8 107.122 1494.8 99.6102C1494.8 92.0983 1492.97 84.66 1489.42 77.7199C1485.86 70.7798 1480.64 64.4739 1474.07 59.1621C1467.49 53.8504 1459.69 49.6369 1451.1 46.7623C1442.51 43.8876 1433.3 42.408 1424 42.408L1424 99.6103L1424 156.813Z" fill="white"/>
<rect opacity="0.2" x="1636.43" y="42.4453" width="114.366" height="141.556" transform="rotate(90 1636.43 42.4453)" fill="white"/>
<path d="M1777.98 156.812L1702.57 216.073L1636.43 271.179L1636.43 156.812L1777.98 156.812Z" fill="white" fill-opacity="0.15"/>
<path d="M1636.43 42.4453L1711.84 -16.8153L1777.98 -71.9209L1777.98 42.4453L1636.43 42.4453Z" fill="white" fill-opacity="0.15"/>
</svg>
