<svg width="209" height="256" viewBox="0 0 209 256" fill="none" xmlns="http://www.w3.org/2000/svg">
<circle cx="11.5752" cy="11.5752" r="11.5752" fill="white" fill-opacity="0.06"/>
<circle cx="11.5752" cy="57.9814" r="11.5752" fill="white" fill-opacity="0.06"/>
<circle cx="11.5752" cy="104.372" r="11.5752" fill="white" fill-opacity="0.06"/>
<circle cx="11.5752" cy="150.77" r="11.5752" fill="white" fill-opacity="0.06"/>
<circle cx="11.5752" cy="197.177" r="11.5752" fill="white" fill-opacity="0.06"/>
<circle cx="11.5752" cy="243.567" r="11.5752" fill="white" fill-opacity="0.06"/>
<circle cx="57.9814" cy="11.5752" r="11.5752" fill="white" fill-opacity="0.06"/>
<circle cx="57.9814" cy="57.9814" r="11.5752" fill="white" fill-opacity="0.06"/>
<circle cx="57.9814" cy="104.372" r="11.5752" fill="white" fill-opacity="0.06"/>
<circle cx="57.9814" cy="150.77" r="11.5752" fill="white" fill-opacity="0.06"/>
<circle cx="57.9814" cy="197.177" r="11.5752" fill="white" fill-opacity="0.06"/>
<circle cx="57.9814" cy="243.567" r="11.5752" fill="white" fill-opacity="0.06"/>
<circle cx="104.372" cy="11.5752" r="11.5752" fill="white" fill-opacity="0.06"/>
<circle cx="104.372" cy="57.9814" r="11.5752" fill="white" fill-opacity="0.06"/>
<circle cx="104.372" cy="104.372" r="11.5752" fill="white" fill-opacity="0.06"/>
<circle cx="104.372" cy="150.77" r="11.5752" fill="white" fill-opacity="0.06"/>
<circle cx="104.372" cy="197.177" r="11.5752" fill="white" fill-opacity="0.06"/>
<circle cx="104.372" cy="243.567" r="11.5752" fill="white" fill-opacity="0.06"/>
<circle cx="150.77" cy="11.5752" r="11.5752" fill="white" fill-opacity="0.06"/>
<circle cx="150.77" cy="57.9814" r="11.5752" fill="white" fill-opacity="0.06"/>
<circle cx="150.77" cy="104.372" r="11.5752" fill="white" fill-opacity="0.06"/>
<circle cx="150.77" cy="150.77" r="11.5752" fill="white" fill-opacity="0.06"/>
<circle cx="150.77" cy="197.177" r="11.5752" fill="white" fill-opacity="0.06"/>
<circle cx="150.77" cy="243.567" r="11.5752" fill="white" fill-opacity="0.06"/>
<circle cx="197.177" cy="11.5752" r="11.5752" fill="white" fill-opacity="0.06"/>
<circle cx="197.177" cy="57.9814" r="11.5752" fill="white" fill-opacity="0.06"/>
<circle cx="197.177" cy="104.372" r="11.5752" fill="white" fill-opacity="0.06"/>
<circle cx="197.177" cy="150.77" r="11.5752" fill="white" fill-opacity="0.06"/>
<circle cx="197.177" cy="197.177" r="11.5752" fill="white" fill-opacity="0.06"/>
<circle cx="197.177" cy="243.567" r="11.5752" fill="white" fill-opacity="0.06"/>
</svg>
