<svg width="1728" height="1215" viewBox="0 0 1728 1215" fill="none" xmlns="http://www.w3.org/2000/svg">
<path opacity="0.1" d="M253 1215L102.817 1074.83L102.817 1215L253 1215Z" fill="#5BC17F" fill-opacity="0.67"/>
<rect opacity="0.2" width="149.652" height="164.046" transform="matrix(-4.79156e-08 -1 -1 3.9876e-08 164.047 1130.69)" fill="#5BC17F" fill-opacity="0.52"/>
<ellipse cx="1565" cy="251.689" rx="66.4547" ry="70.1351" transform="rotate(90 1565 251.689)" fill="white" fill-opacity="0.1"/>
<ellipse cx="1707.47" cy="116.965" rx="66.8248" ry="70.5257" transform="rotate(90 1707.47 116.965)" fill="white" fill-opacity="0.1"/>
<path opacity="0.1" d="M1494.87 -16.6842C1494.87 -7.90862 1496.69 0.781006 1500.24 8.88856C1503.78 16.9961 1508.97 24.3628 1515.52 30.5681C1522.07 36.7734 1529.85 41.6956 1538.4 45.0539C1546.96 48.4122 1556.13 50.1406 1565.39 50.1406C1574.65 50.1406 1583.83 48.4121 1592.38 45.0539C1600.94 41.6956 1608.71 36.7733 1615.26 30.5681C1621.81 24.3628 1627.01 16.9961 1630.55 8.88854C1634.09 0.780981 1635.92 -7.90865 1635.92 -16.6842L1565.39 -16.6842L1494.87 -16.6842Z" fill="white"/>
<path opacity="0.1" d="M1424 183.914C1433.3 183.914 1442.51 182.179 1451.1 178.807C1459.69 175.436 1467.49 170.495 1474.07 164.265C1480.64 158.036 1485.86 150.64 1489.42 142.501C1492.97 134.362 1494.8 125.638 1494.8 116.828C1494.8 108.019 1492.97 99.295 1489.42 91.1558C1485.86 83.0166 1480.64 75.6211 1474.07 69.3917C1467.49 63.1622 1459.69 58.2207 1451.1 54.8493C1442.51 51.478 1433.3 49.7427 1424 49.7427L1424 116.828L1424 183.914Z" fill="white"/>
<rect opacity="0.2" x="1636.43" y="49.7812" width="134.126" height="141.556" transform="rotate(90 1636.43 49.7812)" fill="white"/>
<path d="M1777.98 183.914L1702.57 253.414L1636.43 318.04L1636.43 183.914L1777.98 183.914Z" fill="white" fill-opacity="0.15"/>
<path d="M1636.43 49.7812L1711.84 -19.7184L1777.98 -84.3451L1777.98 49.7813L1636.43 49.7812Z" fill="white" fill-opacity="0.15"/>
</svg>
