<svg width="620" height="992" viewBox="0 0 620 992" fill="none" xmlns="http://www.w3.org/2000/svg">
<rect x="-1" y="-5" width="580" height="1109" fill="#026451"/>
<circle cx="496.403" cy="895.403" r="6.4033" fill="white" fill-opacity="0.06"/>
<circle cx="496.403" cy="921.075" r="6.4033" fill="white" fill-opacity="0.06"/>
<circle cx="496.403" cy="946.739" r="6.4033" fill="white" fill-opacity="0.06"/>
<circle cx="496.403" cy="972.403" r="6.4033" fill="white" fill-opacity="0.06"/>
<circle cx="496.403" cy="998.075" r="6.4033" fill="white" fill-opacity="0.06"/>
<circle cx="522.075" cy="895.403" r="6.4033" fill="white" fill-opacity="0.06"/>
<circle cx="522.075" cy="921.075" r="6.4033" fill="white" fill-opacity="0.06"/>
<circle cx="522.075" cy="946.739" r="6.4033" fill="white" fill-opacity="0.06"/>
<circle cx="522.075" cy="972.403" r="6.4033" fill="white" fill-opacity="0.06"/>
<circle cx="522.075" cy="998.075" r="6.4033" fill="white" fill-opacity="0.06"/>
<circle cx="547.739" cy="895.403" r="6.4033" fill="white" fill-opacity="0.06"/>
<circle cx="547.739" cy="921.075" r="6.4033" fill="white" fill-opacity="0.06"/>
<circle cx="547.739" cy="946.739" r="6.4033" fill="white" fill-opacity="0.06"/>
<circle cx="547.739" cy="972.403" r="6.4033" fill="white" fill-opacity="0.06"/>
<circle cx="547.739" cy="998.075" r="6.4033" fill="white" fill-opacity="0.06"/>
<circle cx="573.403" cy="895.403" r="6.4033" fill="white" fill-opacity="0.06"/>
<circle cx="573.403" cy="921.075" r="6.4033" fill="white" fill-opacity="0.06"/>
<circle cx="573.403" cy="946.739" r="6.4033" fill="white" fill-opacity="0.06"/>
<circle cx="573.403" cy="972.403" r="6.4033" fill="white" fill-opacity="0.06"/>
<circle cx="573.403" cy="998.075" r="6.4033" fill="white" fill-opacity="0.06"/>
<circle cx="599.075" cy="895.403" r="6.4033" fill="white" fill-opacity="0.06"/>
<circle cx="599.075" cy="921.075" r="6.4033" fill="white" fill-opacity="0.06"/>
<circle cx="599.075" cy="946.739" r="6.4033" fill="white" fill-opacity="0.06"/>
<circle cx="599.075" cy="972.403" r="6.4033" fill="white" fill-opacity="0.06"/>
<circle cx="599.075" cy="998.075" r="6.4033" fill="white" fill-opacity="0.06"/>
<circle cx="11.5752" cy="512.575" r="11.5752" fill="white" fill-opacity="0.06"/>
<circle cx="11.5752" cy="558.981" r="11.5752" fill="white" fill-opacity="0.06"/>
<circle cx="11.5752" cy="605.372" r="11.5752" fill="white" fill-opacity="0.06"/>
<circle cx="11.5752" cy="651.77" r="11.5752" fill="white" fill-opacity="0.06"/>
<circle cx="11.5752" cy="698.177" r="11.5752" fill="white" fill-opacity="0.06"/>
<circle cx="11.5752" cy="744.567" r="11.5752" fill="white" fill-opacity="0.06"/>
<circle cx="57.9814" cy="512.575" r="11.5752" fill="white" fill-opacity="0.06"/>
<circle cx="57.9814" cy="558.981" r="11.5752" fill="white" fill-opacity="0.06"/>
<circle cx="57.9814" cy="605.372" r="11.5752" fill="white" fill-opacity="0.06"/>
<circle cx="57.9814" cy="651.77" r="11.5752" fill="white" fill-opacity="0.06"/>
<circle cx="57.9814" cy="698.177" r="11.5752" fill="white" fill-opacity="0.06"/>
<circle cx="57.9814" cy="744.567" r="11.5752" fill="white" fill-opacity="0.06"/>
<circle cx="104.372" cy="512.575" r="11.5752" fill="white" fill-opacity="0.06"/>
<circle cx="104.372" cy="558.981" r="11.5752" fill="white" fill-opacity="0.06"/>
<circle cx="104.372" cy="605.372" r="11.5752" fill="white" fill-opacity="0.06"/>
<circle cx="104.372" cy="651.77" r="11.5752" fill="white" fill-opacity="0.06"/>
<circle cx="104.372" cy="698.177" r="11.5752" fill="white" fill-opacity="0.06"/>
<circle cx="104.372" cy="744.567" r="11.5752" fill="white" fill-opacity="0.06"/>
<circle cx="150.77" cy="512.575" r="11.5752" fill="white" fill-opacity="0.06"/>
<circle cx="150.77" cy="558.981" r="11.5752" fill="white" fill-opacity="0.06"/>
<circle cx="150.77" cy="605.372" r="11.5752" fill="white" fill-opacity="0.06"/>
<circle cx="150.77" cy="651.77" r="11.5752" fill="white" fill-opacity="0.06"/>
<circle cx="150.77" cy="698.177" r="11.5752" fill="white" fill-opacity="0.06"/>
<circle cx="150.77" cy="744.567" r="11.5752" fill="white" fill-opacity="0.06"/>
<circle cx="197.177" cy="512.575" r="11.5752" fill="white" fill-opacity="0.06"/>
<circle cx="197.177" cy="558.981" r="11.5752" fill="white" fill-opacity="0.06"/>
<circle cx="197.177" cy="605.372" r="11.5752" fill="white" fill-opacity="0.06"/>
<circle cx="197.177" cy="651.77" r="11.5752" fill="white" fill-opacity="0.06"/>
<circle cx="197.177" cy="698.177" r="11.5752" fill="white" fill-opacity="0.06"/>
<circle cx="197.177" cy="744.567" r="11.5752" fill="white" fill-opacity="0.06"/>
<circle cx="532.133" cy="12.7111" r="5.13301" fill="white" fill-opacity="0.1"/>
<circle cx="532.133" cy="33.2814" r="5.13301" fill="white" fill-opacity="0.1"/>
<circle cx="532.133" cy="53.8596" r="5.13301" fill="white" fill-opacity="0.1"/>
<circle cx="532.133" cy="74.4377" r="5.13301" fill="white" fill-opacity="0.1"/>
<circle cx="532.133" cy="95.008" r="5.13301" fill="white" fill-opacity="0.1"/>
<circle cx="552.711" cy="12.7111" r="5.13301" fill="white" fill-opacity="0.1"/>
<circle cx="552.711" cy="33.2814" r="5.13301" fill="white" fill-opacity="0.1"/>
<circle cx="552.711" cy="53.8596" r="5.13301" fill="white" fill-opacity="0.1"/>
<circle cx="552.711" cy="74.4377" r="5.13301" fill="white" fill-opacity="0.1"/>
<circle cx="552.711" cy="95.008" r="5.13301" fill="white" fill-opacity="0.1"/>
<circle cx="573.281" cy="12.7111" r="5.13301" fill="white" fill-opacity="0.1"/>
<circle cx="573.281" cy="33.2814" r="5.13301" fill="white" fill-opacity="0.1"/>
<circle cx="573.281" cy="53.8596" r="5.13301" fill="white" fill-opacity="0.1"/>
<circle cx="573.281" cy="74.4377" r="5.13301" fill="white" fill-opacity="0.1"/>
<circle cx="573.281" cy="95.008" r="5.13301" fill="white" fill-opacity="0.1"/>
<circle cx="593.86" cy="12.7111" r="5.13301" fill="white" fill-opacity="0.1"/>
<circle cx="593.86" cy="33.2814" r="5.13301" fill="white" fill-opacity="0.1"/>
<circle cx="593.86" cy="53.8596" r="5.13301" fill="white" fill-opacity="0.1"/>
<circle cx="593.86" cy="74.4377" r="5.13301" fill="white" fill-opacity="0.1"/>
<circle cx="593.86" cy="95.008" r="5.13301" fill="white" fill-opacity="0.1"/>
<circle cx="614.438" cy="12.7111" r="5.13301" fill="white" fill-opacity="0.1"/>
<circle cx="614.438" cy="33.2814" r="5.13301" fill="white" fill-opacity="0.1"/>
<circle cx="614.438" cy="53.8596" r="5.13301" fill="white" fill-opacity="0.1"/>
<circle cx="614.438" cy="74.4377" r="5.13301" fill="white" fill-opacity="0.1"/>
<circle cx="614.438" cy="95.008" r="5.13301" fill="white" fill-opacity="0.1"/>
</svg>
